<?xml version="1.0" encoding="UTF-8"?>
<svg id="Layer_1" data-name="Layer 1" xmlns="http://www.w3.org/2000/svg" viewBox="0 0 256 256">
  <defs>
    <style>
      .cls-1 {
        fill: #01A753;
      }
    </style>
  </defs>
  <path id="details" class="cls-1" d="m128,243c-63.41,0-115-51.59-115-115S64.59,13,128,13s115,51.59,115,115-51.59,115-115,115Zm0-221.25c-58.59,0-106.25,47.66-106.25,106.25s47.66,106.25,106.25,106.25,106.25-47.66,106.25-106.25S186.59,21.75,128,21.75Zm0,157.09c-4.04,0-7.33-3.29-7.33-7.32s3.29-7.33,7.33-7.33,7.33,3.29,7.33,7.33-3.29,7.32-7.33,7.32Zm0-31.71c-2.41,0-4.38-1.96-4.38-4.38v-14.75c0-2.41,1.96-4.38,4.38-4.38,9.79,0,17.75-7.96,17.75-17.75s-7.96-17.75-17.75-17.75-17.75,7.96-17.75,17.75c0,2.41-1.96,4.38-4.38,4.38s-4.38-1.96-4.38-4.38c0-14.61,11.89-26.5,26.5-26.5s26.5,11.89,26.5,26.5c0,12.1-8.17,22.65-19.87,25.66l-2.25,2.9v8.31c0,2.41-1.97,4.38-4.38,4.38Z"/>
</svg>
