<?xml version="1.0" encoding="UTF-8"?>
<svg id="Layer_1" data-name="Layer 1" xmlns="http://www.w3.org/2000/svg" viewBox="0 0 256 256">
  <defs>
    <style>
      .cls-1 {
        fill: #010101;
      }
    </style>
  </defs>
  <g id="s-virus">
    <path class="cls-1" d="m113.15,243.5c-1.9,0-3.44-1.54-3.44-3.44s1.54-3.44,3.44-3.44h8.91l2.5-2.5v-29.22l-2.32-2.49c-15.7-1.13-30.92-7.42-42.85-17.69l-3.4.13-20.67,20.67v3.54l6.46,6.46c.59.62.91,1.44.88,2.31-.02.86-.38,1.67-1,2.26l-.11.11c-.58.62-1.4.98-2.25.98-.95,0-1.81-.37-2.42-1.01l-21.07-20.89c-1.29-1.35-1.29-3.53.04-4.93.64-.63,1.5-.99,2.41-.99s1.79.36,2.44,1.02l6.17,6.29,3.55.02,20.67-20.67.13-3.4c-10.27-11.93-16.55-27.15-17.69-42.85l-2.49-2.32h-29.22l-2.5,2.5v8.91c0,1.9-1.54,3.44-3.44,3.44s-3.44-1.54-3.44-3.44v-29.69c.03-1.88,1.56-3.41,3.48-3.44,1.86,0,3.4,1.54,3.4,3.44v8.91l2.5,2.5h29.22l2.49-2.31c1.17-15.7,7.5-30.89,17.81-42.79l-.13-3.41-20.79-20.67-3.55.02-6.18,6.29c-.66.66-1.55,1.03-2.49,1.03-.88-.01-1.73-.38-2.37-1.03-1.32-1.38-1.32-3.56.02-4.95l20.99-20.98c.63-.62,1.48-.97,2.39-.97s1.76.35,2.41.98c.66.66,1.01,1.53,1.01,2.44s-.37,1.78-1.02,2.43l-6.3,6.3v3.54l20.67,20.67,3.41.12c11.9-10.35,27.11-16.67,42.84-17.8l2.32-2.49v-29.1l-2.5-2.5h-8.91c-1.9,0-3.44-1.54-3.44-3.44s1.54-3.44,3.44-3.44h29.69c1.9,0,3.44,1.54,3.44,3.44s-1.54,3.44-3.44,3.44h-8.91l-2.5,2.5v29.1l2.32,2.49c15.73,1.13,30.94,7.45,42.84,17.8l3.41-.12,20.67-20.67v-3.54l-6.29-6.29c-.67-.68-1.03-1.54-1.02-2.46s.37-1.78,1.02-2.43c.64-.62,1.49-.97,2.4-.97s1.76.35,2.41.98l21.01,21c1.3,1.36,1.3,3.54-.04,4.94-.62.63-1.47,1-2.39,1.01-.9,0-1.81-.38-2.47-1.04l-6.17-6.28-3.55-.02-20.79,20.67-.13,3.41c10.3,11.88,16.62,27.06,17.81,42.73l2.49,2.31h29.22l2.5-2.5v-8.91c0-1.9,1.54-3.44,3.44-3.44,1.88.03,3.41,1.56,3.44,3.48v29.65c0,1.9-1.54,3.44-3.44,3.44s-3.44-1.54-3.44-3.44v-8.91l-2.5-2.5h-29.22l-2.49,2.32c-1.14,15.7-7.43,30.92-17.69,42.85l.13,3.4,20.67,20.67,3.55-.02,6.18-6.29c.66-.65,1.52-1.01,2.43-1.01s1.79.36,2.44,1.02c1.31,1.36,1.31,3.55-.03,4.94l-20.98,20.86c-.66.69-1.51,1.05-2.4,1.05h0c-.92,0-1.74-.36-2.32-.98l-.23-.23c-1.23-1.29-1.18-3.35.12-4.58l6.34-6.34v-3.54l-20.67-20.67-3.4-.13c-11.93,10.27-27.15,16.56-42.85,17.69l-2.32,2.49v29.22l2.5,2.5h8.91c1.9,0,3.44,1.54,3.44,3.44s-1.54,3.44-3.44,3.44h-29.69Zm14.85-183.36c-18.12,0-35.16,7.06-47.97,19.88-26.44,26.45-26.43,69.48.02,95.92,12.81,12.8,29.84,19.85,47.95,19.85s35.16-7.06,47.97-19.88c12.67-12.58,19.91-30.05,19.85-47.92,0-18.13-7.05-35.18-19.88-48-12.81-12.8-29.84-19.85-47.95-19.85Z"/>
  </g>
</svg>