<?xml version="1.0" encoding="UTF-8"?>
<svg id="Layer_1" data-name="Layer 1" xmlns="http://www.w3.org/2000/svg" viewBox="0 0 256 256">
  <defs>
    <style>
      .cls-1 {
        fill: #010101;
      }
    </style>
  </defs>
  <path class="cls-1" d="m62.76,137.94c1,0,1.99-.41,2.7-1.12.71-.71,1.12-1.69,1.12-2.7s-.41-1.99-1.12-2.7c-.71-.71-1.7-1.12-2.7-1.12s-1.99.41-2.7,1.12c-.71.71-1.12,1.7-1.12,2.7s.41,1.99,1.12,2.7c.71.71,1.7,1.12,2.7,1.12Z"/>
  <path class="cls-1" d="m50.52,154.25c1,0,1.99-.41,2.7-1.12.71-.71,1.12-1.7,1.12-2.7s-.41-1.99-1.12-2.7c-.71-.71-1.7-1.12-2.7-1.12s-1.99.41-2.7,1.12c-.71.71-1.12,1.7-1.12,2.7s.41,1.99,1.12,2.7c.71.71,1.7,1.12,2.7,1.12Z"/>
  <path class="cls-1" d="m201.4,137.94c1,0,1.99-.41,2.7-1.12.71-.71,1.12-1.7,1.12-2.7s-.41-1.99-1.12-2.7c-.71-.71-1.7-1.12-2.7-1.12s-1.99.41-2.7,1.12c-.71.71-1.12,1.7-1.12,2.7s.41,1.99,1.12,2.7c.71.71,1.7,1.12,2.7,1.12Z"/>
  <path class="cls-1" d="m193.24,125.71c1,0,1.99-.41,2.7-1.12.71-.71,1.12-1.7,1.12-2.7s-.41-1.99-1.12-2.7c-.71-.71-1.7-1.12-2.7-1.12s-1.99.41-2.7,1.12c-.71.71-1.12,1.7-1.12,2.7s.41,1.99,1.12,2.7c.71.71,1.7,1.12,2.7,1.12Z"/>
  <path class="cls-1" d="m193.24,158.33c1,0,1.99-.41,2.7-1.12.71-.71,1.12-1.7,1.12-2.7s-.41-1.99-1.12-2.7c-.71-.71-1.7-1.12-2.7-1.12s-1.99.41-2.7,1.12c-.71.71-1.12,1.7-1.12,2.7s.41,1.99,1.12,2.7c.71.71,1.7,1.12,2.7,1.12Z"/>
  <path class="cls-1" d="m201.4,174.64c1,0,1.99-.41,2.7-1.12.71-.71,1.12-1.7,1.12-2.7s-.41-1.99-1.12-2.7c-.71-.71-1.7-1.12-2.7-1.12s-1.99.41-2.7,1.12c-.71.71-1.12,1.7-1.12,2.7s.41,1.99,1.12,2.7c.71.71,1.7,1.12,2.7,1.12Z"/>
  <path class="cls-1" d="m132.08,150.17c1,0,1.99-.41,2.7-1.12.71-.71,1.12-1.69,1.12-2.7s-.41-1.99-1.12-2.7c-.71-.71-1.7-1.12-2.7-1.12s-1.99.41-2.7,1.12c-.71.71-1.12,1.7-1.12,2.7s.41,1.99,1.12,2.7c.71.71,1.7,1.12,2.7,1.12Z"/>
  <path class="cls-1" d="m128,170.56c1,0,1.99-.41,2.7-1.12.71-.71,1.12-1.7,1.12-2.7s-.41-1.99-1.12-2.7c-.71-.71-1.7-1.12-2.7-1.12s-1.99.41-2.7,1.12c-.71.71-1.12,1.69-1.12,2.7s.41,1.99,1.12,2.7c.71.71,1.7,1.12,2.7,1.12Z"/>
  <path class="cls-1" d="m62.76,170.56c1,0,1.99-.41,2.7-1.12.71-.71,1.12-1.7,1.12-2.7s-.41-1.99-1.12-2.7c-.71-.71-1.7-1.12-2.7-1.12s-1.99.41-2.7,1.12c-.71.71-1.12,1.69-1.12,2.7s.41,1.99,1.12,2.7c.71.71,1.7,1.12,2.7,1.12Z"/>
  <path class="cls-1" d="m229.94,101.75h-8.41V36.25c0-2.39,1.94-4.33,4.33-4.33,2.11,0,3.82-1.71,3.82-3.82s-1.71-3.82-3.82-3.82h-57.09c-2.11,0-3.82,1.71-3.82,3.82s1.71,3.82,3.82,3.82c2.39,0,4.33,1.94,4.33,4.33v65.5h-20.9V36.25c0-2.39,1.94-4.33,4.33-4.33,2.11,0,3.82-1.71,3.82-3.82s-1.71-3.82-3.82-3.82h-57.09c-2.11,0-3.82,1.71-3.82,3.82s1.71,3.82,3.82,3.82c2.39,0,4.33,1.94,4.33,4.33v65.5h-20.9V36.25c0-2.39,1.94-4.33,4.33-4.33,2.11,0,3.82-1.71,3.82-3.82s-1.71-3.82-3.82-3.82H30.13c-2.11,0-3.82,1.71-3.82,3.82s1.71,3.82,3.82,3.82c2.39,0,4.33,1.94,4.33,4.33v65.5h-8.41c-8.85,0-16.06,7.2-16.06,16.06v89.71c0,8.85,7.2,16.06,16.06,16.06h.25v4.33c0,2.11,1.71,3.82,3.82,3.82s3.82-1.71,3.82-3.82v-4.33h188.09v4.33c0,2.11,1.71,3.82,3.82,3.82s3.82-1.71,3.82-3.82v-4.33h.25c8.85,0,16.06-7.2,16.06-16.06v-89.71c0-8.85-7.2-16.06-16.06-16.06Zm-15.24-69.83c-.52,1.34-.81,2.8-.81,4.33v52.36c-.33-.18-.65-.37-1.01-.59-1.92-1.15-4.31-2.58-8.77-2.58s-6.85,1.43-8.77,2.58c-1.5.9-2.49,1.49-4.83,1.49s-3.32-.59-4.82-1.49c-1.28-.77-2.77-1.66-4.93-2.17v-49.6c0-1.53-.29-2.99-.81-4.33h34.76Zm-33.95,62.08c.32.17.64.37,1,.58,1.92,1.15,4.3,2.58,8.76,2.58s6.85-1.43,8.77-2.58c1.5-.9,2.49-1.49,4.83-1.49s3.33.59,4.83,1.49c1.28.77,2.77,1.66,4.94,2.17v5h-33.13v-7.75Zm0,15.4h33.13v69.58c0,9.13-7.43,16.57-16.57,16.57s-16.57-7.43-16.57-16.57v-69.58ZM110.62,31.92h34.76c-.52,1.34-.81,2.8-.81,4.33v65.5h-33.13V36.25c0-1.53-.29-2.99-.81-4.33Zm.81,98.78c.32.17.64.37,1,.58,1.92,1.15,4.3,2.58,8.76,2.58s6.85-1.43,8.77-2.58c1.5-.9,2.49-1.49,4.83-1.49s3.33.59,4.83,1.49c1.28.77,2.77,1.66,4.94,2.17v45.53c0,9.13-7.43,16.57-16.57,16.57s-16.57-7.43-16.57-16.57v-48.27Zm33.13-5.39c-.33-.18-.65-.37-1.01-.59-1.92-1.15-4.31-2.58-8.77-2.58s-6.85,1.43-8.77,2.58c-1.5.9-2.49,1.49-4.83,1.49s-3.32-.59-4.82-1.49c-1.28-.77-2.77-1.66-4.93-2.17v-13.16h33.13v15.91ZM41.3,31.92h34.76c-.52,1.34-.81,2.8-.81,4.33v65.5h-33.13V36.25c0-1.53-.29-2.99-.81-4.33Zm.81,90.62c.32.17.64.37,1,.58,1.92,1.15,4.3,2.58,8.76,2.58s6.85-1.43,8.77-2.58c1.5-.9,2.49-1.49,4.83-1.49s3.33.59,4.83,1.49c1.28.77,2.77,1.66,4.94,2.17v53.68c0,9.13-7.43,16.57-16.57,16.57s-16.57-7.43-16.57-16.57v-56.43Zm33.13-5.39c-.33-.18-.65-.37-1.01-.59-1.92-1.15-4.31-2.58-8.77-2.58s-6.85,1.43-8.77,2.58c-1.5.9-2.49,1.49-4.83,1.49s-3.32-.59-4.82-1.49c-1.28-.77-2.77-1.66-4.93-2.17v-5h33.13v7.76Zm163.11,90.36c0,4.64-3.77,8.41-8.41,8.41H26.06c-4.64,0-8.41-3.77-8.41-8.41v-89.71c0-4.64,3.77-8.41,8.41-8.41h8.41v69.58c0,13.35,10.86,24.21,24.21,24.21s24.21-10.86,24.21-24.21v-69.58h20.9v69.58c0,13.35,10.86,24.21,24.21,24.21s24.21-10.86,24.21-24.21v-69.58h20.9v69.58c0,13.35,10.86,24.21,24.21,24.21s24.21-10.86,24.21-24.21v-69.58h8.41c4.64,0,8.41,3.77,8.41,8.41v89.71Z"/>
</svg>