<?xml version="1.0" encoding="UTF-8"?>
<svg id="Layer_1" data-name="Layer 1" xmlns="http://www.w3.org/2000/svg" viewBox="0 0 256 256">
  <defs>
    <style>
      .cls-1 {
        fill: #010101;
      }
    </style>
  </defs>
  <g id="pills">
    <path class="cls-1" d="m227.61,103.32l-53.47-78.3c-5.17-7.58-13.02-12.69-22.09-14.4-9.07-1.72-18.24.2-25.82,5.37-7.58,5.18-12.69,13.02-14.4,22.09s.2,18.24,5.37,25.82l53.47,78.3c5.17,7.58,13.02,12.69,22.09,14.4,2.17.41,4.34.61,6.5.61,6.87,0,13.55-2.05,19.32-5.99,15.7-10.71,19.75-32.21,9.03-47.91Zm-107.31-63.64c1.28-6.81,5.12-12.7,10.79-16.57,4.31-2.95,9.33-4.48,14.48-4.48,1.62,0,3.26.15,4.89.46,6.81,1.28,12.7,5.12,16.57,10.79l21.87,32.03-42.71,29.16-21.87-32.03c-3.87-5.67-5.3-12.55-4.02-19.36Zm93.42,104.44c-5.68,3.87-12.56,5.3-19.36,4.02-6.81-1.28-12.7-5.12-16.57-10.79l-26.73-39.15,42.71-29.16,26.73,39.15c8.04,11.77,5,27.89-6.77,35.93Z"/>
    <path class="cls-1" d="m190.25,177.28l-58.74-6.99,13.11-15.36c12.34-14.46,10.62-36.27-3.84-48.61-6.98-5.96-15.89-8.83-25.1-8.11-9.21.73-17.55,4.97-23.51,11.95l-61.56,72.12c-5.96,6.98-8.84,15.89-8.11,25.1.73,9.21,4.97,17.55,11.95,23.51,6.27,5.35,14.1,8.22,22.3,8.22.93,0,1.86-.04,2.79-.11,6.87-.54,13.25-3.04,18.53-7.18,3.14,1.4,6.44,2.33,9.86,2.73l94.15,11.21c1.38.16,2.75.25,4.1.25,17.2,0,32.13-12.91,34.21-30.41,2.25-18.88-11.28-36.07-30.16-38.31Zm-91.51-61.53c4.46-5.23,10.72-8.41,17.64-8.96.7-.06,1.4-.09,2.1-.09,6.15,0,12.02,2.15,16.72,6.16,10.85,9.26,12.14,25.61,2.88,36.46l-25.18,29.5-39.34-33.58,25.19-29.5Zm-58.68,108.57c-10.85-9.26-12.14-25.61-2.88-36.45l30.78-36.06,39.34,33.58-30.78,36.06h0c-.64.75-1.31,1.44-2.01,2.09l-.03.03c-9.48,8.84-24.32,9.35-34.4.75Zm44.66.79l40.07-46.94,17.37,2.07-6.11,51.36-47.08-5.61c-1.44-.17-2.86-.46-4.25-.87Zm127.13-10.53c-1.69,14.16-14.55,24.32-28.73,22.62l-38.51-4.59,6.11-51.36,38.52,4.59c6.83.81,12.95,4.26,17.23,9.7,4.29,5.44,6.2,12.21,5.38,19.03Z"/>
  </g>
</svg>