<?xml version="1.0" encoding="UTF-8"?>
<svg id="Layer_1" data-name="Layer 1" xmlns="http://www.w3.org/2000/svg" viewBox="0 0 256 256">
  <defs>
    <style>
      .cls-1 {
        fill: #010101;
      }
    </style>
  </defs>
  <g id="surgery">
    <path class="cls-1" d="m246,34.74c0-4.95-1.93-9.6-5.43-13.1-7.22-7.23-18.97-7.22-26.2,0L82,154.02c-2.02,2.02-2.88,4.86-2.5,7.64L11.16,230c-.95.95-1.36,2.32-1.08,3.63.28,1.32,1.21,2.4,2.46,2.88.65.25,8.69,3.25,19.56,3.25s24.29-2.95,36.13-14.44l28.29-28.3c.94-.94,1.35-2.28,1.08-3.59l-2.15-10.78,9.16-9.16,1.41.33c.97.23,1.95.33,2.92.33,3.37,0,6.62-1.32,9.08-3.78l107.23-107.23s0,0,0,0l15.32-15.32c3.5-3.5,5.43-8.15,5.43-13.1Zm-37.85,34.3l-9.35-20.57,9.43-9.44,9.35,20.57-9.43,9.44Zm-15.44,15.44l-9.35-20.57,9.43-9.43,9.35,20.57-9.43,9.43Zm-97.22,86.93l-7.15,7.15c-.94.94-1.35,2.28-1.08,3.59l2.15,10.78-26.74,26.75c-14.38,13.96-31.9,12.96-41.04,11.12l62.4-62.4s.05.02.08.03c.71.39,1.49.69,2.3.88l9.1,2.1Zm16.92-6.63c-1.21,1.21-2.92,1.71-4.6,1.32l-19.63-4.53c-.21-.05-.33-.15-.45-.25-.09-.08-.18-.15-.26-.29-.04-.08-.11-.17-.14-.25-.08-.29-.1-.73.29-1.13l89.74-89.74,9.35,20.57-74.3,74.3Zm122.55-122.55l-11.38,11.38-9.35-20.57,5.77-5.77c2.07-2.06,4.77-3.09,7.48-3.09s5.41,1.03,7.48,3.09c2,2,3.1,4.66,3.1,7.48s-1.1,5.49-3.1,7.48Z"/>
    <path class="cls-1" d="m60.68,200.1l-7.94,7.94c-1.55,1.55-1.55,4.06,0,5.62.77.77,1.79,1.16,2.81,1.16s2.03-.39,2.81-1.16l7.94-7.94c1.55-1.55,1.55-4.06,0-5.62-1.55-1.55-4.06-1.55-5.62,0Z"/>
    <path class="cls-1" d="m44.77,215.98c-.71.75-1.15,1.79-1.15,2.82s.44,2.07,1.15,2.82c.75.71,1.79,1.15,2.82,1.15s2.07-.44,2.82-1.15c.75-.75,1.15-1.79,1.15-2.82s-.4-2.07-1.15-2.82c-1.47-1.47-4.13-1.47-5.64,0Z"/>
  </g>
</svg>