<svg id="Layer_1" data-name="Layer 1" xmlns="http://www.w3.org/2000/svg" viewBox="0 0 256 256" fill="green" stroke="green"  >
  <path class="cls-1" d="m178.66,15.83c-18.98-7.4-34.74-7.76-46.84-1.05-18.79,10.42-23.47,35.41-25.22,44.82-2.19,11.72-10.32,33.27-40.24,46.1-10.06,4.31-41.12,22.92-18.35,81.49l1.03,2.59c4.79,11.91,9.73,24.26-7.61,47.76-1.34,1.82-.96,4.38.86,5.72,1.81,1.34,4.39.96,5.72-.85,20.06-27.19,13.73-42.99,8.62-55.69l-1-2.53c-19.56-50.31,3.24-66.39,13.95-70.97,33.42-14.33,42.57-38.81,45.05-52.12,2.67-14.24,7.48-31.57,21.15-39.16,9.87-5.47,23.28-4.96,39.89,1.52,35.5,13.85,41.89,51.42,18.97,111.69-8.83,23.21-38.37,68.46-69.76,72.99-5.17.75-11.25.29-17.72-.18-12.89-.99-26.24-2-35.61,6.31-6.35,5.64-9.71,14.61-10.28,27.47-.1,2.25,1.66,4.17,3.91,4.26h.18c2.19,0,3.99-1.71,4.09-3.91.46-10.54,2.92-17.64,7.52-21.69,6.78-6.03,18.37-5.16,29.56-4.29,6.62.5,13.46,1.02,19.51.15,36.81-5.33,67.77-55.93,76.25-78.21,30.95-81.34,4.22-111.36-23.63-122.22Z"/>
  <path class="cls-1" d="m86.32,133.22c-10.16,2.08-14.52,8.84-14.99,9.6-8.22,13.55-6.42,25.82-3.46,33.74,4.81,12.87,15.18,21.34,22.75,23.76,5.59,1.79,10.78,2.67,15.56,2.67,6.8,0,12.77-1.8,17.84-5.37,11.55-8.14,14.92-23.22,15.89-30.54l1.17.02c35.02,0,45.62-33.93,49.73-47.06,7.15-22.88,7.27-40.47.34-52.31-5.65-9.65-14.06-11.75-14.24-11.75h0c-7.76-3-14.44-2.81-19.85.6l-.51.34c-.38-4.19-1.38-7.79-2.97-10.57-1.89-3.28-4.65-5.49-7.98-6.34l-2.08-.42c-9.02-1.21-13.36,5.77-14.42,9.63v2.11c2.17,8.34-1.29,15.9-3.67,19.07-10.67,14.17-9.53,27.82-6.7,36.75-7.95-3.63-16.07-5.22-21.12.14-3.05,3.24-4.47,7.32-4.11,11.77.39,4.91,2.9,9.92,6.11,14.46-4.68-1.05-9.1-1.15-13.28-.3Zm34.98,10.85c-5.22-4.01-18.92-16.46-19.64-25.68-.17-2.19.43-3.93,1.9-5.5,1.91-2.01,8.8-1.04,22.54,7.76l1.4.56c4.46,3.57,9.42,5.17,14.66,4.77,15.68-1.19,28.27-20.39,28.8-21.21,1.22-1.89.68-4.43-1.21-5.65-1.88-1.21-4.41-.7-5.65,1.2-3,4.62-12.91,16.77-22.56,17.5-4.26.3-8.04-1.54-11.47-5.37-.52-.73-12.5-17.97,1.91-37.14,3.9-5.17,7.51-14.63,5.36-24.77.6-1.33,2.07-3.29,5.12-2.85l1.06.2c.77.2,1.9.68,2.97,2.53,2.22,3.83,2.66,10.88,1.37,19.04-1.53,4.52-1.82,8.34-1.85,8.65-.15,2.1,1.31,3.97,3.38,4.33,2.18.38,4.09-.92,4.65-2.95.76-2.77,1.36-5.47,1.8-8.09,1.09-2.99,2.83-6.15,5.62-7.92,3.09-1.94,7.29-1.92,13.09.3.23.06,5.8,1.44,9.71,8.3,3.83,6.73,6.72,20.08-1.22,45.5-6.41,20.52-17.5,43.64-46.41,41.11-1.07-.06-2.22.26-3.07,1.01s-1.34,1.81-1.39,2.93c0,.19-.86,19.91-12.84,28.32-6.45,4.54-15.24,5.05-26.16,1.56-5.8-1.85-13.94-9.08-17.58-18.84-2.33-6.21-3.73-15.87,2.79-26.61.02-.05,2.87-4.45,9.63-5.82,1.29-.25,2.64-.41,4.04-.41,7.07,0,15.42,3.34,24.41,9.8,1.84,1.31,4.33.91,5.68-.87,1.29-1.8.94-4.32-.83-5.69Z"/>
</svg>
