<?xml version="1.0" encoding="UTF-8"?>
<svg id="Layer_1" data-name="Layer 1" xmlns="http://www.w3.org/2000/svg" viewBox="0 0 256 256">
  <defs>
    <style>
      .cls-1 {
        fill: #010101;
      }
    </style>
  </defs>
  <path id="pregnant" class="cls-1" d="m247.17,130.4c0-61.39-47.13-111.95-107.1-117.48v-.03s-3.01-.2-3.01-.2c-.03,0-.06,0-.09,0-1.07-.07-2.14-.13-3.22-.17-1.61-.07-3.14-.12-4.59-.12-1.91,0-3.82.06-5.72.15-.59.03-1.16.08-1.74.11-1.32.08-2.64.17-3.95.3-.66.06-1.31.14-1.96.22-1.24.14-2.47.29-3.71.47-.65.09-1.3.2-1.95.3-1.24.2-2.47.42-3.7.66-.61.12-1.22.24-1.83.37-1.28.27-2.56.57-3.84.89-.53.13-1.06.26-1.59.39-1.42.37-2.83.78-4.24,1.21-.36.11-.72.21-1.08.32-1.92.6-3.84,1.24-5.73,1.94l-1.47.55-.04.07C42.54,37.46,11.17,80.32,11.17,130.4s30.58,91.85,73.8,109.38l.02.05,1.62.63c.29.11.59.2.88.31.98.37,1.97.72,2.97,1.07.75.26,1.5.52,2.25.76,1.02.33,2.05.65,3.08.95.77.23,1.55.45,2.33.66,1,.27,2,.53,3.01.78.85.21,1.7.4,2.56.59.95.21,1.9.42,2.86.6.95.18,1.9.35,2.86.51.89.15,1.77.3,2.66.43,1.06.15,2.13.28,3.2.41.81.09,1.61.2,2.42.28,1.24.12,2.48.2,3.73.28.66.04,1.31.1,1.97.14,1.93.1,3.85.15,5.79.15s3.81-.06,5.7-.15c.56-.03,1.12-.07,1.68-.11,1.34-.08,2.68-.18,4.02-.31.61-.06,1.22-.13,1.83-.2,1.3-.15,2.6-.31,3.9-.5.57-.08,1.13-.17,1.7-.26,1.36-.22,2.72-.46,4.08-.73.47-.09.94-.18,1.4-.28,1.52-.32,3.02-.67,4.53-1.05.29-.07.57-.14.86-.21,3.69-.96,7.35-2.08,10.95-3.4l2.54-.93v-.1c43.75-17.28,74.81-59.96,74.81-109.78Zm-87.42-31.47c-1.75.61-2.87,2.27-2.79,4.11l.28,3.06,2.8.74c1.58.42,7.24,2.06,13.73,5.82,13.47,7.8,22.11,21.33,23.71,37.12,1.6,15.85-4.18,30.9-15.87,41.29-3.1,2.75-11.28,6.41-18.89,9.17-3.74-5.22-8.83-10.18-15.84-14.24-1.89-1.09-4.29-.45-5.37,1.43-1.09,1.88-.44,4.29,1.43,5.37,6.25,3.62,10.73,8.1,13.94,12.79l-.19,1.09,1.52,1.55c.16.16.59.65,1.17,1.56,1.05,2.01,1.94,4.02,2.62,5.99,1.28,4.1,2.42,10.15,2.53,18.89-.41.14-.81.28-1.22.41-2.38.77-4.77,1.49-7.19,2.1-.53.13-1.07.24-1.6.37-2.61.61-5.23,1.16-7.87,1.58-.1.02-.2.04-.3.05-2.9.45-5.83.77-8.76,1-.26.02-.53.04-.79.06-2.98.2-5.97.3-8.96.26-.03,0-.05,0-.08,0-6.16-.08-12.31-.68-18.38-1.78-.11-.02-.21-.04-.31-.06-2.95-.54-5.88-1.21-8.78-2-.19-.05-.38-.11-.57-.16-2.9-.8-5.77-1.71-8.6-2.75-4.28-12.53-9.55-43.77,10.06-62.17,6.64-6.23,7.87-16.58,2.93-24.61-34.67-56.42-20.43-101.99-11.76-120.34,1.13-.41,2.27-.79,3.42-1.16.29-.09.57-.19.87-.28,1.49-.46,2.99-.88,4.5-1.28.22-.06.44-.13.65-.18,8.67-2.23,17.76-3.42,27.11-3.44,1.31,0,2.61.04,3.92.09.29,0,.58,0,.87.02,2.78,10.07,13.87,39.5,49.44,46.36-2.15,8.24-8.59,27.16-23.38,32.19Zm-140.71,31.47c0-43.85,25.77-81.79,62.95-99.49-8.77,22.97-17.15,67.19,15.41,120.18,2.99,4.87,2.31,11.07-1.62,14.76-21.11,19.81-17.33,49.64-13.87,64.02-37.15-17.72-62.88-55.64-62.88-99.46Zm153.58,101.18c-.06-4.14-.63-10.19-2.71-16.83-.05-.17-.1-.32-.15-.48-.12-.38-.23-.74-.36-1.12-.79-2.47-1.65-4.5-2.49-6.07,6.1-2.29,15.51-6.21,19.92-10.13,13.6-12.08,20.33-29.57,18.47-47.96-1.86-18.33-11.91-34.05-27.59-43.13-2.58-1.5-5.05-2.7-7.25-3.65,16.59-11.67,21.1-36.79,21.31-38l.69-4.02-4.04-.55c-31.38-4.23-42.7-27.68-46.31-38.58,54.65,6.42,97.2,52.99,97.2,109.35,0,45.3-27.51,84.3-66.69,101.18Z"/>
</svg>