<?xml version="1.0" encoding="UTF-8"?>
<svg id="Layer_1" data-name="Layer 1" xmlns="http://www.w3.org/2000/svg" viewBox="0 0 256 256">
  <defs>
    <style>
      .cls-1 {
        fill: #010101;
      }
    </style>
  </defs>
  <g id="building">
    <g>
      <path class="cls-1" d="m53.5,131.6h-15.73c-2.18,0-3.93,1.76-3.93,3.93v7.87c0,2.18,1.76,3.93,3.93,3.93s3.93-1.76,3.93-3.93v-3.93h7.87v19.67c0,2.18,1.76,3.93,3.93,3.93s3.93-1.76,3.93-3.93v-23.6c0-2.17-1.76-3.93-3.93-3.93Z"/>
      <path class="cls-1" d="m29.9,155.2c-19.44,0-19.67,50.62-19.67,51.13,0,9.5,6.77,17.44,15.73,19.27v20.06c0,2.18,1.76,3.93,3.93,3.93s3.93-1.76,3.93-3.93v-20.06c8.96-1.83,15.73-9.77,15.73-19.27,0-.51-.23-51.13-19.67-51.13Zm0,62.93c-6.51,0-11.8-5.29-11.8-11.8,0-19.6,5.26-43.27,11.8-43.27s11.8,23.67,11.8,43.27c0,6.51-5.29,11.8-11.8,11.8Z"/>
      <path class="cls-1" d="m234.43,226c-.68,0-1.36.06-2.02.18-2.71-4.89-7.88-8.04-13.71-8.04s-11,3.16-13.71,8.04c-.66-.12-1.34-.18-2.02-.18-6.51,0-11.8,5.29-11.8,11.8s5.29,11.8,11.8,11.8h31.47c6.51,0,11.8-5.29,11.8-11.8s-5.29-11.8-11.8-11.8Zm0,15.73h-31.47c-2.17,0-3.93-1.76-3.93-3.93s1.76-3.93,3.93-3.93c.75,0,1.47.22,2.13.64,1.07.7,2.42.82,3.61.34,1.19-.48,2.06-1.51,2.36-2.76.83-3.59,3.96-6.09,7.63-6.09s6.8,2.51,7.63,6.09c.3,1.25,1.17,2.27,2.36,2.76,1.19.48,2.53.35,3.61-.34,2.56-1.65,6.07.37,6.07,3.29,0,2.17-1.76,3.93-3.93,3.93Z"/>
      <path class="cls-1" d="m53.5,84.4h-15.73c-2.18,0-3.93,1.76-3.93,3.93v23.6c0,2.18,1.76,3.93,3.93,3.93h15.73c2.18,0,3.93-1.76,3.93-3.93v-23.6c0-2.17-1.76-3.93-3.93-3.93Zm-3.93,23.6h-7.87v-15.73h7.87v15.73h0Z"/>
      <path class="cls-1" d="m179.37,68.66c-2.18,0-3.93,1.76-3.93,3.93v149.47c0,2.18,1.76,3.93,3.93,3.93s3.93-1.76,3.93-3.93V72.6c0-2.17-1.76-3.93-3.93-3.93Z"/>
      <path class="cls-1" d="m199.03,159.13c0,2.18,1.76,3.93,3.93,3.93h15.73c2.18,0,3.93-1.76,3.93-3.93v-23.6c0-2.17-1.76-3.93-3.93-3.93h-15.73c-2.18,0-3.93,1.76-3.93,3.93v23.6Zm7.87-19.67h7.87v15.73h-7.87v-15.73Z"/>
      <path class="cls-1" d="m242.3,45.06c-2.18,0-3.93,1.76-3.93,3.93v3.93H18.1v-3.93c0-2.17-1.76-3.93-3.93-3.93s-3.93,1.76-3.93,3.93v94.4c0,2.18,1.76,3.93,3.93,3.93s3.93-1.76,3.93-3.93V60.8h220.27v157.33c0,2.18,1.76,3.93,3.93,3.93s3.93-1.76,3.93-3.93V49c0-2.17-1.76-3.93-3.93-3.93Z"/>
      <path class="cls-1" d="m199.03,206.33c0,2.18,1.76,3.93,3.93,3.93h15.73c2.18,0,3.93-1.76,3.93-3.93v-23.6c0-2.17-1.76-3.93-3.93-3.93h-15.73c-2.18,0-3.93,1.76-3.93,3.93v23.6Zm7.87-19.67h7.87v15.73h-7.87v-15.73Z"/>
      <path class="cls-1" d="m202.97,115.86h15.73c2.18,0,3.93-1.76,3.93-3.93v-23.6c0-2.17-1.76-3.93-3.93-3.93h-15.73c-2.18,0-3.93,1.76-3.93,3.93v23.6c0,2.17,1.76,3.93,3.93,3.93Zm3.93-23.6h7.87v15.73h-7.87v-15.73Z"/>
      <path class="cls-1" d="m140.03,115.86h15.73c2.18,0,3.93-1.76,3.93-3.93v-23.6c0-2.17-1.76-3.93-3.93-3.93h-15.73c-2.18,0-3.93,1.76-3.93,3.93v23.6c0,2.17,1.76,3.93,3.93,3.93Zm3.93-23.6h7.87v15.73h-7.87v-15.73h0Z"/>
      <path class="cls-1" d="m81.03,222.06V72.6c0-2.17-1.76-3.93-3.93-3.93s-3.93,1.76-3.93,3.93v149.47c0,2.18,1.76,3.93,3.93,3.93s3.93-1.76,3.93-3.93Z"/>
      <path class="cls-1" d="m179.37,233.86h-110.13c-2.18,0-3.93,1.76-3.93,3.93v7.87c0,2.18,1.76,3.93,3.93,3.93s3.93-1.76,3.93-3.93v-3.93h106.2c2.18,0,3.93-1.76,3.93-3.93,0-2.17-1.76-3.93-3.93-3.93Z"/>
      <path class="cls-1" d="m96.77,159.13c0,2.18,1.76,3.93,3.93,3.93h15.73c2.18,0,3.93-1.76,3.93-3.93v-23.6c0-2.17-1.76-3.93-3.93-3.93h-15.73c-2.18,0-3.93,1.76-3.93,3.93v23.6h0Zm7.87-19.67h7.87v15.73h-7.87v-15.73Z"/>
      <path class="cls-1" d="m100.7,115.86h15.73c2.18,0,3.93-1.76,3.93-3.93v-23.6c0-2.17-1.76-3.93-3.93-3.93h-15.73c-2.18,0-3.93,1.76-3.93,3.93v23.6c0,2.17,1.76,3.93,3.93,3.93Zm3.93-23.6h7.87v15.73h-7.87v-15.73Z"/>
      <path class="cls-1" d="m88.9,182.73c0,2.18,1.76,3.93,3.93,3.93h3.93v35.4c0,2.18,1.76,3.93,3.93,3.93s3.93-1.76,3.93-3.93v-35.4h19.67v15.73c-2.18,0-3.93,1.76-3.93,3.93s1.76,3.93,3.93,3.93v11.8c0,2.18,1.76,3.93,3.93,3.93s3.93-1.76,3.93-3.93v-11.8c2.18,0,3.93-1.76,3.93-3.93s-1.76-3.93-3.93-3.93v-15.73h19.67v35.4c0,2.18,1.76,3.93,3.93,3.93s3.93-1.76,3.93-3.93v-35.4h3.93c2.18,0,3.93-1.76,3.93-3.93s-1.76-3.93-3.93-3.93h-70.8c-2.18,0-3.93,1.76-3.93,3.93Z"/>
      <path class="cls-1" d="m136.1,159.13c0,2.18,1.76,3.93,3.93,3.93h15.73c2.18,0,3.93-1.76,3.93-3.93v-23.6c0-2.17-1.76-3.93-3.93-3.93h-15.73c-2.18,0-3.93,1.76-3.93,3.93v23.6h0Zm7.87-19.67h7.87v15.73h-7.87v-15.73h0Z"/>
      <path class="cls-1" d="m214.52,60.56H43.33c-4.42,0-8.02-3.6-8.02-8.02v-27.33c0-4.42,3.6-8.02,8.02-8.02h171.19c4.42,0,8.02,3.6,8.02,8.02v27.33c0,4.42-3.6,8.02-8.02,8.02ZM43.33,24.86c-.19,0-.35.16-.35.35v27.33c0,.19.16.35.35.35h171.19c.19,0,.35-.16.35-.35v-27.33c0-.19-.16-.35-.35-.35H43.33Z"/>
    </g>
  </g>
</svg>