<?xml version="1.0" encoding="UTF-8"?>
<svg id="Layer_1" data-name="Layer 1" xmlns="http://www.w3.org/2000/svg" viewBox="0 0 256 256">
  <defs>
    <style>
      .cls-1 {
        fill: #010101;
      }
    </style>
  </defs>
  <g id="hiv">
    <path class="cls-1" d="m201.69,243.5c-.65,0-1.61-.2-2.43-1.13l-71.26-81.08-71.27,81.08c-.82.93-1.77,1.12-2.43,1.12-1.63,0-3.36-1.16-3.36-3.3v-37.44H18.44c-1.33,0-2.45-.73-3.01-1.95-.55-1.22-.35-2.54.52-3.54l71.82-81.73-43.8-49.83c-.97-1.1-1.1-2.68-.32-3.93l29.69-47.72c.59-.95,1.69-1.56,2.81-1.56h103.68c1.12,0,2.22.61,2.81,1.56l29.69,47.72c.78,1.25.65,2.83-.32,3.93l-43.8,49.83,71.83,81.73c.88,1,1.07,2.32.52,3.54-.55,1.22-1.67,1.94-3.01,1.94h-32.51v37.44c0,2.07-1.71,3.31-3.36,3.31Zm-69.29-87.22l66.04,75.14v-31.98c0-1.82,1.48-3.31,3.31-3.31h28.51l-66.44-75.6-31.42,35.74Zm-106.66,39.86h28.51c1.82,0,3.3,1.48,3.3,3.31v31.98L205.43,63.19l-26.04-41.86L25.75,196.14ZM50.57,63.19l41.61,47.34,31.42-35.75-46.98-53.46-26.04,41.86Zm77.43,6.59l44.54-50.67h-89.07l44.54,50.67Z"/>
  </g>
</svg>