<?xml version="1.0" encoding="UTF-8"?>
<svg id="Layer_1" data-name="Layer 1" xmlns="http://www.w3.org/2000/svg" viewBox="0 0 256 256">
  <defs>
    <style>
      .cls-1 {
        fill: #010101;
      }
    </style>
  </defs>
  <path id="docs" class="cls-1" d="m24.75,242.5c-6.2,0-11.25-5.05-11.25-11.25V54.25c0-6.2,5.05-11.25,11.25-11.25h3.5s76.17,0,76.17,0l56.95,56.96v131.3c0,6.2-5.05,11.25-11.25,11.25H24.75Zm-3.5-7.75h132.38v-125h-59v-59H21.25v184ZM102.37,102h50.08l-50.08-50.09v50.09Zm80.75,111v-7.75h51.62v-125h-59V21.25h-80.57c1.47-4.5,5.71-7.75,10.69-7.75h79.67l56.95,56.95v131.3c0,6.2-5.05,11.25-11.25,11.25h-48.12Zm.38-140.5h50.08l-50.08-50.09v50.09Z"/>
</svg>