<?xml version="1.0" encoding="UTF-8"?>
<svg id="Layer_1" data-name="Layer 1" xmlns="http://www.w3.org/2000/svg" viewBox="0 0 256 256">
  <defs>
    <style>
      .cls-1 {
        fill: #010101;
      }
    </style>
  </defs>
  <g id="map">
    <path class="cls-1" d="m165.71,244c-.3,0-.61-.05-.98-.17l-73.71-24.59h-1.27l-73.76,24.6c-.29.09-.61.14-.93.14-.5,0-1.24-.12-1.94-.69-.71-.56-1.13-1.52-1.13-2.52V40.13c0-1.32.81-2.45,2.06-2.88L89.41,12.15c.32-.09.62-.15.88-.15h.1c.25,0,.56.05.93.17l73.7,24.59h1.27l73.76-24.6c.3-.1.61-.15.94-.15.64,0,1.27.2,1.77.57.79.58,1.24,1.47,1.24,2.45v200.85c0,1.32-.81,2.45-2.06,2.88l-75.31,25.1c-.32.09-.62.15-.87.15h-.05Zm4.34-101.73l-1.37,1.9v89.83l2.63,1.9,65.28-21.74,1.37-1.9v-89.83l-2.63-1.9-65.28,21.74Zm-76.69-19.84v89.83l1.37,1.9,65.28,21.74,2.63-1.9v-89.83l-1.37-1.9-65.28-21.74-2.63,1.9Zm-73.95,19.84l-1.37,1.9v89.83l2.63,1.9,65.28-21.74,1.37-1.9v-89.83l-2.63-1.9-65.28,21.74ZM170.05,41.85l-1.37,1.9v89.83l2.63,1.9,65.28-21.74,1.37-1.9V22l-2.63-1.9-65.28,21.74Zm-76.69-19.85v89.83l1.37,1.9,65.28,21.74,2.63-1.9V43.74l-1.37-1.9-65.28-21.74-2.63,1.9ZM19.41,41.85l-1.37,1.9v89.83l2.63,1.9,65.28-21.74,1.37-1.9V22l-2.63-1.9L19.41,41.85Z"/>
  </g>
</svg>