<?xml version="1.0" encoding="UTF-8"?>
<svg id="Layer_1" data-name="Layer 1" xmlns="http://www.w3.org/2000/svg" viewBox="0 0 256 256">
  <defs>
    <style>
      .cls-1 {
        fill: #010101;
      }
    </style>
  </defs>
  <path id="ban" class="cls-1" d="m128,242.5c-63.14,0-114.5-51.36-114.5-114.5S64.86,13.5,128,13.5s114.5,51.36,114.5,114.5-51.36,114.5-114.5,114.5ZM47.49,58.02c-16.92,19.44-26.24,44.29-26.24,69.97h0c0,58.99,47.89,106.98,106.75,106.98,25.71,0,50.59-9.38,70.05-26.41l2.82-2.46L49.95,55.19l-2.46,2.83ZM127.99,21.25c-25.55,0-50.31,9.24-69.72,26.02l-2.85,2.46,150.89,150.89,2.46-2.86c16.75-19.43,25.97-44.21,25.97-69.76,0-58.86-47.89-106.75-106.75-106.75Z"/>
</svg>