<?xml version="1.0" encoding="UTF-8"?>
<svg id="Layer_1" data-name="Layer 1" xmlns="http://www.w3.org/2000/svg" viewBox="0 0 256 256">
  <defs>
    <style>
      .cls-1 {
        fill: #333;
        fill-rule: evenodd;
      }
    </style>
  </defs>
  <path id="pregnant-36-38w" class="cls-1" d="m138.73,233.27c-28.12,0-54.56-10.95-74.44-30.83-15.25-15.25-25.33-34.5-29.15-55.64-3.73-20.67-1.28-41.73,7.08-60.9l1.22-2.8h-17.34c-7.77,0-14.09-6.32-14.09-14.09v-32.18c0-7.77,6.32-14.09,14.09-14.09h171.64c7.77,0,14.09,6.32,14.09,14.09v15.41l1.35,1.33c41.04,41.04,41.04,107.83,0,148.88-19.88,19.88-46.32,30.83-74.44,30.83ZM50.41,84.22c-18.8,37.92-11.32,83.52,18.63,113.46,18.61,18.61,43.36,28.86,69.68,28.86s51.07-10.25,69.68-28.86c35.78-35.78,38.78-92.38,6.96-131.64l-3.55-4.39v7.34c0,7.77-6.32,14.09-14.09,14.09h-68.93l1.64,2.97c4.15,7.5,3.55,18.49-5.62,24.97l-5.24,3.7c-3.89,2.75-5.48,7.45-4.04,11.97,1.45,4.56,5.42,7.51,10.11,7.51.46,0,.93-.03,1.39-.08.69-.08,1.4-.12,2.09-.12,7.62,0,14.48,5.1,16.69,12.4l8.76,28.97,2.04-.85c2.16-.9,4.26-1.94,6.23-3.11l2.7-1.59-2.58-1.78c-2.82-1.95-4.84-4.85-5.67-8.18l-7.59-30.34c-1.88-7.54,2.72-15.2,10.25-17.09,1.13-.28,2.28-.42,3.43-.42,6.47,0,12.09,4.39,13.66,10.68l4.7,18.8,12.79-.98c.36-.03.72-.04,1.08-.04,4.4,0,8.62,2.1,11.26,5.63,2.91,3.87,3.63,8.88,1.93,13.41-1.59,4.25-16.95,41.67-64.73,46.98-.52.06-1.05.09-1.57.09-6.47,0-12.09-4.39-13.66-10.67l-4.17-16.67-16.67,4.17c-1.13.28-2.28.42-3.43.42-6.47,0-12.09-4.39-13.66-10.68-1.88-7.54,2.71-15.2,10.25-17.09l30.34-7.58c1.13-.28,2.28-.42,3.43-.42.3,0,.6,0,.9.03l4.46.29-2.76-3.52c-2.02-2.57-5.17-4.11-8.43-4.11-.43,0-.86.03-1.28.08-.79.09-1.57.14-2.34.14-7.59,0-14.03-4.81-16.39-12.25-1.86-5.85-1.1-14.04,6.59-19.47l5.24-3.7c4.48-3.16,6.31-8.59,4.65-13.82-1.66-5.23-6.28-8.61-11.76-8.61h-62.85l-.55,1.11Zm76.72,87.56c.61,0,1.21.17,1.73.48.77.46,1.31,1.2,1.53,2.07l4.98,19.94c.82,3.28,3.76,5.58,7.14,5.58.27,0,.54-.01.82-.05,35.57-3.95,53.93-28.67,59.18-42.66.89-2.37.51-4.99-1.01-7.01-1.38-1.84-3.58-2.94-5.89-2.94-.19,0-.38,0-.57.02l-15.62,1.2c-.09,0-.17,0-.26,0-1.54,0-2.88-1.05-3.26-2.55l-5.39-21.55c-.82-3.28-3.76-5.58-7.14-5.58-.6,0-1.2.07-1.79.22-3.94.99-6.34,4.99-5.36,8.93l7.59,30.34c.82,3.28,3.76,5.58,7.14,5.58.19,0,.38,0,.57-.02l2.52-.19c.08,0,.17,0,.26,0,1.33,0,2.53.78,3.07,1.99.58,1.29.28,2.82-.75,3.8-7.03,6.72-15.54,11.43-25.28,14-.28.07-.57.11-.86.11-.6,0-1.19-.16-1.71-.47-.77-.46-1.33-1.21-1.55-2.08l-5.15-20.59c-.82-3.28-3.76-5.58-7.14-5.58-.6,0-1.2.07-1.79.22l-30.34,7.59c-1.91.48-3.52,1.67-4.53,3.35-1.01,1.69-1.31,3.67-.83,5.58.82,3.28,3.76,5.58,7.14,5.58.6,0,1.2-.07,1.79-.22l19.93-4.98c.27-.07.54-.1.82-.1ZM26.09,29.45c-4.06,0-7.36,3.3-7.36,7.36v32.18c0,4.06,3.3,7.36,7.36,7.36h171.64c4.06,0,7.36-3.3,7.36-7.36v-32.18c0-4.06-3.3-7.36-7.36-7.36H26.09Zm180.9,102.83c-5.2,0-10.08-2.02-13.76-5.7-3.67-3.67-5.7-8.56-5.7-13.76s2.02-10.08,5.7-13.76,8.56-5.7,13.76-5.7,10.08,2.02,13.76,5.7c7.58,7.58,7.58,19.93,0,27.51-3.67,3.67-8.56,5.7-13.76,5.7Zm0-32.18c-3.4,0-6.59,1.32-9,3.73-2.4,2.4-3.73,5.6-3.73,9s1.32,6.59,3.73,9,5.6,3.73,9,3.73,6.6-1.32,9-3.73,3.73-5.6,3.73-9-1.32-6.6-3.73-9c-2.4-2.4-5.6-3.73-9-3.73Zm-94.11-32.59c-3.51,0-6.34-.96-8.65-2.95-.21-.18-.42-.54-.42-.84,0-.62.56-1.17,1.17-1.17.3,0,.5.08.82.35,2.16,1.83,4.44,2.69,7.16,2.69,3.68,0,6.25-2.32,6.25-5.65,0-2.9-2.07-5.9-7.88-5.9h-1.03c-.44,0-.83-.39-.83-.83,0-.16,0-.46.83-1.29l9.23-9.29h-14.03c-.44,0-.83-.39-.83-.83s.39-.83.83-.83h14.63c.61,0,1.35.16,1.35.92s-.24,1.17-1.36,2.25l-8.75,8.37,3.93.66c6.4,1.08,6.4,5.11,6.4,6.44,0,4.84-3.46,7.91-8.81,7.91Zm-46.88,0c-3.2,0-5.43-.81-7.25-2.63-1.39-1.38-2.98-3.77-2.98-9.96,0-4.41,1.09-14.48,11.17-14.48,3.04,0,5.06.83,6.23,1.52.68.4.74.77.74,1.11,0,.59-.5,1.05-1.13,1.05-.1,0-.37-.06-.68-.23-1.82-1.02-3.38-1.44-5.38-1.44-4.44,0-7.44,3.27-8.04,8.73l-.46,4.22,3.55-2.33c1.29-.84,2.64-1.6,5.12-1.6,2.01,0,8.55.55,8.55,7.57,0,5.02-3.89,8.47-9.46,8.47Zm-.34-14.55c-4.21,0-7.15,2.6-7.15,6.33s3.04,6.55,7.24,6.55,7.15-2.64,7.15-6.42-2.98-6.46-7.24-6.46Zm-26.22,14.55c-3.51,0-6.34-.96-8.65-2.95-.21-.18-.42-.54-.42-.84,0-.62.56-1.17,1.17-1.17.3,0,.5.08.82.35,2.16,1.83,4.44,2.69,7.16,2.69,3.68,0,6.25-2.32,6.25-5.65,0-2.9-2.07-5.9-7.88-5.9h-1.03c-.44,0-.83-.39-.83-.83,0-.16,0-.46.83-1.29l9.23-9.29h-14.03c-.44,0-.83-.39-.83-.83s.39-.83.83-.83h14.63c.61,0,1.35.16,1.35.92s-.24,1.17-1.36,2.25l-8.75,8.37,3.93.66c6.4,1.08,6.4,5.11,6.4,6.44,0,4.84-3.46,7.91-8.81,7.91Zm144.08-.04c-.28,0-1.02,0-1.5-1.37l-7.81-22.69-7.81,22.7c-.47,1.35-1.22,1.35-1.5,1.35h-.69c-.87,0-1.32-.75-1.55-1.38l-8.41-23.6c-.13-.4-.14-.57-.14-.58,0-.79.72-1.21,1.39-1.21.75,0,1.17.49,1.31.96l7.86,24.25,7.92-24.05c.41-1.24,1.19-1.24,1.45-1.24h.51c.29,0,1.04,0,1.45,1.24l7.92,24.06,7.85-24.23c.12-.35.45-.98,1.27-.98.72,0,1.26.5,1.26,1.17,0,.08-.05.35-.15.65l-8.4,23.56c-.22.62-.68,1.37-1.55,1.37h-.69Zm-45.09-.04c-5.64,0-9.59-2.74-9.59-6.67,0-2.78,1.03-4.3,3.68-5.52l3.41-1.57-3.2-1.96c-2.03-1.24-2.86-2.65-2.86-4.86,0-3.7,3.6-6.32,8.56-6.32s8.56,2.57,8.56,6.24c0,2.29-.83,3.7-2.86,4.94l-3.02,1.85,3.14,1.63c2.79,1.45,3.77,2.84,3.77,5.31,0,5.13-5.16,6.92-9.58,6.92Zm0-12.96c-4.23,0-7.19,2.34-7.19,5.69,0,2.94,2.47,5.82,7.19,5.82,4.23,0,7.19-2.36,7.19-5.73s-2.96-5.78-7.19-5.78Zm0-12.49c-3.59,0-6.29,2.35-6.29,5.48,0,3.38,2.65,5.78,6.29,5.78s6.29-2.38,6.29-5.65c0-2.76-2.21-5.6-6.29-5.6Zm-54.91,14.76c-.57,0-1.05-.48-1.05-1.05s.48-1.05,1.05-1.05h12.79c.57,0,1.05.48,1.05,1.05s-.48,1.05-1.05,1.05h-12.79Z"/>
</svg>