<?xml version="1.0" encoding="UTF-8"?>
<svg id="Layer_1" data-name="Layer 1" xmlns="http://www.w3.org/2000/svg" viewBox="0 0 256 256">
  <defs>
    <style>
      .cls-1 {
        fill: #010101;
      }
    </style>
  </defs>
  <g id="door-lock">
    <path class="cls-1" d="m128,245c-64.51,0-117-52.49-117-117S63.49,11,128,11s117,52.49,117,117-52.49,117-117,117Zm0-226.57c-60.42,0-109.57,49.15-109.57,109.57s49.15,109.57,109.57,109.57,109.57-49.15,109.57-109.57S188.41,18.43,128,18.43Z"/>
    <path class="cls-1" d="m91.65,188.36l19.36-55.31-.48-1.22c-11.71-6.09-19.29-18.71-19.29-32.15,0-20.27,16.49-36.76,36.76-36.76s36.76,16.49,36.76,36.75h0c0,13.07-7.23,25.39-18.86,32.18l-.44,1.19,18.9,55.32h-72.71Zm25.98-52.68l-15.12,43.92.95,1.33h49.09l.71-.29.24-1.05-15.58-44.37-2.1-6.73,6.35-3.39c9.35-4.92,15.16-14.66,15.16-25.42,0-16.17-13.15-29.32-29.32-29.32s-29.32,13.15-29.32,29.32c0,10.56,5.8,20.48,15.13,25.88l6.34,3.38-2.52,6.73Z"/>
  </g>
</svg>