<?xml version="1.0" encoding="UTF-8"?>
<svg id="Layer_1" data-name="Layer 1" xmlns="http://www.w3.org/2000/svg" viewBox="0 0 256 256">
  <defs>
    <style>
      .cls-1 {
        fill: #222;
      }
    </style>
  </defs>
  <g id="layer1">
    <path class="cls-1" d="m13,243v-29.4h11.8v-100.4h-11.8v-28.63l76.6-24.17v6.06l-70.8,22.36v18.59h218.4v-18.57l-70.8-22.38v-6.06l76.6,24.17v28.63h-11.8v100.4h11.8v29.4H13Zm5.8-5.8h218.4v-17.8H18.8v17.8Zm188.8-23.6h17.8v-100.4h-17.8v100.4Zm-35.4,0h29.6v-100.4h-29.6v100.4Zm-23.6,0h17.8v-100.4h-17.8v100.4Zm-35.4,0h29.6v-100.4h-29.6v100.4Zm-23.6,0h17.8v-100.4h-17.8v100.4Zm-35.4,0h29.6v-100.4h-29.6v100.4Zm-23.6,0h17.8v-100.4h-17.8v100.4Zm94.5-124v-11.8h-17.7v-5.8h26.5c4.99,0,8.9-3.91,8.9-8.9s-3.91-8.9-8.9-8.9h-11.8c-8.11,0-14.7-6.59-14.7-14.7s6.59-14.7,14.7-14.7h3v-11.8h5.8v11.8h17.7v5.8h-26.5c-4.99,0-8.9,3.91-8.9,8.9s3.91,8.9,8.9,8.9h11.8c8.11,0,14.7,6.59,14.7,14.7s-6.59,14.7-14.7,14.7h-3v11.8h-5.8Z"/>
  </g>
</svg>