<?xml version="1.0" encoding="UTF-8"?>
<svg id="Layer_1" data-name="Layer 1" xmlns="http://www.w3.org/2000/svg" viewBox="0 0 256 256">
  <defs>
    <style>
      .cls-1 {
        fill: #010101;
      }
    </style>
  </defs>
  <path class="cls-1" d="m183.42,115.3h-7.39c-1.91,0-3.46,1.55-3.46,3.46s1.55,3.46,3.46,3.46h7.39c1.91,0,3.46-1.55,3.46-3.46s-1.55-3.46-3.46-3.46Z"/>
  <path class="cls-1" d="m235.15,59.88c-5.98,0-10.85,4.87-10.85,10.85v7.62H75.47c-.88-2.62-2.76-4.91-5.42-6.24l-29.56-14.78c-2.95-1.48-6.27-1.47-9.09-.27-1.17-4.74-5.45-8.26-10.54-8.26-5.98,0-10.85,4.87-10.85,10.85v44.34c0,10.06,8.18,18.24,18.24,18.24h11.32v.23c0,5.98,4.87,10.85,10.85,10.85h3.22l59.77,16.86-59.77,16.86h-3.22c-5.98,0-10.85,4.87-10.85,10.85v.65c-6.35,1.56-11.08,7.3-11.08,14.13,0,8.02,6.53,14.55,14.55,14.55s14.55-6.53,14.55-14.55c0-6.83-4.73-12.57-11.08-14.13v-.65c0-2.16,1.76-3.93,3.93-3.93h3.68s0,0,.01,0c0,0,0,0,.01,0h144.07s0,0,.01,0c0,0,0,0,.01,0h7.38c2.16,0,3.93,1.76,3.93,3.93v.65c-6.35,1.56-11.08,7.3-11.08,14.13,0,8.02,6.53,14.55,14.55,14.55s14.55-6.53,14.55-14.55c0-6.83-4.73-12.57-11.08-14.13v-.65c0-5.98-4.87-10.85-10.85-10.85h-6.91l-59.77-16.86,59.77-16.86h6.91c5.98,0,10.85-4.87,10.85-10.85v-.23h11.32c10.06,0,18.24-8.18,18.24-18.24v-33.25c0-5.98-4.87-10.85-10.85-10.85ZM50.64,192.66c0,4.2-3.42,7.62-7.62,7.62s-7.62-3.42-7.62-7.62,3.42-7.62,7.62-7.62,7.62,3.42,7.62,7.62Zm169.96,0c0,4.2-3.42,7.62-7.62,7.62s-7.62-3.42-7.62-7.62,3.42-7.62,7.62-7.62,7.62,3.42,7.62,7.62ZM83.9,100.52H31.71v-23.31l28.63,14.31c1.52.76,3.15,1.15,4.85,1.15,4.14,0,7.86-2.3,9.71-6,.23-.46.42-.92.58-1.39h8.42v15.01c0,.08,0,.15,0,.23Zm6.92-15.24h115v15.01c0,2.16-1.76,3.93-3.93,3.93h-107.15c-2.16,0-3.93-1.76-3.93-3.93v-15.01Zm121.93,15.01v-15.01h11.55v15.24h-11.55c0-.08,0-.15,0-.23ZM32.12,65.28c.69-1.37,2.08-2.17,3.52-2.17.59,0,1.19.13,1.75.41l29.56,14.78c1.94.97,2.72,3.33,1.76,5.27-.67,1.34-2.02,2.17-3.52,2.17-.61,0-1.2-.14-1.75-.42l-29.56-14.78c-1.94-.97-2.72-3.33-1.76-5.27Zm141.04,101.74h-94.01l47.01-13.26,47.01,13.26Zm-47.01-20.46l-47.01-13.26h94.01l-47.01,13.26Zm112.92-42.59c0,6.24-5.08,11.32-11.32,11.32h-29.56c-1.91,0-3.46,1.55-3.46,3.46s1.55,3.46,3.46,3.46h11.31v.23c0,2.16-1.76,3.93-3.93,3.93H50.41c-2.16,0-3.93-1.76-3.93-3.93v-.23h114.77c1.91,0,3.46-1.55,3.46-3.46s-1.55-3.46-3.46-3.46H28.24c-6.24,0-11.32-5.08-11.32-11.32v-44.34c0-2.16,1.76-3.93,3.93-3.93s3.93,1.76,3.93,3.93v44.34c0,1.91,1.55,3.46,3.46,3.46h58.36c1.99,2.26,4.9,3.69,8.15,3.69h107.15c3.24,0,6.16-1.43,8.15-3.69h17.72c1.91,0,3.46-1.55,3.46-3.46v-33.25c0-2.16,1.76-3.93,3.93-3.93s3.93,1.76,3.93,3.93v33.25Z"/>
</svg>