<?xml version="1.0" encoding="UTF-8"?>
<svg id="Layer_1" data-name="Layer 1" xmlns="http://www.w3.org/2000/svg" viewBox="0 0 256 256">
  <defs>
    <style>
      .cls-1 {
        fill: #010101;
      }
    </style>
  </defs>
  <path id="s-pregnant" class="cls-1" d="m130.97,246.76l-5.95-.66,8.31-74.79c.17-1.51,1.45-2.66,2.97-2.66,16.68,0,30.25-13.57,30.25-30.25,0-11.53-6.41-21.9-16.72-27.07-.53-.27-.97-.69-1.26-1.21-.24-.42-14.86-26.05-14.86-26.05-3.86-6.58-7.79-9.16-14.03-9.16h-4.65c-5.88,0-11.07,3.75-12.93,9.32l-11.88,35.66,47.03,15.67-1.89,5.68-49.86-16.62c-1.56-.52-2.42-2.22-1.89-3.78l12.83-38.49c2.68-8.02,10.15-13.41,18.61-13.41h4.65c10.71,0,15.89,6.5,19.2,12.15,9.18,16.1,12.85,22.52,14.31,25.25,11.95,6.3,19.35,18.51,19.35,32.06,0,19.07-14.82,34.75-33.55,36.13l-8.03,72.23Zm-24.91-.33h-5.98v-99.72h5.98v99.72Zm13.63-188.14c-13.1,0-23.77-10.66-23.77-23.77s10.66-23.77,23.77-23.77,23.77,10.66,23.77,23.77-10.66,23.77-23.77,23.77Zm0-41.55c-9.81,0-17.78,7.98-17.78,17.78s7.98,17.78,17.78,17.78,17.78-7.98,17.78-17.78-7.98-17.78-17.78-17.78Z"/>
</svg>