<?xml version="1.0" encoding="UTF-8"?>
<svg id="Layer_1" data-name="Layer 1" xmlns="http://www.w3.org/2000/svg" viewBox="0 0 256 256">
  <defs>
    <style>
      .cls-1 {
        fill: #010101;
        stroke: #fff;
        stroke-miterlimit: 10;
        stroke-width: .25px;
      }
    </style>
  </defs>
  <path class="cls-1" d="m171.39,215.99c-8.58,0-15.55-6.98-15.55-15.55,0-4.69,2.1-9.09,5.76-12.07l.08-1.48-35.1-35.1h-1.41l-37.14,37.14-.05,1.36c2.45,2.83,3.79,6.44,3.79,10.15,0,8.57-6.98,15.55-15.55,15.55s-15.55-6.98-15.55-15.56,6.98-15.56,15.55-15.56c1.8,0,3.56.31,5.24.91l1.04-.23,38.23-38.27v-1.41s-41.38-41.46-41.38-41.46l-.71-.29H14.14c-1.29,0-2.43-.74-2.9-1.88-.48-1.17-.22-2.46.68-3.36l24.83-24.87c.63-.64,1.44-1,2.22-1h155.91l.59-.19,44.46-32.23c.5-.36,1.1-.55,1.75-.55.53,0,1.07.13,1.55.38,1.08.55,1.78,1.65,1.77,2.8v37.24c0,1.23-.78,2.35-1.99,2.86l-49.72,20.65c-.32.13-.7.16-1.21.16h-18.98l-.71.29-41.38,41.46v1.41l37.42,37.5.84.28c.81-.11,1.48-.16,2.12-.16,8.58,0,15.55,6.98,15.55,15.55s-6.98,15.55-15.55,15.55Zm0-24.83c-5.12,0-9.28,4.16-9.28,9.28s4.16,9.28,9.28,9.28,9.28-4.16,9.28-9.28-4.16-9.28-9.28-9.28Zm-95.18,0c-5.12,0-9.28,4.16-9.28,9.28s4.16,9.28,9.28,9.28,9.28-4.16,9.28-9.28-4.16-9.28-9.28-9.28Zm13.42-85.36l35.53,35.53h1.41l35.53-35.53-.71-1.71h-71.06l-.71,1.71Zm-49.66-26.24l-16.55,16.55.71,1.71h167.12l.38-.08,46.47-19.15.62-.92v-26.36l-1.59-.81-39.01,28.25c-.46.34-1.14.52-1.91.52H40.68l-.71.29Z"/>
</svg>