<?xml version="1.0" encoding="UTF-8"?>
<svg id="Layer_1" data-name="Layer 1" xmlns="http://www.w3.org/2000/svg" viewBox="0 0 256 256">
  <defs>
    <style>
      .cls-1 {
        fill: #010101;
      }
    </style>
  </defs>
  <g id="s-archives">
    <path class="cls-1" d="m19.26,244c-1.67,0-3.02-1.36-3.02-3.02V27.37c0-1.67,1.36-3.02,3.02-3.02h75.95c1.67,0,3.02,1.36,3.02,3.02v213.6c0,1.67-1.36,3.02-3.02,3.02H19.26Zm3.02-211.6v203.56l2,2h65.9l2-2V32.4l-2-2H24.28l-2,2Z"/>
    <path class="cls-1" d="m57.23,90.66c-12.74,0-23.11-10.37-23.11-23.11s10.37-23.11,23.11-23.11,23.11,10.37,23.11,23.11-10.37,23.11-23.11,23.11Zm0-40.17c-9.41,0-17.07,7.66-17.07,17.07s7.66,17.07,17.07,17.07,17.07-7.66,17.07-17.07-7.66-17.07-17.07-17.07Z"/>
    <path class="cls-1" d="m163.67,86.74c-12.74,0-23.11-10.37-23.11-23.11s10.37-23.11,23.11-23.11,23.11,10.37,23.11,23.11-10.37,23.11-23.11,23.11Zm0-40.18c-9.41,0-17.07,7.66-17.07,17.07s7.66,17.07,17.07,17.07,17.07-7.66,17.07-17.07-7.66-17.07-17.07-17.07Z"/>
    <rect class="cls-1" x="54.21" y="109.72" width="6.04" height="109.17"/>
    <path class="cls-1" d="m171.88,244c-1.36,0-2.56-.92-2.92-2.24L113.68,35.43c-.21-.78-.1-1.59.3-2.29.4-.7,1.06-1.2,1.84-1.41l73.36-19.66c.2-.04.49-.07.77-.07,1.41,0,2.54.86,2.94,2.25l55.27,206.29.04.13c.28.83.28,1.53-.01,2.09-.34.65-1.12,1.18-2.2,1.49l-73.32,19.65c-.26.07-.52.11-.79.11ZM122.23,36.27l-1.41,2.45,52.69,196.62,2.45,1.41,63.66-17.06,1.41-2.45L188.34,20.62l-2.45-1.41-63.66,17.06Z"/>
    <rect class="cls-1" x="185.7" y="102.51" width="6.04" height="109.17" transform="translate(-34.23 54.2) rotate(-15)"/>
  </g>
</svg>