<?xml version="1.0" encoding="UTF-8"?>
<svg id="Layer_1" data-name="Layer 1" xmlns="http://www.w3.org/2000/svg" viewBox="0 0 256 256">
  <defs>
    <style>
      .cls-1 {
        fill: #010101;
      }
    </style>
  </defs>
  <circle class="cls-1" cx="143.77" cy="112.27" r="3.93"/>
  <circle class="cls-1" cx="100.5" cy="159.47" r="3.93"/>
  <circle class="cls-1" cx="179.17" cy="171.27" r="3.93"/>
  <circle class="cls-1" cx="206.71" cy="131.94" r="3.93"/>
  <circle class="cls-1" cx="163.44" cy="96.54" r="3.93"/>
  <path class="cls-1" d="m220.42,184.14h0c-4.48-1.23-9.02-1.39-13.49-.5-1.41.28-2.8-.02-3.8-.83l-5.55-4.45c-1.56-1.25-2.05-3.46-1.18-5.37,1.58-3.47,2.88-7.1,3.88-10.77.5-1.86,1.78-3.42,3.51-4.29,1.57-.79,3.28-.9,4.83-.3,7.32,2.83,15.53,2.38,22.52-1.22,12.73-6.56,18.35-22.55,12.53-35.65-3.02-6.79-8.52-11.97-15.47-14.59-6.95-2.62-14.5-2.34-21.25.78-1.23.57-2.57,1.39-4.09,2.5-1.7,1.24-3.7,1.71-5.59,1.32-1.89-.38-3.52-1.57-4.58-3.35-2.26-3.78-4.98-7.16-7.71-10.56-2.5-3.11-2.93-7.43-1.09-10.99l5.82-11.29c1.65-3.21,4.63-5.4,7.76-5.71,2.91-.29,5.81-1.08,8.59-2.35,8.84-4.04,15.04-12.32,16.17-21.59,1.07-8.68-1.89-17.13-8.11-23.19-6.22-6.06-14.74-8.8-23.42-7.5-11.64,1.73-21.08,11.05-22.96,22.67-.87,5.34-.19,10.74,1.94,15.6,1.41,3.22,1.42,6.64.01,9.37l-4.56,8.85c-2.33,4.52-7.59,6.85-12.21,5.4-4.17-1.3-11.11-2.18-16.2-2.69-1.42-.14-2.61-1.18-2.94-2.56l-4.48-18.9c-.25-1.04.07-2.16.86-3.08,4.74-5.48,6.67-12.72,5.3-19.89-1.77-9.18-9.07-16.62-18.17-18.5-7.09-1.46-14.36.26-19.89,4.78-5.53,4.51-8.71,11.18-8.71,18.31,0,9.77,6.18,18.64,15.37,22.05,1.29.48,2.18,1.38,2.44,2.49l3.59,15.15c.39,1.65-.56,3.34-2.21,3.94-5.3,1.91-10.35,4.45-15.03,7.55-1.78,1.18-4.2,1.13-5.74-.11-2.03-1.64-1.93-4.14-1.23-5.78,2.92-6.86,3.58-14.42,1.91-21.88-3.02-13.42-14.14-24.15-27.67-26.69-11.85-2.24-23.48,1.33-31.88,9.76-8.41,8.43-11.94,20.06-9.69,31.91,2.68,14.13,14.01,25.34,28.18,27.91,6.04,1.08,11.96.68,17.63-1.18,1.71-.57,3.68.07,4.89,1.58l1.57,1.95c1.23,1.53,1.36,3.62.35,5.33-5.04,8.45-8.21,17.69-9.41,27.44-.26,2.1-1.88,3.69-3.92,3.88l-7.46.67c-1.75.17-3.07-.89-3.72-1.53-3.7-3.61-8.41-5.7-13.62-6.05-8.77-.58-16.99,4.22-20.75,11.94-2.9,5.96-3.01,12.78-.27,18.7,2.73,5.92,7.91,10.26,14.22,11.9,9.15,2.38,18.69-1.45,23.7-9.52.7-1.13,2.09-1.89,3.7-2.04l6.42-.57c2-.2,3.89,1.08,4.53,3.08,2.76,8.56,7.08,16.43,12.87,23.41.65.78.61,1.97-.1,2.75-.68.76-1.75.76-2.53.52-3.3-1.05-6.75-1.42-10.26-1.09-11.7,1.11-21.31,10.35-22.85,21.97-1.1,8.32,1.73,16.36,7.78,22.07,6.05,5.72,14.26,8.08,22.57,6.5,9.11-1.74,16.75-8.65,19.44-17.61,1.23-4.1,1.44-8.26.64-12.36-.12-.6.08-1.25.52-1.74l3.09-3.43c.65-.73,1.72-.94,2.52-.5,2.03,1.11,4.15,2.13,6.29,3.03,2.61,1.1,4.18,3.95,3.9,7.08-.24,2.71-.07,5.47.5,8.19,2.42,11.51,12.3,20.4,24.01,21.6.95.09,1.9.15,2.86.15,6.81,0,13.43-2.51,18.5-7.08,5.78-5.21,9.1-12.67,9.1-20.45,0-1.72-.17-3.46-.49-5.16-.62-3.2.66-6.2,3.26-7.64,4.08-2.27,7.95-4.94,11.5-7.95,1.29-1.09,2.76-1.57,3.93-1.27,1.77.44,2.64,1.49,3.06,2.28.59,1.12.67,2.47.22,3.71-1.77,4.81-2.24,10.08-1.38,15.23,2.11,12.51,12.38,22.44,24.97,24.14,9.09,1.22,18.03-1.67,24.57-7.97,6.54-6.29,9.78-15.11,8.9-24.19-1.17-12.03-9.83-22.28-21.54-25.5Zm7.19,44.02c-4.8,4.61-11.4,6.75-18.05,5.84-9.21-1.25-16.73-8.51-18.27-17.65-.65-3.85-.31-7.62,1-11.21,1.22-3.33.99-7-.64-10.09-1.65-3.12-4.52-5.33-8.09-6.23-3.69-.92-7.67.12-10.95,2.9-3.15,2.68-6.59,5.05-10.22,7.07-5.54,3.07-8.42,9.5-7.17,16,.23,1.22.35,2.46.35,3.69,0,5.56-2.37,10.88-6.5,14.61-4.18,3.77-9.6,5.56-15.28,4.95-8.35-.86-15.39-7.19-17.12-15.4-.41-1.96-.54-3.93-.37-5.87.58-6.56-2.91-12.6-8.69-15.03-1.9-.8-3.78-1.7-5.58-2.68-1.48-.81-3.09-1.2-4.69-1.2-2.75,0-5.47,1.16-7.44,3.34l-3.09,3.43c-2.09,2.32-2.99,5.5-2.39,8.52.56,2.83.41,5.72-.45,8.58-1.86,6.18-7.11,10.95-13.38,12.15-5.79,1.1-11.5-.53-15.69-4.49-4.19-3.96-6.15-9.54-5.39-15.32,1.05-7.89,7.84-14.42,15.8-15.17,2.45-.22,4.85.02,7.13.75,3.98,1.26,8.1.21,10.76-2.75,3.31-3.67,3.44-9.28.31-13.04-5.14-6.2-8.98-13.2-11.43-20.8-1.78-5.51-7.03-8.99-12.72-8.5l-6.42.57c-4.06.37-7.68,2.51-9.68,5.72-3.19,5.13-9.25,7.56-15.05,6.06-4.02-1.04-7.32-3.8-9.06-7.58-1.76-3.83-1.69-8.08.2-11.96,2.38-4.88,7.62-7.96,13.15-7.54,3.32.22,6.31,1.55,8.65,3.83,2.75,2.69,6.4,4.06,9.92,3.73l7.47-.67c5.77-.52,10.31-4.94,11.03-10.75,1.07-8.67,3.87-16.86,8.35-24.37,2.68-4.49,2.29-10.23-.97-14.29l-1.57-1.95c-3.25-4.05-8.66-5.71-13.48-4.13-4.41,1.46-9.05,1.76-13.77.9-11-1.99-19.78-10.68-21.86-21.63-1.76-9.26.99-18.33,7.52-24.88,6.55-6.56,15.6-9.31,24.86-7.58,10.49,1.97,19.11,10.28,21.45,20.69,1.31,5.83.8,11.73-1.47,17.06-2.3,5.39-.89,11.41,3.51,14.98,4.2,3.42,10.4,3.65,15.05.57,4.15-2.75,8.64-5.01,13.35-6.71,5.42-1.95,8.52-7.61,7.21-13.15l-3.59-15.15c-.87-3.65-3.61-6.66-7.36-8.05-6.12-2.27-10.24-8.17-10.24-14.67,0-4.76,2.12-9.2,5.81-12.21,3.75-3.04,8.48-4.18,13.33-3.17,6.02,1.25,10.86,6.18,12.03,12.28.93,4.85-.31,9.56-3.52,13.25-2.43,2.81-3.39,6.57-2.56,10.05l4.48,18.89c1.1,4.65,5.04,8.1,9.81,8.58,6.68.67,11.88,1.51,14.64,2.38,8.37,2.6,17.43-1.31,21.55-9.31l4.56-8.85c2.5-4.85,2.57-10.73.2-16.14-1.53-3.47-2-7.34-1.38-11.18,1.34-8.27,8.06-14.9,16.35-16.14,6.23-.94,12.33,1.02,16.78,5.35,4.44,4.33,6.55,10.38,5.79,16.6-.81,6.58-5.27,12.48-11.64,15.4-1.99.91-4.04,1.47-6.09,1.68-5.85.58-11.08,4.3-13.98,9.94l-5.82,11.29c-3.26,6.33-2.49,13.99,2.06,19.66,2.57,3.2,5,6.22,6.98,9.53,2.21,3.7,5.68,6.19,9.76,7.02,4.1.85,8.3-.12,11.81-2.68,1.34-.99,2.23-1.47,2.74-1.71,4.82-2.22,10.22-2.42,15.18-.56,4.97,1.87,8.89,5.57,11.05,10.42,4.17,9.35.15,20.77-8.94,25.46-4.99,2.57-10.86,2.88-16.08.87-3.66-1.41-7.64-1.2-11.22.62-3.71,1.88-6.46,5.25-7.54,9.25-.89,3.27-2.05,6.49-3.45,9.57-2.36,5.18-.96,11.25,3.42,14.77l5.55,4.45c2.82,2.27,6.57,3.15,10.26,2.41,3.28-.65,6.59-.53,9.87.37h0c8.45,2.32,14.95,10,15.8,18.68.65,6.67-1.73,13.14-6.53,17.76Z"/>
  <path class="cls-1" d="m135.9,155.54c-13.02,0-23.6,10.59-23.6,23.6s10.59,23.6,23.6,23.6,23.6-10.59,23.6-23.6-10.59-23.6-23.6-23.6Zm0,39.34c-8.68,0-15.73-7.06-15.73-15.73s7.06-15.73,15.73-15.73,15.73,7.06,15.73,15.73-7.06,15.73-15.73,15.73Z"/>
  <path class="cls-1" d="m120.17,124.07c0-8.68-7.06-15.73-15.73-15.73s-15.73,7.06-15.73,15.73,7.06,15.73,15.73,15.73,15.73-7.06,15.73-15.73Zm-15.73,7.87c-4.34,0-7.87-3.53-7.87-7.87s3.53-7.87,7.87-7.87,7.87,3.53,7.87,7.87-3.53,7.87-7.87,7.87Z"/>
  <path class="cls-1" d="m171.31,120.14c-8.68,0-15.73,7.06-15.73,15.73s7.06,15.73,15.73,15.73,15.73-7.06,15.73-15.73-7.06-15.73-15.73-15.73Zm0,23.6c-4.34,0-7.87-3.53-7.87-7.87s3.53-7.87,7.87-7.87,7.87,3.53,7.87,7.87-3.53,7.87-7.87,7.87Z"/>
</svg>