<?xml version="1.0" encoding="UTF-8"?>
<svg id="Layer_1" data-name="Layer 1" xmlns="http://www.w3.org/2000/svg" viewBox="0 0 256 256">
  <defs>
    <style>
      .cls-1 {
        fill: #333;
        fill-rule: evenodd;
      }
    </style>
  </defs>
  <path id="pregnant-24-26w" class="cls-1" d="m138.73,233.27c-28.12,0-54.56-10.95-74.44-30.83-15.25-15.25-25.33-34.5-29.15-55.64-3.73-20.67-1.28-41.73,7.08-60.9l1.22-2.8h-17.34c-7.77,0-14.09-6.32-14.09-14.09v-32.18c0-7.77,6.32-14.09,14.09-14.09h177c7.77,0,14.09,6.32,14.09,14.09v20.98l.5.57c36.71,41.54,34.73,104.83-4.52,144.07-19.88,19.88-46.32,30.83-74.44,30.83ZM50.41,84.22c-18.8,37.92-11.32,83.52,18.63,113.46,18.61,18.61,43.36,28.86,69.68,28.86s51.07-10.25,69.68-28.86c33.5-33.5,38.44-86.15,11.75-125.21l-2.37-3.46-1.2,4.02c-1.77,5.92-7.32,10.06-13.5,10.06h-74.3l1.64,2.97c4.15,7.5,3.55,18.49-5.62,24.97l-5.24,3.7c-3.89,2.75-5.48,7.45-4.04,11.97,1.45,4.56,5.42,7.51,10.11,7.51.46,0,.93-.03,1.39-.08.69-.08,1.4-.12,2.09-.12,7.62,0,14.48,5.1,16.69,12.4l8.76,28.97,2.04-.85c2.15-.9,4.25-1.94,6.23-3.11l2.71-1.59-2.58-1.78c-2.82-1.95-4.84-4.85-5.67-8.18l-7.59-30.34c-.91-3.65-.35-7.44,1.59-10.67,1.94-3.23,5.01-5.51,8.67-6.42,1.13-.28,2.28-.42,3.43-.42,6.47,0,12.09,4.39,13.66,10.68l4.7,18.8,12.79-.98c.36-.03.72-.04,1.08-.04,4.4,0,8.62,2.1,11.26,5.63,2.91,3.87,3.63,8.88,1.93,13.41-1.59,4.25-16.95,41.67-64.73,46.98-.52.06-1.05.09-1.57.09-6.47,0-12.09-4.39-13.66-10.68l-4.17-16.67-16.67,4.17c-1.13.28-2.28.42-3.43.42-6.47,0-12.09-4.39-13.66-10.68-1.88-7.54,2.71-15.2,10.25-17.09l30.34-7.58c1.13-.28,2.28-.42,3.43-.42.3,0,.6,0,.9.03l4.46.29-2.75-3.52c-2.02-2.57-5.17-4.11-8.43-4.11-.43,0-.86.03-1.28.08-.79.09-1.57.14-2.34.14-7.59,0-14.03-4.81-16.39-12.25-1.86-5.85-1.1-14.04,6.59-19.47l5.24-3.7c4.48-3.16,6.31-8.59,4.65-13.82-1.66-5.23-6.28-8.61-11.76-8.61h-62.85l-.55,1.11Zm76.72,87.56c.61,0,1.21.17,1.73.48.76.46,1.32,1.21,1.53,2.07l4.98,19.94c.82,3.28,3.76,5.58,7.14,5.58.27,0,.54-.01.82-.05,35.57-3.95,53.93-28.67,59.18-42.66.89-2.37.51-4.99-1.01-7.01-1.38-1.84-3.58-2.94-5.89-2.94-.19,0-.38,0-.57.02l-15.62,1.2c-.09,0-.17,0-.26,0-1.54,0-2.88-1.05-3.26-2.55l-5.39-21.55c-.82-3.29-3.76-5.58-7.14-5.58-.6,0-1.2.07-1.79.22-3.94.99-6.34,4.99-5.36,8.93l7.58,30.34c.82,3.28,3.76,5.58,7.14,5.58.19,0,.38,0,.57-.02l2.52-.19c.09,0,.17,0,.26,0,1.32,0,2.53.78,3.07,1.99.58,1.29.28,2.82-.75,3.8-7.03,6.72-15.54,11.43-25.28,14-.28.07-.57.11-.86.11-.6,0-1.19-.16-1.71-.47-.77-.46-1.33-1.21-1.55-2.08l-5.15-20.59c-.82-3.28-3.76-5.58-7.14-5.58-.6,0-1.2.07-1.79.22l-30.34,7.59c-3.94.99-6.34,4.99-5.36,8.93.82,3.28,3.76,5.58,7.14,5.58.6,0,1.2-.07,1.79-.22l19.93-4.98c.27-.07.54-.1.82-.1ZM26.09,29.45c-4.06,0-7.36,3.3-7.36,7.36v32.18c0,4.06,3.3,7.36,7.36,7.36h177c4.06,0,7.36-3.3,7.36-7.36v-32.18c0-4.06-3.3-7.36-7.36-7.36H26.09Zm180.9,102.83c-5.2,0-10.08-2.02-13.76-5.7-7.58-7.59-7.58-19.93,0-27.51,3.67-3.67,8.56-5.7,13.76-5.7s10.08,2.02,13.76,5.7c7.58,7.58,7.58,19.93,0,27.51-3.67,3.67-8.56,5.7-13.76,5.7Zm0-32.18c-3.4,0-6.59,1.32-9,3.73-2.4,2.4-3.73,5.6-3.73,9s1.32,6.59,3.73,9,5.6,3.73,9,3.73,6.6-1.32,9-3.73c2.4-2.4,3.73-5.6,3.73-9s-1.32-6.6-3.73-9c-2.4-2.4-5.6-3.73-9-3.73Zm-66.41-32.59c-3.2,0-5.43-.81-7.25-2.63-1.39-1.39-2.98-3.77-2.98-9.96,0-4.41,1.09-14.48,11.17-14.48,3.04,0,5.06.83,6.23,1.52.68.4.74.77.74,1.11,0,.59-.5,1.05-1.13,1.05-.1,0-.37-.06-.67-.23-1.82-1.02-3.38-1.45-5.38-1.45-4.44,0-7.44,3.27-8.04,8.74l-.46,4.22,3.54-2.33c1.23-.81,2.64-1.6,5.12-1.6,2.01,0,8.56.55,8.56,7.57,0,5.02-3.89,8.47-9.46,8.47Zm-.34-14.55c-4.28,0-7.15,2.54-7.15,6.33s3.04,6.55,7.23,6.55,7.15-2.64,7.15-6.42-2.97-6.46-7.23-6.46Zm45.79,14.5c-.28,0-1.02,0-1.5-1.36l-7.81-22.69-7.81,22.7c-.47,1.35-1.22,1.35-1.5,1.35h-.69c-.87,0-1.32-.75-1.55-1.38l-8.41-23.6c-.13-.4-.14-.57-.14-.58,0-.79.72-1.21,1.39-1.21.75,0,1.16.49,1.31.96l7.86,24.25,7.92-24.05c.41-1.24,1.19-1.24,1.45-1.24h.52c.29,0,1.04,0,1.44,1.24l7.92,24.06,7.85-24.23c.12-.35.45-.98,1.27-.98.72,0,1.26.5,1.26,1.17,0,.07-.04.32-.15.65l-8.4,23.56c-.22.62-.68,1.37-1.55,1.37h-.69Zm-114.91-.21c-.66,0-1.13-.48-1.13-1.13v-5.6h-14.36c-.61,0-1.22-.36-1.22-1.05,0-.65.18-1.26,1.07-2.31l13.04-15.14c1.09-1.28,1.53-1.54,2.6-1.54.67,0,1.17.49,1.17,1.13v17.53h3.59c.39,0,.7.31.7.7s-.3.66-.7.66h-3.59v5.6c0,.65-.5,1.13-1.17,1.13Zm-15.45-8.1h14.32v-16.78l-14.32,16.78Zm50.33,7.84c-1.04,0-1.56-.38-1.56-1.13,0-.41.1-1.04.97-1.75l8.55-7c3.47-2.83,5.92-5.12,5.92-8.76s-2.42-5.9-6.03-5.9c-2.93,0-4.79,1.57-6.36,3.26-.06.06-.3.31-.77.31-.57,0-1-.43-1-1,0-.24.12-.56.3-.77,2.27-2.63,4.66-3.71,8.26-3.71,5.15,0,8.34,2.79,8.34,7.27,0,4-1.69,5.93-7.12,10.13l-9.53,7.36h16.33c.48,0,.88.39.88.88s-.38.83-.88.83h-16.31Zm-74.5,0c-1.04,0-1.56-.38-1.56-1.13,0-.41.1-1.04.97-1.75l8.55-7c3.47-2.83,5.92-5.12,5.92-8.76s-2.42-5.9-6.03-5.9c-2.93,0-4.79,1.57-6.36,3.26-.06.06-.3.31-.77.31-.57,0-1-.43-1-1,0-.24.12-.56.3-.77,2.27-2.63,4.66-3.71,8.26-3.71,5.14,0,8.34,2.79,8.34,7.27,0,4-1.69,5.93-7.12,10.13l-9.53,7.36h16.33c.48,0,.88.39.88.88s-.38.83-.88.83h-16.31Zm52.64-10.26c-.57,0-1.05-.48-1.05-1.05s.48-1.05,1.05-1.05h12.79c.57,0,1.05.48,1.05,1.05s-.48,1.05-1.05,1.05h-12.79Z"/>
</svg>