<?xml version="1.0" encoding="UTF-8"?>
<svg id="Layer_1" data-name="Layer 1" xmlns="http://www.w3.org/2000/svg" viewBox="0 0 256 256">
  <defs>
    <style>
      .cls-1 {
        fill: #010101;
      }
    </style>
  </defs>
  <path id="folder" class="cls-1" d="m20.52,218c-4.97,0-9.02-4.05-9.02-9.02V70.03c0-4.97,4.05-9.02,9.02-9.02h13.29v-13.9c0-5.03,4.09-9.11,9.11-9.11h47.66c5.03,0,9.11,4.09,9.11,9.11v13.9h11.9v-13.9c0-5.03,4.09-9.11,9.11-9.11h47.66c5.03,0,9.11,4.09,9.11,9.11v13.9h57.99c4.97,0,9.02,4.05,9.02,9.02v138.95c0,4.97-4.05,9.02-9.02,9.02H20.52Zm0-150.36c-1.32,0-2.39,1.07-2.39,2.39v138.95c0,1.32,1.07,2.39,2.39,2.39h214.96c1.32,0,2.39-1.07,2.39-2.39V70.03c0-1.32-1.07-2.39-2.39-2.39H96.38c-1.83,0-3.32-1.49-3.32-3.32v-17.22c0-1.37-1.11-2.48-2.48-2.48h-47.66c-1.37,0-2.48,1.11-2.48,2.48v17.22c0,1.83-1.49,3.32-3.32,3.32h-16.61Zm100.19-23.01c-1.37,0-2.48,1.11-2.48,2.48v13.9h52.62v-13.9c0-1.37-1.11-2.48-2.48-2.48h-47.66Z"/>
</svg>