<?xml version="1.0" encoding="UTF-8"?>
<svg id="Layer_1" data-name="Layer 1" xmlns="http://www.w3.org/2000/svg" viewBox="0 0 256 256">
  <defs>
    <style>
      .cls-1 {
        fill: #010101;
      }
    </style>
  </defs>
  <g id="hygiene_product" data-name="hygiene product">
    <g>
      <path class="cls-1" d="m233.17,66.43h-7.7v-12.83c0-4.36-3.33-7.7-7.7-7.7h-7.7v-15.39h12.83c1.54,0,2.57-1.03,2.57-2.57v-15.39c0-1.54-1.03-2.57-2.57-2.57h-107.74c-1.54,0-2.57,1.03-2.57,2.57v15.39c0,1.54,1.03,2.57,2.57,2.57h2.57v7.7c0,1.54,1.03,2.57,2.57,2.57h15.39c1.54,0,2.57-1.03,2.57-2.57v-7.7h46.17v15.39h-7.7c-4.36,0-7.7,3.33-7.7,7.7v12.83h-7.7c-7.18,0-12.83,5.64-12.83,12.83v41.04c-2.05-1.54-4.87-2.57-7.7-2.57v-7.7c0-1.54-1.03-2.57-2.57-2.57h-5.13v-17.96c0-7.18-5.64-12.83-12.83-12.83h-15.39c-7.18,0-12.83,5.64-12.83,12.83v17.96h-5.13c-1.54,0-2.57,1.03-2.57,2.57v7.7c-7.18,0-12.83,5.64-12.83,12.83v64.13h-38.48c-8.47,0-15.39,6.93-15.39,15.39,0,3.85,1.54,7.44,3.85,10.26h-8.98c-1.54,0-2.57,1.03-2.57,2.57,0,7.18,5.64,12.83,12.83,12.83v7.7c0,1.54,1.03,2.57,2.57,2.57h115.43c4.1,0,7.95-2.05,10.26-5.13,2.31,3.08,6.16,5.13,10.26,5.13h71.83c7.18,0,12.83-5.64,12.83-12.83V79.26c0-7.18-5.64-12.83-12.83-12.83ZM117.74,15.13h102.61v10.26h-102.61v-10.26Zm15.39,20.52h-10.26v-5.13h10.26v5.13Zm56.43-5.13h15.39v15.39h-15.39v-15.39Zm-15.39,23.09c0-1.54,1.03-2.57,2.57-2.57h41.04c1.54,0,2.57,1.03,2.57,2.57v12.83h-46.17v-12.83Zm-69.26,28.22h15.39c4.36,0,7.7,3.33,7.7,7.7v5.13h-2.82c-1.28-5.9-6.41-10.26-12.57-10.26s-11.29,4.36-12.57,10.26h-2.82v-5.13c0-4.36,3.33-7.7,7.7-7.7Zm14.88,12.83h-14.37c1.03-3.08,3.85-5.13,7.18-5.13s6.16,2.05,7.18,5.13Zm-22.57,5.13h30.78v7.7h-30.78v-7.7Zm-7.7,12.83h46.17v5.13h-46.17v-5.13ZM22.83,210.09c0-5.64,4.62-10.26,10.26-10.26h61.57c5.64,0,10.26,4.62,10.26,10.26s-4.62,10.26-10.26,10.26h-61.57c-5.64,0-10.26-4.62-10.26-10.26Zm92.35,10.26h-8.98c2.57-2.82,3.85-6.41,3.85-10.26,0-8.47-6.93-15.39-15.39-15.39h-5.13v-28.22c0-12.83,10.26-23.09,23.09-23.09,6.16,0,12.06,2.31,16.42,6.67,4.36,4.36,6.67,10.26,6.67,16.42v53.87h-20.52Zm-99.53,5.13h96.45c-1.03,3.08-3.85,5.13-7.18,5.13H22.83c-3.33,0-6.16-2.05-7.18-5.13Zm12.31,10.26h71.83v5.13H27.96v-5.13Zm112.87,5.13h-35.91v-5.13c6.16,0,11.29-4.36,12.57-10.26h20.78c1.54,0,2.57-1.03,2.57-2.57v-56.43c0-7.44-2.82-14.62-8.21-20.01-5.39-5.39-12.57-8.21-20.01-8.21-15.65,0-28.22,12.57-28.22,28.22v28.22h-7.7v-64.13c0-4.36,3.33-7.7,7.7-7.7h56.43c4.36,0,7.7,3.33,7.7,7.7v102.61c0,4.36-3.33,7.7-7.7,7.7Zm100.04-7.7c0,4.36-3.33,7.7-7.7,7.7h-71.83c-4.36,0-7.7-3.33-7.7-7.7V79.26c0-4.36,3.33-7.7,7.7-7.7h71.83c4.36,0,7.7,3.33,7.7,7.7v153.91Z"/>
      <path class="cls-1" d="m197.26,92.09c-18.47,0-33.35,14.88-33.35,33.35v92.35c0,1.54,1.03,2.57,2.57,2.57h61.57c1.54,0,2.57-1.03,2.57-2.57v-92.35c0-18.47-14.88-33.35-33.35-33.35Zm28.22,123.13h-56.43v-89.78c0-15.65,12.57-28.22,28.22-28.22s28.22,12.57,28.22,28.22v89.78Z"/>
    </g>
  </g>
</svg>