<?xml version="1.0" encoding="UTF-8"?>
<svg id="Layer_1" data-name="Layer 1" xmlns="http://www.w3.org/2000/svg" viewBox="0 0 256 256" fill="green" stroke="green">

  <path class="cls-1" d="m167.11,102.12l-61.46,61.46-11.88-11.88,10.71-10.71,3.89,3.89c.74.74,1.7,1.1,2.66,1.1s1.93-.37,2.66-1.1c1.47-1.47,1.47-3.86,0-5.33l-3.89-3.89,10.71-10.71,3.89,3.89c.74.74,1.7,1.1,2.66,1.1s1.93-.37,2.66-1.1c1.47-1.47,1.47-3.86,0-5.33l-3.89-3.89,10.71-10.71,3.89,3.89c.74.74,1.7,1.1,2.66,1.1s1.93-.37,2.66-1.1c1.47-1.47,1.47-3.86,0-5.33l-3.89-3.89,10.71-10.71,3.89,3.89c.74.74,1.7,1.1,2.66,1.1s1.93-.37,2.66-1.1c1.47-1.47,1.47-3.85,0-5.33l-6.55-6.55c-.55-.55-1.23-.9-1.94-1.03-.06-.01-.13-.02-.19-.03-.06,0-.11-.02-.17-.02-1.08-.1-2.2.26-3.02,1.09l-64.13,64.12c-.71.71-1.1,1.66-1.1,2.66s.4,1.96,1.1,2.66l17.2,17.2c.74.74,1.7,1.1,2.66,1.1s1.93-.37,2.66-1.1l64.12-64.12c1.47-1.47,1.47-3.86,0-5.33-1.47-1.47-3.86-1.47-5.33,0Z"/>
  <path class="cls-1" d="m158.39,34.71c-1.47-1.47-3.86-1.47-5.33,0s-1.47,3.86,0,5.33l10.22,10.22-93.47,93.47c-4.4,4.41-4.4,11.57,0,15.98l27.86,27.85c2.13,2.13,4.97,3.3,7.99,3.3s5.86-1.17,7.99-3.3l93.47-93.47,10.22,10.22c.74.74,1.7,1.1,2.66,1.1s1.93-.37,2.66-1.1c1.47-1.47,1.47-3.86,0-5.33l-64.27-64.27Zm-50.07,147.52c-.7.71-1.65,1.09-2.66,1.09s-1.96-.39-2.66-1.09l-27.86-27.85c-1.47-1.47-1.47-3.86,0-5.33l93.47-93.47,33.18,33.18-93.47,93.47Z"/>
  <path class="cls-1" d="m246.88,51.07l-11.46-11.46h0s0,0,0,0l-29.12-29.12c-1.47-1.47-3.86-1.47-5.33,0s-1.47,3.86,0,5.33l8.8,8.8-22.75,22.75c-1.47,1.47-1.47,3.86,0,5.33.74.74,1.7,1.1,2.66,1.1s1.93-.37,2.66-1.1l22.75-22.75,12.34,12.34-22.75,22.75c-1.47,1.47-1.47,3.86,0,5.33.74.74,1.7,1.1,2.66,1.1s1.93-.37,2.66-1.1l22.75-22.75,8.8,8.8c.74.74,1.7,1.1,2.66,1.1s1.93-.37,2.66-1.1c1.47-1.47,1.47-3.85,0-5.33Z"/>
  <path class="cls-1" d="m85.04,185.58s0,0,0,0,0,0,0,0l-13.24-13.24s0,0,0,0,0,0,0,0l-3.55-3.55c-1.47-1.47-3.85-1.47-5.33,0-1.47,1.47-1.47,3.86,0,5.33l.89.89-12.63,12.63c-1.66,1.66-2.57,3.86-2.57,6.21s.91,4.56,2.57,6.21l.54.54-38.37,38.37c-1.47,1.47-1.47,3.86,0,5.33.74.74,1.7,1.1,2.66,1.1s1.93-.37,2.66-1.1l38.37-38.37.28.28c1.71,1.71,3.96,2.57,6.21,2.57s4.5-.86,6.21-2.57l12.63-12.63.89.89c.74.74,1.7,1.1,2.66,1.1s1.93-.37,2.66-1.1c1.47-1.47,1.47-3.86,0-5.33l-3.55-3.55Zm-20.62,15.29c-.48.48-1.29.48-1.77,0l-6.14-6.14c-.31-.31-.36-.69-.36-.89s.05-.57.36-.89l12.63-12.63,7.92,7.92-12.63,12.63Z"/>
</svg>
