<?xml version="1.0" encoding="UTF-8"?>
<svg id="Layer_1" data-name="Layer 1" xmlns="http://www.w3.org/2000/svg" viewBox="0 0 256 256" fill='#666666'>
  <defs>

  </defs>
  <g id="archives-boxes">
    <path class="cls-1" d="m61.62,31.21H22.91c-7.13,0-12.91,5.78-12.91,12.91v167.77c0,7.13,5.78,12.91,12.91,12.91h38.72c7.13,0,12.91-5.78,12.91-12.91V44.12c0-7.13-5.78-12.91-12.91-12.91Zm-38.72,7.37h38.72c3.05,0,5.53,2.48,5.53,5.53v40.94H17.37v-40.94c0-3.05,2.48-5.53,5.53-5.53Zm38.72,178.83H22.91c-3.05,0-5.53-2.48-5.53-5.53v-119.46h49.78v119.46c0,3.05-2.48,5.53-5.53,5.53Z"/>
    <path class="cls-1" d="m42.26,173.17c-7.13,0-12.91,5.78-12.91,12.91s5.78,12.91,12.91,12.91,12.91-5.78,12.91-12.91-5.78-12.91-12.91-12.91Zm0,18.44c-3.05,0-5.53-2.48-5.53-5.53s2.48-5.53,5.53-5.53,5.53,2.48,5.53,5.53-2.48,5.53-5.53,5.53Z"/>
    <path class="cls-1" d="m245.79,204.72l-30.16-165.04c-1.14-6.23-6.57-10.59-12.68-10.59-.77,0-1.55.07-2.33.21l-38.09,6.96c-7.01,1.28-11.66,8-10.38,15.01l30.16,165.04c1.14,6.23,6.57,10.59,12.68,10.59.77,0,1.55-.07,2.33-.21l38.09-6.96c7.01-1.28,11.66-8,10.38-15.01ZM163.86,43.52l38.09-6.96c.34-.06.67-.09,1.01-.09,2.66,0,4.95,1.91,5.43,4.54l7.36,40.27-48.97,8.95-7.36-40.27c-.55-3,1.45-5.89,4.45-6.43Zm70.23,168.96l-38.09,6.96c-.34.06-.68.09-1.01.09-2.66,0-4.95-1.91-5.43-4.54l-21.47-117.51,48.97-8.95,21.47,117.51c.55,3-1.45,5.89-4.45,6.43Z"/>
    <path class="cls-1" d="m209.42,172.22c-.77,0-1.55.07-2.33.21-7.01,1.28-11.66,8-10.38,15.01,1.14,6.23,6.57,10.59,12.68,10.59.77,0,1.55-.07,2.33-.21,7.01-1.28,11.66-8,10.38-15.01-1.14-6.23-6.57-10.59-12.68-10.59Zm.98,18.35c-.34.06-.67.09-1.01.09-2.66,0-4.95-1.91-5.43-4.54-.55-3,1.45-5.89,4.45-6.43.34-.06.67-.09,1.01-.09,2.66,0,4.94,1.91,5.42,4.54.55,3-1.45,5.89-4.45,6.44Z"/>
    <path class="cls-1" d="m132.6,31.21h-38.72c-7.13,0-12.91,5.78-12.91,12.91v167.77c0,7.13,5.78,12.91,12.91,12.91h38.72c7.13,0,12.91-5.78,12.91-12.91V44.12c0-7.13-5.78-12.91-12.91-12.91Zm-38.72,7.37h38.72c3.05,0,5.53,2.48,5.53,5.53v40.94h-49.78v-40.94c0-3.05,2.48-5.53,5.53-5.53Zm38.72,178.83h-38.72c-3.05,0-5.53-2.48-5.53-5.53v-119.46h49.78v119.46c0,3.05-2.48,5.53-5.53,5.53Z"/>
    <path class="cls-1" d="m113.24,173.17c-7.13,0-12.91,5.78-12.91,12.91s5.78,12.91,12.91,12.91,12.91-5.78,12.91-12.91-5.78-12.91-12.91-12.91Zm0,18.44c-3.05,0-5.53-2.48-5.53-5.53s2.48-5.53,5.53-5.53,5.53,2.48,5.53,5.53-2.48,5.53-5.53,5.53Z"/>
  </g>
</svg>
