<?xml version="1.0" encoding="UTF-8"?>
<svg id="Layer_1" data-name="Layer 1" xmlns="http://www.w3.org/2000/svg" viewBox="0 0 256 256" fill="green">
  <defs>

  </defs>
  <path class="cls-1" d="m246,115.65v-22.84h-22.84v-30.45h-49.48v30.45h-7.61v-30.45h-49.48v30.45h-7.61v-51.35l7.61-3.22V10.93L10,56.03v27.3l7.61-3.22v142.12h-7.61v22.84h236v-22.84h-7.61v-106.58h7.61Zm-64.71-30.45h26.65v-7.61h-26.65v-7.61h34.26v22.84h-34.26v-7.61Zm-57.1,0h26.65v-7.61h-26.65v-7.61h34.26v22.84h-34.26v-7.61ZM17.61,61.07L108.97,22.42v10.76L17.61,71.84v-10.76Zm22.84,176.38h-22.84v-7.61h22.84v7.61Zm53.29,0h-45.68v-79.94h45.68v79.94Zm-53.29-87.55v72.32h-15.23V76.89l76.13-32.21v48.13h-7.61v22.84h137.03v106.58H101.35v-72.32h-60.9Zm197.94,87.55H101.35v-7.61h137.03v7.61ZM101.35,108.03v-7.61h137.03v7.61H101.35Z"/>
  <path class="cls-1" d="m86.13,85.19h-45.68v45.68h-7.61v7.61h60.9v-7.61h-7.61v-45.68Zm-26.65,45.68h-11.42v-15.23h11.42v15.23Zm0-22.84h-11.42v-15.23h11.42v15.23Zm19.03,22.84h-11.42v-15.23h11.42v15.23Zm0-22.84h-11.42v-15.23h11.42v15.23Z"/>
  <path class="cls-1" d="m223.16,184.16h-7.61v-45.68h-45.68v45.68h-7.61v-45.68h-45.68v45.68h-7.61v7.61h114.19v-7.61Zm-87.55,0h-11.42v-15.23h11.42v15.23Zm0-22.84h-11.42v-15.23h11.42v15.23Zm19.03,22.84h-11.42v-15.23h11.42v15.23Zm0-22.84h-11.42v-15.23h11.42v15.23Zm34.26,22.84h-11.42v-15.23h11.42v15.23Zm0-22.84h-11.42v-15.23h11.42v15.23Zm19.03,22.84h-11.42v-15.23h11.42v15.23Zm0-22.84h-11.42v-15.23h11.42v15.23Z"/>
  <path class="cls-1" d="m86.13,165.13h-30.45v34.26h30.45v-34.26Zm-7.61,26.65h-15.23v-19.03h15.23v19.03Z"/>
</svg>