<?xml version="1.0" encoding="UTF-8"?>
<svg id="Layer_1" data-name="Layer 1" xmlns="http://www.w3.org/2000/svg" viewBox="0 0 256 256" fill='green'>

  <g id="hospital">
    <polygon class="cls-1" points="11.97 242.07 68.11 242.07 68.11 234.58 19.45 234.58 19.45 111.06 68.11 111.06 68.11 103.58 11.97 103.58 11.97 242.07"/>
    <polygon class="cls-1" points="187.89 103.58 187.89 111.06 236.55 111.06 236.55 234.58 187.89 234.58 187.89 242.07 244.03 242.07 244.03 103.58 187.89 103.58"/>
    <path class="cls-1" d="m53.14,122.29h-22.46v22.46h22.46v-22.46Zm-7.49,14.97h-7.49v-7.49h7.49v7.49Z"/>
    <path class="cls-1" d="m53.14,155.98h-22.46v22.46h22.46v-22.46Zm-7.49,14.97h-7.49v-7.49h7.49s0,7.49,0,7.49Z"/>
    <path class="cls-1" d="m30.68,212.13h22.46v-22.46h-22.46v22.46Zm7.49-14.97h7.49v7.49h-7.49v-7.49Z"/>
    <path class="cls-1" d="m225.32,122.29h-22.46v22.46h22.46v-22.46Zm-7.49,14.97h-7.49v-7.49h7.49v7.49Z"/>
    <path class="cls-1" d="m202.86,178.44h22.46v-22.46h-22.46v22.46h0Zm7.49-14.97h7.49v7.49h-7.49v-7.49Z"/>
    <path class="cls-1" d="m202.86,212.13h22.46v-22.46h-22.46v22.46h0Zm7.49-14.97h7.49v7.49h-7.49v-7.49Z"/>
    <path class="cls-1" d="m195.56,246H60.44V36.01h135.12v209.99Zm-127.26-7.86h119.4V43.87s-119.4,0-119.4,0v194.27Z"/>
    <polygon class="cls-1" points="187.89 17.49 187.89 10 180.4 10 176.66 10 79.34 10 75.6 10 68.11 10 68.11 17.49 75.6 17.49 75.6 43.69 83.08 43.69 83.08 17.49 172.92 17.49 172.92 43.69 180.4 43.69 180.4 17.49 187.89 17.49"/>
    <path class="cls-1" d="m105.54,58.66h-22.46v22.46h22.46v-22.46h0Zm-7.49,14.97h-7.49v-7.49h7.49v7.49Z"/>
    <path class="cls-1" d="m139.23,58.66h-22.46v22.46h22.46v-22.46Zm-7.49,14.97h-7.49v-7.49h7.49v7.49Z"/>
    <path class="cls-1" d="m172.92,58.66h-22.46v22.46h22.46v-22.46h0Zm-7.49,14.97h-7.49v-7.49h7.49v7.49Z"/>
    <path class="cls-1" d="m165.43,174.69h-86.09v7.49h7.49v59.89h82.35v-59.89h7.49v-7.49h-11.23Zm-71.12,7.49h29.94v14.97h-3.74c-6.19,0-11.23,5.04-11.23,11.23s5.04,11.23,11.23,11.23h3.74v14.97h-29.94s0-52.4,0-52.4Zm29.94,29.94h-3.74c-2.06,0-3.74-1.68-3.74-3.74s1.68-3.74,3.74-3.74h3.74v7.49Zm7.49-7.49h3.74c2.06,0,3.74,1.68,3.74,3.74s-1.68,3.74-3.74,3.74h-3.74v-7.49Zm29.94,29.94h-29.94v-14.97h3.74c6.19,0,11.23-5.04,11.23-11.23s-5.04-11.23-11.23-11.23h-3.74v-14.97h29.94v52.4Z"/>
    <path class="cls-1" d="m83.08,114.81h22.46v-22.46h-22.46v22.46Zm7.49-14.97h7.49v7.49h-7.49v-7.49Z"/>
    <path class="cls-1" d="m116.77,114.81h22.46v-22.46h-22.46v22.46Zm7.49-14.97h7.49v7.49h-7.49v-7.49Z"/>
    <path class="cls-1" d="m150.46,114.81h22.46v-22.46h-22.46v22.46Zm7.49-14.97h7.49v7.49h-7.49v-7.49Z"/>
    <path class="cls-1" d="m83.08,148.49h22.46v-22.46h-22.46v22.46Zm7.49-14.97h7.49v7.49h-7.49v-7.49Z"/>
    <path class="cls-1" d="m116.77,148.49h22.46v-22.46h-22.46v22.46Zm7.49-14.97h7.49v7.49h-7.49v-7.49Z"/>
    <path class="cls-1" d="m150.46,148.49h22.46v-22.46h-22.46v22.46Zm7.49-14.97h7.49v7.49h-7.49v-7.49Z"/>
    <rect class="cls-1" x="79.34" y="159.72" width="82.35" height="7.49"/>
    <rect class="cls-1" x="169.17" y="159.72" width="7.49" height="7.49"/>
  </g>
</svg>
