<?xml version="1.0" encoding="UTF-8"?>
<svg id="Layer_1" data-name="Layer 1" xmlns="http://www.w3.org/2000/svg" viewBox="0 0 256 256" fill="green">
  <defs>
  </defs>
  <path id="s-home" class="cls-1" d="m42.34,242.5v-102.72h6.73v92.51l3.5,3.5h41.15l3.5-3.5v-65.08h61.56v65.08l3.5,3.5h41.16l3.5-3.5v-92.51h6.71v102.72H42.34Zm61.59-65.08v54.88l3.5,3.5h41.15l3.5-3.5v-54.88l-3.5-3.5h-41.15l-3.5,3.5Zm24.07-44.64c-13.2,0-23.93-10.74-23.93-23.93s10.74-23.93,23.93-23.93,23.93,10.74,23.93,23.93-10.74,23.93-23.93,23.93Zm0-41.15c-9.49,0-17.22,7.72-17.22,17.22s7.72,17.22,17.22,17.22,17.21-7.72,17.21-17.22-7.72-17.22-17.21-17.22ZM18.38,124.57L128.01,14.95l109.61,109.63-4.74,4.74L130.48,26.92h-4.95L23.14,129.31l-4.75-4.74Z"/>
</svg>