<?xml version="1.0" encoding="UTF-8"?>
<svg id="Layer_1" data-name="Layer 1" xmlns="http://www.w3.org/2000/svg" viewBox="0 0 256 256">
  <defs>
    <style>
      .cls-1 {
        fill: #010101;
      }
    </style>
  </defs>
  <path class="cls-1" d="m246,42.69c0-.78-.2-1.5-.52-2.17-.11-.82-.44-1.62-1-2.28l-24.21-28.25H35.72l-24.21,28.25c-.56.65-.89,1.45-1,2.27-.31.66-.52,1.38-.52,2.17v42.04h11.8v161.27h212.4V84.73h11.8v-42.04ZM39.34,17.87h177.31l16.86,19.67H22.48l16.86-19.67Zm186.99,220.27H29.67V84.73h196.67v153.4Zm11.8-161.27H17.87v-31.47h220.27v31.47Z"/>
  <path class="cls-1" d="m175.2,100.47h-94.4v39.33h94.4v-39.33Zm-7.87,31.47h-78.67v-23.6h78.67v23.6Z"/>
  <path class="cls-1" d="m187,159.47h-118v55.07h118v-55.07Zm-7.87,47.2h-102.27v-39.33h102.27v39.33Z"/>
  <path class="cls-1" d="m96.53,198.8h19.67c2.17,0,3.93-1.76,3.93-3.93s-1.76-3.93-3.93-3.93h-19.67c-2.17,0-3.93,1.76-3.93,3.93s1.76,3.93,3.93,3.93Z"/>
  <path class="cls-1" d="m116.2,183.07h43.27c2.17,0,3.93-1.76,3.93-3.93s-1.76-3.93-3.93-3.93h-43.27c-2.17,0-3.93,1.76-3.93,3.93s1.76,3.93,3.93,3.93Z"/>
  <path class="cls-1" d="m96.53,183.07c1.02,0,2.05-.43,2.79-1.14.71-.75,1.14-1.77,1.14-2.79s-.43-2.05-1.14-2.79c-1.49-1.46-4.09-1.46-5.59,0-.71.74-1.14,1.77-1.14,2.79s.43,2.05,1.14,2.79c.75.71,1.73,1.14,2.79,1.14Z"/>
  <path class="cls-1" d="m133.07,192.07c-.71.74-1.14,1.77-1.14,2.79s.43,2.05,1.14,2.79c.75.71,1.77,1.14,2.79,1.14s2.05-.43,2.79-1.14c.71-.75,1.14-1.77,1.14-2.79s-.43-2.05-1.14-2.79c-1.46-1.46-4.13-1.46-5.59,0Z"/>
  <path class="cls-1" d="m159.47,190.93h-3.93c-2.17,0-3.93,1.76-3.93,3.93s1.76,3.93,3.93,3.93h3.93c2.17,0,3.93-1.76,3.93-3.93s-1.76-3.93-3.93-3.93Z"/>
</svg>