<?xml version="1.0" encoding="UTF-8"?>
<svg id="Layer_1" data-name="Layer 1" xmlns="http://www.w3.org/2000/svg" viewBox="0 0 256 256">
  <defs>
    <style>
      .cls-1 {
        fill: #fff;
      }

      .cls-2 {
        fill: #010101;
      }
    </style>
  </defs>
  <g id="arrow-left">
    <path class="cls-2" d="m85.03,127.84l15.38-16.03h0S181.97,26.83,181.97,26.83l-5.76-6c-25.42,26.47-78.61,81.89-102.72,107.02,5.74,5.98,8,8.34,30.13,31.39l72.96,76.01,5.85-5.92-97.4-101.49Z"/>
    <path class="cls-1" d="m105.82,127.84l5.35-5.58h0S202.76,26.84,202.76,26.84L176.22-.83l-5.41,5.63c-23.94,24.93-90.78,94.57-113.12,117.85l-4.98,5.19,7.82,8.16q7.61,7.94,32.27,33.62l83.62,87.12,26.95-27.26-97.55-101.65Zm-42.72,0c22.34-23.28,89.17-92.91,113.11-117.84l16.15,16.84-86.61,90.24.06-.06-10.4,10.83,97.48,101.57-16.4,16.59c-112.98-117.72-96.81-100.85-113.4-118.16Z"/>
    <path class="cls-1" d="m95.42,127.84l10.4-10.83-.06.06L192.37,26.84l-16.15-16.84c-23.94,24.93-90.78,94.57-113.11,117.84,16.59,17.3.41.44,113.4,118.16l16.4-16.59-97.48-101.57Zm8.2,31.4c-22.12-23.05-24.39-25.41-30.13-31.39,24.11-25.13,77.3-80.54,102.72-107.02l5.76,6-81.57,84.99h0s-15.38,16.02-15.38,16.02l97.4,101.49-5.85,5.92-72.96-76.01Z"/>
  </g>
</svg>