<?xml version="1.0" encoding="UTF-8"?>
<svg id="Layer_1" data-name="Layer 1" xmlns="http://www.w3.org/2000/svg" viewBox="0 0 256 256">
  <defs>
    <style>
      .cls-1 {
        fill: #010101;
        stroke: #212121;
        stroke-miterlimit: 10;
        stroke-width: 5px;
      }
    </style>
  </defs>
  <g id="baby-standup">
    <path class="cls-1" d="m78.47,105.12v60.11c0,5.15,4.05,9.34,9.03,9.34,2.75,0,5.2-1.3,6.85-3.33v57.31c0,9.62,7.82,17.44,17.44,17.44,7.34,0,13.63-4.57,16.2-11,2.57,6.44,8.85,11,16.2,11,9.62,0,17.44-7.82,17.44-17.44v-56.92c1.65,1.8,3.96,2.94,6.54,2.94,4.68,0,8.5-3.72,8.95-8.44.24-.23.4-.55.4-.9v-60.11c0-9.62-7.83-17.44-17.44-17.44h-20.24c11.28-4.39,19.31-15.34,19.31-28.15,0-16.66-13.55-30.21-30.21-30.21h-14.02c-4.64,0-8.41-3.78-8.41-8.41,0-4.64,3.77-8.41,8.41-8.41,2.15,0,3.89,1.75,3.89,3.89s-1.75,3.89-3.89,3.89c-.69,0-1.25.56-1.25,1.25s.56,1.25,1.25,1.25c3.52,0,6.38-2.86,6.38-6.39s-2.86-6.38-6.38-6.38c-6.01,0-10.9,4.89-10.9,10.9s4.89,10.9,10.9,10.9h2.03c-10.71,4.65-18.23,15.32-18.23,27.72s8.03,23.76,19.31,28.15h-22.11c-9.62,0-17.44,7.82-17.44,17.44Zm22.74-45.59c0-15.29,12.44-27.72,27.72-27.72s27.72,12.44,27.72,27.72-12.43,27.72-27.72,27.72-27.72-12.44-27.72-27.72Zm57.63,88.15c0,17-13.83,30.84-30.84,30.84s-30.84-13.83-30.84-30.84v-1.82h61.67v1.82Zm-47.03,95.83c-8.25,0-14.95-6.7-14.95-14.95v-69.12c4.65,12.28,16.32,21.09,30.09,21.52-.11.18-.19.39-.19.62v46.98c0,8.24-6.71,14.95-14.95,14.95Zm47.35-14.95c0,8.25-6.71,14.95-14.95,14.95s-14.95-6.7-14.95-14.95v-46.98c0-.23-.08-.44-.19-.62,13.78-.43,25.44-9.25,30.09-21.52v69.13Zm15.89-123.44v59.31c-.18.22-.31.49-.31.8,0,3.78-2.94,6.85-6.54,6.85s-6.54-3.07-6.54-6.85v-14.44c0-.37-.16-.7-.42-.92.05-.73.11-1.46.11-2.2v-2.26c.19-.22.31-.49.31-.8s-.12-.58-.31-.8v-28.53c0-.69-.56-1.25-1.25-1.25s-1.25.56-1.25,1.25v28.09h-61.67v-28.09c0-.69-.56-1.25-1.25-1.25s-1.25.56-1.25,1.25v34.71c-.19.21-.31.49-.31.8v13.63c-.19.21-.31.49-.31.8,0,3.78-2.94,6.85-6.54,6.85s-6.54-3.07-6.54-6.85v-60.11c0-8.25,6.71-14.95,14.95-14.95h64.17c8.24,0,14.95,6.71,14.95,14.95Z"/>
  </g>
</svg>