<?xml version="1.0" encoding="UTF-8"?>
<svg id="Layer_1" data-name="Layer 1" xmlns="http://www.w3.org/2000/svg" viewBox="0 0 256 256">
  <defs>
    <style>
      .cls-1 {
        fill: none;
        stroke: red;
        stroke-miterlimit: 66.67;
        stroke-width: 7px;
      }
    </style>
  </defs>
  <g id="baby">
    <path class="cls-1" d="m246,87.06c0,19.97-16.18,36.15-36.15,36.15s-36.15-16.18-36.15-36.15,16.19-36.15,36.15-36.15,36.15,16.19,36.15,36.15Z"/>
    <path class="cls-1" d="m212.23,173.84l2.03,2.04h17.13c3.87,0,7.59,1.54,10.33,4.28,2.74,2.74,4.28,6.45,4.28,10.33s-1.54,7.59-4.28,10.33c-2.74,2.74-6.45,4.28-10.33,4.28h-21.22c-.05,0-.12-.01-.18-.02-.21-.02-.51-.04-.86-.04h-.18c-1.96.05-3.9-.3-5.72-1.04-1.81-.74-3.45-1.85-4.82-3.25h0l-.07-.07-6.64-6.65-5-5.01-4.91,5.09c-3.35,3.47-7.36,6.23-11.79,8.12-4.43,1.89-9.2,2.86-14.02,2.87h-32.17l-3.62-72.3h38.02c5.89-.03,11.69,1.44,16.85,4.28,5.16,2.84,9.51,6.96,12.62,11.96l.42.67.56.56,23.56,23.59Z"/>
    <path class="cls-1" d="m76.05,152.3l.8-.8c1.15-.98,2.45-1.78,3.85-2.36h0c1.75-.73,3.62-1.1,5.51-1.1s3.77.37,5.52,1.1h0c1.75.72,3.33,1.79,4.67,3.12,1.34,1.34,2.4,2.93,3.12,4.67h0c.72,1.75,1.1,3.62,1.1,5.52s-.37,3.77-1.1,5.51h0c-.72,1.75-1.79,3.34-3.12,4.68h0s-28,28.01-28,28.01h0l-.07.07c-1.37,1.4-3.01,2.51-4.82,3.25h0c-1.81.74-3.76,1.1-5.72,1.05l-.94-.02-.34.08h-31.91c-3.87,0-7.59-1.54-10.33-4.28-2.74-2.74-4.28-6.45-4.28-10.33s1.54-7.59,4.28-10.33c2.74-2.74,6.45-4.28,10.33-4.28h27.87l2.03-2.03,21.55-21.55Z"/>
  </g>
</svg>
