<?xml version="1.0" encoding="UTF-8"?>
<svg id="Layer_1" data-name="Layer 1" xmlns="http://www.w3.org/2000/svg" viewBox="0 0 256 256">
  <defs>
    <style>
      .cls-1 {
        fill: #222;
      }
    </style>
  </defs>
  <g id="bag-gbp">
    <path class="cls-1" d="m124.15,244c-20.4,0-45.79,0-65.74-7.67-16.02-6.16-35.12-20.8-35.12-55.54,0-25.47,12.23-54.68,36.35-86.84,10.39-13.85,21.62-26.63,32.48-36.96l1.22-1.16-21.96-32.92c-.64-.96-.83-2.15-.51-3.26.32-1.11,1.1-2.02,2.15-2.5,6.24-2.82,12.33-4.2,18.64-4.2,5.44,0,10.2,1.03,13.73,1.93,1.21.31,2.38.62,3.54.93,5.55,1.48,10.79,2.87,16.99,2.87,2.43,0,4.83-.21,7.35-.64,6.4-1.1,11.07-2.36,15.19-3.47,3.42-.92,6.37-1.72,9.53-2.2,1.63-.25,3.18-.37,4.72-.37h.41c5.53.08,11.81,1.71,19.78,5.12,1.07.46,1.88,1.37,2.21,2.49.33,1.12.15,2.32-.5,3.3l-21.96,32.91,1.22,1.16c10.86,10.33,22.09,23.12,32.48,36.96,24.12,32.16,36.35,61.38,36.35,86.84,0,34.74-19.1,49.38-35.12,55.54-19.91,7.65-45.24,7.67-65.62,7.67h-7.82Zm-24.71-183.24c-3.96,3.7-18.09,17.36-33.51,37.92-15.87,21.16-34.79,52.58-34.79,82.11,0,25.68,9,40.09,30.09,48.2,18.59,7.15,45.3,7.15,66.76,7.15s48.17,0,66.76-7.15c21.09-8.11,30.09-22.53,30.09-48.21,0-29.53-18.92-60.95-34.79-82.11-15.42-20.56-29.55-34.22-33.51-37.92l-.58-.54h-55.95l-.58.54Zm-6.06-39.57c-3.12,0-6.29.39-9.67,1.2l-2.79.67,19.53,29.31h55.08l19.3-28.94-2.69-.72c-.95-.25-1.94-.55-2.93-.85-2.96-.89-6.03-1.82-8.62-1.82-.5,0-.97.03-1.41.1-2.18.34-4.58.98-7.6,1.8-4.29,1.16-9.63,2.59-17,3.86-2.85.49-5.73.74-8.57.74h0c-7.5,0-13.82-1.69-19.4-3.18-1.08-.29-2.13-.57-3.16-.83-3.51-.89-6.81-1.33-10.07-1.33Zm57.27,175.36l-1.78-.17-1.72-.35-1.7-.53-1.75-.71-2.58-1.1-2.74-.95-2.79-.78-2.87-.58-2.87-.39-2.91-.19h-2.91l-2.89.19-2.86.39-2.87.56-2.8.78-2.74.95-2.7,1.14-1.13.57-5.49-6.45.76-1.05,1.55-2.48,1.39-2.58,1.19-2.67,1.02-2.74.82-2.81.66-2.86.44-2.9.24-2.91.08-4.9h-14.3v-7.86h12.83l-.37-2.33-.38-2.23-.17-2.15v-2.19l.15-2.18.35-2.16.5-2.12.67-2.09.84-2.01.97-1.95,1.14-1.87,1.3-1.75,1.41-1.67,1.55-1.55,1.66-1.4,1.75-1.28,1.88-1.15,1.94-.99,2.03-.82,2.08-.67,2.12-.5,2.16-.35,2.18-.15h2.18l2.18.19,2.13.34,2.12.54,2.1.67,2,.86,1.92.99,1.86,1.17,1.75,1.3,1.66,1.44,1.51,1.56,1.4,1.66,1.25,1.79,1.13,1.86.97,1.96.82,2.03.05.18-7.62,2.03-.8-1.83-.98-1.76-1.16-1.62-1.31-1.52-1.47-1.37-1.59-1.21-1.71-1.06-1.81-.85-1.89-.69-1.94-.49-1.99-.28-2-.08-2.01.1-1.97.34-1.93.51-1.87.72-1.81.88-1.68,1.08-1.59,1.23-1.45,1.4-1.29,1.54-1.13,1.64-.96,1.76-.78,1.86-.57,1.93-.38,1.94-.21,1.99.02,2.01.21,1.99.42,1.89.71,2.89h16.4v7.86h-15.32l-.08,4.67-.18,2.63-.31,2.63-.45,2.61-.59,2.64-.68,2.49-1.92,5.71,6.21-1.01,2.9-.31,2.92-.16,2.93.02,2.9.2,2.9.36,2.87.51,2.85.69,2.81.85,2.74,1,2.73,1.18,1.28.49,1.37.34,1.42.14,1.4-.03,1.4-.2,1.39-.4.74-.34,4.55,6.52-1.38.69-1.65.65-1.72.48-1.73.33-1.77.15-1.79-.02Z"/>
  </g>
</svg>