<?xml version="1.0" encoding="UTF-8"?>
<svg id="Layer_1" data-name="Layer 1" xmlns="http://www.w3.org/2000/svg" viewBox="0 0 256 256">
  <defs>
    <style>
      .cls-1 {
        fill: #010101;
      }
    </style>
  </defs>
  <path class="cls-1" d="m115.45,91.82c-.23-.18-5.72-4.31-14.86-6.36-8.34-1.87-21.52-2.34-36.96,6.06-12.4,6.75-19.4,6.9-23.08,5.84-2.89-.83-6.02-.27-8.37,1.51-2.29,1.72-3.6,4.36-3.6,7.24v24.09c0,24.64,19.43,45.05,43.32,45.48.28,0,.56,0,.83,0,11.64,0,22.6-4.47,30.92-12.64,8.52-8.37,13.22-19.56,13.22-31.5v-38.64l-1.42-1.08Zm-5.8,39.72c0,9.99-3.93,19.35-11.06,26.35-7.13,7-16.57,10.76-26.56,10.57-19.98-.37-36.23-17.53-36.23-38.26v-24.09c0-.77.39-1.22.72-1.47.38-.29.84-.43,1.33-.43.23,0,.47.03.71.1,7.25,2.08,16.85-.09,28.52-6.44,21.68-11.8,37.82-4.11,42.57-1.24v34.92h0Z"/>
  <rect class="cls-1" x="28.55" y="75.63" width="7.22" height="11.55"/>
  <rect class="cls-1" x="28.55" y="32.31" width="7.22" height="36.1"/>
  <path class="cls-1" d="m110.37,10H35.07c-13.74,0-24.92,11.18-24.92,24.92v96.62c0,26.93,17.11,49.95,41.02,58.75v14.33h17.33v7.7h7.22v-7.7h18.77v-14.41c23.8-8.86,40.81-31.81,40.81-58.66V34.92c0-13.74-11.18-24.92-24.92-24.92Zm-23.1,187.39h-28.88v-4.94c4.6,1.08,9.4,1.66,14.33,1.66s9.88-.6,14.55-1.71v4.99Zm40.81-65.85c0,30.52-24.83,55.35-55.35,55.35-30.52,0-55.35-24.83-55.35-55.35V34.92c0-9.76,7.94-17.7,17.7-17.7h75.31c9.76,0,17.7,7.94,17.7,17.7v96.62h0Z"/>
  <rect class="cls-1" x="171.97" y="68.41" width="7.22" height="15.4"/>
  <path class="cls-1" d="m238.48,154.34V33.88c0-13.17-10.71-23.88-23.88-23.88s-23.88,10.71-23.88,23.88v31.32h7.22v-31.32c0-9.19,7.47-16.66,16.66-16.66s16.66,7.47,16.66,16.66v120.46c-4.29,1.5-7.37,5.58-7.37,10.37v22.11c0,4.79,3.08,8.87,7.37,10.37v15.43h7.22v-15.43c4.29-1.5,7.37-5.58,7.37-10.37v-22.11c0-4.79-3.08-8.87-7.37-10.37Zm.15,32.48c0,2.07-1.69,3.76-3.76,3.76s-3.76-1.69-3.76-3.76v-22.11c0-2.07,1.69-3.76,3.76-3.76s3.76,1.69,3.76,3.76v22.11Z"/>
  <path class="cls-1" d="m161.17,179.1h18.43c10.13,0,18.37-8.11,18.37-18.08v-44.3h7.35v-47.76h-21.96v47.76h7.39v44.3c0,6.09-4.9,10.87-11.15,10.87h-18.43c-10.12,0-18.35,8.31-18.35,18.53s8.23,18.53,18.35,18.53h22.11c8.17,0,14.82,6.69,14.82,14.92s-6.65,14.92-14.82,14.92h-95.82c-6.26,0-11.74-5.34-11.74-11.43v-11.19h-7.22v11.19c0,10.11,8.68,18.65,18.96,18.65h95.82c12.15,0,22.04-9.93,22.04-22.14s-9.88-22.14-22.04-22.14h-22.11c-6.14,0-11.13-5.07-11.13-11.31s4.99-11.31,11.13-11.31Zm29.41-69.6v-33.32h7.52v33.32h-7.52Z"/>
  <path class="cls-1" d="m54.3,65.28c-6.05,0-10.98,4.93-10.98,10.98s4.93,10.98,10.98,10.98,10.98-4.93,10.98-10.98-4.93-10.98-10.98-10.98Zm0,14.74c-2.07,0-3.76-1.69-3.76-3.76s1.69-3.76,3.76-3.76,3.76,1.69,3.76,3.76-1.69,3.76-3.76,3.76Z"/>
  <rect class="cls-1" x="61.76" y="28.46" width="22.14" height="7.22"/>
</svg>