<?xml version="1.0" encoding="UTF-8"?>
<svg id="Layer_1" data-name="Layer 1" xmlns="http://www.w3.org/2000/svg" viewBox="0 0 256 256">
  <defs>
    <style>
      .cls-1 {
        fill: #fcd50e;
        fill-rule: evenodd;
      }
    </style>
  </defs>
  <path class="cls-1" d="m179.76,94.85c-4.97,0-9.64-1.94-13.15-5.45-7.25-7.25-7.25-19.05,0-26.31,3.51-3.51,8.18-5.45,13.15-5.45s9.64,1.94,13.15,5.45c7.25,7.25,7.25,19.05,0,26.31-3.51,3.51-8.18,5.45-13.15,5.45Zm0-34.71c-4.3,0-8.35,1.68-11.39,4.72-3.04,3.04-4.72,7.09-4.72,11.39s1.68,8.35,4.72,11.39c3.04,3.04,7.09,4.72,11.39,4.72s8.35-1.68,11.39-4.72c3.04-3.04,4.72-7.09,4.72-11.39s-1.68-8.35-4.72-11.39c-3.04-3.04-7.09-4.72-11.39-4.72Z"/>
  <path class="cls-1" d="m115.4,240c-3.24,0-6.28-1.26-8.57-3.55L19.55,149.16c-2.29-2.29-3.55-5.33-3.55-8.56s1.26-6.28,3.55-8.56L132.04,19.55c2.29-2.29,5.33-3.55,8.56-3.55h87.29c6.68,0,12.11,5.43,12.11,12.11v87.29c0,3.23-1.26,6.28-3.55,8.56l-112.49,112.49c-2.29,2.29-5.33,3.55-8.56,3.55Zm28.96-217.89c-4.03,0-7.81,1.57-10.66,4.42L30.29,129.94c-5.88,5.88-5.88,15.44,0,21.32l74.45,74.45c2.85,2.85,6.63,4.42,10.66,4.42s7.81-1.57,10.66-4.42l103.41-103.41c2.85-2.85,4.42-6.63,4.42-10.66V37.19c0-8.31-6.76-15.08-15.08-15.08h-74.45Z"/>
</svg>
