<?xml version="1.0" encoding="UTF-8"?>
<svg id="Layer_1" data-name="Layer 1" xmlns="http://www.w3.org/2000/svg" viewBox="0 0 256 256" fill='green'>

  <path class="cls-1" d="m31.99,243c-10.46-.01-18.99-8.54-19-19.01V64c.01-10.46,8.54-18.99,19.01-19h13v-29c0-1.65,1.35-3,3-3s3,1.35,3,3v29h154.01v-29c0-1.65,1.35-3,3-3s3,1.35,3,3v29h13c10.46.01,18.99,8.54,19,19v159.99c-.01,10.46-8.54,18.99-19,19h0H31.99Zm-13-19c.01,7.16,5.84,12.99,13,13h192.02c7.16,0,12.99-5.84,13-13v-125H18.99v124.99ZM31.99,51c-7.16,0-12.99,5.84-13,13v29.01h218.01v-29c0-7.16-5.84-12.99-13-13H31.99Z"/>
</svg>
