<?xml version="1.0" encoding="UTF-8"?>
<svg id="Layer_1" data-name="Layer 1" xmlns="http://www.w3.org/2000/svg" viewBox="0 0 256 256">
  <defs>
    <style>
      .cls-1 {
        fill: red;
      }
    </style>
  </defs>
  <path class="cls-1" d="m111.91,151.82c-.87,0-1.73-1.01-2.22-1.72l-14.67-30.46h-26.02c-1.57,0-2.36-.79-2.36-2.36s.79-2.36,2.36-2.36h27.89c.87,0,1.72,1.01,2.22,1.71l12.91,27.17,26.34-59.87.06-.25c.17-.69,1.24-.95,1.92-.95s1.4.12,2.12,1.51l13.63,30.68h30.91c1.57,0,2.36.79,2.36,2.36s-.8,2.36-2.36,2.36h-32.18c-1.1,0-1.88-.49-2.01-.69l-.05-.14-12.44-27.65-26.29,59.16c-.71,1.39-1.44,1.5-2.12,1.5Z"/>
  <path class="cls-1" d="m58.27,243c-7.46,0-13.09-5.63-13.09-13.09V42.18c0-7.46,5.63-13.09,13.09-13.09h10.73c1.57,0,2.36.79,2.36,2.36s-.8,2.36-2.36,2.36h-10.73c-4.85,0-8.36,3.52-8.36,8.36v187.73c0,4.85,3.52,8.36,8.36,8.36h139.46c4.85,0,8.36-3.52,8.36-8.36V42.18c0-4.85-3.52-8.36-8.36-8.36h-37.55c-1.57,0-2.36-.79-2.36-2.36v-3h-11.05c-4.68,0-9.13-2.55-11.32-6.5l-.06-.11-.07-.1c-1.63-2.44-4.51-3.95-7.54-3.95s-5.74,1.54-7.22,4.13c-2.21,3.98-6.66,6.53-11.34,6.53h-11.05v22.09h62c1.57,0,2.36.8,2.36,2.36s-.79,2.36-2.36,2.36h-64.36c-1.57,0-2.36-.79-2.36-2.36v-26.82c0-1.57.79-2.36,2.36-2.36h13.41c2.57,0,4.97-1.05,6.95-3.03l.34-.34.22-.43c2.14-4.27,6.45-6.92,11.26-6.92s9.18,2.63,11.87,7.05c1.18,2.21,3.93,3.68,6.91,3.68h13.41c1.57,0,2.36.8,2.36,2.36v3h35.18c7.46,0,13.09,5.63,13.09,13.09v187.73c0,7.46-5.63,13.09-13.09,13.09H58.27Z"/>
  <path class="cls-1" d="m69,189.36c-1.57,0-2.36-.79-2.36-2.36s.79-2.36,2.36-2.36h69.73c1.57,0,2.36.8,2.36,2.36s-.79,2.36-2.36,2.36h-69.73Z"/>
  <path class="cls-1" d="m69,210.82c-1.57,0-2.36-.79-2.36-2.36s.79-2.36,2.36-2.36h37.55c1.57,0,2.36.79,2.36,2.36s-.79,2.36-2.36,2.36h-37.55Z"/>
</svg>
