<?xml version="1.0" encoding="UTF-8"?>
<svg id="Layer_1" data-name="Layer 1" xmlns="http://www.w3.org/2000/svg" viewBox="0 0 256 256">
  <defs>
    <style>
      .cls-1 {
        fill: #010101;
      }
    </style>
  </defs>
  <rect class="cls-1" x="29.67" y="194.87" width="7.87" height="51.13"/>
  <rect class="cls-1" x="76.87" y="194.87" width="7.87" height="51.13"/>
  <rect class="cls-1" x="53.27" y="210.6" width="7.87" height="7.87"/>
  <rect class="cls-1" x="53.27" y="226.33" width="7.87" height="7.87"/>
  <path class="cls-1" d="m53.27,159.47h7.87c11.01,0,19.67-8.65,19.67-19.67v-11.8c0-11.01-8.65-19.67-19.67-19.67h-7.87c-11.01,0-19.67,8.65-19.67,19.67v11.8c0,11.01,8.65,19.67,19.67,19.67Zm-11.8-31.47c0-6.69,5.11-11.8,11.8-11.8h7.87c6.69,0,11.8,5.11,11.8,11.8v11.8c0,6.69-5.11,11.8-11.8,11.8h-7.87c-6.69,0-11.8-5.11-11.8-11.8v-11.8Z"/>
  <path class="cls-1" d="m218.47,163.4H37.53c-15.34,0-27.53,12.19-27.53,27.53v55.07h7.87v-55.07c0-11.01,8.65-19.67,19.67-19.67h5.11l11.01,29.11c.39,1.18,1.97,2.36,3.54,2.36s3.15-1.18,4.33-2.36l11.01-29.11h4.33c11.01,0,19.67,8.65,19.67,19.67v55.07h7.87v-55.07c0-7.87-3.15-14.55-8.26-19.67h17.31l11.01,29.11c.39,1.18,1.97,2.36,3.54,2.36s3.15-1.18,4.33-2.36l11.01-29.11h16.52c-5.11,5.11-8.26,11.8-8.26,19.67v55.07h7.87v-55.07c0-11.01,8.65-19.67,19.67-19.67h5.11l11.01,29.11c.39,1.18,1.97,2.36,3.54,2.36s3.15-1.18,4.33-2.36l11.01-29.11h4.33c11.01,0,19.67,8.65,19.67,19.67v55.07h7.87v-55.07c0-15.34-12.19-27.53-27.53-27.53Zm-160.87,24.39l-6.29-16.52h12.59l-6.29,16.52Zm70.8,0l-6.29-16.52h12.59l-6.29,16.52Zm70.8,0l-6.29-16.52h12.59l-6.29,16.52Z"/>
  <rect class="cls-1" x="171.27" y="194.87" width="7.87" height="51.13"/>
  <rect class="cls-1" x="218.47" y="194.87" width="7.87" height="51.13"/>
  <rect class="cls-1" x="194.87" y="210.6" width="7.87" height="7.87"/>
  <rect class="cls-1" x="194.87" y="226.33" width="7.87" height="7.87"/>
  <path class="cls-1" d="m194.87,159.47h7.87c11.01,0,19.67-8.65,19.67-19.67v-11.8c0-11.01-8.65-19.67-19.67-19.67h-7.87c-11.01,0-19.67,8.65-19.67,19.67v11.8c0,11.01,8.65,19.67,19.67,19.67Zm-11.8-31.47c0-6.69,5.11-11.8,11.8-11.8h7.87c6.69,0,11.8,5.11,11.8,11.8v11.8c0,6.69-5.11,11.8-11.8,11.8h-7.87c-6.69,0-11.8-5.11-11.8-11.8v-11.8Z"/>
  <rect class="cls-1" x="124.07" y="210.6" width="7.87" height="7.87"/>
  <rect class="cls-1" x="124.07" y="226.33" width="7.87" height="7.87"/>
  <path class="cls-1" d="m124.07,108.33c-11.01,0-19.67,8.65-19.67,19.67v11.8c0,11.01,8.65,19.67,19.67,19.67h7.87c11.01,0,19.67-8.65,19.67-19.67v-11.8c0-11.01-8.65-19.67-19.67-19.67h-7.87Zm19.67,19.67v11.8c0,6.69-5.11,11.8-11.8,11.8h-7.87c-6.69,0-11.8-5.11-11.8-11.8v-11.8c0-6.69,5.11-11.8,11.8-11.8h7.87c6.69,0,11.8,5.11,11.8,11.8Z"/>
  <path class="cls-1" d="m230.27,49.33h-59v-15.73h7.87c2.36,0,3.93-1.57,3.93-3.93v-15.73c0-2.36-1.57-3.93-3.93-3.93h-102.27c-2.36,0-3.93,1.57-3.93,3.93v15.73c0,2.36,1.57,3.93,3.93,3.93h7.87v15.73H25.73c-8.65,0-15.73,7.08-15.73,15.73v59c0,2.36,1.57,3.93,3.93,3.93h11.8v-7.87h-7.87v-55.07c0-4.33,3.54-7.87,7.87-7.87h204.53c4.33,0,7.87,3.54,7.87,7.87v55.07h-7.87v7.87h11.8c2.36,0,3.93-1.57,3.93-3.93v-59c0-8.65-7.08-15.73-15.73-15.73ZM80.8,17.87h94.4v7.87h-94.4v-7.87Zm11.8,31.47v-15.73h70.8v15.73h-70.8Z"/>
  <path class="cls-1" d="m96.53,96.53v11.8h7.87v-7.87h47.2v7.87h7.87v-11.8c0-2.36-1.57-3.93-3.93-3.93h-55.07c-2.36,0-3.93,1.57-3.93,3.93Z"/>
  <rect class="cls-1" x="100.47" y="72.93" width="31.47" height="7.87"/>
  <rect class="cls-1" x="139.8" y="72.93" width="15.73" height="7.87"/>
</svg>