<?xml version="1.0" encoding="UTF-8"?>
<svg id="Layer_1" data-name="Layer 1" xmlns="http://www.w3.org/2000/svg" viewBox="0 0 256 256">
  <defs>
    <style>
      .cls-1 {
        fill: none;
      }

      .cls-2 {
        fill: #010101;
      }
    </style>
  </defs>
  <g>
    <path class="cls-2" d="m19.39,245.14c-2.16,0-4.42-.94-6.3-2.82-3.32-3.32-3.76-8.01-1.05-10.72l21.39-21.39c8.4-8.4,31.72-34.54,36.91-44.87l14.48-28.85c8.79-17.52,19.95-33.32,33.16-46.92.77-.77,1.55-1.6,2.32-2.38L192.14,15.36c4.7-4.7,11.77-6.3,19.84-4.53,7.4,1.66,14.98,6.02,21.28,12.32,6.3,6.3,10.67,13.87,12.32,21.28,1.77,8.07.17,15.14-4.53,19.84l-71.29,71.29c-15.14,15.09-32.88,27.52-52.72,36.91l-25.09,11.88c-11.27,5.36-38.57,29.4-47.25,38.07l-20.89,21c-1.22,1.16-2.76,1.71-4.42,1.71Zm-.44-8.68h0c0,.06.06.06,0,0l19.89-19.78c8.51-8.51,36.64-33.6,49.51-39.73l25.09-11.88c18.95-8.95,35.92-20.83,50.4-35.26l.33-.33,70.95-70.95c2.65-2.65,3.48-6.96,2.32-12.21-1.27-5.91-4.86-11.99-10.06-17.19-5.19-5.19-11.33-8.79-17.19-10.06-5.25-1.16-9.56-.33-12.21,2.32l-71.84,71.84-2.27,2.27c-12.6,12.99-23.26,28.07-31.66,44.82l-14.48,28.85c-5.91,11.83-30.23,38.74-38.46,46.97l-20.34,20.34Z"/>
    <line class="cls-1" x1="32.88" y1="229.44" x2="27.02" y2="223.64"/>
  </g>
  <path class="cls-2" d="m152.02,130.19c-2.82,0-5.53-1.11-7.52-3.09l-15.14-15.14c-1.99-1.99-3.09-4.64-3.09-7.52s1.11-5.47,3.09-7.52l9.5-9.5c1.6-1.6,4.26-1.6,5.86,0s1.6,4.26,0,5.86l-9.5,9.5c-.44.44-.66.99-.66,1.66,0,.61.22,1.22.66,1.66l15.14,15.14c.44.44.99.66,1.66.66s1.22-.22,1.66-.66l36.42-36.47c1.6-1.6,4.26-1.6,5.86,0s1.6,4.26,0,5.86l-36.47,36.47c-1.93,1.99-4.59,3.09-7.46,3.09Z"/>
  <path class="cls-2" d="m150.31,85.49c-1.05,0-2.16-.39-2.93-1.22-1.6-1.66-1.6-4.26.06-5.86l30.17-29.67c4.14-4.09,10.83-4.03,14.92.06l15.14,15.14c1.99,1.99,3.09,4.64,3.09,7.52s-1.11,5.47-3.09,7.52l-1.71,1.71c-1.6,1.6-4.26,1.6-5.86,0s-1.6-4.26,0-5.86l1.71-1.71c.44-.44.66-.99.66-1.66,0-.61-.22-1.22-.66-1.66l-15.2-15.14c-.88-.88-2.38-.88-3.26,0l-30.17,29.67c-.77.77-1.82,1.16-2.87,1.16Z"/>
</svg>