<?xml version="1.0" encoding="UTF-8"?>
<svg id="Layer_1" data-name="Layer 1" xmlns="http://www.w3.org/2000/svg" viewBox="0 0 256 256">
  <defs>
    <style>
      .cls-1 {
        fill: #fcd50e;
      }
    </style>
  </defs>
  <path class="cls-1" d="m109.18,234.17c-1.52,0-2.8-1.19-2.91-2.71l-3.86-54.09c-.06-.78.19-1.53.71-2.12.51-.59,1.22-.94,1.99-1,.19-.02.3-.03.4-.03,1.42,0,2.61,1.2,2.72,2.72l3.67,51.39h33.9l.55-7.84c.11-1.55,1.33-2.71,2.84-2.71.08,0,.17,0,.25,0,.8.06,1.51.41,2.02,1,.51.59.76,1.34.7,2.11l-.75,10.54c-.1,1.52-1.38,2.71-2.9,2.71h-39.33Z"/>
  <path class="cls-1" d="m128.85,67c-12.45,0-22.58-10.13-22.58-22.58s10.13-22.58,22.58-22.58,22.58,10.13,22.58,22.58-10.13,22.58-22.58,22.58Zm0-39.33c-9.24,0-16.75,7.51-16.75,16.75s7.51,16.75,16.75,16.75,16.75-7.51,16.75-16.75-7.51-16.75-16.75-16.75Z"/>
  <path class="cls-1" d="m166.7,153.48c-1.46,0-2.71-1.1-2.89-2.56l-6.2-49.59c-1.05-8.37-8.2-14.67-16.63-14.67h-24.28c-1.83,0-3.71.33-5.58.99-.33.12-.65.17-.98.17-1.23,0-2.33-.78-2.75-1.95-.26-.73-.22-1.52.12-2.22.33-.7.92-1.23,1.65-1.49,2.48-.88,5.01-1.33,7.52-1.33h24.28c11.37,0,21,8.5,22.4,19.78l6.19,49.59c.1.77-.11,1.54-.59,2.15-.48.61-1.17,1.01-1.94,1.1-.15.02-.25.02-.34.02Z"/>
  <path class="cls-1" d="m221.41,244c-9.74,0-17.67-7.93-17.67-17.67,0-.29.04-.61.1-.98.03-.19.05-.38.08-.58l.16-1.39-48.52-24.26-1.01.92c-3.29,2.98-7.48,4.62-11.8,4.62-9.74,0-17.67-7.93-17.67-17.67s7.92-17.67,17.67-17.67c4.32,0,8.51,1.64,11.79,4.62l1.01.92,48.47-24.24-.11-1.35c-.02-.26-.06-.53-.09-.79-.04-.32-.08-.6-.08-.84,0-9.74,7.93-17.67,17.67-17.67s17.67,7.93,17.67,17.67-7.92,17.67-17.67,17.67c-5.79,0-11.22-2.86-14.54-7.65l-.99-1.43-47.04,23.51.56,1.65c.68,1.99,1,3.82,1,5.59s-.33,3.6-1,5.59l-.56,1.65,47.04,23.51.99-1.43c3.31-4.8,8.75-7.67,14.54-7.67,9.74,0,17.67,7.93,17.67,17.67,0,9.74-7.93,17.67-17.67,17.67Zm0-29.5c-6.52,0-11.83,5.31-11.83,11.83s5.31,11.83,11.83,11.83,11.83-5.31,11.83-11.83-5.31-11.83-11.83-11.83Zm-78.67-39.33c-6.52,0-11.83,5.31-11.83,11.83s5.31,11.83,11.83,11.83,11.83-5.31,11.83-11.83-5.31-11.83-11.83-11.83Zm78.67-39.33c-3.16,0-6.12,1.23-8.36,3.47s-3.47,5.21-3.47,8.36c0,6.52,5.31,11.83,11.83,11.83s11.83-5.31,11.83-11.83-5.31-11.83-11.83-11.83Z"/>
  <path class="cls-1" d="m59.17,57.17c-12.45,0-22.58-10.13-22.58-22.58s10.13-22.58,22.58-22.58,22.58,10.13,22.58,22.58-10.13,22.58-22.58,22.58Zm0-39.33c-9.24,0-16.75,7.51-16.75,16.75s7.51,16.75,16.75,16.75,16.75-7.51,16.75-16.75-7.51-16.75-16.75-16.75Z"/>
  <path class="cls-1" d="m39.51,244c-1.52,0-2.8-1.19-2.91-2.71l-5.56-75.22-1.75-.1c-3.31-.18-6.4-1.71-8.72-4.3-2.73-3.06-4.02-7.23-3.54-11.45l6.51-57.11c1.44-12.61,11.36-22.11,23.08-22.11h25.11c11.73,0,21.65,9.51,23.08,22.11l6.51,57.11c.48,4.21-.81,8.38-3.55,11.45-2.3,2.59-5.4,4.11-8.72,4.3l-1.75.1-5.56,75.23c-.11,1.52-1.38,2.7-2.89,2.7h-39.33Zm7.11-167.17c-8.76,0-16.19,7.28-17.29,16.94l-6.51,57.11c-.29,2.56.48,5.07,2.1,6.9,1.39,1.54,3.2,2.37,5.09,2.37h3.73c1.52,0,2.8,1.19,2.91,2.71l5.55,75.3h33.91l5.56-75.31c.11-1.52,1.39-2.7,2.91-2.7h3.73c2.59,0,4.3-1.49,5.09-2.37,1.63-1.83,2.4-4.35,2.11-6.9l-6.51-57.11c-1.11-9.66-8.54-16.94-17.29-16.94h-25.11Z"/>
</svg>
