<?xml version="1.0" encoding="UTF-8"?>
<svg id="Layer_1" data-name="Layer 1" xmlns="http://www.w3.org/2000/svg" viewBox="0 0 256 256">
  <defs>
    <style>
      .cls-1 {
        fill: #010101;
      }
    </style>
  </defs>
  <g id="station_television" data-name="station television">
    <g>
      <path class="cls-1" d="m89.52,89.52h15.39c1.54,0,2.57-1.03,2.57-2.57v-15.39c0-1.54-1.03-2.57-2.57-2.57h-15.39c-1.54,0-2.57,1.03-2.57,2.57v15.39c0,1.54,1.03,2.57,2.57,2.57Zm2.57-15.39h10.26v10.26h-10.26v-10.26Z"/>
      <path class="cls-1" d="m120.3,89.52h15.39c1.54,0,2.57-1.03,2.57-2.57v-15.39c0-1.54-1.03-2.57-2.57-2.57h-15.39c-1.54,0-2.57,1.03-2.57,2.57v15.39c0,1.54,1.03,2.57,2.57,2.57Zm2.57-15.39h10.26v10.26h-10.26v-10.26Z"/>
      <path class="cls-1" d="m151.09,89.52h15.39c1.54,0,2.57-1.03,2.57-2.57v-15.39c0-1.54-1.03-2.57-2.57-2.57h-15.39c-1.54,0-2.57,1.03-2.57,2.57v15.39c0,1.54,1.03,2.57,2.57,2.57Zm2.57-15.39h10.26v10.26h-10.26v-10.26Z"/>
      <path class="cls-1" d="m89.52,120.3h15.39c1.54,0,2.57-1.03,2.57-2.57v-15.39c0-1.54-1.03-2.57-2.57-2.57h-15.39c-1.54,0-2.57,1.03-2.57,2.57v15.39c0,1.54,1.03,2.57,2.57,2.57Zm2.57-15.39h10.26v10.26h-10.26v-10.26Z"/>
      <path class="cls-1" d="m120.3,120.3h15.39c1.54,0,2.57-1.03,2.57-2.57v-15.39c0-1.54-1.03-2.57-2.57-2.57h-15.39c-1.54,0-2.57,1.03-2.57,2.57v15.39c0,1.54,1.03,2.57,2.57,2.57Zm2.57-15.39h10.26v10.26h-10.26v-10.26Z"/>
      <path class="cls-1" d="m151.09,120.3h15.39c1.54,0,2.57-1.03,2.57-2.57v-15.39c0-1.54-1.03-2.57-2.57-2.57h-15.39c-1.54,0-2.57,1.03-2.57,2.57v15.39c0,1.54,1.03,2.57,2.57,2.57Zm2.57-15.39h10.26v10.26h-10.26v-10.26Z"/>
      <path class="cls-1" d="m113.89,33.09h-11.54c-1.54,0-2.57,1.03-2.57,2.57v7.7h-30.78c-1.54,0-2.57,1.03-2.57,2.57v10.26c0,1.54,1.03,2.57,2.57,2.57h2.57v20.52H12.57c-1.54,0-2.57,1.03-2.57,2.57v10.26c0,1.54,1.03,2.57,2.57,2.57h2.57v112.87h-2.57c-1.54,0-2.57,1.03-2.57,2.57v10.26c0,1.54,1.03,2.57,2.57,2.57h230.87c1.54,0,2.57-1.03,2.57-2.57v-10.26c0-1.54-1.03-2.57-2.57-2.57h-2.57v-112.87h2.57c1.54,0,2.57-1.03,2.57-2.57v-10.26c0-1.54-1.03-2.57-2.57-2.57h-59v-20.52h2.57c1.54,0,2.57-1.03,2.57-2.57v-10.26c0-1.54-1.03-2.57-2.57-2.57h-30.78v-7.7c0-1.54-1.03-2.57-2.57-2.57h-11.54m93.63,112.87h-15.39v-15.39h15.39v15.39Zm-15.39,5.13h15.39v15.39h-15.39v-15.39Zm15.39-25.65h-15.39v-15.39h15.39v15.39Zm-15.39,46.17h15.39v15.39h-15.39v-15.39Zm20.52-87.22v5.13h-56.43v-5.13h56.43Zm-105.43-51.3h-14.62m-15.9,5.13h46.17v5.13h-46.17v-5.13Zm-33.35,10.26h112.87v5.13h-112.87v-5.13Zm107.74,10.26v148.78h-25.65v-59c0-1.54-1.03-2.57-2.57-2.57h-46.17c-1.54,0-2.57,1.03-2.57,2.57v59h-25.65V58.74h102.61Zm-30.78,148.78h-41.04v-56.43h41.04v56.43ZM15.13,84.39h56.43v5.13H15.13v-5.13Zm5.13,66.7h15.39v15.39h-15.39v-15.39Zm15.39-5.13h-15.39v-15.39h15.39v15.39Zm-15.39,25.65h15.39v15.39h-15.39v-15.39Zm15.39-46.17h-15.39v-15.39h15.39v15.39Zm-15.39,66.7h17.96c1.54,0,2.57-1.03,2.57-2.57v-82.09c0-1.54-1.03-2.57-2.57-2.57h-17.96v-10.26h51.3v112.87H20.26v-15.39Zm220.61,25.65H15.13v-5.13h225.74v5.13Zm-56.43-10.26v-112.87h51.3v10.26h-17.96c-1.54,0-2.57,1.03-2.57,2.57v82.09c0,1.54,1.03,2.57,2.57,2.57h17.96v15.39h-51.3Z"/>
    </g>
  </g>
</svg>