<?xml version="1.0" encoding="UTF-8"?>
<svg id="Layer_1" data-name="Layer 1" xmlns="http://www.w3.org/2000/svg" viewBox="0 0 256 256">
  <defs>
    <style>
      .cls-1 {
        fill: #010101;
      }
    </style>
  </defs>
  <g id="archives-drawers">
    <path class="cls-1" d="m222.59,12.4H32.47c-6.14,0-11.14,5-11.14,11.14v213.72c0,6.14,5,11.14,11.14,11.14h190.12c6.14,0,11.14-5,11.14-11.14V23.53c0-6.14-5-11.14-11.14-11.14Zm-190.12,7.87h190.12c1.81,0,3.27,1.47,3.27,3.27v102.93H29.2V23.53c0-1.81,1.47-3.27,3.27-3.27Zm190.12,220.27H32.47c-1.81,0-3.27-1.47-3.27-3.27v-102.93h196.67v102.93c0,1.81-1.47,3.27-3.27,3.27Z"/>
    <path class="cls-1" d="m105.92,83.2h43.23c7.6,0,13.79-6.18,13.79-13.79v-5.88c0-2.18-1.76-3.93-3.93-3.93s-3.93,1.76-3.93,3.93v5.88c0,3.26-2.65,5.92-5.92,5.92h-43.23c-3.26,0-5.92-2.66-5.92-5.92v-5.88c0-2.18-1.76-3.93-3.93-3.93s-3.93,1.76-3.93,3.93v5.88c0,7.6,6.18,13.79,13.79,13.79Z"/>
    <path class="cls-1" d="m159,173.66c-2.18,0-3.93,1.76-3.93,3.93v5.88c0,3.26-2.65,5.92-5.92,5.92h-43.23c-3.26,0-5.92-2.65-5.92-5.92v-5.88c0-2.18-1.76-3.93-3.93-3.93s-3.93,1.76-3.93,3.93v5.88c0,7.6,6.18,13.79,13.79,13.79h43.23c7.6,0,13.79-6.18,13.79-13.79v-5.88c0-2.18-1.76-3.93-3.93-3.93Z"/>
  </g>
</svg>