<?xml version="1.0" encoding="UTF-8"?>
<svg id="Layer_1" data-name="Layer 1" xmlns="http://www.w3.org/2000/svg" viewBox="0 0 256 256">
  <defs>
    <style>
      .cls-1 {
        fill: none;
        stroke: #111;
        stroke-linecap: round;
        stroke-linejoin: round;
        stroke-width: 8px;
      }
    </style>
  </defs>
  <g id="filter">
    <path class="cls-1" d="m89.27,90.15l-55.63-55.63c-3.35-3.35-.97-9.2,3.79-9.2l51.73-.11h45.24l32.14-.11,51.95-.11c4.87,0,7.25,5.84,3.79,9.2l-55.84,55.84"/>
    <path class="cls-1" d="m144.04,218.94v6.6c0,5.09-6.17,7.36-9.42,3.57l-18.18-21-3.25-3.79c-.87-.97-1.3-2.16-1.3-3.46v-82.79c0-3.03,2.38-5.41,5.41-5.41h21.32c3.03,0,5.41,2.38,5.41,5.41v14.29"/>
    <path class="cls-1" d="m149.56,154h-10.82"/>
    <path class="cls-1" d="m149.56,197.29h-10.82"/>
  </g>
</svg>