<?xml version="1.0" encoding="UTF-8"?>
<svg id="Layer_1" data-name="Layer 1" xmlns="http://www.w3.org/2000/svg" viewBox="0 0 256 256">
  <defs>
    <style>
      .cls-1 {
        fill: #fcd50e;
      }
    </style>
  </defs>
  <g id="finance-mony-usd">
    <path class="cls-1" d="m215.14,31.84h-62.26c-.37-11.64-9.93-20.98-21.68-20.98H25.86c-.48,0-1.01,0-1.55.05h0c-8.17.8-14.31,7.58-14.31,15.8v51.1c0,2.08,1.66,3.74,3.74,3.74h30.59v79.24c0,10.04,8.17,18.21,18.21,18.21h72.94v47.79c0,2.08,1.66,3.74,3.74,3.74h25.2c5.98,9.08,16.23,14.63,27.18,14.63,9.29,0,18.21-4,24.35-11,1.01-1.17,1.98-2.4,2.83-3.68h23.49c2.08,0,3.74-1.66,3.74-3.74V62.75c0-17.03-13.83-30.91-30.86-30.91ZM17.48,74.02V26.71c0-3.84,2.51-7.05,6.09-8.06.43.37.85.75,1.23,1.12l.21.21.96.96c.16.16.27.27.43.43.27.27.53.53.75.8.16.16.32.32.48.48.21.27.43.48.69.75.16.16.32.37.48.53.21.21.43.48.64.69.16.21.32.37.48.59.21.21.37.48.59.69.16.21.32.43.48.59.16.21.37.48.53.69s.32.43.48.64c.16.21.37.48.53.69s.32.43.48.64c.16.21.32.48.48.69s.32.43.43.64c.16.21.32.48.48.69s.27.43.43.69.32.48.43.75c.16.21.27.48.43.69.16.27.27.48.43.75.16.21.27.48.37.69.16.27.27.48.43.75.11.21.27.48.37.69.11.27.27.48.37.75.11.21.27.48.37.75s.27.48.37.75.21.48.32.75.21.53.32.75c.11.27.21.48.32.75s.21.53.32.8.21.48.32.75.21.53.32.8.21.48.27.75c.11.27.21.53.27.8.11.27.16.48.27.75s.16.53.27.8.16.53.21.75c.11.27.16.53.27.8.05.27.16.53.21.75.05.27.16.53.21.85.05.27.16.53.21.75.05.27.16.59.21.85s.11.53.16.75c.05.27.11.59.16.85.05.27.11.53.16.75.05.27.11.59.16.85.05.27.11.53.11.75.05.32.11.59.16.91.05.27.05.48.11.75.05.32.05.59.11.91.05.27.05.48.11.75.05.32.05.64.11.96,0,.21.05.48.05.69.05.32.05.64.05,1.01,0,.21.05.43.05.69,0,.37.05.75.05,1.12v11.27h-26.8v.11Zm34.33,86.76V62.65c0-.43-.05-.8-.05-1.23,0-.21,0-.43-.05-.64,0-.37-.05-.75-.05-1.12,0-.21-.05-.43-.05-.69-.05-.37-.05-.75-.11-1.17,0-.21-.05-.43-.05-.64-.05-.43-.11-.91-.16-1.33,0-.16-.05-.27-.05-.43-.11-.59-.16-1.17-.27-1.76,0-.16-.05-.27-.05-.43-.05-.43-.16-.91-.21-1.33-.05-.21-.11-.43-.11-.59-.05-.37-.16-.75-.21-1.12-.05-.21-.11-.43-.16-.64-.11-.37-.16-.75-.27-1.12-.05-.21-.11-.43-.16-.64-.11-.37-.21-.8-.32-1.17-.05-.16-.11-.37-.16-.53-.32-1.12-.64-2.24-1.01-3.36-.05-.16-.11-.32-.16-.53-.11-.37-.27-.75-.43-1.12-.05-.21-.16-.43-.21-.59-.11-.37-.27-.69-.43-1.07-.11-.21-.16-.43-.27-.59-.16-.37-.32-.69-.43-1.07-.05-.16-.16-.37-.21-.53-.16-.43-.37-.8-.53-1.23-.05-.11-.11-.27-.16-.37-.27-.53-.48-1.07-.75-1.6-.05-.11-.11-.21-.16-.37-.21-.43-.43-.8-.64-1.17-.11-.16-.21-.37-.27-.53-.16-.32-.37-.69-.53-1.01-.11-.21-.21-.37-.32-.59-.16-.32-.37-.64-.59-.96-.11-.16-.21-.37-.32-.53-.21-.32-.43-.69-.64-1.01-.11-.16-.21-.32-.32-.48-.32-.48-.64-.96-.96-1.44h0c-.32-.48-.64-.96-1.01-1.44-.11-.16-.21-.32-.32-.48-.21-.32-.48-.64-.69-.96-.16-.16-.27-.37-.43-.53-.21-.27-.43-.59-.69-.85-.16-.16-.27-.37-.43-.53-.21-.27-.48-.59-.69-.85-.16-.16-.27-.32-.43-.53-.27-.32-.53-.64-.85-.96-.11-.11-.21-.27-.32-.37l-.05-.05h97.18c7.64,0,13.83,5.98,14.2,13.51h-32.09c-15.16,0-27.5,12.33-27.5,27.5v71.97c0,7.8-1.6,15.38-4.75,22.48-.37.8-.75,1.6-1.12,2.35-.05.05-.05.11-.11.16-.37.75-.75,1.44-1.17,2.19-.05.11-.11.16-.16.27-.37.69-.8,1.39-1.23,2.03-.05.11-.11.21-.21.32-.43.64-.85,1.33-1.33,1.98-.05.11-.16.21-.21.32-.48.64-.91,1.28-1.39,1.87-.05.11-.16.21-.21.27-.48.64-1.01,1.23-1.5,1.82-.05.11-.16.16-.21.27-.53.64-1.07,1.23-1.66,1.82-.05.05-.11.11-.16.16-.59.64-1.17,1.23-1.82,1.82h-6.03c-5.93.11-10.73-4.7-10.73-10.57Zm83.67,10.68h-56.65c.05-.11.11-.16.21-.27.32-.37.64-.75.91-1.17.11-.11.21-.27.32-.37.37-.53.8-1.01,1.17-1.55.05-.11.16-.21.21-.32.32-.43.59-.85.91-1.28.11-.16.21-.32.32-.53.27-.37.53-.8.8-1.23.11-.16.21-.32.32-.48.32-.53.69-1.12,1.01-1.66.05-.05.11-.16.11-.21.27-.48.53-.96.8-1.5.11-.16.21-.37.27-.53.21-.43.43-.85.64-1.23.11-.16.16-.37.27-.53.27-.59.53-1.17.8-1.76,3.58-8.06,5.39-16.66,5.39-25.52V59.34c0-11.05,8.97-20.02,20.02-20.02h2.83l.05.05c.21.21.48.43.69.59.16.16.32.27.48.43.21.21.43.43.64.59.16.16.32.27.48.43.21.21.43.43.64.64.16.16.32.32.48.48.21.21.43.43.59.64.16.16.32.32.43.48.21.21.37.43.59.64.16.16.32.32.43.48.21.21.37.43.53.64.16.16.27.32.43.48.16.21.37.43.53.64.16.16.27.32.43.53s.32.43.53.69c.16.16.27.37.43.53.16.21.32.43.48.69.11.16.27.37.37.53.16.21.32.48.48.69.11.16.27.37.37.53.16.21.32.48.48.69.11.16.21.37.37.53.16.21.32.48.43.69.11.16.21.37.32.59.16.27.27.48.43.75.11.21.21.37.32.59.16.27.27.48.43.75.11.21.21.37.32.59.11.27.27.48.37.75.11.21.21.37.27.59.11.27.27.53.37.75s.16.37.27.59c.11.27.21.53.37.8.11.21.16.37.27.59.11.27.21.53.32.8.05.21.16.37.21.59.11.27.21.53.32.8.05.21.16.37.21.59.11.27.21.53.27.8.05.21.11.37.21.59.11.27.16.53.27.85.05.21.11.37.16.59.11.27.16.59.27.85.05.21.11.37.16.59.05.27.16.59.21.85.05.21.11.37.16.59.05.32.16.59.21.91.05.21.05.37.11.59.05.32.11.59.21.91.05.16.05.37.11.53.05.32.11.64.16.96.05.16.05.37.11.53.05.32.11.64.16.96,0,.16.05.32.05.48.05.32.11.69.11,1.01,0,.16.05.27.05.43.05.37.05.75.11,1.12v.32c.05.43.05.8.11,1.23v.05c.05,1.01.05,1.98.05,2.99v89.97h-.11Zm56.12,66.21c-9.02,0-17.41-4.91-21.84-12.76-1.98-3.47-3.1-7.48-3.2-11.48v-.8c0-9.82,5.82-18.79,14.74-22.85,3.26-1.44,6.73-2.19,10.3-2.19,7.15,0,14.04,3.1,18.79,8.49,4.06,4.59,6.3,10.47,6.3,16.61,0,1.07-.05,2.14-.21,3.2-.32,2.67-1.12,5.23-2.3,7.69-.21.48-.48.96-.75,1.44-.85,1.55-1.87,2.99-3.04,4.27-4.75,5.29-11.59,8.38-18.79,8.38Zm46.93-14.68h-16.07v-.05c.11-.37.27-.75.37-1.12,0-.11.05-.16.05-.27.11-.32.16-.59.27-.91.05-.11.05-.27.11-.37.05-.27.11-.53.16-.8.05-.11.05-.27.11-.37.05-.32.11-.64.16-.96,0-.05,0-.16.05-.21.05-.37.11-.8.16-1.17,0-.11,0-.21.05-.32.05-.27.05-.59.11-.85,0-.16,0-.27.05-.43,0-.27.05-.59.05-.85v-1.6c0-7.96-2.88-15.59-8.17-21.57-6.19-6.99-15.06-11-24.4-11-4.65,0-9.13.96-13.4,2.88-11.64,5.23-19.17,16.93-19.17,29.69v1.12c0,.59.05,1.17.11,1.76,0,.11,0,.21.05.32.05.59.11,1.12.21,1.71,0,.11.05.21.05.32.11.53.21,1.12.32,1.66v.11c.11.59.27,1.12.43,1.66.05.11.05.21.11.32.16.48.27.96.43,1.44h-17.78V79.47c0-.43-.05-.91-.05-1.33v-.43c0-.43-.05-.8-.11-1.23,0-.16,0-.27-.05-.43-.05-.43-.11-.91-.11-1.33,0-.11,0-.21-.05-.27-.11-1.12-.27-2.19-.48-3.31,0-.11-.05-.21-.05-.37-.05-.43-.16-.85-.21-1.28-.05-.16-.05-.32-.11-.43-.05-.37-.16-.8-.27-1.17-.05-.16-.05-.27-.11-.43-.11-.43-.21-.91-.32-1.33,0-.11-.05-.16-.05-.27-.27-1.07-.59-2.14-.91-3.15-.05-.11-.05-.27-.11-.37-.11-.37-.27-.8-.37-1.17-.05-.16-.11-.27-.16-.43-.11-.37-.27-.75-.43-1.12-.05-.16-.11-.27-.16-.43-.16-.43-.32-.85-.53-1.28,0-.05-.05-.11-.05-.21-.21-.53-.43-1.01-.64-1.55,0-.05-.05-.05-.05-.11-.21-.48-.43-.91-.64-1.39-.05-.11-.11-.27-.16-.37-.16-.37-.37-.75-.53-1.07-.05-.16-.16-.27-.21-.43-.16-.37-.37-.69-.59-1.07-.05-.11-.11-.27-.21-.37-.21-.43-.48-.85-.69-1.28,0-.05-.05-.11-.05-.11-.27-.48-.59-.96-.85-1.44-.05-.05-.05-.11-.11-.16-.27-.43-.48-.8-.75-1.23-.05-.11-.16-.21-.21-.37-.21-.32-.43-.69-.69-1.01-.11-.11-.16-.27-.27-.37-.21-.32-.48-.69-.69-1.01-.05-.11-.16-.21-.21-.32-.32-.43-.64-.85-.96-1.28h0c-.32-.43-.69-.91-1.07-1.33-.05-.05-.11-.11-.16-.16-.32-.37-.59-.69-.91-1.07-.11-.11-.21-.21-.27-.32-.16-.16-.32-.32-.43-.53h88.31c12.92,0,23.39,10.52,23.39,23.39v160.29h-.05Z"/>
    <path class="cls-1" d="m214.82,91.16h-46.45c-2.08,0-3.74,1.66-3.74,3.74s1.66,3.74,3.74,3.74h46.45c2.08,0,3.74-1.66,3.74-3.74s-1.66-3.74-3.74-3.74Z"/>
    <path class="cls-1" d="m214.82,121.54h-46.45c-2.08,0-3.74,1.66-3.74,3.74s1.66,3.74,3.74,3.74h46.45c2.08,0,3.74-1.66,3.74-3.74s-1.66-3.74-3.74-3.74Z"/>
    <path class="cls-1" d="m214.82,151.97h-46.45c-2.08,0-3.74,1.66-3.74,3.74s1.66,3.74,3.74,3.74h46.45c2.08,0,3.74-1.66,3.74-3.74s-1.66-3.74-3.74-3.74Z"/>
    <path class="cls-1" d="m193.89,209.32v-8.92c1.6.37,3.15,1.07,4.75,2.03.48.27.91.43,1.39.43,1.44,0,2.62-1.12,2.62-2.56,0-1.12-.64-1.82-1.39-2.24-2.14-1.33-4.43-2.24-7.21-2.56v-1.01c0-1.12-.85-1.98-1.98-1.98s-2.03.91-2.03,1.98v.96c-5.82.48-9.72,3.9-9.72,8.86,0,5.23,3.15,7.8,9.93,9.56v9.18c-2.56-.48-4.7-1.55-6.89-3.1-.43-.32-.96-.53-1.55-.53-1.44,0-2.56,1.12-2.56,2.56,0,.96.48,1.71,1.23,2.24,2.83,1.98,6.03,3.26,9.5,3.63v2.88c0,1.12.91,1.98,2.03,1.98s1.98-.91,1.98-1.98v-2.78c5.87-.53,9.88-3.95,9.88-9.02.05-5.02-2.94-7.85-9.98-9.61Zm-3.68-1.01c-3.58-1.17-4.43-2.35-4.43-4.32s1.5-3.63,4.43-3.9v8.22Zm3.68,14.9v-8.44c3.58,1.12,4.59,2.35,4.59,4.43,0,2.19-1.66,3.68-4.59,4Z"/>
  </g>
</svg>
