<?xml version="1.0" encoding="UTF-8"?>
<svg id="Layer_1" data-name="Layer 1" xmlns="http://www.w3.org/2000/svg" viewBox="0 0 256 256">
  <defs>
    <style>
      .cls-1 {
        fill: green;
      }
    </style>
  </defs>
  <path class="cls-1" d="m20.54,222.73h149.79c1.96,9.57,24.32,12.18,37.76,12.18s37.91-2.87,37.91-13.59v-85.09c0-10.72-23.81-13.59-37.91-13.59-13.14,0-34.79,2.52-37.61,11.53-2.52-6.7-5.39-12.84-8.56-18.38-6.19-10.88-13.64-19.43-22.1-25.48,1.31-.76,2.57-1.71,3.68-2.82,3.27-3.27,5.09-7.6,5.09-12.29,0-9.57-7.8-17.32-17.37-17.32h-4.28c3.27-6.39,10.77-17.67,24.92-23.31,2.42-.96,3.93-3.37,3.93-6.29,0-4.03-3.17-7.2-7.2-7.2H62.58c-3.32,0-6.09,2.16-7,5.39-.86,3.12.45,6.29,3.22,7.9,16.06,9.31,22.81,18.43,25.53,23.51h-4.48c-4.63,0-9.01,1.81-12.29,5.09-3.27,3.27-5.09,7.65-5.09,12.29,0,6.44,3.52,12.08,8.76,15.05-30.51,21.7-40.03,70.44-43,99.74l-14.1,11.83c-3.83,3.17-5.14,8.66-3.37,13.59,1.66,4.48,5.39,7.25,9.77,7.25Zm157.39-77.69c.05.05.15.05.2.1.2.1.35.15.55.25.05.05.15.05.2.1.2.1.4.15.65.25.05,0,.1.05.15.05.25.1.5.2.81.3.05,0,.1.05.2.05.2.05.4.15.6.2.1.05.15.05.25.1.2.05.45.15.65.2.05,0,.1.05.2.05.3.1.55.15.86.25.05,0,.1.05.15.05.25.05.45.15.7.2.1,0,.15.05.25.05.2.05.45.1.65.15.05,0,.15.05.2.05.3.05.6.15.91.2.05,0,.1,0,.1.05.25.05.5.1.81.15.1,0,.2.05.25.05.25.05.45.1.7.15.1,0,.15.05.25.05.3.05.6.1.91.15h.05c.3.05.6.1.91.15.1,0,.2.05.25.05.25.05.45.05.7.1.1,0,.2.05.3.05.3.05.6.1.86.15h.05c.3.05.6.1.96.15.1,0,.2,0,.25.05.25.05.45.05.7.1.1,0,.2,0,.3.05.25.05.55.05.81.1h.15c.3.05.6.05.96.1.1,0,.15,0,.25.05.25,0,.45.05.7.05.1,0,.2,0,.3.05.25,0,.5.05.7.05h.2c.3.05.6.05.91.05h.2c.25,0,.45.05.7.05h.3c.25,0,.45.05.7.05h.25c.3,0,.6.05.91.05h.2c.25,0,.45,0,.7.05h9.62c.2,0,.45,0,.65-.05h.2c.3,0,.6-.05.86-.05h.25c.2,0,.45-.05.65-.05h.3c.2,0,.45-.05.65-.05h.25c.3,0,.6-.05.91-.05h.25c.2,0,.45-.05.65-.05.1,0,.25,0,.35-.05.2,0,.4-.05.6-.05.1,0,.2,0,.3-.05.3-.05.6-.05.91-.1.1,0,.15,0,.25-.05.25-.05.45-.05.7-.1.1,0,.25-.05.35-.05.2-.05.4-.05.6-.1.1,0,.2-.05.35-.05.3-.05.6-.1.86-.1.05,0,.15,0,.2-.05.25-.05.5-.05.76-.1.1,0,.25-.05.35-.05.2-.05.4-.05.6-.1.1,0,.25-.05.35-.05.25-.05.5-.1.76-.15.05,0,.15-.05.2-.05.3-.05.55-.1.86-.15.1,0,.2-.05.3-.05.2-.05.4-.1.6-.1.1,0,.2-.05.35-.05.25-.05.45-.1.7-.15.05,0,.15-.05.2-.05.3-.05.55-.15.86-.2.1,0,.2-.05.3-.05.2-.05.4-.1.6-.15.1-.05.2-.05.3-.1.2-.05.4-.1.6-.15.1,0,.15-.05.25-.05.25-.1.55-.15.81-.25.1,0,.15-.05.25-.05.2-.05.4-.1.6-.2.1-.05.2-.05.3-.1.2-.05.4-.15.6-.2.05-.05.15-.05.2-.1.25-.1.5-.2.76-.3.05,0,.1-.05.15-.05.2-.1.4-.15.6-.25.1-.05.15-.05.25-.1.2-.05.35-.15.55-.25.05-.05.15-.05.2-.1.25-.1.45-.2.7-.3h0v19.84c0,.05-.05.1-.05.1,0,0,0,.05-.05.05-.05.05-.05.1-.1.1,0,.05-.05.05-.05.1l-.15.15-.1.1-.15.15c-.05.05-.1.05-.1.1-.05.05-.1.05-.15.1l-.15.15c-.05.05-.1.1-.2.1-.05.05-.15.1-.2.15-.05.05-.15.1-.2.1-.1.05-.15.1-.25.15-.05.05-.1.05-.2.1-.1.05-.2.1-.3.15-.05.05-.15.05-.2.1-.1.05-.25.1-.35.15-.05.05-.1.05-.15.1-.15.05-.3.15-.45.2-.05.05-.15.05-.2.1-.15.05-.3.1-.45.2-.05,0-.1.05-.15.05-.2.05-.35.15-.55.2-.05,0-.1.05-.15.05-.2.05-.4.15-.6.2-.1.05-.2.05-.25.1-.2.05-.35.1-.55.2-.1,0-.15.05-.25.05-.2.05-.4.15-.65.2-.1.05-.2.05-.35.1-.2.05-.4.1-.6.15-.1.05-.2.05-.3.1-.25.05-.45.1-.7.2-.1,0-.2.05-.3.05-.25.05-.5.1-.76.2-.1.05-.25.05-.35.1-.25.05-.5.1-.76.15-.15.05-.25.05-.4.1-.25.05-.5.1-.76.15-.15.05-.3.05-.45.1-.25.05-.5.1-.76.15-.15.05-.3.05-.45.05-.25.05-.55.1-.81.15-.15.05-.35.05-.55.1-.25.05-.5.1-.81.1-.2.05-.4.05-.65.1s-.5.05-.76.1c-.15,0-.3.05-.45.05-.3.05-.65.1-.96.1-.15,0-.3.05-.45.05-.35.05-.7.05-1.01.1-.1,0-.25,0-.35.05-.4.05-.76.05-1.16.1-.15,0-.35,0-.5.05-.35.05-.7.05-1.11.05h-.4c-.4,0-.81.05-1.26.05-.91.05-1.86.05-2.82.1-.81,0-1.61.05-2.47.05h-1.56c-1.06,0-2.22-.05-3.52-.1l-1.31-.05c-.65-.05-1.26-.05-1.96-.15-.25,0-.5-.05-.76-.05h-.05c-.7-.05-1.41-.1-2.06-.2h-.1c-.25,0-.5-.05-.7-.1h-.05c-1.11-.1-2.22-.25-3.22-.4h-.05c-.1,0-.25-.05-.35-.05h-.1c-1.16-.2-2.27-.4-3.32-.6h-.05c-.35-.05-.7-.15-1.06-.2h-.05c-.25-.05-.45-.1-.7-.15-.7-.15-1.26-.3-1.71-.45l-.7-.2c-.45-.15-.86-.25-1.26-.4-.2-.05-.4-.15-.65-.2h-.05c-.1-.05-.25-.1-.35-.15-.15-.05-.25-.1-.4-.15-.05,0-.1-.05-.2-.05-.1-.05-.25-.1-.35-.15-.25-.1-.55-.25-.81-.35-.05,0-.05-.05-.1-.05-.15-.1-.35-.15-.5-.25l-.15-.05c-.2-.1-.45-.25-.7-.35-.05-.05-.15-.05-.25-.15-.1-.05-.15-.1-.25-.15-.05,0-.05-.05-.1-.05-.05-.05-.1-.05-.15-.1-.05-.05-.15-.1-.2-.15-.1-.05-.15-.15-.25-.2-.05-.05-.1-.1-.2-.15l-.05-.05-.1-.1-.05-.05c0-.05-.05-.05-.05-.1-.15-.15-.25-.25-.25-.3v-19.94h0c.05-.05.25.05.5.2Zm61.02,27.99v19.84c0,.05-.05.1-.05.15,0,0,0,.05-.05.05-.05.05-.1.1-.1.15,0,0,0,.05-.05.05l-.2.2-.05.05c-.1.05-.15.15-.25.2h0c-1.96,1.56-7.6,3.83-16.87,4.98h-.2c-.4.05-.86.1-1.31.15h-.15c-.4.05-.76.1-1.16.1-.1,0-.2,0-.3.05-.5.05-1.01.1-1.51.15h-.05c-.5.05-1.01.05-1.51.1h-.1c-2.16.15-4.48.2-7,.2-5.74,0-11.38-.45-16.26-1.26-.35-.05-.65-.1-1.01-.15h-.1c-.96-.15-1.86-.35-2.67-.55-.05,0-.1,0-.15-.05-.25-.05-.45-.1-.7-.15h-.05c-.5-.1-1.01-.25-1.46-.35h0c-.5-.15-.96-.25-1.36-.4-.05,0-.1-.05-.15-.05-.15-.05-.35-.1-.5-.15-.05,0-.1-.05-.15-.05-.15-.05-.3-.1-.45-.15q-.05,0-.1-.05c-.15-.05-.3-.1-.5-.15q-.05,0-.1-.05c-.15-.05-.3-.1-.45-.15-.05,0-.1-.05-.15-.05-.1-.05-.25-.1-.35-.15-.05,0-.05-.05-.1-.05-.15-.05-.25-.1-.35-.15-.05,0-.1-.05-.1-.05-.1-.05-.2-.1-.3-.15-.05,0-.1-.05-.15-.05-.1-.05-.2-.1-.25-.15-.05,0-.1-.05-.15-.05-.1-.05-.15-.1-.25-.1-.05,0-.1-.05-.15-.05-.05-.05-.15-.05-.2-.1s-.1-.05-.15-.1c-.05-.05-.1-.05-.2-.1-.05,0-.05-.05-.1-.05-.05-.05-.1-.05-.15-.1-.05,0-.05-.05-.1-.05-.05-.05-.1-.05-.15-.1-.05,0-.05-.05-.1-.05-.05-.05-.1-.05-.15-.1-.05,0-.05-.05-.05-.05-.05-.05-.1-.05-.15-.1-.05,0-.05-.05-.1-.05l-.1-.1c-.05,0-.05-.05-.05-.05l-.1-.1-.05-.05c-.05,0-.05-.05-.1-.05l-.05-.05-.05-.05s0-.05-.05-.05l-.05-.05s0-.05-.05-.05l-.05-.05v-.05l-.05-.05h0s0-.05-.05-.05v-19.84c.15.05.25.15.4.2h.05c.35.15.65.3.96.4h.05c.35.15.7.25,1.06.4h.05c.2.1.4.15.6.2.15.05.35.1.55.2q.05,0,.1.05h.05c.55.2,1.11.35,1.51.45.15.05.3.1.5.15l.25.1h0c.55.15,1.21.3,1.96.5.3.05.55.15.86.2.4.1.81.2,1.26.25.7.15,1.51.3,2.27.45.45.1.91.15,1.36.2.2.05.35.05.55.1.65.1,1.36.2,2.06.3.45.05.96.1,1.41.15.3.05.65.1.96.1.81.1,1.51.15,2.22.2.3.05.6.05.86.05.65.05,1.36.1,2.01.15.15,0,.35,0,.5.05h.96c1.36.05,2.57.1,3.68.1h6.49c.25,0,.45,0,.7-.05h.2c.3,0,.6-.05.86-.05h.25c.2,0,.45-.05.65-.05h.3c.2,0,.45-.05.65-.05h.25c.3,0,.6-.05.91-.05h.25c.2,0,.45-.05.65-.05.1,0,.25,0,.35-.05.2,0,.4-.05.65-.05.1,0,.2,0,.3-.05.3-.05.6-.05.91-.1.1,0,.15,0,.25-.05.25-.05.45-.05.7-.1.1,0,.25-.05.35-.05.2-.05.4-.05.6-.1.1,0,.2-.05.35-.05.3-.05.6-.1.91-.1.05,0,.1,0,.15-.05.25-.05.5-.05.76-.1.1,0,.25-.05.35-.05.2-.05.4-.05.6-.1.1,0,.25-.05.35-.05.25-.05.5-.1.76-.15.05,0,.1,0,.2-.05.3-.05.55-.1.86-.15.1,0,.2-.05.3-.05.2-.05.4-.1.6-.1.1,0,.2-.05.35-.05.25-.05.45-.1.7-.15.05,0,.15-.05.2-.05.3-.05.55-.15.86-.2.1,0,.2-.05.3-.05.2-.05.4-.1.6-.15.1-.05.2-.05.3-.1.2-.05.4-.1.65-.15.05,0,.15-.05.2-.05.25-.1.55-.15.81-.25.1,0,.15-.05.25-.05.2-.05.4-.1.6-.2.1-.05.2-.05.3-.1.2-.05.4-.15.6-.2.05-.05.15-.05.2-.1.25-.1.5-.2.76-.3.05,0,.1-.05.15-.05.2-.1.4-.15.6-.25.1-.05.15-.05.25-.1.2-.05.35-.15.55-.2.05-.05.15-.05.2-.1.35-.1.55-.2.81-.35q0,.05,0,0Zm0,48.23c-.86,1.91-11.08,6.65-30.86,6.65s-30.01-4.68-30.86-6.65v-19.89c.05,0,.05.05.1.05.45.2.86.4,1.31.6.05.05.15.05.2.1.45.2.91.35,1.41.55.05,0,.15.05.2.05.5.15.96.35,1.46.5.05,0,.1.05.2.05.5.15,1.01.3,1.56.45.05,0,.1.05.15.05.5.15,1.06.3,1.61.4.05,0,.1,0,.15.05.55.15,1.11.25,1.61.35h.1c.55.1,1.11.25,1.66.35h.05c.55.1,1.11.2,1.66.3,5.29.86,11.33,1.36,17.42,1.36h4.78c.2,0,.45,0,.65-.05h.2c.3,0,.6-.05.86-.05h.25c.2,0,.45-.05.65-.05h.3c.2,0,.45-.05.65-.05h.25c.3,0,.6-.05.91-.05h.25c.2,0,.45-.05.65-.05.1,0,.25,0,.35-.05.2,0,.4-.05.6-.05.1,0,.2,0,.3-.05.3-.05.6-.05.91-.1.1,0,.15,0,.25-.05.25-.05.45-.05.7-.1.1,0,.25-.05.35-.05.2-.05.4-.05.6-.1.1,0,.2-.05.35-.05.3-.05.6-.1.86-.1.05,0,.15,0,.2-.05.25-.05.5-.05.76-.1.1,0,.25-.05.35-.05.2-.05.4-.05.6-.1.1,0,.25-.05.35-.05.25-.05.5-.1.76-.15.05,0,.15-.05.2-.05.3-.05.55-.1.86-.15.1,0,.2-.05.3-.05.2-.05.4-.1.6-.1.1,0,.2-.05.35-.05.25-.05.45-.1.7-.15.05,0,.15-.05.2-.05.3-.05.55-.15.86-.2.1,0,.2-.05.3-.05.2-.05.4-.1.6-.15.1-.05.2-.05.3-.1.2-.05.4-.1.6-.15.1,0,.15-.05.25-.05.25-.1.55-.15.81-.25.1,0,.15-.05.25-.05.2-.05.4-.1.6-.2.1-.05.2-.05.3-.1.2-.05.4-.15.6-.2.05-.05.15-.05.2-.1.25-.1.5-.2.76-.3.05,0,.1-.05.15-.05.2-.1.4-.15.6-.25.1-.05.15-.05.25-.1.2-.05.35-.15.55-.25.05-.05.15-.05.2-.1.25-.1.45-.2.7-.3h0v19.74h0Zm-30.86-91.58c19.54,0,29.71,4.58,30.81,6.55,0,0,0,.05-.05.05,0,.05-.05.05-.05.1s-.05.05-.1.1l-.1.1-.1.1c-.05.05-.1.05-.1.1-.05.05-.1.05-.15.1-.05.05-.1.1-.15.1-.05.05-.1.1-.15.1-.05.05-.1.1-.2.1-.05.05-.1.1-.2.1-.05.05-.15.1-.2.15-.05.05-.15.1-.2.1-.1.05-.15.1-.25.15-.1.05-.15.1-.25.15-.1.05-.15.1-.25.15-.1.05-.15.1-.25.15-.1.05-.2.1-.3.15-.1.05-.2.1-.3.15-.1.05-.2.1-.3.15-.1.05-.2.1-.3.15-.1.05-.25.1-.35.15-.1.05-.25.1-.35.15-.1.05-.25.1-.35.15-.1.05-.25.1-.35.15-.15.05-.25.1-.4.15-.15.05-.25.1-.4.15-.15.05-.3.1-.4.15-.15.05-.3.1-.4.15-.15.05-.3.1-.45.15-.15.05-.3.1-.45.15-.15.05-.3.1-.5.15-.15.05-.3.1-.5.15-.15.05-.35.1-.5.15-.15.05-.35.1-.5.15-.15.05-.35.1-.5.1-.2.05-.35.1-.55.1-.2.05-.35.1-.55.1-.2.05-.4.1-.55.1-.2.05-.4.1-.6.1-.2.05-.4.05-.6.1-.2.05-.4.05-.6.1-.2.05-.4.05-.65.1-.2.05-.4.05-.6.1-.2.05-.45.05-.7.1-.2.05-.4.05-.65.1s-.45.05-.7.1c-.2.05-.45.05-.65.1-.25.05-.5.05-.76.1s-.45.05-.7.1-.5.05-.81.1c-.25,0-.45.05-.7.05-.25.05-.55.05-.86.05-.25,0-.45.05-.7.05-.3,0-.6.05-.91.05-.25,0-.45.05-.7.05-.3,0-.6.05-.91.05-.25,0-.45.05-.7.05-.3,0-.65.05-1.01.05-.25,0-.45,0-.7.05-.4,0-.76,0-1.16.05h-4.83c-.4,0-.81,0-1.16-.05-.25,0-.45,0-.7-.05-.35,0-.65,0-1.01-.05-.25,0-.5-.05-.76-.05-.3,0-.6-.05-.91-.05-.25,0-.5-.05-.7-.05-.3,0-.6-.05-.86-.05s-.45-.05-.7-.05c-.3,0-.55-.05-.86-.05-.25,0-.45-.05-.7-.05-.25-.05-.55-.05-.81-.1-.25,0-.45-.05-.65-.1-.25-.05-.5-.05-.76-.1-.2-.05-.45-.05-.65-.1-.25-.05-.5-.05-.7-.1s-.4-.05-.6-.1c-.25-.05-.45-.05-.7-.1-.2-.05-.4-.05-.6-.1-.2-.05-.45-.05-.65-.1s-.4-.05-.55-.1c-.2-.05-.4-.1-.65-.1-.2-.05-.35-.05-.55-.1s-.4-.1-.6-.1c-.2-.05-.35-.1-.55-.1-.2-.05-.4-.1-.55-.15-.15-.05-.35-.1-.5-.1-.2-.05-.35-.1-.55-.15-.15-.05-.3-.1-.5-.1-.15-.05-.35-.1-.5-.15-.15-.05-.3-.1-.45-.15-.15-.05-.3-.1-.5-.15-.15-.05-.3-.1-.45-.15-.15-.05-.3-.1-.45-.15-.15-.05-.25-.1-.4-.15-.15-.05-.3-.1-.4-.15-.15-.05-.25-.1-.4-.15-.15-.05-.25-.1-.4-.15-.1-.05-.25-.1-.35-.15-.1-.05-.25-.1-.35-.15-.1-.05-.2-.1-.3-.15-.1-.05-.25-.1-.35-.15-.1-.05-.2-.1-.3-.15-.1-.05-.2-.1-.3-.15-.1-.05-.2-.1-.25-.15-.1-.05-.2-.1-.3-.15-.1-.05-.15-.1-.25-.15-.1-.05-.15-.1-.25-.15-.1-.05-.15-.1-.2-.1-.1-.05-.15-.1-.2-.15-.05-.05-.15-.1-.2-.1-.05-.05-.15-.1-.2-.15-.05-.05-.1-.1-.15-.1-.05-.05-.1-.1-.15-.1-.05-.05-.1-.05-.15-.1-.05-.05-.1-.1-.15-.1-.05-.05-.1-.05-.1-.1l-.1-.1-.1-.1-.1-.1c0-.05-.05-.05-.05-.1,0,0,0-.05-.05-.05,1.26-1.96,11.43-6.55,30.96-6.55ZM62.38,28.34c0-.05.05-.15.1-.2h86.2s.05.1.05.15c-18.63,7.6-26.94,23.51-29.55,29.66h-27.04c-2.11-5.39-8.96-17.52-29.76-29.6Zm10.22,39.67c1.96-1.96,4.53-3.02,7.3-3.02h51.36c5.69,0,10.32,4.63,10.32,10.27,0,2.77-1.06,5.34-3.02,7.25-1.96,1.96-4.53,3.02-7.3,3.02h-51.41c-5.69,0-10.32-4.63-10.32-10.27.05-2.72,1.16-5.29,3.07-7.25ZM18.73,207.32l15.21-12.79c.7-.6,1.16-1.46,1.26-2.37,1.36-14.25,4.53-35.29,11.88-54.98,8.16-21.9,19.59-36.91,33.88-44.61h49.24c23.01,12.39,34.44,41.79,39.98,64.6v58.5H20.54c-1.96,0-2.82-1.81-3.12-2.57-.6-1.81-.45-4.28,1.31-5.79Z"/>
  <path class="cls-1" d="m88.26,175.96c4.43,3.12,9.42,5.09,14.85,5.64v4.48c0,1.71,1.46,3.12,3.17,3.12s3.12-1.36,3.12-3.12v-4.33c9.21-.86,15.46-6.14,15.46-14.15,0-2.37-.45-4.48-1.41-6.24-2.11-4.08-6.7-6.75-14.35-8.66v-13.9c2.47.55,4.93,1.66,7.45,3.17.7.45,1.46.65,2.16.65,2.27,0,4.08-1.76,4.08-3.98,0-1.71-1.01-2.82-2.16-3.47-3.32-2.11-6.95-3.47-11.23-3.98v-1.66c0-1.71-1.36-3.12-3.12-3.12s-3.17,1.36-3.17,3.12v1.51c-2.87.25-5.44.91-7.6,2.01-2.72,1.36-4.78,3.27-6.09,5.69-1.01,1.81-1.51,3.88-1.51,6.14,0,3.32.81,5.94,2.47,8.11,2.47,3.12,6.75,5.19,13.04,6.85v14.3c-3.98-.7-7.3-2.37-10.72-4.83-.65-.5-1.51-.81-2.37-.81-2.27,0-3.98,1.71-3.98,3.98-.05,1.51.65,2.67,1.91,3.47Zm20.84-14.75c.1.05.25.05.35.1,5.29,1.71,6.85,3.68,6.85,6.8,0,3.47-2.52,5.79-7.15,6.29v-13.19h-.05Zm-8.61-11.18h0c-3.17-1.51-4.08-3.22-4.08-5.64,0-3.17,2.32-5.64,6.95-6.09v12.84c-1.11-.35-2.06-.7-2.87-1.11Z"/>
</svg>
