<?xml version="1.0" encoding="UTF-8"?>
<svg id="Layer_1" data-name="Layer 1" xmlns="http://www.w3.org/2000/svg" viewBox="0 0 256 256">
  <defs>
    <style>
      .cls-1 {
        stroke: green;
        fill: none;
        stroke-linecap: round;
        stroke-linejoin: round;
        stroke-width: 6px;
      }
    </style>
  </defs>
  <g>
    <polyline class="cls-1" points="130.88 245.8 18.88 245.8 18.88 45.37 136.78 45.37 136.78 92.53 183.94 92.53"/>
    <polygon class="cls-1" points="183.94 92.53 136.78 92.53 136.78 45.37 183.94 92.53"/>
    <polyline class="cls-1" points="183.94 116.11 183.94 92.53 136.78 92.53 136.78 45.37 54.25 45.37 54.25 10 172.15 10 219.31 57.16 219.31 127.9"/>
    <polygon class="cls-1" points="219.31 57.16 172.15 57.16 172.15 10 219.31 57.16"/>
    <polygon class="cls-1" points="183.94 92.53 136.78 92.53 136.78 45.37 183.94 92.53"/>
    <circle class="cls-1" cx="66.04" cy="92.53" r="23.58"/>
    <line class="cls-1" x1="130.88" y1="204.53" x2="48.36" y2="204.53"/>
    <line class="cls-1" x1="130.88" y1="175.06" x2="48.36" y2="175.06"/>
    <line class="cls-1" x1="101.41" y1="145.58" x2="48.36" y2="145.58"/>
  </g>
  <path class="cls-1" d="m236.99,196.87c-1.77,25.94-22.99,47.16-48.93,48.93-27.12,2.36-50.11-15.92-56-41.26-.59-3.54-1.18-7.66-1.18-11.79,0-5.89,1.18-12.38,2.95-17.68,7.07-20.63,27.12-35.37,50.11-35.37,13.56,0,25.94,5.31,35.37,13.56,11.79,10.61,18.86,25.94,17.68,43.62Z"/>
  <line class="cls-1" x1="183.94" y1="163.27" x2="183.94" y2="169.16"/>
  <line class="cls-1" x1="183.94" y1="216.32" x2="183.94" y2="222.22"/>
  <path class="cls-1" d="m172.15,210.43l2.36,2.36c2.36,2.36,5.31,3.54,8.25,3.54h1.18c6.48,0,11.79-5.31,11.79-11.79h0c0-6.48-5.31-11.79-11.79-11.79h0c-6.48,0-11.79-5.31-11.79-11.79h0c0-6.48,5.31-11.79,11.79-11.79h1.18c2.95,0,5.89,1.18,8.25,3.54l2.36,2.36"/>
</svg>
