<?xml version="1.0" encoding="UTF-8"?>
<svg id="Layer_1" data-name="Layer 1" xmlns="http://www.w3.org/2000/svg" viewBox="0 0 283 78">
  <defs>
    <style>
      .cls-1 {
        font-family: LouguiyaFR-Bold, LouguiyaFR;
        font-size: 33px;
        font-weight: 700;
        letter-spacing: -.03em;
      }

      .cls-1, .cls-2 {
        fill: #4d4d4d;
      }

      .cls-3 {
        fill: #00a753;
      }

      .cls-3, .cls-4, .cls-5, .cls-6 {
        fill-rule: evenodd;
      }

      .cls-7 {
        stroke-miterlimit: 10;
        stroke-width: .5px;
      }

      .cls-7, .cls-8 {
        fill: none;
        stroke: #00a753;
      }

      .cls-4 {
        fill: #ffdf00;
      }

      .cls-9 {
        letter-spacing: .02em;
      }

      .cls-8 {
        stroke-miterlimit: 2.61;
        stroke-width: .54px;
      }

      .cls-10, .cls-5 {
        fill: #fed600;
      }

      .cls-2 {
        font-family: LouguiyaFR, LouguiyaFR;
        font-size: 8px;
      }

      .cls-6 {
        fill: #ce1f26;
      }

      .cls-11 {
        letter-spacing: .1em;
      }
    </style>
  </defs>
  <g>
    <path class="cls-3" d="m46.95,15.58c12.94,0,23.42,10.49,23.42,23.42s-10.49,23.42-23.42,23.42-23.42-10.49-23.42-23.42,10.49-23.42,23.42-23.42h0Z"/>
    <path class="cls-5" d="m46.95,17.51l2.65,8.22,8.64-.02-7,5.06,2.69,8.21-6.98-5.09-6.98,5.09,2.69-8.21-7-5.06,8.64.02,2.65-8.22h0Zm12.89,6.3c4.91,3.88,8.06,9.92,8.06,16.71,0,11.71-9.38,21.2-20.95,21.2s-20.95-9.49-20.95-21.2c0-6.79,3.15-12.83,8.06-16.71h0c.4-.29.76-.43.83-.33.07.1-.09.23-.41.56-3.18,3.18-5.15,7.58-5.15,12.43,0,9.72,7.89,17.6,17.62,17.6s17.62-7.88,17.62-17.6c0-4.85-1.97-9.25-5.15-12.43h0c-.32-.33-.48-.47-.41-.56.07-.1.43.03.83.33h0Zm-.42.24h0,0Z"/>
    <path class="cls-5" d="m46.95,15.13c13.18,0,23.87,10.69,23.87,23.87s-10.69,23.87-23.87,23.87-23.87-10.69-23.87-23.87,10.69-23.87,23.87-23.87h0Zm0,.78c12.75,0,23.09,10.34,23.09,23.09s-10.34,23.09-23.09,23.09-23.09-10.34-23.09-23.09,10.34-23.09,23.09-23.09h0Z"/>
    <path class="cls-5" d="m46.95,5.07c18.74,0,33.93,15.19,33.93,33.93s-15.19,33.93-33.93,33.93S13.01,57.74,13.01,39,28.2,5.07,46.95,5.07h0Zm0,1.11c18.13,0,32.82,14.7,32.82,32.82s-14.7,32.82-32.82,32.82S14.12,57.13,14.12,39,28.82,6.18,46.95,6.18h0Z"/>
    <path class="cls-6" d="m23.08,39c0-13.18,10.69-23.87,23.87-23.87s23.87,10.69,23.87,23.87-10.69,23.87-23.87,23.87-23.87-10.69-23.87-23.87h0Zm56.69,0c0-18.13-14.7-32.82-32.82-32.82S14.12,20.87,14.12,39s14.7,32.82,32.82,32.82,32.82-14.7,32.82-32.82h0Z"/>
    <path class="cls-5" d="m58.56,11.57l1.07-.42.34.19c-.33.61-.57,1.21-.59,1.89-.25-.13-.39-.29-.49-.43-.48,1.14-1.45,2.04-2.39,2.28l.07-.37c.84-.76,1.55-1.98,1.98-3.14h0Z"/>
    <path class="cls-5" d="m31.2,13.95l.05-1.15.32-.24c.42.55.88,1.01,1.49,1.31-.22.18-.42.24-.6.27.85.9,1.28,2.15,1.12,3.11l-.31-.21c-.35-1.08-1.18-2.22-2.07-3.08h0Z"/>
    <path class="cls-5" d="m27.54,19.02c.05.06-.7.88-.54-.08.02-.13.24-.29.54.08h0Zm1.62-.97c-.06-.05-.08-.18-.04-.44.02-.11.19-.2.39-.07.38.24-.27.58-.35.51h0Zm.31-3.58c-.33-.38-.06-1.15.13-1.12.46.07.89.74,1.3,1.09.06.05-.16.03-.55-.04-.01,0,.41.45.73,1.09.16.32.43.71.45,1.05.03.54-.35,1-1.11,1.15l-.12.02c.06.43-.03.74-.28.89-.51.34-.96-.11-1.32.11-.03.08-.04.3-.16.57l-.5.48c-.17.29-.5.61-.96.42-1.09-.83-.9-1.88-.63-2.05.43-.27.91-.24,1.6.29.1-.13.2-.26.23-.32.21-.36.22-.67.23-.9.06-.83.73-.35,1.24-.37.36-.01.9-.15,1.02-.52.02-.07.02-.14-.02-.21-.34-.47-.51-.75-1.29-1.65h0Z"/>
    <path class="cls-5" d="m25.59,21.05c-.07-.08-.27-.19-.33-.14-.48.38-.6.28-.69-.21-.01-.07-.16-.67-.16-1.03,0-.51.14-.65.48-.42.77.51,1.9,1.51,1.97,2.58.05.7-.37,1.36-.9,2-.1-.06-.14-.12-.11-.19.34-1.04.37-1.67-.26-2.58h0Z"/>
    <path class="cls-5" d="m24.09,23.34c-.06-.08-.27-.24-.32-.18-.34.43-.46.2-.66-.29-.03-.06-.14-.44-.15-.8-.01-.39.32-.63.64-.36.71.59,1.37,1.12,1.37,2.19,0,.81-.71,1.41-1.51,1.52,0,.18,0,.34,0,.49h0c-.06,1.85-1.1,2.61-2.86,1.54-.23-.14-.41-.17-.69-.23-.14-.03-.3-.04-.58-.03-.15.03-.27-.1-.29-.16-.09-.29-.61-.83.21-.74.3.03.56.09.91.25.38.18.54.24.88.45,1.46.52,1.72-1.27,1.55-2.08-.09-.42,0-.71.33-.52.11.06.21.1.29.1.57-.04,1.09-.62.88-1.14h0Z"/>
    <path class="cls-5" d="m24.11,27.21l-.21-.53c-.03-.07,0-.14.07-.17l.53-.21s.03,0,.04,0l-.17-.44c-.03-.07,0-.14.07-.17l.53-.21c.07-.03.14,0,.17.07l.21.53c.03.07,0,.14-.07.17l-.53.21s-.03,0-.04,0l.17.44c.03.07,0,.14-.07.17l-.53.21c-.07.03-.14,0-.17-.07h0Z"/>
    <path class="cls-5" d="m20.83,25.05l-.25-.51c-.03-.06,0-.14.06-.17l.51-.25s.03,0,.04-.01l-.21-.43c-.03-.06,0-.14.06-.17l.51-.25c.06-.03.14,0,.17.06l.25.51c.03.06,0,.14-.06.17l-.51.25s-.03,0-.04.01l.21.43c.03.06,0,.14-.06.17l-.51.25c-.06.03-.14,0-.17-.06h0Z"/>
    <path class="cls-5" d="m21.76,33.14l-.38-.42c-.05-.05-.04-.13.01-.18l.42-.38s.02-.02.03-.02l-.32-.36c-.05-.05-.04-.13.01-.18l.42-.38c.05-.05.13-.04.18.01l.38.42c.05.05.04.13-.01.18l-.42.38s-.02.02-.03.02l.32.36c.05.05.04.13-.01.18l-.42.38c-.05.05-.13.04-.18-.01h0Z"/>
    <path class="cls-5" d="m16.96,35.95l-.42-.38c-.05-.05-.06-.13,0-.18l.38-.42s.02-.02.03-.02l-.35-.32c-.05-.05-.06-.13,0-.18l.38-.42c.05-.05.13-.06.18,0l.42.38c.05.05.06.13,0,.18l-.38.42s-.02.02-.03.02l.35.32c.05.05.06.13,0,.18l-.38.42c-.05.05-.13.06-.18,0h0Z"/>
    <path class="cls-5" d="m42.08,12.16c-.03-.07,0-.2.16-.42.06-.09.26-.09.38.11.23.38-.5.4-.54.3h0Zm-.2-1.04c.42-.71.81.01,1.28.22.08.04.16.07.26.09-.07.53-.14,1.53-.81,1.61-.61.07-.81-.53-1.23-.49-.43.41-.66.77-1.56.29-.49.84-1.98,1.61-3,.6-.51.94-1.46,1.37-1.79.4-.35-1.04,1.11-1.65,1.3-1.66-.02-.26.09-.5.22-.57.22-.13.52.04.52.09,0,.61.18.96.43,1.14.39.27,1.3.05,1.54-.24.16-.13.2-.37.38-.69.21-.37.42-.57.57-.23.05.11.1.21.18.25.67.43,1.38-.26,1.7-.81h0Zm-5.42,1.89c-.35.57-.86.68-.79.35.1-.27.54-.59.7-.56l.09.22h0Z"/>
    <path class="cls-5" d="m20.31,29.38c-.08-.06-.34-.12-.36-.04-.14.53-.34.36-.72,0-.05-.05-.3-.35-.45-.67-.17-.36.04-.7.44-.58.88.26,1.7.49,2.12,1.47.32.73-.01,1.7-.71,2.1.09.16.16.3.21.44h0c.04.09.07.18.09.28h0s0,0,0,0c0,.03.02.07.03.1h0s0,.03.01.05c.15.77-.38,1.53-1.06,1.72.6.88.57,1.92-.45,1.78-1.09-.15-.97-1.74-.9-1.91-.25-.1-.4-.3-.41-.45-.02-.26.27-.45.32-.42.54.28.94.27,1.21.13.42-.23.52-.8.37-1.14-.05-.2-.24-.35-.44-.65-.23-.36-.32-.63.06-.62.13,0,.23-.01.31-.04.52-.2.79-1.09.33-1.54h0Zm-.93,5c.35.57.22,1.07-.05.86-.19-.21-.28-.75-.19-.88l.23.02h0Z"/>
    <path class="cls-5" d="m52.83,13.87c.01-.12.05-.18.12-.19.2-.03.38-.06.54-.1.41-.12.95-.3,1.45-.57.08-.67-.04-1.41-.38-2.07l-.28.21s-.58-.63-.61-.91c.02-.57.99-1.09,1.21-.72.4.66.83,2.12.59,3.15.64-.49,1.1-1.19.93-2.22-.08-.49.82-.8.93-.64.25.4.03,1.16.03,1.7,0,.07-.13-.1-.33-.44,0,0-.07.6-.34,1.26-.3.72-.95,1.46-1.73,1.69-.58.18-1.55-.02-2.14-.16h0Z"/>
    <path class="cls-5" d="m46.71,11.94c.29.89,1.45,1.17,2.58.44.27.77,1.24.63,1.8.3,1.35,1.08,2.69-.38,2.16-1.8l-.67.44c.2,1.19-1.29.96-.75-.02.05-.17-.5-.14-.58.07l-.17.24c-.43.62-1.13.44-1.09-.17,0-.14.08-.31.14-.44.05-.17-.45-.14-.52.07-.61.97-2.58,1.19-2.41-.59.03-.27.03-.58.06-.93.03-.38.03-.75-.05-1.04-.21-.79-.53-.11-.77.07-.05.04-.12.2-.04.33.11.25.16.4.18.55.12.75-.13,1.5-.62,2.06.03-1.05-.68-2.4-1.2-2.97-.3-.32-1.14.38-1.05.94.08.27.75.8.78.77l.24-.26c.46.58.73,1.28.78,1.95-.44.37-.93.64-1.31.84-.16.07-.33.14-.51.2-.07.02-.09.09-.08.21.6.02,1.59.03,2.13-.26.41-.22.74-.59.98-1h0Z"/>
    <path class="cls-5" d="m76.84,34.29l1.04.5.09.39c-.67.17-1.28.4-1.79.84-.08-.27-.05-.48-.01-.66-1.16.42-2.49.31-3.29-.21l.32-.19c1.13.11,2.51-.2,3.65-.66h0Z"/>
    <path class="cls-5" d="m71.45,24.6c.19-.1,1.49-.21,1.31.14-.3.57-1.12-.08-1.31-.14h0Zm.81,3.54c.06-.04.2-.02.43.1.1.05.12.26-.07.41-.36.29-.45-.46-.37-.52h0Zm-1.83-5.29c-.08.03-.61-.98.25-.51.12.06.2.33-.25.51h0Zm-.87.27c-.22-.26-.42-.69-.09-1.1,1.13-.84,2.07-.33,2.15,0,.12.51-.06.99-.79,1.52-.06.35.11.43.19.58,1.06-.37,2.06-.34,2.38.08.3.39.11,1.13-1.27,1.52,0,.76,0,1.06.36,1.53.27.33.56.44.77.53.76.33.08.84-.07,1.36-.19.63.04,2.02.88,2.65.45-.6.24-1.25-.46-1.93l.42-.68c.74.41,1.06.76,1.29,1.37.3.8-.3,2.54.98,1.94.04-.31.18-.47.48-.6l.88.39-.1.4c-.47.13-.82.46-1.13.84,0,0-.18-.24-.16-.54-1.42.4-.97-.68-1.68-.9-.12.44-.09.95.04,1.5l-1.07.48c.31-2.92-1.62-1.79-1.04-4.63-.62-.04-.99-.24-1.08-.61-.14-.62.43-.92.34-1.35-.19-.16-.43-.21-.46-.91-1.04.57-2.03-.26-1.06-2.09-.31-.2-.29-.41-.41-.68-2.11.42-2.62-.81-2.86-2.32.11-.04.18-.03.22.03.61,1.03,1.06,1.6,2.35,1.63h0Zm1.1,1.98c1.91.36-.21,1.98,0,0h0Z"/>
    <path class="cls-5" d="m67.23,20.03c.09-.04.25-.22.22-.29-.25-.56-.13-.65.38-.61.07,0,.69.01,1.04.1.49.12.59.29.29.57-.68.62-1.94,1.47-2.99,1.28-.69-.13-1.23-.69-1.71-1.37.09-.08.15-.1.21-.06.92.59,1.52.77,2.57.39h0Z"/>
    <path class="cls-5" d="m65.4,17.83c.1-.03.3-.19.26-.26-.32-.44-.07-.49.45-.56.07,0,.46-.01.81.07.38.09.52.47.18.71-.75.52-1.45,1.02-2.47.73-2-.57-2.51-1.41-2.68-1.82-.11-.26-.15-.55-.1-.82-1.06.15-1.97-.34-1.39-1.19.62-.91,1.99-.11,2.11.03.2-.18.45-.23.59-.17.24.1.29.44.24.47-.67.5-.74.98-.57,1.33.17.35.8,1.16,2.59,1.46h0Zm-3.44-2.49c-.67.06-1.06-.28-.75-.42.28-.08.79.08.87.22l-.12.2h0Z"/>
    <path class="cls-5" d="m71.85,31.81l.6.12c.07.02.12.09.11.16l-.14.65c-.02.07-.09.12-.16.11l-.6-.12c-.07-.02-.12-.09-.11-.16l.14-.65c.02-.07.09-.12.16-.11h0Z"/>
    <path class="cls-5" d="m17.33,29.01l.46-.4c.06-.05.15-.04.2.01l.43.5c.05.06.04.15-.01.2l-.46.4c-.06.05-.15.04-.2-.01l-.43-.5c-.05-.06-.04-.15.01-.2h0Z"/>
    <path class="cls-5" d="m61.75,12.59l.55-.28c.07-.03.15,0,.19.06l.28.55s.01.03.01.04l.46-.23c.07-.03.15,0,.19.06l.28.55c.03.07,0,.15-.06.19l-.55.28c-.07.03-.15,0-.19-.06l-.28-.55s-.01-.03-.01-.04l-.46.23c-.07.03-.15,0-.19-.06l-.28-.55c-.03-.07,0-.15.06-.19h0Z"/>
    <path class="cls-5" d="m62.09,18.36l.5-.27c.06-.03.14-.01.17.05l.27.5s.01.02.01.04l.42-.23c.06-.03.14-.01.17.05l.27.5c.03.06.01.14-.05.17l-.5.27c-.06.03-.14.01-.17-.05l-.27-.5s-.01-.02-.01-.04l-.42.23c-.06.03-.14.01-.17-.05l-.27-.5c-.03-.06-.01-.14.05-.17h0Z"/>
    <path class="cls-5" d="m39.11,14.43l.25-.51c.03-.06.11-.09.17-.06l.51.25s.02.01.03.02l.21-.43c.03-.06.11-.09.17-.06l.51.25c.06.03.09.11.06.17l-.25.51c-.03.06-.11.09-.17.06l-.51-.25s-.02-.01-.03-.02l-.21.43c-.03.06-.11.09-.17.06l-.51-.25c-.06-.03-.09-.11-.06-.17h0Z"/>
    <path class="cls-5" d="m34.54,11.38l.17-.54c.02-.07.09-.1.16-.08l.54.17s.03.01.04.02l.15-.45c.02-.07.09-.1.16-.08l.54.17c.07.02.1.09.08.16l-.17.54c-.02.07-.09.1-.16.08l-.54-.17s-.03-.01-.04-.02l-.15.45c-.02.07-.09.1-.16.08l-.54-.17c-.07-.02-.1-.09-.08-.16h0Z"/>
    <path class="cls-5" d="m27.38,22.37c1.22-.79,2.11-1.73.97-3.52l-.45.56c.43,1.17.1,1.8-.57,2.75-.04.06-.02.13.05.22h0Z"/>
    <path class="cls-5" d="m51.19,9.69c1.08,0-.56.31-.51.66.01.07.07.1.15.09.44-.04,1.24-.41,1.83-1.17-.01-.09-.1-.14-.21-.15-.07,0-.77-.16-1.24,0-.11.04-.21.12-.4.45-.32.56.18.12.38.12h0Z"/>
    <path class="cls-5" d="m37.44,9.85s-.17.4.09.41c.31.11,2.72-.76,3.33-1.58.38-.5.02-.22-.35,0-.53.33-2.12.99-3.08,1.17h0Z"/>
    <path class="cls-5" d="m75.68,28.84s-.54,0-.47.25c.37.61.76,1.15,1.44,1.33.61.16.21-.05-.12-.33-.48-.4-.62-.57-.85-1.25h0Z"/>
    <path class="cls-5" d="m40.56,9.65s-.1-.02-.12.03c-.13.26-.19.51-.31.57-.05.03-.18.14-.27.08-.03-.02-.07-.12-.11-.19-.12-.18-.24.1-.27.21-.04.15-.14.25-.22.29-.3.15-.41,0-.4-.26,0-.19-.24-.21-.26.36,0,.18,0,.43.18.51.41.17.68-.22.76-.41.01-.03.07-.01.11,0,.27.13.47.05.61-.11.32-.37.34-1.2.3-1.08h0Z"/>
    <path class="cls-5" d="m66.59,15.57c-.01-.05-.06-.08-.11-.06-.27.11-.48.26-.61.23-.06-.01-.23-.02-.25-.12,0-.03.03-.14.04-.22.03-.21-.25-.09-.34-.03-.13.08-.27.09-.35.07-.32-.09-.3-.27-.13-.46.13-.14-.04-.32-.43.1-.12.13-.29.32-.2.5.2.4.65.29.84.19.03-.02.06.04.08.08.12.28.32.35.53.32.49-.07,1.05-.68.94-.61h0Z"/>
    <path class="cls-5" d="m17.57,30.32s-.06.07-.03.12c.17.24.37.4.37.54,0,.06.04.23-.05.27-.03.01-.14,0-.22.01-.21.03-.03.26.06.34.11.1.16.24.15.33,0,.33-.19.36-.41.24-.17-.09-.3.11.2.39.15.09.38.2.53.07.34-.29.12-.7-.02-.86-.02-.03.02-.07.06-.1.24-.19.26-.39.18-.59-.19-.45-.91-.85-.82-.77h0Z"/>
    <path class="cls-5" d="m54.68,15.03c.04.08.13.15.1.15-.09,0-.25.03-.33.11-.06.07,0,.2.05.2.32.01.73-.13,1.12.06.05-.15.32-.22.23-.31-.1-.09-.42-.04-.63-.31-.12-.16.01-.49.33-.16.29.29.45-.15.44-.19-.07-.16-.35-.27-.62-.28-.39-.02-.86.34-.68.73h0Z"/>
    <path class="cls-5" d="m74.24,26.39c-.17-.15-.02-.07-.38-.16-.08-.02-.41-.06-.41.03,0,.14.3.12.4.44.09.27-.7-.35-.76-.34-.15.02.47.82,1.37.78.26-.14-.14-.61-.22-.74h0Z"/>
    <path class="cls-5" d="m69.73,20.35c-.13.12-.23.44-.21.59.1.05.59-.08.67-.12.05-.18.02-.23.14-.4.15-.22.3-.04.3-.28-.23-.09-.71.06-.89.22h0Z"/>
    <path class="cls-5" d="m42.09,9.57c0,.18.17.46.29.55.11-.05.33-.49.36-.58-.1-.15-.16-.17-.21-.37-.06-.26.18-.25-.01-.41-.22.11-.43.56-.43.81h0Z"/>
    <path class="cls-5" d="m23.13,20.46c.14.12.46.17.61.14.03-.11-.16-.57-.21-.65-.18-.02-.23.02-.42-.08-.23-.12-.07-.3-.32-.26-.06.24.15.69.34.85h0Z"/>
    <path class="cls-5" d="m28.64,15.59c.15.1.48.11.62.06.02-.11-.23-.55-.29-.62-.18,0-.23.04-.42-.03-.25-.09-.11-.28-.35-.22-.03.24.23.67.44.81h0Z"/>
    <path class="cls-5" d="m22.38,29.47c.17.07.49.01.62-.07,0-.11-.33-.49-.41-.55-.18.04-.21.09-.42.06-.26-.04-.17-.26-.38-.14.02.25.36.61.59.7h0Z"/>
    <path class="cls-5" d="m48.43,8.86c.43.32.15,1.14.34,1.24.31.17.29-2.23-.26-1.52-.05.06-.13.18-.08.28h0Z"/>
    <path class="cls-5" d="m19.63,25.56c.5-.21,1.05.46,1.24.35.31-.18-1.75-1.41-1.44-.57.03.07.08.2.2.21h0Z"/>
    <path class="cls-10" d="m27.66,17c-.1.2-.28.34-.45.47-.1.08.36-.99.28-1.27-.34.23-.65-.06-.66-.4-.01-.46.42-.68.69-.27.32.47.39.95.14,1.47h0Zm-.56-1.22c-.02.06.03.12.11.14.07.02.15-.02.16-.08.02-.06-.03-.12-.11-.14-.07-.02-.15.02-.16.08h0Z"/>
    <polygon class="cls-4" points="34.07 46.99 33.55 60.79 37.65 62.01 36.91 47.21 34.39 46.87 34.07 46.99 34.07 46.99"/>
    <path class="cls-8" d="m63.45,58.59l1.38-1.23-2.18-4.13c-.13-.26-.14-.53.1-.78l3.07-2.65c.16-.11.34-.09.51-.01l1.69.08c1.14.3,1.96-1.76,2.75-1.73l.86.02c.44,0,.46-.17.14-.24-1.96-.73-1.93.09-3.22.37l-2.66-2.02c-.34-.22-.48-.13-.73.13l-4.23,4.49c-.26.29-.44.32-.39-.16l.16-2.85c3.4-4.75,5.36-1.97,8.05-2.39.96-.25,1.75-.92,2.38-1.95.26-.43.24-.64-.33-.38-1.97.42-3.52-.38-5.1-.17-1.85.24-3.52,1.11-4.93,3.61l.21-3.75.6-.81c.68.81,1.72.61,2.02-.41.56.68,1.56.7,1.99-.15.96,1.09,2.13-.51.78-.92l.8-.39c.63.71,1.72.55,1.81-.49,0-.01,0-.02,0-.03.08,0,.16-.02.24-.04.18.15.43.24.69.24.58,0,1.05-.43,1.05-.96s-.47-.96-1.05-.96c-.5,0-.92.32-1.02.75-.13,0-.26.02-.36.06-.47-.59-1.52-.25-1.66.7-.25-.04-.47-.04-.67.11-.73-.3-1.2-.1-1.85.46-.33.31-.62.43-.99.52-.41-.56-1.11-.45-1.67.31-.16.05-.21-.14-.1-.26l.97-.83c.81.66,1.63.24,1.48-.4.83.34,1.49-.04,1.44-.85.81.69,1.71.2,1.69-.79.72.72,1.9.3,1.87-.71.53.79,1.51.86,2.03.57.24-.13.44-.41.26-.68-.08-.12-.22-.09-.31-.21.15-.49-.5-.7-1.6-.65-1.69.08-3.81,1.11-5.84,2.17l-.09-.2c.25-.24.58-.47.99-.94.63.12,1.11-.02,1.25-.73l.32-.15c.61.36,1.1,0,1.35-.47.36.01.68-.08.96-.31.19-.26.61.28,1.26.09.75-.22.72-1.12-.06-1.36-.29-.09-.63-.02-.91.35-.08.06-.12.06-.2.05h0c-.03-.35-.33-.63-.68-.63-.38,0-.69.31-.69.69,0,.11.03.21.07.3-.06.03-.11.07-.13.13-.05-.36-.35-.64-.73-.64-.4,0-.73.33-.73.73,0,.21.09.39.22.53-.18-.09-.28-.03-.3.18h0s0-.02,0-.03c0-.38-.31-.69-.69-.69s-.69.31-.69.69c0,.21.09.39.23.52h0c-.07.15-.19.19-.32.18h0c-1.26-1.21-2.44.43-1.28,1.34-.5,0-1.16.42-.69,1.47l-.91.74.23-4.13c.02-.42-.06-.73-.23-.8-.4-.18-1.11-.13-1.74.14-.18.08-.38.22-.56.55-.58,1.12-2.06,4.61-2.25,5.58-.02.1-.03.17-.02.21.01.12.28-.1.5-.27.48-.36,1.17-1,1.66-1.39l-.25,5.05c-2.21-3.39-5.24-3.52-7.47-2.2-1.33.91-1.73,2.1-3.22,3.44.48-.05.88-.13,1.26-.51.02.7-.16,1.99.31,2.68-.16.98.97,1.6.45,3.09.27-.21.6-.33.71-1.3.82.76,1.99,1.11,3.08.95-.44.1-.82.3-.93.56l-3.36,6.64c-.07.09.02.42.28.22l4.17-3.24c.23-.22.4-.16.55.08l3.86,6.15,1.58-.14.37-6.47c-.02-.3.22-.5.44-.67.3-.24.4-.45.59-.07l2.29,4.38h0Zm4.06-14.71c-1.19-.28-2.73-.45-4.46.85,3.67-1.13,3.57.39,5.69-.39.15-.06.24-.12.22-.17-.05-.15-.24,0-1.45-.28h0Zm-9.07,1.77l-.11,2.18c-.47-1.01-.99-1.9-1.69-2.56-1.2-1.15-3.11-1.76-4.54-.64-.57.45-.89,1.08-.98,1.71-.15,1.14.46,2.31,1.78,2.5.82.02,1.48-.41,1.5-1.22.39-.09.64-.45.61-.91.97.03,1.21.98.89,2-.35,1.16-1.51,2.31-3.18,2.11-.72-.09-1.44-.43-2.03-.98.14-.08.24-.24.24-.42,0-.27-.22-.48-.48-.48-.14,0-.27.06-.36.16-.26-.4-.45-.87-.55-1.4.07.03.14.04.21.04.3,0,.55-.25.55-.55s-.25-.55-.55-.55c-.11,0-.2.03-.29.08,0-.17.02-.34.04-.52.03-.35.11-.68.22-1.01.12.18.33.31.56.31.37,0,.67-.3.67-.67s-.3-.67-.67-.67h-.01c.3-.42.69-.79,1.12-1.08,0,.37.3.66.67.66s.67-.3.67-.67c0-.21-.1-.4-.25-.52.39-.12.8-.19,1.22-.19.15,0,.3,0,.44.02-.07.09-.12.21-.12.33,0,.29.24.53.53.53s.53-.24.53-.53c0-.05,0-.1-.02-.15,1.52.47,2.53,1.73,3.39,3.07h0Zm-.14,2.86l-.38,7.75c-.04.36-.22.22-.29,0l-2.29-4.81c-.2-.33-.86-.42-1.48-.34,1.16-.26,2.18-1.14,2.5-2.73.67-1.13-.19-1.16-.1-2.18l-.19.65c-.28-.44-.73-.63-1.44-.51.45,1.51-1.76,1.42-1.76-.05.08-1.09,1.09-1.58,1.83-1.56,1.4.03,2.56,1.41,3.6,3.78h0Zm-.87,10.85l-4.17-7.05c-.72-.83,1.77-.98,1.9-.42l2.52,5.64c.28.51-.03.72-.24.32l-1.79-3.69c-.1-.2-.6.1-.46.35l2.38,4.49c.27.38-.05.57-.15.37h0Zm3.07-5.53c-.3.22-.36-.3-.14-.5l4.78-4.46c.48-.49.69.13.29.48l-4.93,4.48h0Zm.74-1.76c-.2.16-.44-.16-.08-.49l3.81-4.21c.27-.35.59.05.22.43l-3.94,4.26h0Zm-1.91-15.85c-.06-.5,1.56-.88,1.43-.21l-.59,14.2c-.07.39-.39.88-.46.6l.57-11.42c0-.25-.38-.13-.51.08l-.47,10.72c-.04.97-.45-.13-.42-.62l.44-13.34h0Z"/>
    <path class="cls-5" d="m63.45,58.59l1.38-1.23-2.18-4.13c-.13-.26-.14-.53.1-.78l3.07-2.65c.16-.11.34-.09.51-.01l1.69.08c1.14.3,1.96-1.76,2.75-1.73l.86.02c.44,0,.46-.17.14-.24-1.96-.73-1.93.09-3.22.37l-2.66-2.02c-.34-.22-.48-.13-.73.13l-4.23,4.49c-.26.29-.44.32-.39-.16l.16-2.85c3.4-4.75,5.36-1.97,8.05-2.39.96-.25,1.75-.92,2.38-1.95.26-.43.24-.64-.33-.38-1.97.42-3.52-.38-5.1-.17-1.85.24-3.52,1.11-4.93,3.61l.21-3.75.6-.81c.68.81,1.72.61,2.02-.41.56.68,1.56.7,1.99-.15.96,1.09,2.13-.51.78-.92l.8-.39c.63.71,1.72.55,1.81-.49,0-.01,0-.02,0-.03.08,0,.16-.02.24-.04.18.15.43.24.69.24.58,0,1.05-.43,1.05-.96s-.47-.96-1.05-.96c-.5,0-.92.32-1.02.75-.13,0-.26.02-.36.06-.47-.59-1.52-.25-1.66.7-.25-.04-.47-.04-.67.11-.73-.3-1.2-.1-1.85.46-.33.31-.62.43-.99.52-.41-.56-1.11-.45-1.67.31-.16.05-.21-.14-.1-.26l.97-.83c.81.66,1.63.24,1.48-.4.83.34,1.49-.04,1.44-.85.81.69,1.71.2,1.69-.79.72.72,1.9.3,1.87-.71.53.79,1.51.86,2.03.57.24-.13.44-.41.26-.68-.08-.12-.22-.09-.31-.21.15-.49-.5-.7-1.6-.65-1.69.08-3.81,1.11-5.84,2.17l-.09-.2c.25-.24.58-.47.99-.94.63.12,1.11-.02,1.25-.73l.32-.15c.61.36,1.1,0,1.35-.47.36.01.68-.08.96-.31.19-.26.61.28,1.26.09.75-.22.72-1.12-.06-1.36-.29-.09-.63-.02-.91.35-.08.06-.12.06-.2.05h0c-.03-.35-.33-.63-.68-.63-.38,0-.69.31-.69.69,0,.11.03.21.07.3-.06.03-.11.07-.13.13-.05-.36-.35-.64-.73-.64-.4,0-.73.33-.73.73,0,.21.09.39.22.53-.18-.09-.28-.03-.3.18h0s0-.02,0-.03c0-.38-.31-.69-.69-.69s-.69.31-.69.69c0,.21.09.39.23.52h0c-.07.15-.19.19-.32.18h0c-1.26-1.21-2.44.43-1.28,1.34-.5,0-1.16.42-.69,1.47l-.91.74.23-4.13c.02-.42-.06-.73-.23-.8-.4-.18-1.11-.13-1.74.14-.18.08-.38.22-.56.55-.58,1.12-2.06,4.61-2.25,5.58-.02.1-.03.17-.02.21.01.12.28-.1.5-.27.48-.36,1.17-1,1.66-1.39l-.25,5.05c-2.21-3.39-5.24-3.52-7.47-2.2-1.33.91-1.73,2.1-3.22,3.44.48-.05.88-.13,1.26-.51.02.7-.16,1.99.31,2.68-.16.98.97,1.6.45,3.09.27-.21.6-.33.71-1.3.82.76,1.99,1.11,3.08.95-.44.1-.82.3-.93.56l-3.36,6.64c-.07.09.02.42.28.22l4.17-3.24c.23-.22.4-.16.55.08l3.86,6.15,1.58-.14.37-6.47c-.02-.3.22-.5.44-.67.3-.24.4-.45.59-.07l2.29,4.38h0Zm4.06-14.71c-1.19-.28-2.73-.45-4.46.85,3.67-1.13,3.57.39,5.69-.39.15-.06.24-.12.22-.17-.05-.15-.24,0-1.45-.28h0Zm-9.07,1.77l-.11,2.18c-.47-1.01-.99-1.9-1.69-2.56-1.2-1.15-3.11-1.76-4.54-.64-.57.45-.89,1.08-.98,1.71-.15,1.14.46,2.31,1.78,2.5.82.02,1.48-.41,1.5-1.22.39-.09.64-.45.61-.91.97.03,1.21.98.89,2-.35,1.16-1.51,2.31-3.18,2.11-.72-.09-1.44-.43-2.03-.98.14-.08.24-.24.24-.42,0-.27-.22-.48-.48-.48-.14,0-.27.06-.36.16-.26-.4-.45-.87-.55-1.4.07.03.14.04.21.04.3,0,.55-.25.55-.55s-.25-.55-.55-.55c-.11,0-.2.03-.29.08,0-.17.02-.34.04-.52.03-.35.11-.68.22-1.01.12.18.33.31.56.31.37,0,.67-.3.67-.67s-.3-.67-.67-.67h-.01c.3-.42.69-.79,1.12-1.08,0,.37.3.66.67.66s.67-.3.67-.67c0-.21-.1-.4-.25-.52.39-.12.8-.19,1.22-.19.15,0,.3,0,.44.02-.07.09-.12.21-.12.33,0,.29.24.53.53.53s.53-.24.53-.53c0-.05,0-.1-.02-.15,1.52.47,2.53,1.73,3.39,3.07h0Zm-.14,2.86l-.38,7.75c-.04.36-.22.22-.29,0l-2.29-4.81c-.2-.33-.86-.42-1.48-.34,1.16-.26,2.18-1.14,2.5-2.73.67-1.13-.19-1.16-.1-2.18l-.19.65c-.28-.44-.73-.63-1.44-.51.45,1.51-1.76,1.42-1.76-.05.08-1.09,1.09-1.58,1.83-1.56,1.4.03,2.56,1.41,3.6,3.78h0Zm-.87,10.85l-4.17-7.05c-.72-.83,1.77-.98,1.9-.42l2.52,5.64c.28.51-.03.72-.24.32l-1.79-3.69c-.1-.2-.6.1-.46.35l2.38,4.49c.27.38-.05.57-.15.37h0Zm3.07-5.53c-.3.22-.36-.3-.14-.5l4.78-4.46c.48-.49.69.13.29.48l-4.93,4.48h0Zm.74-1.76c-.2.16-.44-.16-.08-.49l3.81-4.21c.27-.35.59.05.22.43l-3.94,4.26h0Zm-1.91-15.85c-.06-.5,1.56-.88,1.43-.21l-.59,14.2c-.07.39-.39.88-.46.6l.57-11.42c0-.25-.38-.13-.51.08l-.47,10.72c-.04.97-.45-.13-.42-.62l.44-13.34h0Z"/>
    <path class="cls-8" d="m44.01,42.78c.67-.45,1.26-.92,1.65-1.55-.93.29-1.69.83-2.28,1.43-.12-.02-.24-.03-.36-.04.66-.54,1.24-1.08,1.57-1.79-.95.39-1.68,1.05-2.2,1.75-.11,0-.23,0-.34,0,.56-.61,1.04-1.22,1.26-1.96-.87.5-1.47,1.24-1.88,1.99-.11,0-.22.02-.34.03.51-.65.95-1.29,1.11-2.05-.83.57-1.39,1.35-1.74,2.14-.12.02-.24.05-.37.07.47-.67.86-1.33.97-2.08-.8.62-1.3,1.43-1.61,2.24-.13.04-.26.07-.39.11.41-.69.75-1.35.8-2.09-.75.66-1.19,1.49-1.43,2.3-.12.04-.23.09-.35.13.39-.68.71-1.37.74-2.08-.74.67-1.17,1.55-1.38,2.36-.08.04-.17.08-.25.12.06-.18.1-.37.09-.56-.35.26-.59.58-.74.92-.12.07-.24.15-.36.23.02-.16.05-.34.09-.52.64-.48,1.26-1.1,1.61-1.94-.55.24-1.01.63-1.44,1.1.04-.17.08-.34.12-.52.62-.3,1.34-.9,1.68-1.62-.56.13-1,.5-1.49.9.04-.15.08-.3.13-.45.63-.3,1.35-.88,1.71-1.6-.54.1-.98.42-1.46.78.05-.14.09-.29.14-.44.62-.3,1.31-.84,1.69-1.53-.51.08-.94.36-1.4.69.05-.15.11-.3.17-.45.62-.33,1.22-.77,1.67-1.41-.48.1-.92.31-1.35.58.06-.15.12-.3.19-.46.57-.33,1.12-.76,1.5-1.39-.52.08-.95.31-1.35.61l-.02-.02c.38-.54.91-1.36.92-2.33-.64.47-1.03,1.35-1.22,2.03l-.05-.05s-.03.06-.05.09c-.04-.53-.14-1.03-.37-1.49-.19.81-.15,1.62-.04,2.36-.06.15-.13.3-.19.45-.14-.54-.33-1.05-.65-1.49-.1.82.07,1.61.34,2.3-.05.13-.1.27-.14.41-.18-.59-.35-1.12-.72-1.53-.09.8.14,1.69.45,2.34-.04.13-.08.27-.13.41-.12-.33-.31-.81-.75-1.21,0,.9.24,1.51.53,1.96-.05.16-.09.32-.14.48-.17-.47-.34-.89-.67-1.23-.09.71.14,1.49.45,2.06-.03.11-.06.23-.09.35-.11-.29-.25-.51-.48-.81-.07.7.12,1.11.3,1.5-.06.25-.13.51-.19.77-.1-.32-.21-.64-.32-.97.05-.34.05-.66-.02-.96-.07.08-.14.19-.2.32-.03-.08-.05-.15-.08-.23.3-.5.48-1,.51-1.49-.22.15-.51.41-.77.79-.03-.07-.05-.14-.08-.21.42-.52.68-1.05.74-1.61-.29.14-.67.42-1.01.91-.04-.09-.07-.18-.11-.27.65-.55.89-.99.96-1.68-.71.56-.97.86-1.18,1.14-.04-.1-.08-.21-.13-.31.69-.61,1.07-1.14,1.15-1.84-.45.36-.95.84-1.34,1.39-.05-.11-.1-.23-.14-.34.68-.59,1.19-1.26,1.43-1.93-.42.24-1.05.72-1.64,1.42-.04-.09-.08-.18-.12-.27.74-.67,1.28-1.34,1.53-2.01-.44.23-1.1.71-1.72,1.58-.05-.12-.1-.23-.16-.34.76-.62,1.31-1.25,1.57-1.91-.44.19-1.13.64-1.76,1.48-.05-.12-.11-.23-.16-.35.72-.55,1.25-1.15,1.49-1.81-.41.15-1.06.54-1.64,1.38l.08.28c-.06-.12-.12-.25-.17-.36v-.34c.66-.48,1.14-1.01,1.36-1.62-.41.12-1.04.62-1.61,1.41h-.02s-.05-.12-.05-.12l.03-.11h0c.49-.6.81-1.2.87-1.83-.33.18-.76.7-1.1,1.46.13-1.24.04-1.76-.21-2.11-.3.44-.33,1.22-.18,1.88-.43-.35-.83-.55-1.11-.59.2.41.52.77.94,1.08h0c-.37-.09-.74-.13-1.07-.16.3.41.79.67,1.39.87l.11.23c-.61-.29-1.17-.38-1.55-.36.42.49,1.07.81,1.86,1.06.04.09.08.18.12.27-.72-.3-1.38-.47-1.82-.48.45.5,1.18.83,2.06,1.03.04.1.09.2.13.31-.83-.31-1.59-.46-2.06-.45.54.48,1.34.78,2.27.93.04.09.08.18.12.27-.83-.29-1.58-.38-2.05-.37.54.48,1.36.82,2.3.97.04.11.09.21.13.32-.8-.28-1.54-.36-1.99-.34.53.48,1.32.8,2.23.93l.09.22c-.73-.21-1.4-.25-1.81-.21.48.4,1.19.66,2.02.74.04.11.09.22.13.33-.67-.25-1.28-.32-1.65-.3.44.43,1.09.72,1.86.82.04.1.08.2.12.3-.44-.18-.82-.25-1.1-.25.32.43.8.78,1.41,1.05l.11.28c-.39-.23-.74-.33-.98-.36.25.42.68.76,1.23,1.05l.02.02c.07.19.15.39.23.6-.33-.36-.66-.56-.9-.66.1.36.31.7.6,1.03l-.09.07-.04.03c-.14-.08-.28-.15-.42-.23-.12-.66-.46-1.36-1.18-1.9-.03.57.22,1.08.55,1.6-.11-.05-.23-.1-.34-.15-.18-.72-.56-1.47-1.29-2.05,0,.64.3,1.21.66,1.8-.14-.05-.29-.1-.43-.15-.13-.7-.46-1.43-1.1-2.03-.05.63.2,1.23.51,1.84-.12-.04-.23-.07-.35-.1-.13-.72-.45-1.47-1.11-2.09-.05.67.22,1.29.56,1.94-.1-.03-.2-.05-.31-.08-.13-.72-.43-1.45-1.1-2.08-.04.69.22,1.29.58,1.95-.12-.03-.23-.05-.35-.08-.14-.72-.46-1.45-1.15-2.03-.03.69.25,1.29.61,1.93-.15-.03-.29-.06-.44-.08-.08-.66-.32-1.33-1-1.92-.08.65.18,1.2.54,1.84-.28-.05-.57-.09-.86-.13l.43.05c-.15-.67-.51-1.25-1.26-1.77-.01.66.37,1.12.8,1.72-.14-.02-.27-.04-.41-.06-.23-.56-.6-1.11-1.39-1.58-.01.56.31,1,.77,1.5-.1-.01-.21-.02-.31-.03-.33-.49-.84-.91-1.66-1.24.07.48.42.81.86,1.16-.13-.01-.27-.02-.4-.03-.33-.38-.85-.69-1.65-.76.06.25.27.5.74.8-.44-.03-.99.04-1.57.21.37.26.98.4,1.62.35-.35.24-.71.55-.79.89.81-.06,1.27-.4,1.51-.8.14.01.27.02.41.03-.52.31-.89.66-1.02,1.08.5-.06,1.09-.39,1.72-1.01.12.01.23.02.35.04-.54.36-.95.76-1.16,1.22.49-.09,1.12-.46,1.85-1.14.08.01.17.02.25.03-.46.35-.81.74-1.11,1.28.49-.09,1.1-.5,1.78-1.19.12.02.23.04.35.05-.7.48-1.12.86-1.33,1.26.57-.09,1.18-.41,1.97-1.15.1.02.19.04.29.05-.69.49-1.08.94-1.27,1.31.69-.21,1.29-.58,1.91-1.18.09.02.17.04.26.06-.71.54-1.14,1.03-1.29,1.43.69-.22,1.33-.62,1.89-1.29.11.03.22.05.32.08-.78.56-1.14.95-1.32,1.36.72-.22,1.27-.52,1.88-1.21.09.02.17.05.26.08-.71.54-1.04.92-1.2,1.33.69-.22,1.21-.51,1.76-1.15.09.03.19.06.28.1-.48.3-.89.63-1.11,1.12.75-.12,1.23-.5,1.63-.93.08.03.16.06.25.1-.4.3-.81.6-1.06,1.03.68-.11,1.12-.46,1.49-.85.14.06.28.12.41.19-.14,0-.29.02-.44.04.1.11.2.2.31.27l.12.38c-.29-.08-.61-.1-.95-.05.07.09.15.17.23.23-.16.02-.32.04-.47.07-.3-.12-.64-.18-1.02-.15.08.11.16.2.25.29-.07.01-.14.03-.21.04-.34-.33-.99-.56-1.89-.62.26.37.61.57,1.08.82-.13.04-.26.07-.39.11-.43-.42-.96-.67-1.7-.68.27.45.65.66,1.12.86-.11.04-.23.08-.34.12-.47-.42-1.04-.67-1.82-.62.32.46.76.64,1.28.82-.11.04-.21.09-.32.13-.54-.37-1.17-.62-1.98-.48.39.42.86.6,1.42.73-.12.06-.24.11-.36.17h0c-.57-.35-1.24-.53-2.05-.32.42.4.93.51,1.52.59-.14.07-.28.15-.41.22-.54-.33-1.12-.45-1.89-.25.4.39.83.47,1.37.54-.09.05-.18.11-.28.16-.57-.22-1.19-.27-1.92,0,.39.29.81.36,1.28.38-.09.05-.18.11-.26.17-.55-.13-1.14-.09-1.78.23.43.26.87.28,1.36.25-.41.28-.87.74-1.21,1.25.51-.04,1.32-.48,1.82-1.07-.37.68-.65,1.26-.6,1.98.7-.64,1.02-1.36,1.15-2.11.1-.07.19-.13.28-.2-.33.83-.3,1.33-.18,1.76.45-.76.64-1.22.72-2.12.1-.06.2-.13.3-.19-.23.77-.22,1.23-.15,1.67.36-.59.57-1.04.67-1.98.08-.05.16-.09.24-.13-.26.97-.23,1.37-.19,1.73.39-.59.62-1.04.77-2.03.09-.05.18-.09.27-.13-.33.97-.32,1.37-.31,1.72.43-.57.69-1,.9-1.99.11-.05.23-.09.34-.14-.42.93-.45,1.32-.48,1.67.49-.54.79-.96,1.1-1.9.13-.04.25-.09.38-.12-.65.96-.68,1.37-.77,1.74.66-.53.9-.92,1.5-1.95.14-.04.27-.07.41-.1-.72.8-.77,1.04-.98,1.46.75-.48,1.06-.64,1.77-1.62.07-.01.15-.03.22-.04-.22.29-.29.48-.43.74.53-.31.85-.48,1.23-.87.19-.03.38-.05.58-.08l.08.26c-.32.08-.65.2-1,.4.29.04.63.05.94.06-.06.05-.12.1-.18.15-.64.02-1.31.1-2.08.53.42.05.98.06,1.37.06-.07.06-.15.13-.22.19-.93-.06-1.72.06-2.17.36.77.1,1.18.08,1.7.08-.07.06-.13.13-.2.19-1-.08-1.82-.02-2.3.3.79.24,1.22.22,1.82.19-.08.08-.16.16-.23.25-1-.12-1.82-.09-2.31.21.82.28,1.26.27,1.89.26-.1.11-.19.22-.28.34-.79-.18-1.51-.16-2.26.09.65.33,1.25.32,1.93.33-.09.11-.17.22-.25.33-1.1-.18-1.77-.07-2.3.15.74.36,1.33.34,1.95.34-.08.11-.15.22-.23.34-1.12-.23-1.64-.23-2.18-.02.52.44,1.08.47,1.9.46-.07.11-.14.22-.2.33-1.13-.18-1.59-.14-2.17.09.56.48,1.03.46,1.88.43-.06.11-.13.23-.19.35-.89-.16-1.63-.11-2.08.14.69.45,1.44.38,1.85.33-.05.09-.09.18-.13.28-.55.24-1.03.66-1.37,1.38.58-.05,1.23-.55,1.75-1.01-.07.68-.09,1.48.2,1.95.35-.56.36-1.44.28-2.36.04-.08.07-.17.11-.25.03.61.13,1.26.44,1.65.29-.61.17-1.52-.04-2.46.04-.07.08-.14.11-.21.17,1.05.4,1.42.6,1.76.19-.75.11-1.44-.23-2.4.07-.11.13-.21.2-.32.14,1.13.37,1.52.58,1.85.21-.74.13-1.43-.19-2.42.08-.12.17-.23.25-.35.09,1.26.3,1.66.51,2.01.25-.77.19-1.48-.12-2.52.1-.12.19-.24.29-.35.05,1.17.21,1.73.4,2.06.18-.67.2-1.46.1-2.63.08-.08.15-.17.23-.25-.09,1.23.02,1.82.17,2.17.26-.67.37-1.48.39-2.73.1-.09.27-.19.37-.28l-.27,10.3h.43v-.52c.24-.15.52-.34.72-.44.13.06,1.06.67,1.12.66.05-.05-.07-.21-.25-.41.24-.16.54-.37.76-.47.28.13.71.44.95.59l.07,2.84h.43c-.11-4.09-.21-8.12-.31-12.19.07.05.14.09.22.13,0-.27-.06-.53-.17-.81.13.13.27.25.4.39-.12.55-.19,1.13.2,1.52.21-.28.26-.63.26-1.02.08.09.16.18.24.27-.13.63-.2,1.28.14,1.77.22-.33.29-.73.33-1.2.09.11.18.23.27.35-.19.63-.33,1.3-.02,1.82.25-.32.36-.74.44-1.24.08.12.16.24.24.36-.23.67-.43,1.4-.13,1.96.28-.35.41-.81.5-1.36.07.13.14.25.22.38-.26.67-.5,1.46-.16,2.1.3-.34.47-.77.55-1.35.06.12.12.24.18.37l-.04.04c-.17.85-.33,1.61-.17,2.21.26-.33.42-.88.48-1.64.04.09.08.18.12.27-.03.71.11,1.2.42,1.52.27-.37.25-.82.08-1.42.49.4.9.61,1.35.51-.17-.41-.55-.73-1.2-.99-.03-.07-.07-.14-.1-.21l.05.06c.89.36,1.53.53,2.06.31-.42-.42-1.13-.64-2.27-.71-.06-.12-.12-.24-.18-.36.88.24,1.67.48,2.29.33-.45-.41-1.29-.66-2.49-.73-.05-.1-.1-.2-.15-.29h0c.9.24,1.61.33,2.28.12-.46-.38-1.32-.59-2.55-.6-.07-.13-.15-.25-.22-.38.86.21,1.57.28,2.21.07-.46-.37-1.33-.58-2.53-.58-.08-.13-.17-.25-.25-.38.76.14,1.38.18,1.95-.08-.42-.34-1.19-.49-2.29-.39-.09-.12-.18-.24-.28-.35.67.04,1.14.09,1.66-.08-.4-.33-1.03-.5-2.05-.38-.09-.11-.19-.21-.29-.32.35,0,.65-.03.97-.15-.33-.25-.79-.4-1.47-.37-.11-.11-.23-.22-.35-.33.22,0,.43-.03.66-.1-.28-.25-.69-.41-1.27-.45-.17-.14-.34-.28-.52-.43v-.04c.3.12.57.2.88.22-.14-.26-.36-.49-.71-.7l.05-.15c.12.06.25.11.38.14-.03-.1-.08-.21-.13-.31.08,0,.16.02.24.03.13.48.34.9.66,1.19.02-.35,0-.71-.06-1.09.06.01.12.02.18.04.12.76.34,1.47.81,1.88.04-.54-.04-1.12-.2-1.74.11.03.22.06.33.09.12.84.33,1.65.84,2.11.04-.59-.06-1.23-.25-1.92.13.05.26.09.39.14.04.82.17,1.62.63,2.11.09-.56.06-1.19-.05-1.87.11.05.23.1.34.16.05.96.19,1.88.62,2.45.09-.65.07-1.37-.03-2.15.1.05.2.11.3.17.04,1.02.17,2,.63,2.6.09-.68.06-1.42-.05-2.24.08.05.15.1.23.15.04,1.01.17,1.98.63,2.58.09-.65.07-1.36-.03-2.14.1.08.19.15.29.23-.03.95.04,1.85.44,2.41.13-.58.16-1.21.14-1.89.07.07.15.14.22.22-.06.8-.02,1.57.35,2.05.13-.43.19-.9.2-1.41.31.56.8,1.25,1.33,1.48-.07-.77-.46-1.3-.92-1.67l.12-.14c.51.19.98.28,1.43.25-.45-.57-.97-.76-1.84-.9-.07-.09-.15-.19-.23-.28.75.13,1.44.19,2.03,0-.9-.41-1.75-.53-2.5-.5-.08-.08-.17-.16-.26-.23.73.03,1.4,0,1.99-.22-.92-.3-1.79-.33-2.55-.23-.11-.08-.22-.16-.33-.23.74-.05,1.4-.14,2-.45-.95-.19-1.81-.13-2.58.08-.12-.07-.24-.14-.37-.21.72-.09,1.38-.22,1.96-.55-.95-.16-1.84-.03-2.62.21-.12-.06-.24-.11-.36-.16.77-.1,1.46-.28,2.07-.62-1.02-.17-1.96.04-2.78.33-.1-.04-.19-.07-.29-.1.67-.17,1.32-.39,1.81-.78-.87-.07-1.78.21-2.47.57-.13-.04-.26-.08-.39-.11.51-.15,1.11-.38,1.61-.85-.92-.04-1.72.28-2.31.68-.17-.04-.35-.08-.52-.11.62-.17,1.17-.39,1.62-.8-.73-.08-1.42.09-2.04.4l-.33-.15s0,.08.01.11l-.3-.22c.43.02.89-.06,1.34-.32-.43-.19-.9-.15-1.4-.06.27-.16.56-.31.85-.44.3.28.72.33,1.23.33-.14-.23-.41-.44-.65-.59.1-.04.2-.08.3-.12.29.33.7.48,1.27.64-.11-.36-.36-.64-.66-.85.08-.03.16-.05.25-.07.3.39.74.65,1.18.88,0-.38-.16-.73-.51-1.05.09-.02.19-.04.29-.06.31.55.71.96,1.19,1.31-.05-.51-.24-.98-.62-1.4.14-.02.27-.03.41-.04.25.69.6,1.2,1.06,1.63.02-.61-.12-1.15-.46-1.66.16,0,.31,0,.47,0,.09.76.29,1.33.69,1.82.08-.59.07-1.16-.15-1.77.09.01.17.02.26.04.03.83.18,1.43.56,1.95.13-.61.16-1.22-.04-1.85.1.02.19.05.29.08,0,.77.14,1.34.48,1.84.14-.55.2-1.09.08-1.65.07.03.14.06.22.09.08.69.26,1.23.62,1.69.08-.48.1-.95,0-1.44.49.69.99,1.31,1.67,1.69-.27-.83-.75-1.51-1.3-2.04.46,0,.9-.05,1.29-.28-.69-.38-1.33-.34-1.94-.23-.11-.06-.22-.12-.34-.17.61-.22,1.16-.44,1.55-.88-.86-.03-1.49.32-2.08.68-.11-.03-.22-.06-.33-.09h0Zm-7.42,10.06c-.29.33-.7.87-.65.92.1,0,.46-.26.8-.48l.08-.03.05,2c-.2-.28-.72-.77-.98-1.08-.05-.05-.09-.07-.14,0-.05.06-.11.13-.18.2-.25-.27-.61-.62-.81-.87-.05-.05-.09-.07-.14,0-.22.27-.62.65-.86.93l.04-1.62c.24-.16.57-.39.8-.5.2.1.49.29.72.44-.21.23-.37.43-.31.48.1,0,.93-.57,1.12-.66.13.06.29.16.45.26h0Zm-.9,5.88c.05-.07.09-.05.14,0,.35.43,1.18,1.17,1.06,1.29-.1.01-.75-.49-1.12-.66-.37.18-.99.67-1.12.66-.12-.12.7-.86,1.06-1.29h0Zm-2.01-.6l.03-1.26c.25-.16.59-.4.83-.52.2.1,1.05.67,1.12.66.06-.06-.11-.27-.34-.52.22-.15.48-.32.67-.42.27.13.67.42.92.57l.04,1.53c-.24-.28-.65-.68-.88-.95-.05-.05-.09-.07-.14,0-.21.26-.6.64-.85.92-.22-.24-.49-.5-.65-.7-.05-.05-.09-.07-.14,0-.16.19-.41.44-.63.68h0Zm1.46-1.82c-.19-.2-.4-.41-.53-.58-.05-.05-.09-.07-.14,0-.19.23-.51.55-.75.81l.05-1.82c.25-.15.66-.45.94-.58.2.1.47.28.7.43-.37.39-.8.81-.7.9.13,0,.75-.49,1.12-.66.32.16.85.55,1.06.64l.02.92c-.25-.28-.63-.65-.84-.91-.05-.05-.09-.07-.14,0-.2.24-.54.58-.79.85h0Zm.36-3.72c-.25-.28-.61-.63-.82-.88-.05-.05-.09-.07-.14,0-.18.22-.48.52-.72.77l.04-1.61c.22-.14.47-.31.65-.4.23.11.57.35.82.51-.27.29-.49.54-.42.6.13,0,.75-.49,1.12-.66.21.1.5.3.74.45l.03,1.24c-.21-.22-.45-.46-.59-.64-.05-.05-.09-.07-.14,0-.15.18-.37.41-.58.62h0Zm-1.62-2.12l.05-1.85c.08,0,.18-.05.27-.12.04-.03.07-.06.1-.09.04.04.11.05.2.03-.04.02-.07.04-.11.07-.16.12-.23.29-.17.37.06.08.24.04.39-.08.16-.12.23-.29.17-.37-.04-.04-.11-.05-.2-.02.04-.02.07-.04.11-.07.06-.05.11-.1.14-.16,0,.03,0,.06.02.08.06.08.24.04.39-.08.08-.06.14-.14.17-.2.08,0,.19-.05.28-.12.04-.03.07-.07.1-.1.06.08.24.04.39-.08.02-.02.04-.04.06-.05l.02.02s.02.07.03.1c-.02.01-.03.02-.05.04-.06.05-.11.1-.14.16,0-.03,0-.06-.02-.08-.06-.08-.24-.04-.39.08-.1.08-.16.17-.18.25-.08-.02-.22.02-.34.12-.12.09-.19.21-.19.3-.07.02-.15.06-.23.12-.16.12-.23.29-.17.37.06.08.24.04.39-.08.12-.09.19-.21.19-.3.07-.02.15-.06.23-.12.1-.08.16-.17.18-.25.04.01.09,0,.14,0-.04.02-.07.04-.11.07-.16.12-.23.29-.17.37.06.08.24.04.39-.08.16-.12.23-.29.17-.37-.04-.04-.11-.05-.2-.03.04-.02.07-.04.11-.07.06-.05.11-.1.14-.16,0,.03,0,.06.02.08.06.07.21.05.35-.05.08.19.16.37.27.54l.06,2.4c-.23-.24-.5-.51-.66-.71-.05-.05-.09-.07-.14,0-.12.15-.31.34-.49.53-.24-.28-.67-.69-.9-.97-.05-.05-.09-.07-.14,0-.14.18-.37.4-.58.62h0Z"/>
    <path class="cls-5" d="m44.01,42.78c.67-.45,1.26-.92,1.65-1.55-.93.29-1.69.83-2.28,1.43-.12-.02-.24-.03-.36-.04.66-.54,1.24-1.08,1.57-1.79-.95.39-1.68,1.05-2.2,1.75-.11,0-.23,0-.34,0,.56-.61,1.04-1.22,1.26-1.96-.87.5-1.47,1.24-1.88,1.99-.11,0-.22.02-.34.03.51-.65.95-1.29,1.11-2.05-.83.57-1.39,1.35-1.74,2.14-.12.02-.24.05-.37.07.47-.67.86-1.33.97-2.08-.8.62-1.3,1.43-1.61,2.24-.13.04-.26.07-.39.11.41-.69.75-1.35.8-2.09-.75.66-1.19,1.49-1.43,2.3-.12.04-.23.09-.35.13.39-.68.71-1.37.74-2.08-.74.67-1.17,1.55-1.38,2.36-.08.04-.17.08-.25.12.06-.18.1-.37.09-.56-.35.26-.59.58-.74.92-.12.07-.24.15-.36.23.02-.16.05-.34.09-.52.64-.48,1.26-1.1,1.61-1.94-.55.24-1.01.63-1.44,1.1.04-.17.08-.34.12-.52.62-.3,1.34-.9,1.68-1.62-.56.13-1,.5-1.49.9.04-.15.08-.3.13-.45.63-.3,1.35-.88,1.71-1.6-.54.1-.98.42-1.46.78.05-.14.09-.29.14-.44.62-.3,1.31-.84,1.69-1.53-.51.08-.94.36-1.4.69.05-.15.11-.3.17-.45.62-.33,1.22-.77,1.67-1.41-.48.1-.92.31-1.35.58.06-.15.12-.3.19-.46.57-.33,1.12-.76,1.5-1.39-.52.08-.95.31-1.35.61l-.02-.02c.38-.54.91-1.36.92-2.33-.64.47-1.03,1.35-1.22,2.03l-.05-.05s-.03.06-.05.09c-.04-.53-.14-1.03-.37-1.49-.19.81-.15,1.62-.04,2.36-.06.15-.13.3-.19.45-.14-.54-.33-1.05-.65-1.49-.1.82.07,1.61.34,2.3-.05.13-.1.27-.14.41-.18-.59-.35-1.12-.72-1.53-.09.8.14,1.69.45,2.34-.04.13-.08.27-.13.41-.12-.33-.31-.81-.75-1.21,0,.9.24,1.51.53,1.96-.05.16-.09.32-.14.48-.17-.47-.34-.89-.67-1.23-.09.71.14,1.49.45,2.06-.03.11-.06.23-.09.35-.11-.29-.25-.51-.48-.81-.07.7.12,1.11.3,1.5-.06.25-.13.51-.19.77-.1-.32-.21-.64-.32-.97.05-.34.05-.66-.02-.96-.07.08-.14.19-.2.32-.03-.08-.05-.15-.08-.23.3-.5.48-1,.51-1.49-.22.15-.51.41-.77.79-.03-.07-.05-.14-.08-.21.42-.52.68-1.05.74-1.61-.29.14-.67.42-1.01.91-.04-.09-.07-.18-.11-.27.65-.55.89-.99.96-1.68-.71.56-.97.86-1.18,1.14-.04-.1-.08-.21-.13-.31.69-.61,1.07-1.14,1.15-1.84-.45.36-.95.84-1.34,1.39-.05-.11-.1-.23-.14-.34.68-.59,1.19-1.26,1.43-1.93-.42.24-1.05.72-1.64,1.42-.04-.09-.08-.18-.12-.27.74-.67,1.28-1.34,1.53-2.01-.44.23-1.1.71-1.72,1.58-.05-.12-.1-.23-.16-.34.76-.62,1.31-1.25,1.57-1.91-.44.19-1.13.64-1.76,1.48-.05-.12-.11-.23-.16-.35.72-.55,1.25-1.15,1.49-1.81-.41.15-1.06.54-1.64,1.38l.08.28c-.06-.12-.12-.25-.17-.36v-.34c.66-.48,1.14-1.01,1.36-1.62-.41.12-1.04.62-1.61,1.41h-.02s-.05-.12-.05-.12l.03-.11h0c.49-.6.81-1.2.87-1.83-.33.18-.76.7-1.1,1.46.13-1.24.04-1.76-.21-2.11-.3.44-.33,1.22-.18,1.88-.43-.35-.83-.55-1.11-.59.2.41.52.77.94,1.08h0c-.37-.09-.74-.13-1.07-.16.3.41.79.67,1.39.87l.11.23c-.61-.29-1.17-.38-1.55-.36.42.49,1.07.81,1.86,1.06.04.09.08.18.12.27-.72-.3-1.38-.47-1.82-.48.45.5,1.18.83,2.06,1.03.04.1.09.2.13.31-.83-.31-1.59-.46-2.06-.45.54.48,1.34.78,2.27.93.04.09.08.18.12.27-.83-.29-1.58-.38-2.05-.37.54.48,1.36.82,2.3.97.04.11.09.21.13.32-.8-.28-1.54-.36-1.99-.34.53.48,1.32.8,2.23.93l.09.22c-.73-.21-1.4-.25-1.81-.21.48.4,1.19.66,2.02.74.04.11.09.22.13.33-.67-.25-1.28-.32-1.65-.3.44.43,1.09.72,1.86.82.04.1.08.2.12.3-.44-.18-.82-.25-1.1-.25.32.43.8.78,1.41,1.05l.11.28c-.39-.23-.74-.33-.98-.36.25.42.68.76,1.23,1.05l.02.02c.07.19.15.39.23.6-.33-.36-.66-.56-.9-.66.1.36.31.7.6,1.03l-.09.07-.04.03c-.14-.08-.28-.15-.42-.23-.12-.66-.46-1.36-1.18-1.9-.03.57.22,1.08.55,1.6-.11-.05-.23-.1-.34-.15-.18-.72-.56-1.47-1.29-2.05,0,.64.3,1.21.66,1.8-.14-.05-.29-.1-.43-.15-.13-.7-.46-1.43-1.1-2.03-.05.63.2,1.23.51,1.84-.12-.04-.23-.07-.35-.1-.13-.72-.45-1.47-1.11-2.09-.05.67.22,1.29.56,1.94-.1-.03-.2-.05-.31-.08-.13-.72-.43-1.45-1.1-2.08-.04.69.22,1.29.58,1.95-.12-.03-.23-.05-.35-.08-.14-.72-.46-1.45-1.15-2.03-.03.69.25,1.29.61,1.93-.15-.03-.29-.06-.44-.08-.08-.66-.32-1.33-1-1.92-.08.65.18,1.2.54,1.84-.28-.05-.57-.09-.86-.13l.43.05c-.15-.67-.51-1.25-1.26-1.77-.01.66.37,1.12.8,1.72-.14-.02-.27-.04-.41-.06-.23-.56-.6-1.11-1.39-1.58-.01.56.31,1,.77,1.5-.1-.01-.21-.02-.31-.03-.33-.49-.84-.91-1.66-1.24.07.48.42.81.86,1.16-.13-.01-.27-.02-.4-.03-.33-.38-.85-.69-1.65-.76.06.25.27.5.74.8-.44-.03-.99.04-1.57.21.37.26.98.4,1.62.35-.35.24-.71.55-.79.89.81-.06,1.27-.4,1.51-.8.14.01.27.02.41.03-.52.31-.89.66-1.02,1.08.5-.06,1.09-.39,1.72-1.01.12.01.23.02.35.04-.54.36-.95.76-1.16,1.22.49-.09,1.12-.46,1.85-1.14.08.01.17.02.25.03-.46.35-.81.74-1.11,1.28.49-.09,1.1-.5,1.78-1.19.12.02.23.04.35.05-.7.48-1.12.86-1.33,1.26.57-.09,1.18-.41,1.97-1.15.1.02.19.04.29.05-.69.49-1.08.94-1.27,1.31.69-.21,1.29-.58,1.91-1.18.09.02.17.04.26.06-.71.54-1.14,1.03-1.29,1.43.69-.22,1.33-.62,1.89-1.29.11.03.22.05.32.08-.78.56-1.14.95-1.32,1.36.72-.22,1.27-.52,1.88-1.21.09.02.17.05.26.08-.71.54-1.04.92-1.2,1.33.69-.22,1.21-.51,1.76-1.15.09.03.19.06.28.1-.48.3-.89.63-1.11,1.12.75-.12,1.23-.5,1.63-.93.08.03.16.06.25.1-.4.3-.81.6-1.06,1.03.68-.11,1.12-.46,1.49-.85.14.06.28.12.41.19-.14,0-.29.02-.44.04.1.11.2.2.31.27l.12.38c-.29-.08-.61-.1-.95-.05.07.09.15.17.23.23-.16.02-.32.04-.47.07-.3-.12-.64-.18-1.02-.15.08.11.16.2.25.29-.07.01-.14.03-.21.04-.34-.33-.99-.56-1.89-.62.26.37.61.57,1.08.82-.13.04-.26.07-.39.11-.43-.42-.96-.67-1.7-.68.27.45.65.66,1.12.86-.11.04-.23.08-.34.12-.47-.42-1.04-.67-1.82-.62.32.46.76.64,1.28.82-.11.04-.21.09-.32.13-.54-.37-1.17-.62-1.98-.48.39.42.86.6,1.42.73-.12.06-.24.11-.36.17h0c-.57-.35-1.24-.53-2.05-.32.42.4.93.51,1.52.59-.14.07-.28.15-.41.22-.54-.33-1.12-.45-1.89-.25.4.39.83.47,1.37.54-.09.05-.18.11-.28.16-.57-.22-1.19-.27-1.92,0,.39.29.81.36,1.28.38-.09.05-.18.11-.26.17-.55-.13-1.14-.09-1.78.23.43.26.87.28,1.36.25-.41.28-.87.74-1.21,1.25.51-.04,1.32-.48,1.82-1.07-.37.68-.65,1.26-.6,1.98.7-.64,1.02-1.36,1.15-2.11.1-.07.19-.13.28-.2-.33.83-.3,1.33-.18,1.76.45-.76.64-1.22.72-2.12.1-.06.2-.13.3-.19-.23.77-.22,1.23-.15,1.67.36-.59.57-1.04.67-1.98.08-.05.16-.09.24-.13-.26.97-.23,1.37-.19,1.73.39-.59.62-1.04.77-2.03.09-.05.18-.09.27-.13-.33.97-.32,1.37-.31,1.72.43-.57.69-1,.9-1.99.11-.05.23-.09.34-.14-.42.93-.45,1.32-.48,1.67.49-.54.79-.96,1.1-1.9.13-.04.25-.09.38-.12-.65.96-.68,1.37-.77,1.74.66-.53.9-.92,1.5-1.95.14-.04.27-.07.41-.1-.72.8-.77,1.04-.98,1.46.75-.48,1.06-.64,1.77-1.62.07-.01.15-.03.22-.04-.22.29-.29.48-.43.74.53-.31.85-.48,1.23-.87.19-.03.38-.05.58-.08l.08.26c-.32.08-.65.2-1,.4.29.04.63.05.94.06-.06.05-.12.1-.18.15-.64.02-1.31.1-2.08.53.42.05.98.06,1.37.06-.07.06-.15.13-.22.19-.93-.06-1.72.06-2.17.36.77.1,1.18.08,1.7.08-.07.06-.13.13-.2.19-1-.08-1.82-.02-2.3.3.79.24,1.22.22,1.82.19-.08.08-.16.16-.23.25-1-.12-1.82-.09-2.31.21.82.28,1.26.27,1.89.26-.1.11-.19.22-.28.34-.79-.18-1.51-.16-2.26.09.65.33,1.25.32,1.93.33-.09.11-.17.22-.25.33-1.1-.18-1.77-.07-2.3.15.74.36,1.33.34,1.95.34-.08.11-.15.22-.23.34-1.12-.23-1.64-.23-2.18-.02.52.44,1.08.47,1.9.46-.07.11-.14.22-.2.33-1.13-.18-1.59-.14-2.17.09.56.48,1.03.46,1.88.43-.06.11-.13.23-.19.35-.89-.16-1.63-.11-2.08.14.69.45,1.44.38,1.85.33-.05.09-.09.18-.13.28-.55.24-1.03.66-1.37,1.38.58-.05,1.23-.55,1.75-1.01-.07.68-.09,1.48.2,1.95.35-.56.36-1.44.28-2.36.04-.08.07-.17.11-.25.03.61.13,1.26.44,1.65.29-.61.17-1.52-.04-2.46.04-.07.08-.14.11-.21.17,1.05.4,1.42.6,1.76.19-.75.11-1.44-.23-2.4.07-.11.13-.21.2-.32.14,1.13.37,1.52.58,1.85.21-.74.13-1.43-.19-2.42.08-.12.17-.23.25-.35.09,1.26.3,1.66.51,2.01.25-.77.19-1.48-.12-2.52.1-.12.19-.24.29-.35.05,1.17.21,1.73.4,2.06.18-.67.2-1.46.1-2.63.08-.08.15-.17.23-.25-.09,1.23.02,1.82.17,2.17.26-.67.37-1.48.39-2.73.1-.09.27-.19.37-.28l-.27,10.3h.43v-.52c.24-.15.52-.34.72-.44.13.06,1.06.67,1.12.66.05-.05-.07-.21-.25-.41.24-.16.54-.37.76-.47.28.13.71.44.95.59l.07,2.84h.43c-.11-4.09-.21-8.12-.31-12.19.07.05.14.09.22.13,0-.27-.06-.53-.17-.81.13.13.27.25.4.39-.12.55-.19,1.13.2,1.52.21-.28.26-.63.26-1.02.08.09.16.18.24.27-.13.63-.2,1.28.14,1.77.22-.33.29-.73.33-1.2.09.11.18.23.27.35-.19.63-.33,1.3-.02,1.82.25-.32.36-.74.44-1.24.08.12.16.24.24.36-.23.67-.43,1.4-.13,1.96.28-.35.41-.81.5-1.36.07.13.14.25.22.38-.26.67-.5,1.46-.16,2.1.3-.34.47-.77.55-1.35.06.12.12.24.18.37l-.04.04c-.17.85-.33,1.61-.17,2.21.26-.33.42-.88.48-1.64.04.09.08.18.12.27-.03.71.11,1.2.42,1.52.27-.37.25-.82.08-1.42.49.4.9.61,1.35.51-.17-.41-.55-.73-1.2-.99-.03-.07-.07-.14-.1-.21l.05.06c.89.36,1.53.53,2.06.31-.42-.42-1.13-.64-2.27-.71-.06-.12-.12-.24-.18-.36.88.24,1.67.48,2.29.33-.45-.41-1.29-.66-2.49-.73-.05-.1-.1-.2-.15-.29h0c.9.24,1.61.33,2.28.12-.46-.38-1.32-.59-2.55-.6-.07-.13-.15-.25-.22-.38.86.21,1.57.28,2.21.07-.46-.37-1.33-.58-2.53-.58-.08-.13-.17-.25-.25-.38.76.14,1.38.18,1.95-.08-.42-.34-1.19-.49-2.29-.39-.09-.12-.18-.24-.28-.35.67.04,1.14.09,1.66-.08-.4-.33-1.03-.5-2.05-.38-.09-.11-.19-.21-.29-.32.35,0,.65-.03.97-.15-.33-.25-.79-.4-1.47-.37-.11-.11-.23-.22-.35-.33.22,0,.43-.03.66-.1-.28-.25-.69-.41-1.27-.45-.17-.14-.34-.28-.52-.43v-.04c.3.12.57.2.88.22-.14-.26-.36-.49-.71-.7l.05-.15c.12.06.25.11.38.14-.03-.1-.08-.21-.13-.31.08,0,.16.02.24.03.13.48.34.9.66,1.19.02-.35,0-.71-.06-1.09.06.01.12.02.18.04.12.76.34,1.47.81,1.88.04-.54-.04-1.12-.2-1.74.11.03.22.06.33.09.12.84.33,1.65.84,2.11.04-.59-.06-1.23-.25-1.92.13.05.26.09.39.14.04.82.17,1.62.63,2.11.09-.56.06-1.19-.05-1.87.11.05.23.1.34.16.05.96.19,1.88.62,2.45.09-.65.07-1.37-.03-2.15.1.05.2.11.3.17.04,1.02.17,2,.63,2.6.09-.68.06-1.42-.05-2.24.08.05.15.1.23.15.04,1.01.17,1.98.63,2.58.09-.65.07-1.36-.03-2.14.1.08.19.15.29.23-.03.95.04,1.85.44,2.41.13-.58.16-1.21.14-1.89.07.07.15.14.22.22-.06.8-.02,1.57.35,2.05.13-.43.19-.9.2-1.41.31.56.8,1.25,1.33,1.48-.07-.77-.46-1.3-.92-1.67l.12-.14c.51.19.98.28,1.43.25-.45-.57-.97-.76-1.84-.9-.07-.09-.15-.19-.23-.28.75.13,1.44.19,2.03,0-.9-.41-1.75-.53-2.5-.5-.08-.08-.17-.16-.26-.23.73.03,1.4,0,1.99-.22-.92-.3-1.79-.33-2.55-.23-.11-.08-.22-.16-.33-.23.74-.05,1.4-.14,2-.45-.95-.19-1.81-.13-2.58.08-.12-.07-.24-.14-.37-.21.72-.09,1.38-.22,1.96-.55-.95-.16-1.84-.03-2.62.21-.12-.06-.24-.11-.36-.16.77-.1,1.46-.28,2.07-.62-1.02-.17-1.96.04-2.78.33-.1-.04-.19-.07-.29-.1.67-.17,1.32-.39,1.81-.78-.87-.07-1.78.21-2.47.57-.13-.04-.26-.08-.39-.11.51-.15,1.11-.38,1.61-.85-.92-.04-1.72.28-2.31.68-.17-.04-.35-.08-.52-.11.62-.17,1.17-.39,1.62-.8-.73-.08-1.42.09-2.04.4l-.33-.15s0,.08.01.11l-.3-.22c.43.02.89-.06,1.34-.32-.43-.19-.9-.15-1.4-.06.27-.16.56-.31.85-.44.3.28.72.33,1.23.33-.14-.23-.41-.44-.65-.59.1-.04.2-.08.3-.12.29.33.7.48,1.27.64-.11-.36-.36-.64-.66-.85.08-.03.16-.05.25-.07.3.39.74.65,1.18.88,0-.38-.16-.73-.51-1.05.09-.02.19-.04.29-.06.31.55.71.96,1.19,1.31-.05-.51-.24-.98-.62-1.4.14-.02.27-.03.41-.04.25.69.6,1.2,1.06,1.63.02-.61-.12-1.15-.46-1.66.16,0,.31,0,.47,0,.09.76.29,1.33.69,1.82.08-.59.07-1.16-.15-1.77.09.01.17.02.26.04.03.83.18,1.43.56,1.95.13-.61.16-1.22-.04-1.85.1.02.19.05.29.08,0,.77.14,1.34.48,1.84.14-.55.2-1.09.08-1.65.07.03.14.06.22.09.08.69.26,1.23.62,1.69.08-.48.1-.95,0-1.44.49.69.99,1.31,1.67,1.69-.27-.83-.75-1.51-1.3-2.04.46,0,.9-.05,1.29-.28-.69-.38-1.33-.34-1.94-.23-.11-.06-.22-.12-.34-.17.61-.22,1.16-.44,1.55-.88-.86-.03-1.49.32-2.08.68-.11-.03-.22-.06-.33-.09h0Zm-7.42,10.06c-.29.33-.7.87-.65.92.1,0,.46-.26.8-.48l.08-.03.05,2c-.2-.28-.72-.77-.98-1.08-.05-.05-.09-.07-.14,0-.05.06-.11.13-.18.2-.25-.27-.61-.62-.81-.87-.05-.05-.09-.07-.14,0-.22.27-.62.65-.86.93l.04-1.62c.24-.16.57-.39.8-.5.2.1.49.29.72.44-.21.23-.37.43-.31.48.1,0,.93-.57,1.12-.66.13.06.29.16.45.26h0Zm-.9,5.88c.05-.07.09-.05.14,0,.35.43,1.18,1.17,1.06,1.29-.1.01-.75-.49-1.12-.66-.37.18-.99.67-1.12.66-.12-.12.7-.86,1.06-1.29h0Zm-2.01-.6l.03-1.26c.25-.16.59-.4.83-.52.2.1,1.05.67,1.12.66.06-.06-.11-.27-.34-.52.22-.15.48-.32.67-.42.27.13.67.42.92.57l.04,1.53c-.24-.28-.65-.68-.88-.95-.05-.05-.09-.07-.14,0-.21.26-.6.64-.85.92-.22-.24-.49-.5-.65-.7-.05-.05-.09-.07-.14,0-.16.19-.41.44-.63.68h0Zm1.46-1.82c-.19-.2-.4-.41-.53-.58-.05-.05-.09-.07-.14,0-.19.23-.51.55-.75.81l.05-1.82c.25-.15.66-.45.94-.58.2.1.47.28.7.43-.37.39-.8.81-.7.9.13,0,.75-.49,1.12-.66.32.16.85.55,1.06.64l.02.92c-.25-.28-.63-.65-.84-.91-.05-.05-.09-.07-.14,0-.2.24-.54.58-.79.85h0Zm.36-3.72c-.25-.28-.61-.63-.82-.88-.05-.05-.09-.07-.14,0-.18.22-.48.52-.72.77l.04-1.61c.22-.14.47-.31.65-.4.23.11.57.35.82.51-.27.29-.49.54-.42.6.13,0,.75-.49,1.12-.66.21.1.5.3.74.45l.03,1.24c-.21-.22-.45-.46-.59-.64-.05-.05-.09-.07-.14,0-.15.18-.37.41-.58.62h0Zm-1.62-2.12l.05-1.85c.08,0,.18-.05.27-.12.04-.03.07-.06.1-.09.04.04.11.05.2.03-.04.02-.07.04-.11.07-.16.12-.23.29-.17.37.06.08.24.04.39-.08.16-.12.23-.29.17-.37-.04-.04-.11-.05-.2-.02.04-.02.07-.04.11-.07.06-.05.11-.1.14-.16,0,.03,0,.06.02.08.06.08.24.04.39-.08.08-.06.14-.14.17-.2.08,0,.19-.05.28-.12.04-.03.07-.07.1-.1.06.08.24.04.39-.08.02-.02.04-.04.06-.05l.02.02s.02.07.03.1c-.02.01-.03.02-.05.04-.06.05-.11.1-.14.16,0-.03,0-.06-.02-.08-.06-.08-.24-.04-.39.08-.1.08-.16.17-.18.25-.08-.02-.22.02-.34.12-.12.09-.19.21-.19.3-.07.02-.15.06-.23.12-.16.12-.23.29-.17.37.06.08.24.04.39-.08.12-.09.19-.21.19-.3.07-.02.15-.06.23-.12.1-.08.16-.17.18-.25.04.01.09,0,.14,0-.04.02-.07.04-.11.07-.16.12-.23.29-.17.37.06.08.24.04.39-.08.16-.12.23-.29.17-.37-.04-.04-.11-.05-.2-.03.04-.02.07-.04.11-.07.06-.05.11-.1.14-.16,0,.03,0,.06.02.08.06.07.21.05.35-.05.08.19.16.37.27.54l.06,2.4c-.23-.24-.5-.51-.66-.71-.05-.05-.09-.07-.14,0-.12.15-.31.34-.49.53-.24-.28-.67-.69-.9-.97-.05-.05-.09-.07-.14,0-.14.18-.37.4-.58.62h0Z"/>
    <path class="cls-6" d="m65.79,53.65c-4.37,5.61-11.18,9.22-18.84,9.22-6.13,0-11.73-2.31-15.95-6.12l-5.81,6.82c5.79,5.14,13.41,8.26,21.76,8.26,9.64,0,18.31-4.16,24.31-10.77l-5.47-7.4h0Z"/>
    <path class="cls-10" d="m17.09,41.8l-.02-.82,1.28-.92v-.22s-1.3.02-1.3.02v-.69s3.29-.06,3.29-.06l.02,1.03c0,.23-.02.43-.07.59-.05.16-.12.29-.21.39-.09.1-.2.17-.32.22-.12.05-.25.07-.38.07-.12,0-.23-.01-.33-.05-.1-.03-.19-.08-.26-.14-.08-.06-.14-.13-.2-.21-.05-.08-.1-.17-.12-.26l-1.37,1.05h0Zm2.24-1.1c.15,0,.27-.05.35-.14.08-.09.12-.22.12-.38v-.37s-.95.02-.95.02v.37c0,.16.05.28.14.37.09.09.2.13.34.13h0Zm.81,3.17l-.17-1.27-.7.09.16,1.22-.57.08-.16-1.22-.81.11.18,1.32-.59.08-.27-2,3.27-.44.26,1.95-.59.08h0Zm1.16-.49l-.5-.89.37-.23.58.84-.45.28h0Zm-1.14,2.73c.07-.02.13-.04.18-.07.06-.03.1-.08.14-.13.04-.05.06-.12.07-.2.01-.08,0-.16-.02-.26l-.08-.34-.99.23.08.33c.03.11.06.2.11.27.04.07.1.11.15.15.06.03.11.05.18.05.06,0,.13,0,.19-.02h0Zm.68-1.81l.24,1.03c.04.17.06.34.05.5,0,.16-.04.3-.1.43-.06.13-.15.24-.26.33-.12.09-.26.16-.44.2-.32.07-.6.03-.84-.13-.23-.16-.4-.45-.5-.87l-.08-.33-1.14.26-.16-.67,3.22-.74h0Zm-2.22,4.73c-.05-.17-.08-.33-.08-.49,0-.16.04-.31.11-.45.07-.14.18-.27.33-.39.15-.12.35-.22.6-.3l1.9-.61.21.66-1.95.63c-.23.07-.39.18-.49.31-.1.14-.12.29-.07.46.03.1.08.18.14.24.06.06.13.09.21.11.08.02.17.02.26.01.09-.01.19-.03.29-.06l1.95-.63.21.65-1.89.61c-.24.08-.46.12-.65.11-.19,0-.36-.04-.5-.11-.14-.07-.26-.17-.36-.3-.1-.13-.18-.28-.23-.46h0Zm3.86.5l.38.83c.07.16.12.3.15.45.03.14.03.27,0,.39-.02.12-.07.23-.14.32-.07.09-.17.17-.3.23-.09.04-.17.06-.25.06-.08,0-.16,0-.23-.03-.07-.02-.15-.06-.21-.11-.07-.05-.13-.11-.18-.17h0c.04.13.05.24.04.35,0,.11-.03.21-.07.29-.04.09-.09.17-.17.23-.07.07-.15.12-.24.16-.14.06-.27.09-.4.09-.13,0-.25-.04-.37-.1s-.22-.15-.32-.26c-.1-.11-.18-.24-.25-.39l-.44-.98,3.01-1.36h0Zm-1.46,2.34c.13-.06.21-.15.25-.27.04-.12.02-.26-.05-.43l-.14-.3-.87.39.15.33c.07.16.16.26.28.3.11.05.24.04.38-.03h0Zm1.2-.72c.11-.05.18-.13.2-.24.02-.11,0-.23-.06-.37l-.09-.21-.73.33.1.23c.07.15.15.24.25.28.1.04.21.03.32-.02h0Zm1.41.7l.34.6-2.35,1.33.66,1.16-.52.3-1-1.76,2.87-1.63h0Zm1.16,1.92l.4.57-2.7,1.9-.4-.57,2.7-1.9h0Zm-.34,4.89c-.22-.1-.42-.25-.59-.45-.2-.23-.33-.46-.39-.7-.06-.24-.08-.46-.04-.68.04-.22.11-.42.22-.61.11-.19.25-.35.4-.48.18-.15.38-.27.59-.34.22-.07.44-.1.66-.09.22.01.44.07.65.17.21.1.4.25.57.44.18.21.3.42.37.65.07.23.09.45.06.67-.03.22-.09.43-.2.63-.11.2-.25.37-.42.52-.19.16-.4.28-.63.35-.23.07-.46.09-.69.07l-.12.69-.57-.11.13-.73h0Zm.06-2.39c-.12.11-.22.22-.29.35-.07.13-.11.26-.13.4-.02.14,0,.27.03.41.04.13.11.26.2.37.07.08.15.15.25.2l.12-.67.57.11-.13.71c.13,0,.25-.03.38-.08.12-.05.24-.12.36-.22.12-.1.22-.22.29-.35.07-.13.12-.26.14-.39.02-.13,0-.27-.03-.41-.04-.14-.11-.26-.21-.38-.1-.11-.21-.2-.34-.26-.13-.06-.26-.09-.4-.1-.14,0-.28.02-.42.07-.14.05-.27.13-.39.23h0Zm1.85,4.58c-.13-.12-.23-.25-.3-.39-.08-.14-.12-.29-.12-.45,0-.16.03-.33.1-.5.08-.18.2-.36.38-.55l1.37-1.45.5.48-1.41,1.49c-.17.18-.26.35-.28.51-.02.17.03.31.16.43.08.08.16.12.24.14.08.02.16.02.24,0,.08-.02.16-.06.24-.11.08-.05.15-.12.23-.2l1.41-1.49.5.47-1.36,1.44c-.18.18-.35.32-.52.41-.17.09-.33.14-.49.14-.16,0-.31-.03-.46-.09-.15-.07-.29-.16-.42-.29h0Zm4.81.37l-1.01-.79-.44.56.97.76-.35.45-.97-.76-.5.64,1.05.82-.37.47-1.59-1.25,2.04-2.6,1.55,1.21-.37.47h0Zm1.69.38l.6.34-1.64,2.86-.6-.34,1.64-2.86h0Zm2.08,2.12c.05-.11.06-.22.03-.32-.03-.1-.1-.18-.21-.23-.1-.05-.19-.06-.29-.04-.09.02-.16.08-.21.18-.06.11-.06.22,0,.33.06.11.15.23.28.36.25.26.39.5.43.73.04.23,0,.46-.11.68-.06.11-.13.2-.23.29-.1.09-.21.15-.34.2-.13.04-.27.06-.42.05-.15-.01-.32-.06-.49-.15-.15-.08-.27-.17-.37-.27-.1-.1-.17-.22-.22-.35s-.07-.26-.06-.41c0-.15.04-.3.11-.45l.61.31c-.06.14-.07.28-.05.39.03.12.11.21.25.28.12.06.23.07.34.04.11-.04.19-.11.24-.21.06-.12.07-.24.03-.36-.04-.12-.14-.25-.3-.41-.24-.25-.38-.48-.42-.71-.04-.22,0-.43.1-.63.06-.12.15-.22.25-.3.1-.08.21-.13.33-.16.12-.03.25-.03.38-.01.13.02.27.06.39.13.14.07.26.16.35.26.09.1.16.21.2.33.04.12.06.24.05.37,0,.13-.04.26-.11.39l-.58-.3h0Zm1.38-.29l.65.25-.97,2.52,1.24.48-.22.56-1.89-.73,1.19-3.08h0Zm3.07,1.1l.62.18.25,3.51-.68-.2-.04-.79-1.17-.34-.46.65-.67-.19,2.15-2.82h0Zm-.72,1.93l.85.25-.04-.83c0-.1,0-.19,0-.27,0-.08,0-.17,0-.25h-.02c-.09.15-.19.29-.29.44l-.48.68h0Zm5.58,2.35l-.66-.09.06-1.63c0-.06,0-.12,0-.18,0-.06,0-.13,0-.19,0-.06,0-.13,0-.19,0-.06,0-.12,0-.16h-.03c-.04.1-.09.21-.14.34-.05.13-.1.25-.15.35l-.69,1.54-.48-.06-.27-1.69c-.02-.11-.04-.22-.05-.35-.02-.13-.03-.25-.04-.38h-.04c-.02.1-.04.22-.07.34-.03.12-.05.23-.07.34l-.39,1.61-.62-.08.83-3.22.76.1.27,1.61c.02.1.03.2.05.31.02.11.03.22.04.31h.02c.03-.08.08-.18.12-.29.05-.11.09-.2.13-.29l.68-1.48.75.1-.04,3.32h0Zm.92-3.26l.69.05-.25,3.29-.69-.05.25-3.29h0Zm3.56,3.27c-.22.11-.46.16-.72.17-.3,0-.57-.04-.79-.15-.22-.1-.41-.24-.55-.4-.14-.17-.25-.35-.33-.56-.07-.21-.11-.41-.12-.61,0-.24.04-.46.12-.67.08-.21.2-.4.35-.57.15-.16.34-.3.55-.39.21-.1.45-.15.7-.16.27,0,.52.04.73.13.22.09.4.22.56.38.15.16.27.35.35.55.08.21.13.43.13.66,0,.25-.04.49-.13.71-.09.22-.22.41-.39.58l.45.53-.45.37-.48-.57h0Zm-1.8-1.57c0,.16.03.31.09.45.06.14.13.26.23.36.1.1.21.18.34.23s.27.08.42.08c.11,0,.21-.02.31-.06l-.44-.52.45-.37.46.55c.08-.1.14-.22.18-.34.04-.13.06-.26.06-.41,0-.16-.03-.31-.08-.44-.05-.14-.12-.26-.22-.36-.09-.1-.2-.18-.33-.24-.13-.06-.27-.08-.43-.08-.15,0-.29.03-.41.09-.13.06-.24.14-.33.25-.09.1-.17.22-.22.36-.05.14-.07.29-.07.45h0Zm4.7,1.39c-.17.03-.34.03-.49,0-.16-.02-.3-.08-.43-.17-.13-.09-.25-.22-.34-.38-.1-.17-.17-.38-.21-.63l-.34-1.96.68-.12.35,2.02c.04.24.12.42.24.53.12.12.27.16.44.13.11-.02.19-.05.26-.11.06-.05.11-.12.14-.19.03-.08.05-.16.05-.26,0-.1,0-.2-.02-.3l-.35-2.02.68-.12.33,1.96c.04.25.05.47.02.66-.03.19-.09.35-.18.48-.09.13-.21.23-.35.31-.14.08-.3.13-.48.16h0Zm3.14-3.58l-1.23.35.2.68,1.19-.34.16.55-1.19.34.23.79,1.28-.37.17.58-1.94.56-.91-3.17,1.89-.55.17.58h0Zm2.38-1.47c.27-.12.53-.19.77-.2.24-.01.46.02.66.09.2.07.38.19.53.34.15.15.28.33.37.53.09.2.14.41.15.63,0,.22-.03.42-.11.62-.08.2-.21.39-.38.56-.17.17-.39.32-.65.44l-1.02.46-1.36-3.01,1.03-.47h0Zm1.09,2.46c.18-.08.32-.17.43-.28.11-.11.18-.23.23-.35.05-.12.06-.25.05-.39-.01-.13-.05-.27-.1-.4-.06-.14-.14-.26-.24-.36-.1-.1-.21-.17-.33-.21-.12-.05-.26-.06-.41-.05-.15.01-.31.06-.48.13l-.38.17.86,1.9.38-.17h0Zm2.89-3.83l-1.11.63.35.62,1.07-.61.28.5-1.07.61.4.71,1.16-.66.3.52-1.76,1-1.63-2.87,1.71-.97.3.52h0Zm5.8-.9l-.53.41-1.13-1.18s-.08-.08-.13-.13c-.04-.05-.09-.09-.13-.14-.04-.05-.09-.09-.13-.14-.04-.05-.08-.09-.11-.12l-.02.02c.04.1.09.22.15.34.06.13.1.24.15.36l.62,1.57-.38.3-1.4-.99c-.09-.06-.18-.13-.29-.21-.1-.08-.2-.15-.3-.23l-.03.02c.06.09.13.19.2.29.07.1.13.2.19.29l.88,1.4-.49.39-1.73-2.84.6-.47,1.34.93c.08.06.17.12.26.18.09.07.18.13.25.19h.02c-.04-.1-.08-.19-.12-.3-.04-.11-.08-.21-.11-.29l-.59-1.52.6-.47,2.36,2.35h0Zm-1.23-3.45l.45-.47,3.23,1.39-.49.52-.72-.33-.84.88.36.71-.48.51-1.51-3.2h0Zm1.38,1.53l.61-.64-.76-.35c-.09-.04-.17-.08-.25-.12-.07-.04-.15-.08-.23-.12l-.02.02c.09.15.18.31.26.47l.38.74h0Zm3.49-1.9c-.11.14-.23.25-.36.34-.13.09-.28.14-.44.16-.16.02-.33,0-.51-.06-.18-.06-.38-.17-.58-.33l-1.57-1.23.43-.54,1.61,1.26c.19.15.37.23.54.23.17,0,.31-.06.42-.2.07-.09.11-.17.12-.25.01-.08,0-.16-.02-.24-.03-.08-.07-.15-.13-.22-.06-.07-.13-.14-.22-.21l-1.61-1.26.42-.54,1.56,1.22c.2.16.35.32.46.48.1.16.17.32.19.48.02.16,0,.31-.05.47-.05.15-.14.3-.25.45h0Zm2.53-3.92l-.44.69-1.57.06-.12.18,1.1.69-.37.58-2.79-1.77.55-.87c.12-.2.25-.35.38-.45.13-.11.26-.18.39-.21.13-.03.26-.04.38,0,.13.03.25.08.36.15.1.06.18.14.25.22.06.08.11.17.14.26.03.09.05.19.05.28,0,.1-.01.19-.04.29l1.72-.12h0Zm-2.48-.32c-.13-.08-.25-.11-.37-.08-.12.03-.22.11-.31.25l-.2.31.79.5.2-.31c.08-.13.12-.26.09-.38-.02-.12-.09-.22-.21-.29h0Zm-.26-1.65l.32-.61,2.93,1.52-.32.61-2.93-1.52h0Zm1.37-1.4l-.33.71-.55-.25.94-2.06.55.25-.33.72,2.46,1.12-.29.63-2.46-1.12h0Zm.44-2.75l.21-.61,3.52-.08-.23.67h-.79s-.4,1.15-.4,1.15l.62.49-.23.66-2.71-2.28h0Zm1.89.82l.29-.84h-.83c-.1,0-.19,0-.27,0-.08,0-.17,0-.25-.01v.02c.14.1.28.2.42.32l.65.52h0Zm-.16-2.98s.09.01.14.02c.06,0,.11.01.17.02.06,0,.11.02.17.02.05,0,.1.01.14.02l1.62.28-.1.59-3.25-.56.1-.59,1.55-.67c.13-.06.24-.1.34-.14.1-.04.18-.07.26-.1.08-.03.14-.05.2-.07.06-.02.11-.03.15-.05h0s-.09-.03-.14-.04c-.05,0-.11-.01-.16-.02-.05,0-.11-.02-.16-.02-.05,0-.09-.01-.13-.02l-1.67-.29.1-.59,3.25.56-.1.59-1.42.61c-.16.07-.3.12-.41.17-.11.05-.21.08-.29.11-.08.03-.15.06-.2.08-.06.02-.11.04-.15.06v.02h0Zm-.58-2.9l.09-.69,3.27.44-.09.69-3.27-.44h0Zm.81-3.09l-.02,1.28h.71s.02-1.22.02-1.22h.57s-.02,1.24-.02,1.24l.82.02.02-1.33h.6s-.04,2.03-.04,2.03l-3.3-.06.04-1.97h.6Z"/>
  </g>
  <g>
    <text class="cls-1" transform="translate(86.99 38.99)"><tspan x="0" y="0">PORTAIL PBF</tspan></text>
    <line class="cls-7" x1="89" y1="48.69" x2="270" y2="48.69"/>
    <text class="cls-2" transform="translate(92.67 61.3)"><tspan class="cls-11" x="0" y="0">FINANCEMENT BAS </tspan><tspan class="cls-9" x="88.57" y="0">SUR LA PERFORMANCE</tspan></text>
  </g>
</svg>