<?xml version="1.0" encoding="UTF-8"?>
<svg id="Layer_1" data-name="Layer 1" xmlns="http://www.w3.org/2000/svg" viewBox="0 0 211 70">
  <defs>
    <style>
      .cls-1 {
        fill: #00a753;
      }

      .cls-1, .cls-2, .cls-3, .cls-4 {
        fill-rule: evenodd;
      }

      .cls-2 {
        fill: #ffdf00;
      }

      .cls-5, .cls-3 {
        fill: #fed600;
      }

      .cls-6 {
        fill: #fff;
        font-family: LouguiyaFR-Bold, LouguiyaFR;
        font-size: 24px;
        font-weight: 700;
        letter-spacing: -.03em;
      }

      .cls-7 {
        fill: none;
        stroke: #00a753;
        stroke-miterlimit: 2.61;
        stroke-width: .38px;
      }

      .cls-4 {
        fill: #ce1f26;
      }
    </style>
  </defs>
  <g>
    <path class="cls-1" d="m34.95,17.2c9.06,0,16.4,7.34,16.4,16.4s-7.34,16.4-16.4,16.4-16.4-7.34-16.4-16.4,7.34-16.4,16.4-16.4h0Z"/>
    <path class="cls-3" d="m34.95,18.55l1.86,5.76h6.05s-4.9,3.53-4.9,3.53l1.88,5.75-4.89-3.56-4.89,3.56,1.88-5.75-4.9-3.55h6.05s1.86-5.74,1.86-5.74h0Zm9.02,4.41c3.43,2.72,5.64,6.95,5.64,11.7,0,8.19-6.57,14.84-14.67,14.84s-14.67-6.64-14.67-14.84c0-4.75,2.21-8.98,5.64-11.7h0c.28-.21.53-.3.58-.23.05.07-.06.16-.29.39-2.23,2.23-3.6,5.3-3.6,8.7,0,6.8,5.52,12.32,12.33,12.32s12.33-5.51,12.33-12.32c0-3.4-1.38-6.47-3.6-8.7h0c-.22-.23-.33-.33-.29-.39.05-.07.3.02.58.23h0Zm-.29.17h0,0Z"/>
    <path class="cls-3" d="m34.95,16.89c9.23,0,16.71,7.48,16.71,16.71s-7.48,16.71-16.71,16.71-16.71-7.48-16.71-16.71,7.48-16.71,16.71-16.71h0Zm0,.55c8.93,0,16.16,7.24,16.16,16.16s-7.24,16.16-16.16,16.16-16.16-7.24-16.16-16.16,7.24-16.16,16.16-16.16h0Z"/>
    <path class="cls-3" d="m34.95,9.84c13.12,0,23.75,10.63,23.75,23.75s-10.63,23.75-23.75,23.75-23.75-10.63-23.75-23.75,10.63-23.75,23.75-23.75h0Zm0,.78c12.69,0,22.98,10.29,22.98,22.98s-10.29,22.98-22.98,22.98-22.98-10.29-22.98-22.98,10.29-22.98,22.98-22.98h0Z"/>
    <path class="cls-4" d="m18.24,33.6c0-9.23,7.48-16.71,16.71-16.71s16.71,7.48,16.71,16.71-7.48,16.71-16.71,16.71-16.71-7.48-16.71-16.71h0Zm39.68,0c0-12.69-10.29-22.98-22.98-22.98s-22.98,10.29-22.98,22.98,10.29,22.98,22.98,22.98,22.98-10.29,22.98-22.98h0Z"/>
    <path class="cls-3" d="m43.07,14.39l.75-.3.24.14c-.23.42-.4.85-.41,1.32-.18-.09-.27-.2-.34-.3-.33.8-1.02,1.43-1.67,1.6l.05-.26c.59-.53,1.09-1.39,1.39-2.2h0Z"/>
    <path class="cls-3" d="m23.92,16.06l.03-.81.22-.16c.29.38.62.71,1.04.91-.15.13-.29.17-.42.19.6.63.9,1.51.78,2.17l-.21-.15c-.25-.76-.83-1.56-1.45-2.16h0Z"/>
    <path class="cls-3" d="m21.36,19.61s-.49.62-.37-.06c.02-.09.17-.2.37.06h0Zm1.13-.68s-.06-.12-.03-.31c.01-.08.13-.14.27-.05.26.17-.19.4-.25.36h0Zm.21-2.51c-.23-.26-.04-.8.09-.78.32.05.62.52.91.77.04.03-.11.02-.39-.03,0,0,.29.31.51.76.11.23.3.5.31.74.02.38-.25.7-.78.8l-.08.02c.04.3-.02.51-.19.63-.36.23-.67-.08-.92.08-.02.06-.03.21-.11.4l-.35.34c-.12.2-.35.43-.67.29-.76-.58-.63-1.32-.44-1.44.3-.19.64-.17,1.12.2.07-.09.14-.19.16-.23.15-.26.15-.47.16-.63.04-.58.51-.24.87-.26.25-.01.63-.1.72-.36.02-.05.01-.1-.02-.14-.24-.33-.35-.53-.91-1.15h0Z"/>
    <path class="cls-3" d="m19.99,21.03c-.05-.05-.19-.13-.23-.1-.34.27-.42.2-.48-.15,0-.05-.11-.47-.11-.72,0-.35.1-.45.34-.29.54.35,1.33,1.06,1.38,1.8.03.49-.26.95-.63,1.4-.07-.04-.1-.09-.08-.13.24-.73.26-1.17-.18-1.81h0Z"/>
    <path class="cls-3" d="m18.95,22.64c-.04-.06-.19-.17-.22-.13-.24.3-.32.14-.46-.2-.02-.04-.1-.31-.1-.56,0-.28.22-.44.44-.25.49.41.96.78.96,1.53,0,.56-.5.99-1.05,1.07,0,.13,0,.24,0,.34h0c-.05,1.3-.77,1.83-2,1.08-.16-.1-.29-.12-.48-.16-.1-.02-.21-.03-.4-.02-.1.02-.19-.07-.2-.11-.06-.2-.42-.58.15-.52.21.02.39.06.63.17.26.12.38.17.62.31,1.02.36,1.2-.89,1.08-1.46-.06-.29,0-.49.23-.37.08.04.15.07.2.07.4-.03.77-.44.61-.8h0Z"/>
    <path class="cls-3" d="m18.96,25.34l-.14-.37s0-.1.05-.12l.37-.14s.02,0,.03,0l-.12-.31s0-.1.05-.12l.37-.14s.1,0,.12.05l.14.37s0,.1-.05.12l-.37.14s-.02,0-.03,0l.12.31s0,.1-.05.12l-.37.14s-.1,0-.12-.05h0Z"/>
    <path class="cls-3" d="m16.67,23.83l-.17-.36s0-.1.04-.12l.36-.17s.02,0,.03,0l-.14-.3s0-.1.04-.12l.36-.17s.1,0,.12.04l.17.36s0,.1-.04.12l-.36.17s-.02,0-.03,0l.14.3s0,.1-.04.12l-.36.17s-.1,0-.12-.04h0Z"/>
    <path class="cls-3" d="m17.31,29.49l-.26-.3s-.03-.09,0-.13l.3-.26s.02-.01.02-.02l-.22-.25s-.03-.09,0-.13l.3-.26s.09-.03.13,0l.26.3s.03.09,0,.13l-.3.26s-.02.01-.02.02l.22.25s.03.09,0,.13l-.3.26s-.09.03-.13,0h0Z"/>
    <path class="cls-3" d="m13.95,31.46l-.29-.27s-.04-.09,0-.13l.27-.29s.01-.01.02-.02l-.25-.22s-.04-.09,0-.13l.27-.29s.09-.04.13,0l.29.27s.04.09,0,.13l-.27.29s-.01.01-.02.02l.25.23s.04.09,0,.13l-.27.29s-.09.04-.13,0h0Z"/>
    <path class="cls-3" d="m31.54,14.81s0-.14.11-.29c.04-.06.18-.07.27.08.16.27-.35.28-.38.21h0Zm-.14-.73c.3-.5.57.01.89.16.06.02.12.05.18.06-.05.37-.1,1.07-.56,1.13-.43.05-.57-.37-.86-.34-.3.29-.46.54-1.09.2-.35.59-1.38,1.13-2.1.42-.36.65-1.02.96-1.25.28-.25-.73.78-1.16.91-1.16-.02-.18.06-.35.15-.4.16-.09.37.03.37.07,0,.43.13.67.3.8.27.19.91.03,1.08-.17.11-.09.14-.26.27-.48.15-.26.3-.4.4-.16.04.08.07.14.12.18.47.3.96-.18,1.19-.57h0Zm-3.8,1.33c-.25.4-.6.47-.55.24.07-.19.38-.41.49-.39l.06.15h0Z"/>
    <path class="cls-3" d="m16.3,26.87c-.06-.04-.24-.08-.25-.03-.1.37-.24.25-.5,0-.03-.03-.21-.24-.32-.47-.12-.25.03-.49.31-.41.62.18,1.19.34,1.49,1.03.22.51,0,1.19-.5,1.47.06.11.11.21.15.31h0c.03.06.05.13.07.2h0s0,0,0,0c0,.02.01.05.02.07h0s0,.02,0,.04c.1.54-.27,1.07-.74,1.21.42.62.4,1.34-.32,1.24-.76-.11-.68-1.22-.63-1.33-.17-.07-.28-.21-.29-.32-.01-.18.19-.31.22-.3.38.2.66.19.85.09.29-.16.37-.56.26-.8-.03-.14-.17-.24-.31-.45-.16-.25-.22-.44.04-.43.09,0,.16,0,.21-.03.36-.14.56-.77.23-1.08h0Zm-.65,3.5c.25.4.15.75-.03.6-.14-.15-.2-.52-.13-.61h.16Z"/>
    <path class="cls-3" d="m39.06,16c0-.08.03-.12.08-.13.14-.02.26-.04.38-.07.29-.08.66-.21,1.01-.4.06-.47-.03-.99-.27-1.45l-.2.15s-.41-.44-.43-.64c.02-.4.69-.76.85-.5.28.46.58,1.49.42,2.2.45-.34.77-.83.65-1.55-.06-.35.58-.56.65-.45.18.28.02.81.02,1.19,0,.05-.09-.07-.23-.31,0,0-.05.42-.24.88-.21.5-.66,1.02-1.21,1.19-.41.12-1.09-.02-1.5-.11h0Z"/>
    <path class="cls-3" d="m34.78,14.65c.2.62,1.01.82,1.81.31.19.54.87.44,1.26.21.95.76,1.88-.27,1.51-1.26l-.47.31c.14.83-.9.67-.52-.02.04-.12-.35-.1-.4.05l-.12.17c-.3.43-.79.31-.76-.12,0-.1.06-.22.1-.31.03-.12-.31-.1-.36.05-.43.68-1.81.84-1.69-.41.02-.19.02-.41.04-.65.02-.26.02-.53-.03-.73-.15-.56-.37-.08-.54.05-.03.03-.09.14-.03.23.07.17.11.28.13.38.08.52-.09,1.05-.44,1.44.02-.74-.47-1.68-.84-2.08-.21-.23-.8.26-.73.66.06.19.53.56.54.54l.16-.18c.32.41.51.9.55,1.37-.31.26-.65.45-.92.59-.11.05-.23.1-.36.14-.05.02-.06.06-.06.14.42.02,1.11.02,1.49-.18.28-.15.52-.41.69-.7h0Z"/>
    <path class="cls-3" d="m55.87,30.3l.73.35.06.27c-.47.12-.9.28-1.25.59-.05-.19-.04-.34,0-.46-.81.3-1.74.22-2.31-.15l.22-.14c.79.08,1.76-.14,2.56-.47h0Z"/>
    <path class="cls-3" d="m52.1,23.52c.13-.07,1.04-.15.92.1-.21.4-.78-.06-.92-.1h0Zm.56,2.48s.14-.02.3.07c.07.04.09.18-.05.29-.25.21-.32-.32-.26-.36h0Zm-1.28-3.7c-.05.02-.43-.68.18-.36.08.04.14.23-.18.36h0Zm-.61.19c-.16-.18-.29-.49-.06-.77.79-.59,1.45-.23,1.5,0,.08.36-.04.69-.55,1.06-.04.24.08.3.14.4.74-.26,1.44-.24,1.67.06.21.28.08.79-.89,1.06,0,.53,0,.74.25,1.07.19.23.39.3.54.37.53.23.06.59-.05.95-.13.44.03,1.42.62,1.86.32-.42.17-.87-.32-1.35l.29-.48c.52.28.74.53.9.96.21.56-.21,1.77.69,1.36.03-.22.12-.33.34-.42l.62.27-.07.28c-.33.09-.57.32-.79.59,0,0-.13-.17-.12-.38-.99.28-.68-.48-1.18-.63-.08.31-.06.67.03,1.05l-.75.34c.22-2.04-1.14-1.25-.72-3.24-.43-.03-.69-.17-.75-.43-.1-.43.3-.64.24-.95-.13-.11-.3-.15-.32-.64-.73.4-1.42-.18-.74-1.46-.22-.14-.2-.28-.29-.48-1.47.29-1.83-.57-2-1.62.08-.03.13-.02.15.02.43.72.74,1.12,1.64,1.14h0Zm.77,1.38c1.34.25-.15,1.39,0,0h0Z"/>
    <path class="cls-3" d="m49.14,20.32c.06-.03.18-.15.16-.2-.18-.39-.09-.46.26-.43.05,0,.48,0,.73.07.34.08.42.2.2.4-.48.43-1.36,1.03-2.09.89-.49-.09-.86-.48-1.2-.96.06-.06.11-.07.15-.04.65.41,1.07.54,1.8.27h0Z"/>
    <path class="cls-3" d="m47.86,18.78c.07-.02.21-.14.18-.18-.23-.31-.05-.35.32-.39.05,0,.32,0,.56.05.27.07.36.33.12.5-.53.37-1.01.72-1.73.51-1.4-.4-1.76-.99-1.88-1.27-.08-.18-.1-.39-.07-.57-.74.11-1.38-.24-.98-.83.43-.63,1.39-.07,1.48.02.14-.12.32-.16.41-.12.17.07.2.31.17.33-.47.35-.52.69-.4.93.12.25.56.81,1.81,1.02h0Zm-2.41-1.74c-.47.04-.74-.19-.52-.29.19-.06.56.05.61.15l-.08.14h0Z"/>
    <path class="cls-3" d="m52.38,28.56l.42.09c.05.01.09.06.08.11l-.09.45c-.01.05-.06.09-.12.08l-.42-.09c-.05-.01-.09-.06-.08-.11l.09-.45c.01-.05.06-.09.12-.08h0Z"/>
    <path class="cls-3" d="m14.21,26.6l.32-.28s.1-.03.14.01l.3.35s.03.1-.01.14l-.32.28s-.1.03-.14-.01l-.3-.35s-.03-.1.01-.14h0Z"/>
    <path class="cls-3" d="m45.31,15.11l.39-.19s.11,0,.13.04l.19.39s0,.02,0,.03l.32-.16s.11,0,.13.04l.19.39s0,.11-.04.13l-.39.19s-.11,0-.13-.04l-.19-.39s0-.02,0-.03l-.32.16s-.11,0-.13-.04l-.19-.39s0-.11.04-.13h0Z"/>
    <path class="cls-3" d="m45.55,19.15l.35-.19s.1,0,.12.04l.19.35s0,.02,0,.03l.29-.16s.1,0,.12.04l.19.35s0,.1-.04.12l-.35.19s-.1,0-.12-.04l-.19-.35s0-.02,0-.03l-.29.16s-.1,0-.12-.04l-.19-.35s0-.1.04-.12h0Z"/>
    <path class="cls-3" d="m29.46,16.4l.18-.36s.08-.06.12-.04l.36.18s.02,0,.02.02l.15-.3s.08-.06.12-.04l.36.18s.06.08.04.12l-.18.36s-.08.06-.12.04l-.36-.18s-.02,0-.02-.02l-.15.3s-.08.06-.12.04l-.36-.18s-.06-.08-.04-.12h0Z"/>
    <path class="cls-3" d="m26.26,14.26l.12-.38s.07-.07.11-.06l.38.12s.02,0,.02.01l.1-.32s.07-.07.11-.06l.38.12s.07.07.06.11l-.12.38s-.07.07-.11.06l-.38-.12s-.02,0-.02-.01l-.1.32s-.07.07-.11.06l-.38-.12s-.07-.07-.06-.11h0Z"/>
    <path class="cls-3" d="m21.25,21.96c.86-.55,1.47-1.21.68-2.46l-.32.39c.3.82.07,1.26-.4,1.92-.03.04-.02.09.04.15h0Z"/>
    <path class="cls-3" d="m37.91,13.08c.75,0-.39.22-.36.46,0,.05.05.07.1.06.31-.02.87-.28,1.28-.82,0-.07-.07-.09-.14-.1-.05,0-.54-.11-.87,0-.08.03-.15.08-.28.31-.22.39.13.08.27.08h0Z"/>
    <path class="cls-3" d="m28.29,13.19s-.12.28.06.28c.21.08,1.9-.53,2.33-1.11.26-.35.01-.15-.24,0-.37.23-1.48.7-2.15.82h0Z"/>
    <path class="cls-3" d="m55.06,26.49s-.38,0-.33.17c.26.43.53.8,1.01.93.43.11.15-.04-.08-.23-.34-.28-.44-.4-.6-.88h0Z"/>
    <path class="cls-3" d="m30.48,13.05s-.07-.02-.08.02c-.09.18-.13.36-.21.4-.04.02-.13.1-.19.06-.02-.01-.05-.09-.08-.13-.08-.13-.17.07-.19.15-.03.1-.1.17-.15.2-.21.1-.29,0-.28-.18,0-.13-.17-.15-.18.25,0,.12,0,.3.12.36.29.12.48-.15.53-.29,0-.02.05,0,.08,0,.19.09.33.03.43-.08.22-.26.24-.84.21-.76h0Z"/>
    <path class="cls-3" d="m48.7,17.19s-.04-.06-.08-.04c-.19.08-.34.18-.43.16-.04,0-.16-.01-.18-.08,0-.02.02-.1.03-.15.02-.15-.17-.06-.24-.02-.09.06-.19.07-.25.05-.23-.06-.21-.19-.09-.32.09-.1-.03-.22-.3.07-.08.09-.2.22-.14.35.14.28.46.2.59.13.02-.01.04.03.06.06.09.19.22.24.37.22.34-.05.73-.48.66-.43h0Z"/>
    <path class="cls-3" d="m14.38,27.52s-.04.05-.02.08c.12.16.26.28.26.37,0,.04.03.16-.04.19-.02,0-.1,0-.16,0-.15.02-.02.18.04.24.08.07.11.17.11.23,0,.23-.13.25-.29.17-.12-.06-.21.08.14.28.11.06.27.14.37.05.24-.2.08-.49-.01-.6-.02-.02.02-.05.04-.07.17-.13.18-.28.12-.42-.13-.32-.64-.6-.58-.54h0Z"/>
    <path class="cls-3" d="m40.36,16.82c.03.06.09.11.07.11-.06,0-.17.02-.23.07-.04.05,0,.14.03.14.23,0,.51-.09.79.04.04-.1.23-.16.16-.22-.07-.06-.3-.03-.44-.22-.09-.11,0-.34.23-.12.2.21.32-.11.31-.13-.05-.11-.24-.19-.43-.19-.28-.01-.6.24-.48.51h0Z"/>
    <path class="cls-3" d="m54.05,24.77c-.12-.11-.02-.05-.27-.11-.05-.01-.28-.04-.29.02,0,.1.21.09.28.31.06.19-.49-.24-.53-.24-.1.01.33.57.96.54.18-.1-.1-.43-.16-.52h0Z"/>
    <path class="cls-3" d="m50.89,20.54c-.09.08-.16.31-.15.41.07.03.41-.06.47-.09.03-.12.01-.16.09-.28.11-.15.21-.02.21-.2-.16-.06-.49.04-.62.15h0Z"/>
    <path class="cls-3" d="m31.55,13c0,.13.12.32.2.39.07-.03.23-.34.25-.41-.07-.11-.11-.12-.15-.26-.04-.18.12-.17,0-.29-.15.08-.3.39-.3.57h0Z"/>
    <path class="cls-3" d="m18.28,20.61c.1.08.32.12.43.09.02-.08-.11-.4-.15-.46-.13-.02-.16.01-.29-.06-.16-.09-.05-.21-.22-.18-.04.17.1.48.24.6h0Z"/>
    <path class="cls-3" d="m22.13,17.21c.11.07.34.08.44.04.01-.08-.16-.38-.2-.43-.13,0-.16.03-.3-.02-.17-.06-.08-.2-.24-.15-.02.17.16.47.31.56h0Z"/>
    <path class="cls-3" d="m17.75,26.92c.12.05.35,0,.43-.05,0-.08-.23-.34-.29-.38-.13.03-.15.06-.29.04-.18-.03-.12-.18-.27-.1.01.17.25.43.42.49h0Z"/>
    <path class="cls-3" d="m35.98,12.49c.3.22.11.8.24.87.22.12.21-1.56-.18-1.07-.03.04-.09.12-.06.2h0Z"/>
    <path class="cls-3" d="m15.82,24.19c.35-.14.74.32.87.25.22-.12-1.23-.99-1.01-.4.02.05.06.14.14.15h0Z"/>
    <path class="cls-5" d="m21.44,18.19c-.07.14-.19.24-.32.33-.07.05.25-.69.19-.89-.24.16-.45-.04-.46-.28,0-.32.29-.47.48-.19.22.33.27.66.1,1.03h0Zm-.39-.85s.02.08.08.1c.05.01.1-.01.11-.06.01-.04-.02-.08-.08-.1-.05-.01-.1.01-.11.06h0Z"/>
    <polygon class="cls-2" points="25.93 39.19 25.57 48.85 28.44 49.7 27.92 39.34 26.15 39.1 25.93 39.19 25.93 39.19"/>
    <path class="cls-7" d="m46.5,47.31l.97-.86-1.53-2.89c-.09-.18-.1-.37.07-.55l2.15-1.86c.11-.08.24-.06.36,0l1.18.05c.8.21,1.37-1.24,1.93-1.21h.6c.31.01.32-.11.1-.16-1.37-.51-1.35.06-2.26.26l-1.86-1.41c-.24-.15-.34-.09-.51.09l-2.96,3.14c-.18.2-.31.22-.27-.11l.11-2c2.38-3.32,3.75-1.38,5.64-1.67.67-.18,1.22-.64,1.67-1.36.18-.3.17-.45-.23-.27-1.38.29-2.46-.26-3.57-.12-1.3.17-2.46.78-3.45,2.53l.15-2.63.42-.56c.48.57,1.2.43,1.41-.28.39.48,1.09.49,1.39-.1.67.76,1.49-.36.54-.64l.56-.27c.44.5,1.21.38,1.26-.34,0,0,0-.01,0-.02.06,0,.11-.01.16-.03.13.1.3.17.48.17.4,0,.73-.3.73-.67s-.33-.67-.73-.67c-.35,0-.64.22-.71.52-.09,0-.18.02-.25.04-.33-.41-1.06-.18-1.16.49-.17-.03-.33-.03-.47.08-.51-.21-.84-.07-1.29.32-.23.22-.43.3-.69.37-.28-.39-.78-.32-1.17.22-.11.04-.15-.1-.07-.18l.68-.58c.57.47,1.14.16,1.04-.28.58.23,1.04-.03,1.01-.59.57.48,1.2.14,1.19-.55.5.5,1.33.21,1.31-.5.37.55,1.06.6,1.42.4.17-.09.31-.29.18-.48-.06-.09-.15-.07-.21-.15.11-.34-.35-.49-1.12-.45-1.18.06-2.67.78-4.09,1.52l-.07-.14c.18-.17.41-.33.69-.66.44.09.78-.01.87-.51l.22-.11c.43.25.77,0,.94-.33.25.01.47-.06.67-.21.13-.18.43.19.88.06.53-.15.5-.79-.04-.95-.2-.06-.44-.01-.64.25-.05.05-.08.04-.14.04h0c-.02-.25-.23-.44-.48-.44-.27,0-.48.22-.48.48,0,.08.02.15.05.21-.04.02-.08.05-.09.09-.03-.25-.25-.45-.51-.45-.28,0-.51.23-.51.51,0,.14.06.27.16.37-.12-.06-.2-.02-.21.13h0s0-.01,0-.02c0-.27-.22-.48-.48-.48s-.48.22-.48.48c0,.14.06.27.16.36h0c-.05.1-.13.13-.22.13h0c-.88-.84-1.71.3-.9.94-.35,0-.81.29-.48,1.03l-.64.52.16-2.89c.02-.29-.04-.51-.16-.56-.28-.12-.77-.09-1.22.1-.13.06-.27.15-.39.39-.41.78-1.44,3.23-1.58,3.9-.01.07-.02.12-.01.15,0,.09.19-.07.35-.19.33-.25.82-.7,1.17-.97l-.17,3.54c-1.55-2.37-3.67-2.46-5.23-1.54-.93.64-1.21,1.47-2.25,2.41.33-.03.62-.09.88-.36.02.49-.11,1.4.21,1.87-.12.69.68,1.12.32,2.17.19-.15.42-.23.5-.91.57.53,1.39.77,2.15.66-.31.07-.57.21-.65.39l-2.35,4.65c-.05.06.01.29.19.15l2.92-2.27c.16-.15.28-.11.38.05l2.7,4.3,1.11-.1.26-4.53c-.01-.21.16-.35.31-.47.21-.17.28-.32.42-.05l1.6,3.07h0Zm2.84-10.3c-.84-.2-1.91-.31-3.12.59,2.57-.79,2.5.28,3.98-.27.11-.04.17-.08.16-.12-.04-.1-.17,0-1.01-.2h0Zm-6.35,1.24l-.08,1.52c-.33-.71-.7-1.33-1.19-1.79-.84-.8-2.17-1.23-3.18-.45-.4.31-.63.75-.69,1.2-.11.8.32,1.61,1.24,1.75.58.02,1.04-.29,1.05-.85.27-.07.45-.31.43-.64.68.02.84.68.63,1.4-.25.81-1.05,1.62-2.23,1.48-.5-.06-1.01-.3-1.42-.69.1-.06.17-.17.17-.29,0-.19-.15-.34-.34-.34-.1,0-.19.04-.25.11-.18-.28-.31-.61-.38-.98.05.02.1.03.15.03.21,0,.39-.17.39-.39s-.17-.39-.39-.39c-.07,0-.14.02-.2.06,0-.12.01-.24.03-.36.02-.24.07-.48.16-.7.08.13.23.21.39.21.26,0,.47-.21.47-.47s-.21-.47-.47-.47h0c.21-.29.48-.55.78-.76,0,.26.21.47.47.47s.47-.21.47-.47c0-.15-.07-.28-.18-.37.27-.09.56-.13.85-.13.11,0,.21,0,.31.01-.05.06-.08.14-.08.23,0,.2.16.37.37.37s.37-.16.37-.37c0-.04,0-.07-.02-.11,1.06.33,1.77,1.21,2.37,2.15h0Zm-.1,2l-.27,5.42c-.03.25-.15.16-.21,0l-1.6-3.37c-.14-.23-.6-.3-1.03-.23.81-.19,1.53-.79,1.75-1.91.47-.79-.13-.81-.07-1.53l-.14.46c-.2-.31-.51-.44-1.01-.36.32,1.06-1.23.99-1.23-.03.05-.76.76-1.11,1.28-1.09.98.02,1.79.99,2.52,2.64h0Zm-.61,7.6l-2.92-4.94c-.5-.58,1.24-.69,1.33-.29l1.77,3.95c.2.35-.02.51-.17.22l-1.25-2.59c-.07-.14-.42.07-.32.24l1.66,3.14c.19.27-.04.4-.1.26h0Zm2.15-3.87c-.21.15-.25-.21-.1-.35l3.34-3.12c.34-.34.49.09.2.34l-3.45,3.14h0Zm.51-1.23c-.14.11-.31-.11-.06-.34l2.66-2.95c.19-.24.42.04.15.3l-2.76,2.98h0Zm-1.34-11.09c-.04-.35,1.09-.62,1-.15l-.42,9.94c-.05.27-.27.61-.32.42l.4-8c0-.18-.27-.09-.35.05l-.33,7.5c-.03.68-.31-.09-.29-.43l.31-9.34h0Z"/>
    <path class="cls-3" d="m46.5,47.31l.97-.86-1.53-2.89c-.09-.18-.1-.37.07-.55l2.15-1.86c.11-.08.24-.06.36,0l1.18.05c.8.21,1.37-1.24,1.93-1.21h.6c.31.01.32-.11.1-.16-1.37-.51-1.35.06-2.26.26l-1.86-1.41c-.24-.15-.34-.09-.51.09l-2.96,3.14c-.18.2-.31.22-.27-.11l.11-2c2.38-3.32,3.75-1.38,5.64-1.67.67-.18,1.22-.64,1.67-1.36.18-.3.17-.45-.23-.27-1.38.29-2.46-.26-3.57-.12-1.3.17-2.46.78-3.45,2.53l.15-2.63.42-.56c.48.57,1.2.43,1.41-.28.39.48,1.09.49,1.39-.1.67.76,1.49-.36.54-.64l.56-.27c.44.5,1.21.38,1.26-.34,0,0,0-.01,0-.02.06,0,.11-.01.16-.03.13.1.3.17.48.17.4,0,.73-.3.73-.67s-.33-.67-.73-.67c-.35,0-.64.22-.71.52-.09,0-.18.02-.25.04-.33-.41-1.06-.18-1.16.49-.17-.03-.33-.03-.47.08-.51-.21-.84-.07-1.29.32-.23.22-.43.3-.69.37-.28-.39-.78-.32-1.17.22-.11.04-.15-.1-.07-.18l.68-.58c.57.47,1.14.16,1.04-.28.58.23,1.04-.03,1.01-.59.57.48,1.2.14,1.19-.55.5.5,1.33.21,1.31-.5.37.55,1.06.6,1.42.4.17-.09.31-.29.18-.48-.06-.09-.15-.07-.21-.15.11-.34-.35-.49-1.12-.45-1.18.06-2.67.78-4.09,1.52l-.07-.14c.18-.17.41-.33.69-.66.44.09.78-.01.87-.51l.22-.11c.43.25.77,0,.94-.33.25.01.47-.06.67-.21.13-.18.43.19.88.06.53-.15.5-.79-.04-.95-.2-.06-.44-.01-.64.25-.05.05-.08.04-.14.04h0c-.02-.25-.23-.44-.48-.44-.27,0-.48.22-.48.48,0,.08.02.15.05.21-.04.02-.08.05-.09.09-.03-.25-.25-.45-.51-.45-.28,0-.51.23-.51.51,0,.14.06.27.16.37-.12-.06-.2-.02-.21.13h0s0-.01,0-.02c0-.27-.22-.48-.48-.48s-.48.22-.48.48c0,.14.06.27.16.36h0c-.05.1-.13.13-.22.13h0c-.88-.84-1.71.3-.9.94-.35,0-.81.29-.48,1.03l-.64.52.16-2.89c.02-.29-.04-.51-.16-.56-.28-.12-.77-.09-1.22.1-.13.06-.27.15-.39.39-.41.78-1.44,3.23-1.58,3.9-.01.07-.02.12-.01.15,0,.09.19-.07.35-.19.33-.25.82-.7,1.17-.97l-.17,3.54c-1.55-2.37-3.67-2.46-5.23-1.54-.93.64-1.21,1.47-2.25,2.41.33-.03.62-.09.88-.36.02.49-.11,1.4.21,1.87-.12.69.68,1.12.32,2.17.19-.15.42-.23.5-.91.57.53,1.39.77,2.15.66-.31.07-.57.21-.65.39l-2.35,4.65c-.05.06.01.29.19.15l2.92-2.27c.16-.15.28-.11.38.05l2.7,4.3,1.11-.1.26-4.53c-.01-.21.16-.35.31-.47.21-.17.28-.32.42-.05l1.6,3.07h0Zm2.84-10.3c-.84-.2-1.91-.31-3.12.59,2.57-.79,2.5.28,3.98-.27.11-.04.17-.08.16-.12-.04-.1-.17,0-1.01-.2h0Zm-6.35,1.24l-.08,1.52c-.33-.71-.7-1.33-1.19-1.79-.84-.8-2.17-1.23-3.18-.45-.4.31-.63.75-.69,1.2-.11.8.32,1.61,1.24,1.75.58.02,1.04-.29,1.05-.85.27-.07.45-.31.43-.64.68.02.84.68.63,1.4-.25.81-1.05,1.62-2.23,1.48-.5-.06-1.01-.3-1.42-.69.1-.06.17-.17.17-.29,0-.19-.15-.34-.34-.34-.1,0-.19.04-.25.11-.18-.28-.31-.61-.38-.98.05.02.1.03.15.03.21,0,.39-.17.39-.39s-.17-.39-.39-.39c-.07,0-.14.02-.2.06,0-.12.01-.24.03-.36.02-.24.07-.48.16-.7.08.13.23.21.39.21.26,0,.47-.21.47-.47s-.21-.47-.47-.47h0c.21-.29.48-.55.78-.76,0,.26.21.47.47.47s.47-.21.47-.47c0-.15-.07-.28-.18-.37.27-.09.56-.13.85-.13.11,0,.21,0,.31.01-.05.06-.08.14-.08.23,0,.2.16.37.37.37s.37-.16.37-.37c0-.04,0-.07-.02-.11,1.06.33,1.77,1.21,2.37,2.15h0Zm-.1,2l-.27,5.42c-.03.25-.15.16-.21,0l-1.6-3.37c-.14-.23-.6-.3-1.03-.23.81-.19,1.53-.79,1.75-1.91.47-.79-.13-.81-.07-1.53l-.14.46c-.2-.31-.51-.44-1.01-.36.32,1.06-1.23.99-1.23-.03.05-.76.76-1.11,1.28-1.09.98.02,1.79.99,2.52,2.64h0Zm-.61,7.6l-2.92-4.94c-.5-.58,1.24-.69,1.33-.29l1.77,3.95c.2.35-.02.51-.17.22l-1.25-2.59c-.07-.14-.42.07-.32.24l1.66,3.14c.19.27-.04.4-.1.26h0Zm2.15-3.87c-.21.15-.25-.21-.1-.35l3.34-3.12c.34-.34.49.09.2.34l-3.45,3.14h0Zm.51-1.23c-.14.11-.31-.11-.06-.34l2.66-2.95c.19-.24.42.04.15.3l-2.76,2.98h0Zm-1.34-11.09c-.04-.35,1.09-.62,1-.15l-.42,9.94c-.05.27-.27.61-.32.42l.4-8c0-.18-.27-.09-.35.05l-.33,7.5c-.03.68-.31-.09-.29-.43l.31-9.34h0Z"/>
    <path class="cls-7" d="m32.89,36.24c.47-.32.88-.64,1.15-1.09-.65.2-1.18.58-1.6,1-.08-.01-.16-.02-.25-.03.46-.38.87-.75,1.1-1.25-.67.27-1.17.73-1.54,1.23-.08,0-.16,0-.24,0,.39-.43.73-.85.88-1.37-.61.35-1.03.87-1.32,1.39-.08,0-.16.01-.24.02.36-.46.66-.91.78-1.43-.58.4-.97.95-1.22,1.5-.09.02-.17.03-.26.05.33-.47.6-.93.68-1.46-.56.43-.91,1-1.13,1.56-.09.02-.18.05-.27.08.29-.48.53-.95.56-1.46-.53.46-.83,1.04-1,1.61-.08.03-.16.06-.24.09.27-.48.5-.96.52-1.45-.52.47-.82,1.08-.96,1.65-.06.03-.12.06-.18.09.04-.13.07-.26.07-.39-.25.18-.41.41-.52.64-.09.05-.17.1-.25.16.02-.11.04-.23.06-.36.45-.34.88-.77,1.13-1.36-.39.17-.71.44-1.01.77.03-.12.06-.24.09-.37.43-.21.94-.63,1.18-1.13-.39.09-.7.35-1.05.63.03-.1.06-.21.09-.32.44-.21.94-.62,1.2-1.12-.38.07-.69.29-1.02.55.03-.1.07-.2.1-.31.44-.21.92-.59,1.18-1.07-.36.06-.66.25-.98.48.04-.1.08-.21.12-.32.44-.23.86-.54,1.17-.99-.34.07-.64.22-.94.4.04-.11.09-.21.13-.32.4-.23.79-.53,1.05-.97-.36.05-.66.22-.95.43l-.02-.02c.27-.37.64-.95.64-1.63-.45.33-.72.94-.85,1.42l-.04-.04s-.02.04-.03.06c-.03-.37-.1-.72-.26-1.04-.13.56-.11,1.13-.03,1.65-.04.1-.09.21-.13.32-.09-.38-.23-.73-.45-1.04-.07.58.05,1.13.24,1.61-.03.09-.07.19-.1.29-.13-.41-.25-.78-.5-1.07-.06.56.1,1.18.32,1.64-.03.09-.06.19-.09.28-.09-.23-.22-.56-.53-.84,0,.63.17,1.06.37,1.37-.03.11-.06.22-.1.34-.12-.33-.24-.63-.47-.86-.06.49.1,1.04.31,1.45-.02.08-.04.16-.06.24-.07-.2-.17-.36-.34-.56-.05.49.08.78.21,1.05-.04.18-.09.36-.13.54-.07-.23-.15-.45-.22-.68.04-.24.04-.47-.01-.67-.05.06-.1.13-.14.22-.02-.05-.04-.11-.06-.16.21-.35.34-.7.36-1.04-.16.11-.35.29-.54.55-.02-.05-.04-.1-.05-.14.29-.36.48-.73.52-1.12-.2.1-.47.29-.71.64-.03-.06-.05-.13-.08-.19.45-.38.62-.69.67-1.17-.5.39-.68.6-.82.8-.03-.07-.06-.15-.09-.22.48-.43.75-.8.8-1.29-.31.25-.67.59-.94.97-.03-.08-.07-.16-.1-.24.48-.41.83-.88,1-1.35-.29.16-.73.5-1.15.99-.03-.06-.05-.12-.08-.19.52-.47.9-.94,1.07-1.41-.31.16-.77.5-1.21,1.11-.04-.08-.07-.16-.11-.24.53-.43.92-.87,1.1-1.33-.31.13-.79.44-1.23,1.04-.04-.08-.08-.16-.11-.24.5-.39.88-.8,1.04-1.27-.29.1-.74.38-1.15.97l.06.2c-.04-.09-.08-.17-.12-.26v-.23c.46-.34.8-.71.95-1.13-.28.09-.73.43-1.13.99h-.01s-.04-.08-.04-.08l.02-.08h0c.34-.42.57-.84.61-1.28-.23.13-.53.49-.77,1.02.09-.87.02-1.23-.14-1.48-.21.31-.23.85-.12,1.32-.3-.25-.58-.39-.78-.41.14.29.37.54.66.76h0c-.26-.06-.52-.09-.75-.11.21.28.55.47.98.61l.08.16c-.43-.2-.82-.26-1.08-.25.29.34.75.57,1.3.74.03.06.06.13.09.19-.5-.21-.97-.33-1.27-.34.32.35.83.58,1.44.72.03.07.06.14.09.21-.58-.21-1.11-.32-1.44-.32.38.33.93.55,1.59.65.03.06.05.13.08.19-.58-.2-1.11-.26-1.44-.26.38.34.95.57,1.61.68.03.07.06.15.09.22-.56-.2-1.08-.25-1.39-.24.37.33.92.56,1.56.65l.06.15c-.51-.15-.98-.18-1.27-.15.33.28.83.46,1.41.52.03.08.06.15.09.23-.47-.18-.89-.22-1.16-.21.31.3.77.5,1.3.57.03.07.05.14.08.21-.31-.13-.57-.17-.77-.18.22.3.56.54.98.74l.08.19c-.27-.16-.51-.23-.69-.26.17.29.47.53.86.74l.02.02c.05.14.11.28.16.42-.23-.25-.46-.39-.63-.46.07.25.22.49.42.72l-.07.05-.03.02c-.1-.05-.2-.11-.3-.16-.09-.47-.32-.95-.82-1.33-.02.4.15.75.38,1.12-.08-.04-.16-.07-.24-.1-.12-.5-.39-1.03-.9-1.43,0,.45.21.85.46,1.26-.1-.04-.2-.07-.3-.11-.09-.49-.32-1-.77-1.42-.03.44.14.86.36,1.29-.08-.02-.16-.05-.24-.07-.09-.5-.32-1.03-.78-1.46-.03.47.16.9.39,1.36-.07-.02-.14-.04-.21-.05-.09-.5-.3-1.01-.77-1.45-.03.48.16.9.4,1.37-.08-.02-.16-.04-.25-.05-.1-.5-.32-1.01-.8-1.42-.02.48.18.9.43,1.35-.1-.02-.21-.04-.31-.06-.05-.46-.23-.93-.7-1.35-.06.45.13.84.38,1.29-.2-.03-.4-.06-.6-.09l.3.03c-.1-.47-.36-.87-.88-1.24,0,.46.26.78.56,1.21-.1-.01-.19-.03-.29-.04-.16-.39-.42-.78-.97-1.11,0,.39.22.7.54,1.05-.07,0-.14-.02-.22-.02-.23-.34-.59-.64-1.16-.87.05.33.29.57.6.81-.09,0-.19-.02-.28-.02-.23-.27-.59-.48-1.16-.53.04.17.19.35.51.56-.31-.02-.7.03-1.1.15.26.18.69.28,1.13.24-.24.17-.5.38-.55.62.57-.05.89-.28,1.06-.56.1,0,.19.01.29.02-.37.21-.63.46-.71.75.35-.04.76-.28,1.2-.71.08,0,.16.02.24.03-.38.25-.67.53-.81.85.34-.06.78-.33,1.29-.8.06,0,.12.01.18.02-.32.25-.57.52-.78.9.34-.06.77-.35,1.24-.83.08.01.16.02.24.04-.49.34-.78.6-.93.88.4-.06.83-.29,1.38-.81.07.01.14.02.2.04-.48.35-.75.66-.89.92.48-.15.91-.4,1.34-.83.06.01.12.03.18.04-.5.38-.79.72-.9,1,.49-.15.93-.44,1.32-.9.08.02.15.04.23.06-.54.39-.8.66-.92.95.5-.16.89-.37,1.31-.85.06.02.12.03.18.05-.5.38-.73.65-.84.93.48-.15.85-.35,1.23-.8.07.02.13.04.2.07-.34.21-.62.44-.77.79.52-.08.86-.35,1.14-.65.06.02.11.04.17.07-.28.21-.57.42-.74.72.48-.08.78-.32,1.05-.59.1.04.19.09.29.13-.1,0-.2.01-.31.03.07.07.14.14.21.19l.09.27c-.2-.05-.43-.07-.67-.03.05.06.11.12.16.16-.11.01-.22.03-.33.05-.21-.08-.45-.12-.71-.1.05.08.11.14.17.2-.05.01-.1.02-.15.03-.23-.23-.69-.4-1.32-.43.18.26.42.4.76.57-.09.03-.18.05-.27.08-.3-.29-.67-.47-1.19-.47.19.32.46.46.78.6-.08.03-.16.06-.24.08-.33-.29-.73-.47-1.27-.43.23.32.53.45.9.58-.07.03-.15.06-.22.09-.38-.26-.82-.44-1.38-.34.27.3.6.42,1,.51-.08.04-.17.08-.25.12h0c-.4-.25-.87-.37-1.44-.23.3.28.65.36,1.06.41-.1.05-.19.1-.29.16-.38-.23-.79-.31-1.32-.17.28.27.58.33.96.38-.06.04-.13.08-.19.11-.4-.16-.84-.19-1.34,0,.28.2.57.25.9.27-.06.04-.12.08-.18.12-.39-.09-.8-.06-1.24.16.3.18.61.2.95.18-.29.2-.61.52-.85.87.36-.03.92-.34,1.28-.75-.26.48-.46.88-.42,1.38.49-.45.72-.95.8-1.47.07-.05.13-.09.2-.14-.23.58-.21.93-.12,1.23.31-.53.45-.85.51-1.49.07-.05.14-.09.21-.13-.16.54-.15.86-.11,1.17.25-.41.4-.73.47-1.39.06-.03.11-.06.17-.09-.18.68-.16.96-.13,1.21.27-.41.44-.73.54-1.42.06-.03.13-.06.19-.09-.23.68-.22.96-.22,1.21.3-.4.49-.7.63-1.39.08-.03.16-.07.24-.1-.29.65-.32.92-.33,1.17.34-.38.55-.67.77-1.33.09-.03.18-.06.26-.09-.45.67-.47.96-.54,1.22.46-.37.63-.64,1.05-1.37.1-.02.19-.05.29-.07-.51.56-.54.73-.68,1.02.53-.33.74-.44,1.24-1.14.05,0,.1-.02.16-.03-.15.21-.2.34-.3.52.37-.22.59-.33.86-.61.13-.02.27-.04.4-.05l.06.18c-.22.05-.45.14-.7.28.2.02.44.04.66.04-.04.03-.09.07-.13.1-.45.02-.91.07-1.45.37.3.04.68.04.96.04-.05.04-.1.09-.15.14-.65-.04-1.21.04-1.52.25.54.07.83.05,1.19.06-.05.04-.09.09-.14.13-.7-.05-1.27-.01-1.61.21.55.17.86.16,1.27.13-.05.06-.11.12-.16.17-.7-.08-1.28-.06-1.62.15.57.2.88.19,1.32.18-.07.08-.13.16-.2.24-.56-.13-1.06-.11-1.58.06.45.23.88.23,1.35.23-.06.08-.12.16-.18.23-.77-.12-1.24-.05-1.61.1.52.25.93.24,1.36.24-.05.08-.11.16-.16.24-.79-.16-1.14-.16-1.52-.02.36.31.75.33,1.33.32-.05.08-.09.15-.14.23-.79-.12-1.11-.1-1.52.06.39.34.72.32,1.31.3-.04.08-.09.16-.13.24-.63-.11-1.14-.08-1.46.1.48.32,1.01.27,1.29.23-.03.06-.06.13-.09.19-.39.17-.72.46-.96.97.4-.03.86-.38,1.22-.71-.05.48-.06,1.03.14,1.37.25-.39.25-1.01.2-1.65.03-.06.05-.12.08-.17.02.43.09.88.31,1.16.2-.42.12-1.06-.03-1.72.03-.05.05-.1.08-.15.12.74.28,1,.42,1.23.13-.52.07-1.01-.16-1.68.05-.07.09-.15.14-.22.1.79.26,1.06.4,1.3.14-.52.09-1-.14-1.69.06-.08.12-.16.18-.24.06.88.21,1.16.36,1.41.17-.54.13-1.04-.08-1.76.07-.08.13-.17.2-.25.03.82.15,1.21.28,1.45.12-.47.14-1.02.07-1.84.05-.06.11-.12.16-.17-.06.86.01,1.27.12,1.52.18-.47.26-1.04.27-1.91.07-.07.19-.13.26-.19l-.19,7.21h.3v-.36c.17-.11.36-.24.5-.31.09.04.75.47.79.47.04-.03-.05-.15-.17-.29.17-.11.38-.26.53-.33.19.09.5.31.67.41l.05,1.99h.3c-.07-2.86-.15-5.68-.22-8.53.05.03.1.06.16.09,0-.19-.04-.37-.12-.57.09.09.19.18.28.27-.08.38-.14.79.14,1.06.15-.2.18-.44.19-.72.06.06.11.13.17.19-.09.44-.14.9.09,1.24.15-.23.21-.51.23-.84.06.08.12.16.19.24-.13.44-.23.91-.02,1.28.18-.23.25-.52.31-.86.06.08.11.17.17.25-.16.47-.3.98-.09,1.37.2-.24.28-.57.35-.95.05.09.1.18.15.27-.18.47-.35,1.02-.11,1.47.21-.24.33-.54.39-.95.04.08.08.17.12.26l-.03.03c-.12.59-.23,1.13-.12,1.55.18-.23.3-.62.34-1.15.03.06.05.13.08.19-.02.5.07.84.29,1.06.19-.26.17-.57.06-.99.34.28.63.42.94.36-.12-.29-.38-.51-.84-.69-.02-.05-.05-.1-.07-.14l.03.04c.62.25,1.07.37,1.44.22-.3-.29-.79-.45-1.59-.5-.04-.09-.08-.17-.12-.25.61.17,1.17.33,1.6.23-.31-.28-.91-.46-1.74-.51-.04-.07-.07-.14-.11-.2h0c.63.17,1.13.23,1.6.08-.32-.27-.92-.41-1.78-.42-.05-.09-.1-.18-.15-.27.6.14,1.1.2,1.55.05-.32-.26-.93-.4-1.77-.4-.06-.09-.12-.18-.18-.26.54.1.97.13,1.36-.06-.29-.24-.83-.34-1.6-.27-.06-.08-.13-.17-.19-.25.47.03.8.06,1.16-.05-.28-.23-.72-.35-1.43-.27-.07-.08-.13-.15-.21-.23.24,0,.45-.02.68-.1-.23-.18-.56-.28-1.03-.26-.08-.08-.16-.15-.24-.23.16,0,.3-.02.46-.07-.2-.17-.48-.29-.89-.31-.12-.1-.24-.2-.36-.3v-.03c.21.08.4.14.61.16-.1-.18-.26-.35-.5-.49l.04-.11c.08.04.17.07.27.1-.02-.07-.05-.15-.09-.22.06,0,.11.01.17.02.09.34.24.63.46.83.02-.24,0-.5-.04-.76.04,0,.09.02.13.03.09.53.24,1.03.56,1.32.03-.38-.03-.78-.14-1.22.08.02.15.04.23.06.08.59.23,1.15.59,1.47.03-.41-.04-.86-.18-1.34.09.03.18.07.28.1.03.58.12,1.13.44,1.48.07-.39.04-.83-.04-1.31.08.04.16.07.24.11.03.67.13,1.31.44,1.72.06-.46.05-.96-.02-1.51.07.04.14.08.21.12.03.71.12,1.4.44,1.82.07-.47.05-1-.03-1.57.05.04.11.07.16.11.03.71.12,1.39.44,1.81.06-.45.05-.95-.02-1.5.07.05.13.11.2.16-.02.66.03,1.29.3,1.69.09-.41.11-.85.1-1.32.05.05.1.1.15.15-.04.56-.02,1.1.25,1.44.09-.3.13-.63.14-.99.22.39.56.87.93,1.03-.05-.54-.32-.91-.65-1.17l.09-.1c.35.13.69.2,1,.17-.32-.4-.68-.53-1.29-.63-.05-.07-.1-.13-.16-.2.52.09,1.01.13,1.42,0-.63-.29-1.23-.37-1.75-.35-.06-.06-.12-.11-.18-.16.51.02.98,0,1.39-.16-.64-.21-1.25-.23-1.79-.16-.08-.06-.15-.11-.23-.16.52-.03.98-.09,1.4-.31-.66-.13-1.26-.09-1.8.06-.08-.05-.17-.1-.26-.15.5-.06.97-.16,1.37-.38-.66-.11-1.29-.02-1.84.15-.08-.04-.17-.08-.25-.11.54-.07,1.02-.19,1.45-.43-.71-.12-1.38.03-1.95.23-.07-.02-.13-.05-.2-.07.47-.12.93-.27,1.27-.55-.61-.05-1.25.14-1.73.4-.09-.03-.18-.05-.28-.08.36-.11.77-.26,1.12-.6-.64-.03-1.2.2-1.62.48-.12-.03-.24-.05-.37-.08.43-.12.82-.27,1.13-.56-.51-.06-.99.07-1.43.28l-.23-.1s0,.05,0,.08l-.21-.15c.3.02.62-.04.94-.23-.3-.14-.63-.1-.98-.04.19-.11.39-.21.6-.31.21.19.5.23.86.23-.1-.16-.29-.31-.45-.41.07-.03.14-.06.21-.08.2.23.49.34.89.45-.07-.26-.25-.45-.46-.6.06-.02.11-.04.17-.05.21.27.52.45.83.61,0-.27-.11-.51-.36-.73.07-.01.13-.03.2-.04.22.38.5.67.84.92-.03-.36-.17-.68-.44-.98.1-.01.19-.02.29-.03.17.48.42.84.74,1.14.01-.42-.08-.81-.32-1.16.11,0,.22,0,.33,0,.07.53.21.93.48,1.27.06-.41.05-.82-.1-1.24.06,0,.12.02.18.03.02.58.13,1,.39,1.37.09-.43.11-.85-.03-1.29.07.02.14.03.2.05,0,.54.1.94.34,1.29.1-.38.14-.76.06-1.15.05.02.1.04.15.06.06.49.18.86.43,1.18.06-.33.07-.67,0-1.01.34.49.69.92,1.17,1.18-.19-.58-.53-1.06-.91-1.43.33,0,.63-.03.9-.2-.48-.26-.93-.24-1.36-.16-.08-.04-.16-.08-.24-.12.43-.16.81-.3,1.08-.61-.6-.02-1.04.23-1.46.48-.08-.02-.15-.04-.23-.06h0Zm-5.2,7.04c-.2.23-.49.61-.45.65.07,0,.32-.19.56-.33l.06-.02.04,1.4c-.14-.2-.51-.54-.69-.76-.03-.03-.06-.05-.1,0-.04.04-.08.09-.13.14-.17-.19-.42-.44-.56-.61-.03-.03-.06-.05-.1,0-.15.19-.43.45-.6.65l.03-1.14c.17-.11.4-.27.56-.35.14.07.34.2.5.31-.15.16-.26.3-.22.34.07,0,.65-.4.79-.47.09.04.2.11.31.18h0Zm-.63,4.11s.06-.03.1,0c.25.3.83.82.74.9-.07,0-.52-.34-.79-.47-.26.13-.69.47-.79.47-.09-.08.49-.6.74-.9h0Zm-1.41-.42l.02-.88c.17-.11.41-.28.58-.36.14.07.74.47.79.47.04-.04-.08-.19-.24-.36.16-.1.34-.23.47-.29.19.09.47.29.64.4l.03,1.07c-.17-.2-.46-.47-.61-.66-.03-.03-.06-.05-.1,0-.15.18-.42.45-.59.64-.16-.17-.34-.35-.45-.49-.03-.03-.06-.05-.1,0-.11.13-.29.31-.44.47h0Zm1.02-1.28c-.14-.14-.28-.29-.37-.4-.03-.03-.06-.05-.1,0-.13.16-.36.38-.53.57l.03-1.27c.17-.1.46-.32.66-.41.14.07.33.2.49.3-.26.27-.56.57-.49.63.09,0,.52-.34.79-.47.23.11.6.39.74.45l.02.64c-.17-.2-.44-.46-.59-.64-.03-.03-.06-.05-.1,0-.14.17-.38.4-.55.59h0Zm.25-2.6c-.17-.19-.43-.44-.57-.62-.03-.03-.06-.05-.1,0-.13.15-.34.36-.5.54l.03-1.13c.15-.1.33-.22.46-.28.16.08.4.24.57.35-.19.2-.34.38-.3.42.09,0,.52-.34.79-.47.15.07.35.21.52.32l.02.87c-.15-.16-.31-.32-.42-.45-.03-.03-.06-.05-.1,0-.1.12-.26.28-.41.44h0Zm-1.14-1.49l.03-1.29c.06,0,.12-.04.19-.09.03-.02.05-.04.07-.06.03.03.08.04.14.02-.03.01-.05.03-.08.05-.11.09-.16.2-.12.26.04.05.17.03.28-.06.11-.09.16-.2.12-.26-.03-.03-.08-.04-.14-.02.03-.01.05-.03.08-.05.04-.03.08-.07.1-.11,0,.02,0,.04.01.06.04.05.17.03.28-.06.06-.04.1-.1.12-.14.06,0,.13-.03.2-.09.03-.02.05-.05.07-.07.04.05.17.03.28-.06.02-.01.03-.03.04-.04h.02s.02.06.02.08c-.01,0-.02.02-.04.03-.04.03-.08.07-.1.11,0-.02,0-.04-.01-.06-.04-.05-.17-.03-.28.06-.07.05-.11.12-.13.17-.06-.02-.15.02-.24.08-.08.07-.13.15-.13.21-.05.01-.11.04-.16.08-.11.09-.16.2-.12.26.04.05.17.03.28-.06.08-.07.13-.15.13-.21.05-.01.11-.04.16-.08.07-.05.11-.12.13-.17.03,0,.06,0,.1,0-.03.01-.05.03-.08.05-.11.09-.16.2-.12.26.04.05.17.03.28-.06.11-.09.16-.2.12-.26-.03-.03-.08-.04-.14-.02.03-.01.05-.03.08-.05.04-.03.08-.07.1-.11,0,.02,0,.04.01.06.04.05.15.03.25-.04.05.13.11.26.19.37l.04,1.68c-.16-.17-.35-.36-.46-.5-.03-.03-.06-.05-.1,0-.09.11-.21.24-.34.37-.17-.2-.47-.49-.63-.68-.03-.03-.06-.05-.1,0-.1.12-.26.28-.4.43h0Z"/>
    <path class="cls-3" d="m32.89,36.24c.47-.32.88-.64,1.15-1.09-.65.2-1.18.58-1.6,1-.08-.01-.16-.02-.25-.03.46-.38.87-.75,1.1-1.25-.67.27-1.17.73-1.54,1.23-.08,0-.16,0-.24,0,.39-.43.73-.85.88-1.37-.61.35-1.03.87-1.32,1.39-.08,0-.16.01-.24.02.36-.46.66-.91.78-1.43-.58.4-.97.95-1.22,1.5-.09.02-.17.03-.26.05.33-.47.6-.93.68-1.46-.56.43-.91,1-1.13,1.56-.09.02-.18.05-.27.08.29-.48.53-.95.56-1.46-.53.46-.83,1.04-1,1.61-.08.03-.16.06-.24.09.27-.48.5-.96.52-1.45-.52.47-.82,1.08-.96,1.65-.06.03-.12.06-.18.09.04-.13.07-.26.07-.39-.25.18-.41.41-.52.64-.09.05-.17.1-.25.16.02-.11.04-.23.06-.36.45-.34.88-.77,1.13-1.36-.39.17-.71.44-1.01.77.03-.12.06-.24.09-.37.43-.21.94-.63,1.18-1.13-.39.09-.7.35-1.05.63.03-.1.06-.21.09-.32.44-.21.94-.62,1.2-1.12-.38.07-.69.29-1.02.55.03-.1.07-.2.1-.31.44-.21.92-.59,1.18-1.07-.36.06-.66.25-.98.48.04-.1.08-.21.12-.32.44-.23.86-.54,1.17-.99-.34.07-.64.22-.94.4.04-.11.09-.21.13-.32.4-.23.79-.53,1.05-.97-.36.05-.66.22-.95.43l-.02-.02c.27-.37.64-.95.64-1.63-.45.33-.72.94-.85,1.42l-.04-.04s-.02.04-.03.06c-.03-.37-.1-.72-.26-1.04-.13.56-.11,1.13-.03,1.65-.04.1-.09.21-.13.32-.09-.38-.23-.73-.45-1.04-.07.58.05,1.13.24,1.61-.03.09-.07.19-.1.29-.13-.41-.25-.78-.5-1.07-.06.56.1,1.18.32,1.64-.03.09-.06.19-.09.28-.09-.23-.22-.56-.53-.84,0,.63.17,1.06.37,1.37-.03.11-.06.22-.1.34-.12-.33-.24-.63-.47-.86-.06.49.1,1.04.31,1.45-.02.08-.04.16-.06.24-.07-.2-.17-.36-.34-.56-.05.49.08.78.21,1.05-.04.18-.09.36-.13.54-.07-.23-.15-.45-.22-.68.04-.24.04-.47-.01-.67-.05.06-.1.13-.14.22-.02-.05-.04-.11-.06-.16.21-.35.34-.7.36-1.04-.16.11-.35.29-.54.55-.02-.05-.04-.1-.05-.14.29-.36.48-.73.52-1.12-.2.1-.47.29-.71.64-.03-.06-.05-.13-.08-.19.45-.38.62-.69.67-1.17-.5.39-.68.6-.82.8-.03-.07-.06-.15-.09-.22.48-.43.75-.8.8-1.29-.31.25-.67.59-.94.97-.03-.08-.07-.16-.1-.24.48-.41.83-.88,1-1.35-.29.16-.73.5-1.15.99-.03-.06-.05-.12-.08-.19.52-.47.9-.94,1.07-1.41-.31.16-.77.5-1.21,1.11-.04-.08-.07-.16-.11-.24.53-.43.92-.87,1.1-1.33-.31.13-.79.44-1.23,1.04-.04-.08-.08-.16-.11-.24.5-.39.88-.8,1.04-1.27-.29.1-.74.38-1.15.97l.06.2c-.04-.09-.08-.17-.12-.26v-.23c.46-.34.8-.71.95-1.13-.28.09-.73.43-1.13.99h-.01s-.04-.08-.04-.08l.02-.08h0c.34-.42.57-.84.61-1.28-.23.13-.53.49-.77,1.02.09-.87.02-1.23-.14-1.48-.21.31-.23.85-.12,1.32-.3-.25-.58-.39-.78-.41.14.29.37.54.66.76h0c-.26-.06-.52-.09-.75-.11.21.28.55.47.98.61l.08.16c-.43-.2-.82-.26-1.08-.25.29.34.75.57,1.3.74.03.06.06.13.09.19-.5-.21-.97-.33-1.27-.34.32.35.83.58,1.44.72.03.07.06.14.09.21-.58-.21-1.11-.32-1.44-.32.38.33.93.55,1.59.65.03.06.05.13.08.19-.58-.2-1.11-.26-1.44-.26.38.34.95.57,1.61.68.03.07.06.15.09.22-.56-.2-1.08-.25-1.39-.24.37.33.92.56,1.56.65l.06.15c-.51-.15-.98-.18-1.27-.15.33.28.83.46,1.41.52.03.08.06.15.09.23-.47-.18-.89-.22-1.16-.21.31.3.77.5,1.3.57.03.07.05.14.08.21-.31-.13-.57-.17-.77-.18.22.3.56.54.98.74l.08.19c-.27-.16-.51-.23-.69-.26.17.29.47.53.86.74l.02.02c.05.14.11.28.16.42-.23-.25-.46-.39-.63-.46.07.25.22.49.42.72l-.07.05-.03.02c-.1-.05-.2-.11-.3-.16-.09-.47-.32-.95-.82-1.33-.02.4.15.75.38,1.12-.08-.04-.16-.07-.24-.1-.12-.5-.39-1.03-.9-1.43,0,.45.21.85.46,1.26-.1-.04-.2-.07-.3-.11-.09-.49-.32-1-.77-1.42-.03.44.14.86.36,1.29-.08-.02-.16-.05-.24-.07-.09-.5-.32-1.03-.78-1.46-.03.47.16.9.39,1.36-.07-.02-.14-.04-.21-.05-.09-.5-.3-1.01-.77-1.45-.03.48.16.9.4,1.37-.08-.02-.16-.04-.25-.05-.1-.5-.32-1.01-.8-1.42-.02.48.18.9.43,1.35-.1-.02-.21-.04-.31-.06-.05-.46-.23-.93-.7-1.35-.06.45.13.84.38,1.29-.2-.03-.4-.06-.6-.09l.3.03c-.1-.47-.36-.87-.88-1.24,0,.46.26.78.56,1.21-.1-.01-.19-.03-.29-.04-.16-.39-.42-.78-.97-1.11,0,.39.22.7.54,1.05-.07,0-.14-.02-.22-.02-.23-.34-.59-.64-1.16-.87.05.33.29.57.6.81-.09,0-.19-.02-.28-.02-.23-.27-.59-.48-1.16-.53.04.17.19.35.51.56-.31-.02-.7.03-1.1.15.26.18.69.28,1.13.24-.24.17-.5.38-.55.62.57-.05.89-.28,1.06-.56.1,0,.19.01.29.02-.37.21-.63.46-.71.75.35-.04.76-.28,1.2-.71.08,0,.16.02.24.03-.38.25-.67.53-.81.85.34-.06.78-.33,1.29-.8.06,0,.12.01.18.02-.32.25-.57.52-.78.9.34-.06.77-.35,1.24-.83.08.01.16.02.24.04-.49.34-.78.6-.93.88.4-.06.83-.29,1.38-.81.07.01.14.02.2.04-.48.35-.75.66-.89.92.48-.15.91-.4,1.34-.83.06.01.12.03.18.04-.5.38-.79.72-.9,1,.49-.15.93-.44,1.32-.9.08.02.15.04.23.06-.54.39-.8.66-.92.95.5-.16.89-.37,1.31-.85.06.02.12.03.18.05-.5.38-.73.65-.84.93.48-.15.85-.35,1.23-.8.07.02.13.04.2.07-.34.21-.62.44-.77.79.52-.08.86-.35,1.14-.65.06.02.11.04.17.07-.28.21-.57.42-.74.72.48-.08.78-.32,1.05-.59.1.04.19.09.29.13-.1,0-.2.01-.31.03.07.07.14.14.21.19l.09.27c-.2-.05-.43-.07-.67-.03.05.06.11.12.16.16-.11.01-.22.03-.33.05-.21-.08-.45-.12-.71-.1.05.08.11.14.17.2-.05.01-.1.02-.15.03-.23-.23-.69-.4-1.32-.43.18.26.42.4.76.57-.09.03-.18.05-.27.08-.3-.29-.67-.47-1.19-.47.19.32.46.46.78.6-.08.03-.16.06-.24.08-.33-.29-.73-.47-1.27-.43.23.32.53.45.9.58-.07.03-.15.06-.22.09-.38-.26-.82-.44-1.38-.34.27.3.6.42,1,.51-.08.04-.17.08-.25.12h0c-.4-.25-.87-.37-1.44-.23.3.28.65.36,1.06.41-.1.05-.19.1-.29.16-.38-.23-.79-.31-1.32-.17.28.27.58.33.96.38-.06.04-.13.08-.19.11-.4-.16-.84-.19-1.34,0,.28.2.57.25.9.27-.06.04-.12.08-.18.12-.39-.09-.8-.06-1.24.16.3.18.61.2.95.18-.29.2-.61.52-.85.87.36-.03.92-.34,1.28-.75-.26.48-.46.88-.42,1.38.49-.45.72-.95.8-1.47.07-.05.13-.09.2-.14-.23.58-.21.93-.12,1.23.31-.53.45-.85.51-1.49.07-.05.14-.09.21-.13-.16.54-.15.86-.11,1.17.25-.41.4-.73.47-1.39.06-.03.11-.06.17-.09-.18.68-.16.96-.13,1.21.27-.41.44-.73.54-1.42.06-.03.13-.06.19-.09-.23.68-.22.96-.22,1.21.3-.4.49-.7.63-1.39.08-.03.16-.07.24-.1-.29.65-.32.92-.33,1.17.34-.38.55-.67.77-1.33.09-.03.18-.06.26-.09-.45.67-.47.96-.54,1.22.46-.37.63-.64,1.05-1.37.1-.02.19-.05.29-.07-.51.56-.54.73-.68,1.02.53-.33.74-.44,1.24-1.14.05,0,.1-.02.16-.03-.15.21-.2.34-.3.52.37-.22.59-.33.86-.61.13-.02.27-.04.4-.05l.06.18c-.22.05-.45.14-.7.28.2.02.44.04.66.04-.04.03-.09.07-.13.1-.45.02-.91.07-1.45.37.3.04.68.04.96.04-.05.04-.1.09-.15.14-.65-.04-1.21.04-1.52.25.54.07.83.05,1.19.06-.05.04-.09.09-.14.13-.7-.05-1.27-.01-1.61.21.55.17.86.16,1.27.13-.05.06-.11.12-.16.17-.7-.08-1.28-.06-1.62.15.57.2.88.19,1.32.18-.07.08-.13.16-.2.24-.56-.13-1.06-.11-1.58.06.45.23.88.23,1.35.23-.06.08-.12.16-.18.23-.77-.12-1.24-.05-1.61.1.52.25.93.24,1.36.24-.05.08-.11.16-.16.24-.79-.16-1.14-.16-1.52-.02.36.31.75.33,1.33.32-.05.08-.09.15-.14.23-.79-.12-1.11-.1-1.52.06.39.34.72.32,1.31.3-.04.08-.09.16-.13.24-.63-.11-1.14-.08-1.46.1.48.32,1.01.27,1.29.23-.03.06-.06.13-.09.19-.39.17-.72.46-.96.97.4-.03.86-.38,1.22-.71-.05.48-.06,1.03.14,1.37.25-.39.25-1.01.2-1.65.03-.06.05-.12.08-.17.02.43.09.88.31,1.16.2-.42.12-1.06-.03-1.72.03-.05.05-.1.08-.15.12.74.28,1,.42,1.23.13-.52.07-1.01-.16-1.68.05-.07.09-.15.14-.22.1.79.26,1.06.4,1.3.14-.52.09-1-.14-1.69.06-.08.12-.16.18-.24.06.88.21,1.16.36,1.41.17-.54.13-1.04-.08-1.76.07-.08.13-.17.2-.25.03.82.15,1.21.28,1.45.12-.47.14-1.02.07-1.84.05-.06.11-.12.16-.17-.06.86.01,1.27.12,1.52.18-.47.26-1.04.27-1.91.07-.07.19-.13.26-.19l-.19,7.21h.3v-.36c.17-.11.36-.24.5-.31.09.04.75.47.79.47.04-.03-.05-.15-.17-.29.17-.11.38-.26.53-.33.19.09.5.31.67.41l.05,1.99h.3c-.07-2.86-.15-5.68-.22-8.53.05.03.1.06.16.09,0-.19-.04-.37-.12-.57.09.09.19.18.28.27-.08.38-.14.79.14,1.06.15-.2.18-.44.19-.72.06.06.11.13.17.19-.09.44-.14.9.09,1.24.15-.23.21-.51.23-.84.06.08.12.16.19.24-.13.44-.23.91-.02,1.28.18-.23.25-.52.31-.86.06.08.11.17.17.25-.16.47-.3.98-.09,1.37.2-.24.28-.57.35-.95.05.09.1.18.15.27-.18.47-.35,1.02-.11,1.47.21-.24.33-.54.39-.95.04.08.08.17.12.26l-.03.03c-.12.59-.23,1.13-.12,1.55.18-.23.3-.62.34-1.15.03.06.05.13.08.19-.02.5.07.84.29,1.06.19-.26.17-.57.06-.99.34.28.63.42.94.36-.12-.29-.38-.51-.84-.69-.02-.05-.05-.1-.07-.14l.03.04c.62.25,1.07.37,1.44.22-.3-.29-.79-.45-1.59-.5-.04-.09-.08-.17-.12-.25.61.17,1.17.33,1.6.23-.31-.28-.91-.46-1.74-.51-.04-.07-.07-.14-.11-.2h0c.63.17,1.13.23,1.6.08-.32-.27-.92-.41-1.78-.42-.05-.09-.1-.18-.15-.27.6.14,1.1.2,1.55.05-.32-.26-.93-.4-1.77-.4-.06-.09-.12-.18-.18-.26.54.1.97.13,1.36-.06-.29-.24-.83-.34-1.6-.27-.06-.08-.13-.17-.19-.25.47.03.8.06,1.16-.05-.28-.23-.72-.35-1.43-.27-.07-.08-.13-.15-.21-.23.24,0,.45-.02.68-.1-.23-.18-.56-.28-1.03-.26-.08-.08-.16-.15-.24-.23.16,0,.3-.02.46-.07-.2-.17-.48-.29-.89-.31-.12-.1-.24-.2-.36-.3v-.03c.21.08.4.14.61.16-.1-.18-.26-.35-.5-.49l.04-.11c.08.04.17.07.27.1-.02-.07-.05-.15-.09-.22.06,0,.11.01.17.02.09.34.24.63.46.83.02-.24,0-.5-.04-.76.04,0,.09.02.13.03.09.53.24,1.03.56,1.32.03-.38-.03-.78-.14-1.22.08.02.15.04.23.06.08.59.23,1.15.59,1.47.03-.41-.04-.86-.18-1.34.09.03.18.07.28.1.03.58.12,1.13.44,1.48.07-.39.04-.83-.04-1.31.08.04.16.07.24.11.03.67.13,1.31.44,1.72.06-.46.05-.96-.02-1.51.07.04.14.08.21.12.03.71.12,1.4.44,1.82.07-.47.05-1-.03-1.57.05.04.11.07.16.11.03.71.12,1.39.44,1.81.06-.45.05-.95-.02-1.5.07.05.13.11.2.16-.02.66.03,1.29.3,1.69.09-.41.11-.85.1-1.32.05.05.1.1.15.15-.04.56-.02,1.1.25,1.44.09-.3.13-.63.14-.99.22.39.56.87.93,1.03-.05-.54-.32-.91-.65-1.17l.09-.1c.35.13.69.2,1,.17-.32-.4-.68-.53-1.29-.63-.05-.07-.1-.13-.16-.2.52.09,1.01.13,1.42,0-.63-.29-1.23-.37-1.75-.35-.06-.06-.12-.11-.18-.16.51.02.98,0,1.39-.16-.64-.21-1.25-.23-1.79-.16-.08-.06-.15-.11-.23-.16.52-.03.98-.09,1.4-.31-.66-.13-1.26-.09-1.8.06-.08-.05-.17-.1-.26-.15.5-.06.97-.16,1.37-.38-.66-.11-1.29-.02-1.84.15-.08-.04-.17-.08-.25-.11.54-.07,1.02-.19,1.45-.43-.71-.12-1.38.03-1.95.23-.07-.02-.13-.05-.2-.07.47-.12.93-.27,1.27-.55-.61-.05-1.25.14-1.73.4-.09-.03-.18-.05-.28-.08.36-.11.77-.26,1.12-.6-.64-.03-1.2.2-1.62.48-.12-.03-.24-.05-.37-.08.43-.12.82-.27,1.13-.56-.51-.06-.99.07-1.43.28l-.23-.1s0,.05,0,.08l-.21-.15c.3.02.62-.04.94-.23-.3-.14-.63-.1-.98-.04.19-.11.39-.21.6-.31.21.19.5.23.86.23-.1-.16-.29-.31-.45-.41.07-.03.14-.06.21-.08.2.23.49.34.89.45-.07-.26-.25-.45-.46-.6.06-.02.11-.04.17-.05.21.27.52.45.83.61,0-.27-.11-.51-.36-.73.07-.01.13-.03.2-.04.22.38.5.67.84.92-.03-.36-.17-.68-.44-.98.1-.01.19-.02.29-.03.17.48.42.84.74,1.14.01-.42-.08-.81-.32-1.16.11,0,.22,0,.33,0,.07.53.21.93.48,1.27.06-.41.05-.82-.1-1.24.06,0,.12.02.18.03.02.58.13,1,.39,1.37.09-.43.11-.85-.03-1.29.07.02.14.03.2.05,0,.54.1.94.34,1.29.1-.38.14-.76.06-1.15.05.02.1.04.15.06.06.49.18.86.43,1.18.06-.33.07-.67,0-1.01.34.49.69.92,1.17,1.18-.19-.58-.53-1.06-.91-1.43.33,0,.63-.03.9-.2-.48-.26-.93-.24-1.36-.16-.08-.04-.16-.08-.24-.12.43-.16.81-.3,1.08-.61-.6-.02-1.04.23-1.46.48-.08-.02-.15-.04-.23-.06h0Zm-5.2,7.04c-.2.23-.49.61-.45.65.07,0,.32-.19.56-.33l.06-.02.04,1.4c-.14-.2-.51-.54-.69-.76-.03-.03-.06-.05-.1,0-.04.04-.08.09-.13.14-.17-.19-.42-.44-.56-.61-.03-.03-.06-.05-.1,0-.15.19-.43.45-.6.65l.03-1.14c.17-.11.4-.27.56-.35.14.07.34.2.5.31-.15.16-.26.3-.22.34.07,0,.65-.4.79-.47.09.04.2.11.31.18h0Zm-.63,4.11s.06-.03.1,0c.25.3.83.82.74.9-.07,0-.52-.34-.79-.47-.26.13-.69.47-.79.47-.09-.08.49-.6.74-.9h0Zm-1.41-.42l.02-.88c.17-.11.41-.28.58-.36.14.07.74.47.79.47.04-.04-.08-.19-.24-.36.16-.1.34-.23.47-.29.19.09.47.29.64.4l.03,1.07c-.17-.2-.46-.47-.61-.66-.03-.03-.06-.05-.1,0-.15.18-.42.45-.59.64-.16-.17-.34-.35-.45-.49-.03-.03-.06-.05-.1,0-.11.13-.29.31-.44.47h0Zm1.02-1.28c-.14-.14-.28-.29-.37-.4-.03-.03-.06-.05-.1,0-.13.16-.36.38-.53.57l.03-1.27c.17-.1.46-.32.66-.41.14.07.33.2.49.3-.26.27-.56.57-.49.63.09,0,.52-.34.79-.47.23.11.6.39.74.45l.02.64c-.17-.2-.44-.46-.59-.64-.03-.03-.06-.05-.1,0-.14.17-.38.4-.55.59h0Zm.25-2.6c-.17-.19-.43-.44-.57-.62-.03-.03-.06-.05-.1,0-.13.15-.34.36-.5.54l.03-1.13c.15-.1.33-.22.46-.28.16.08.4.24.57.35-.19.2-.34.38-.3.42.09,0,.52-.34.79-.47.15.07.35.21.52.32l.02.87c-.15-.16-.31-.32-.42-.45-.03-.03-.06-.05-.1,0-.1.12-.26.28-.41.44h0Zm-1.14-1.49l.03-1.29c.06,0,.12-.04.19-.09.03-.02.05-.04.07-.06.03.03.08.04.14.02-.03.01-.05.03-.08.05-.11.09-.16.2-.12.26.04.05.17.03.28-.06.11-.09.16-.2.12-.26-.03-.03-.08-.04-.14-.02.03-.01.05-.03.08-.05.04-.03.08-.07.1-.11,0,.02,0,.04.01.06.04.05.17.03.28-.06.06-.04.1-.1.12-.14.06,0,.13-.03.2-.09.03-.02.05-.05.07-.07.04.05.17.03.28-.06.02-.01.03-.03.04-.04h.02s.02.06.02.08c-.01,0-.02.02-.04.03-.04.03-.08.07-.1.11,0-.02,0-.04-.01-.06-.04-.05-.17-.03-.28.06-.07.05-.11.12-.13.17-.06-.02-.15.02-.24.08-.08.07-.13.15-.13.21-.05.01-.11.04-.16.08-.11.09-.16.2-.12.26.04.05.17.03.28-.06.08-.07.13-.15.13-.21.05-.01.11-.04.16-.08.07-.05.11-.12.13-.17.03,0,.06,0,.1,0-.03.01-.05.03-.08.05-.11.09-.16.2-.12.26.04.05.17.03.28-.06.11-.09.16-.2.12-.26-.03-.03-.08-.04-.14-.02.03-.01.05-.03.08-.05.04-.03.08-.07.1-.11,0,.02,0,.04.01.06.04.05.15.03.25-.04.05.13.11.26.19.37l.04,1.68c-.16-.17-.35-.36-.46-.5-.03-.03-.06-.05-.1,0-.09.11-.21.24-.34.37-.17-.2-.47-.49-.63-.68-.03-.03-.06-.05-.1,0-.1.12-.26.28-.4.43h0Z"/>
    <path class="cls-4" d="m48.13,43.85c-3.06,3.93-7.83,6.45-13.19,6.45-4.29,0-8.21-1.62-11.17-4.28l-4.07,4.77c4.05,3.59,9.39,5.78,15.23,5.78,6.75,0,12.82-2.91,17.02-7.54l-3.83-5.18h0Z"/>
    <path class="cls-5" d="m14.05,35.56v-.58s.89-.64.89-.64v-.15s-.91.02-.91.02v-.48s2.3-.04,2.3-.04v.72c.02.16,0,.3-.04.41-.04.11-.09.2-.15.27-.06.07-.14.12-.22.15-.08.03-.17.05-.27.05-.08,0-.16,0-.23-.03-.07-.02-.13-.06-.18-.1-.05-.04-.1-.09-.14-.15-.04-.06-.07-.12-.09-.18l-.96.73h0Zm1.57-.77c.11,0,.19-.03.25-.1.06-.06.09-.15.08-.27v-.26s-.66.01-.66.01v.26c0,.11.04.2.1.26.06.06.14.09.24.09h0Zm.57,2.22l-.12-.89-.49.07.11.86-.4.05-.11-.86-.57.08.12.92-.42.06-.19-1.4,2.29-.31.18,1.37-.42.06h0Zm.82-.34l-.35-.62.26-.16.4.59-.32.2h0Zm-.8,1.91s.09-.03.13-.05c.04-.02.07-.06.1-.09.02-.04.04-.08.05-.14,0-.05,0-.11-.01-.18l-.05-.24-.7.16.05.23c.02.08.04.14.07.19.03.05.07.08.11.1.04.02.08.03.13.04.04,0,.09,0,.13-.01h0Zm.48-1.26l.17.72c.03.12.04.24.03.35,0,.11-.03.21-.07.3-.04.09-.1.17-.18.23-.08.07-.18.11-.31.14-.23.05-.42.02-.59-.09-.16-.11-.28-.31-.35-.61l-.05-.23-.8.18-.11-.47,2.25-.52h0Zm-1.55,3.31c-.04-.12-.06-.23-.06-.34,0-.11.03-.22.07-.32.05-.1.13-.19.23-.27.1-.08.24-.15.42-.21l1.33-.43.15.46-1.36.44c-.16.05-.28.13-.35.22-.07.09-.08.2-.05.32.02.07.06.13.1.17.04.04.09.07.15.08.06.01.12.02.18.01.07,0,.14-.02.21-.05l1.36-.44.15.46-1.32.43c-.17.06-.32.08-.45.08-.13,0-.25-.03-.35-.08-.1-.05-.18-.12-.25-.21-.07-.09-.12-.2-.16-.32h0Zm2.7.35l.26.58c.05.11.08.21.1.31.02.1.02.19,0,.27-.02.08-.05.16-.1.22-.05.07-.12.12-.21.16-.06.03-.12.04-.18.04-.06,0-.11,0-.16-.02-.05-.02-.1-.04-.15-.08-.05-.03-.09-.07-.12-.12h0c.03.09.04.17.03.24,0,.08-.02.14-.05.21-.03.06-.07.12-.12.16-.05.05-.1.08-.17.11-.1.04-.19.06-.28.06-.09,0-.18-.03-.26-.07s-.16-.1-.22-.18c-.07-.08-.12-.17-.17-.27l-.31-.69,2.1-.95h0Zm-1.02,1.64c.09-.04.15-.1.17-.19.03-.09.02-.19-.03-.3l-.09-.21-.61.27.1.23c.05.11.11.18.19.21.08.03.17.03.27-.02h0Zm.84-.5c.08-.04.13-.09.14-.16.02-.07,0-.16-.04-.26l-.07-.15-.51.23.07.16c.05.1.11.17.17.2.07.03.14.02.23-.02h0Zm.99.49l.24.42-1.64.93.46.81-.37.21-.7-1.23,2.01-1.14h0Zm.81,1.34l.28.4-1.89,1.33-.28-.4,1.89-1.33h0Zm-.24,3.42c-.16-.07-.29-.17-.41-.31-.14-.16-.23-.32-.27-.49-.04-.17-.05-.33-.03-.48.02-.15.08-.29.16-.43.08-.13.17-.24.28-.34.12-.11.26-.19.42-.24.15-.05.31-.07.46-.06.16,0,.31.05.46.12.15.07.28.17.4.31.12.14.21.29.26.45.05.16.06.32.04.47-.02.15-.06.3-.14.44-.08.14-.17.26-.3.36-.13.11-.28.2-.44.25-.16.05-.32.07-.48.05l-.09.48-.4-.08.09-.51h0Zm.04-1.67c-.09.07-.15.16-.2.25-.05.09-.08.19-.09.28-.01.1,0,.19.02.29.03.09.07.18.14.26.05.06.11.1.17.14l.08-.47.4.08-.09.5c.09,0,.18-.02.27-.05.09-.03.17-.08.25-.15.08-.07.15-.15.2-.24.05-.09.08-.18.1-.28.01-.09,0-.19-.02-.28-.03-.09-.08-.18-.15-.27-.07-.08-.15-.14-.24-.18-.09-.04-.18-.06-.28-.07-.1,0-.19.01-.29.05-.1.04-.19.09-.28.16h0Zm1.3,3.2c-.09-.08-.16-.18-.21-.27-.05-.1-.08-.2-.09-.32,0-.11.02-.23.07-.35.05-.12.14-.25.27-.38l.96-1.01.35.33-.99,1.04c-.12.12-.18.24-.2.36-.02.12.02.22.11.3.06.05.11.09.17.1.06.01.11.01.17,0,.06-.01.11-.04.17-.08.05-.04.11-.08.16-.14l.99-1.04.35.33-.96,1.01c-.12.13-.24.23-.36.29-.12.06-.23.1-.34.1-.11,0-.22-.02-.32-.06-.1-.05-.2-.11-.3-.2h0Zm3.36.26l-.7-.55-.31.39.68.53-.25.31-.68-.53-.35.45.73.57-.26.33-1.11-.87,1.42-1.82,1.08.85-.26.33h0Zm1.18.26l.42.24-1.15,2.01-.42-.24,1.15-2.01h0Zm1.46,1.49c.03-.08.04-.15.02-.22-.02-.07-.07-.12-.14-.16-.07-.04-.13-.04-.2-.03-.06.02-.11.06-.15.12-.04.08-.04.15,0,.23.04.08.11.16.2.25.17.18.28.35.3.51.03.16,0,.32-.08.47-.04.07-.09.14-.16.2-.07.06-.15.11-.23.14-.09.03-.19.04-.29.04-.11,0-.22-.04-.34-.1-.1-.05-.19-.12-.26-.19-.07-.07-.12-.15-.15-.24s-.05-.19-.04-.29c0-.1.03-.21.08-.32l.42.22c-.04.1-.05.19-.03.28.02.08.08.15.17.2.08.04.16.05.24.02.08-.03.13-.08.17-.15.04-.09.05-.17.02-.25-.03-.08-.1-.18-.21-.29-.17-.17-.27-.34-.29-.49-.03-.15,0-.3.07-.44.04-.09.1-.16.17-.21.07-.05.15-.09.23-.11.08-.02.17-.02.27,0,.09.01.19.05.28.09.1.05.18.11.24.18.06.07.11.15.14.23.03.08.04.17.04.26,0,.09-.03.18-.07.27l-.41-.21h0Zm.96-.21l.45.17-.68,1.76.87.34-.15.39-1.32-.51.83-2.15h0Zm2.15.77l.44.13.18,2.45-.48-.14-.03-.55-.82-.24-.32.45-.47-.14,1.5-1.97h0Zm-.51,1.35l.6.17-.03-.58c0-.07,0-.13,0-.19,0-.06,0-.12,0-.18h-.02c-.06.1-.13.21-.21.31l-.34.47h0Zm3.9,1.65l-.46-.06.04-1.14s0-.08,0-.13c0-.05,0-.09,0-.14,0-.05,0-.09,0-.13,0-.04,0-.08,0-.12h-.02c-.03.07-.06.15-.1.24-.04.09-.07.17-.11.25l-.48,1.08-.34-.04-.19-1.18c-.01-.07-.03-.16-.04-.24-.01-.09-.02-.18-.03-.26h-.03c-.01.07-.03.15-.05.24-.02.09-.04.16-.05.24l-.27,1.13-.43-.06.58-2.25.53.07.19,1.13c.01.07.02.14.04.22.01.08.02.15.03.22h.01c.02-.06.05-.13.09-.2.03-.08.06-.14.09-.2l.47-1.04.53.07-.02,2.33h0Zm.64-2.28l.48.04-.17,2.3-.48-.04.17-2.3h0Zm2.49,2.29c-.15.08-.32.11-.5.12-.21,0-.4-.03-.55-.1-.16-.07-.28-.17-.39-.28-.1-.12-.18-.25-.23-.39-.05-.14-.08-.29-.08-.43,0-.16.02-.32.08-.47.06-.15.14-.28.25-.4.11-.11.24-.21.38-.28.15-.07.31-.11.49-.11.19,0,.36.03.51.09.15.06.28.15.39.27.11.11.19.24.25.39.06.15.09.3.09.46,0,.18-.03.34-.09.5-.06.15-.15.29-.27.4l.32.37-.31.26-.34-.4h0Zm-1.26-1.1c0,.11.02.22.06.31.04.1.09.18.16.25.07.07.15.12.24.16s.19.06.29.06c.07,0,.15-.02.22-.04l-.31-.36.31-.26.32.39c.06-.07.1-.15.13-.24.03-.09.04-.18.04-.29,0-.11-.02-.21-.06-.31-.04-.1-.09-.18-.15-.25-.06-.07-.14-.12-.23-.17-.09-.04-.19-.06-.3-.06-.1,0-.2.02-.29.07-.09.04-.17.1-.23.17-.07.07-.12.16-.15.26-.04.1-.05.2-.05.32h0Zm3.29.97c-.12.02-.24.02-.35,0-.11-.02-.21-.06-.3-.12-.09-.06-.17-.15-.24-.27-.07-.12-.12-.26-.15-.44l-.24-1.38.48-.08.24,1.41c.03.17.08.29.17.37.08.08.19.11.31.09.08-.01.14-.04.18-.07.05-.04.08-.08.1-.13.02-.05.03-.11.04-.18,0-.07,0-.14-.02-.21l-.24-1.41.47-.08.23,1.37c.03.18.03.33.01.46-.02.13-.06.24-.13.33-.06.09-.14.16-.24.22-.1.05-.21.09-.34.11h0Zm2.19-2.51l-.86.25.14.48.83-.24.11.38-.83.24.16.55.89-.26.12.4-1.36.39-.64-2.22,1.32-.38.12.4h0Zm1.67-1.03c.19-.09.37-.13.54-.14.17,0,.32.01.47.06.14.05.26.13.37.24.11.11.19.23.26.37.06.14.1.29.11.44,0,.15-.02.3-.08.44-.06.14-.14.27-.26.39-.12.12-.27.22-.46.31l-.72.32-.95-2.1.72-.33h0Zm.76,1.72c.12-.06.22-.12.3-.2.08-.08.13-.16.16-.24.03-.09.04-.18.04-.27,0-.09-.03-.19-.07-.28-.04-.1-.1-.18-.17-.25-.07-.07-.14-.12-.23-.15-.09-.03-.18-.04-.29-.03-.1,0-.22.04-.34.09l-.27.12.6,1.33.27-.12h0Zm2.03-2.68l-.78.44.25.43.75-.43.2.35-.75.43.28.5.81-.46.21.37-1.23.7-1.14-2.01,1.2-.68.21.37h0Zm4.06-.63l-.37.29-.79-.82s-.06-.06-.09-.09c-.03-.03-.06-.07-.09-.1-.03-.03-.06-.06-.09-.1-.03-.03-.06-.06-.08-.09h-.02c.03.08.06.16.1.25.04.09.07.17.1.25l.43,1.1-.27.21-.98-.69c-.06-.04-.13-.09-.2-.14-.07-.05-.14-.11-.21-.16l-.02.02c.04.06.09.13.14.2.05.07.09.14.13.2l.62.98-.34.27-1.21-1.99.42-.33.94.65c.06.04.12.08.18.13.07.05.12.09.17.13h.01c-.03-.07-.05-.14-.08-.21-.03-.08-.06-.14-.08-.2l-.41-1.06.42-.33,1.65,1.64h0Zm-.86-2.42l.31-.33,2.26.97-.34.36-.5-.23-.59.62.26.49-.34.35-1.06-2.24h0Zm.97,1.07l.43-.45-.53-.24c-.06-.03-.12-.06-.17-.08-.05-.03-.1-.05-.16-.08h-.01c.07.12.13.23.18.34l.27.52h0Zm2.44-1.33c-.08.1-.16.17-.25.24-.09.06-.19.1-.31.12-.11.02-.23,0-.36-.04-.13-.04-.26-.12-.41-.23l-1.1-.86.3-.38,1.13.88c.13.1.26.16.38.16.12,0,.21-.04.29-.14.05-.06.08-.12.08-.18,0-.06,0-.11-.02-.17-.02-.05-.05-.11-.09-.16-.04-.05-.09-.1-.15-.15l-1.13-.88.3-.38,1.09.86c.14.11.25.22.32.33.07.11.12.22.13.33.01.11,0,.22-.03.33-.04.11-.09.21-.17.31h0Zm1.77-2.75l-.31.49-1.1.04-.08.13.77.49-.26.41-1.95-1.24.38-.61c.09-.14.18-.24.27-.32.09-.07.18-.12.28-.15.09-.02.18-.03.27,0,.09.02.17.05.25.11.07.04.13.1.17.15.04.06.08.12.1.18.02.06.03.13.03.2,0,.07,0,.14-.03.2l1.21-.08h0Zm-1.74-.22c-.09-.06-.18-.08-.26-.06-.08.02-.15.08-.22.18l-.14.22.56.35.14-.22c.06-.09.08-.18.06-.27-.02-.08-.07-.15-.15-.2h0Zm-.18-1.15l.22-.43,2.05,1.07-.22.43-2.05-1.07h0Zm.96-.98l-.23.5-.38-.17.66-1.44.38.17-.23.5,1.72.79-.2.44-1.72-.79h0Zm.3-1.92l.15-.43,2.46-.05-.16.47h-.55s-.28.81-.28.81l.44.34-.16.46-1.89-1.6h0Zm1.33.57l.2-.59h-.58c-.07,0-.13,0-.19,0-.06,0-.12,0-.18,0v.02c.1.07.2.14.29.22l.46.36h0Zm-.11-2.09s.06,0,.1.01c.04,0,.08,0,.12.02.04,0,.08.01.12.02.04,0,.07.01.1.01l1.13.19-.07.41-2.28-.39.07-.41,1.09-.47c.09-.04.17-.07.24-.1.07-.03.13-.05.18-.07.05-.02.1-.04.14-.05.04-.01.08-.02.11-.03h0s-.06-.02-.1-.03c-.04,0-.07-.01-.11-.02-.04,0-.07-.01-.11-.02-.04,0-.07,0-.09-.01l-1.17-.2.07-.41,2.28.39-.07.41-.99.43c-.11.05-.21.09-.29.12-.08.03-.15.06-.2.08-.06.02-.1.04-.14.05-.04.02-.07.03-.11.04h0Zm-.4-2.01l.06-.48,2.29.31-.06.48-2.29-.31h0Zm.57-2.16l-.02.89h.5s.02-.85.02-.85h.4s-.02.87-.02.87h.57s.02-.92.02-.92h.42s-.03,1.42-.03,1.42l-2.31-.04.03-1.38h.42Z"/>
  </g>
  <text class="cls-6" transform="translate(64.06 40.18)"><tspan x="0" y="0">PORTAIL PBF</tspan></text>
</svg>