<?xml version="1.0" encoding="UTF-8"?>
<svg id="Layer_1" data-name="Layer 1" xmlns="http://www.w3.org/2000/svg" viewBox="0 0 487 112">
  <defs>
    <style>
      .cls-1 {
        fill: #00a753;
      }

      .cls-1, .cls-2, .cls-3, .cls-4 {
        fill-rule: evenodd;
      }

      .cls-5, .cls-6, .cls-7, .cls-8 {
        fill: #4d4d4d;
      }

      .cls-5, .cls-6, .cls-8 {
        font-family: LouguiyaFR, LouguiyaFR;
      }

      .cls-5, .cls-8 {
        font-size: 12px;
      }

      .cls-2 {
        fill: #ffdf00;
      }

      .cls-9 {
        letter-spacing: .1em;
      }

      .cls-6 {
        font-size: 14px;
        letter-spacing: .2em;
      }

      .cls-10, .cls-3 {
        fill: #fed600;
      }

      .cls-11 {
        fill: none;
        stroke: #00a753;
        stroke-miterlimit: 2.61;
        stroke-width: .77px;
      }

      .cls-7 {
        font-family: LouguiyaFR-Bold, LouguiyaFR;
        font-size: 24px;
        font-weight: 700;
        letter-spacing: -.03em;
      }

      .cls-12 {
        fill: #b3b3b3;
      }

      .cls-13 {
        letter-spacing: .02em;
      }

      .cls-4 {
        fill: #ce1f26;
      }

      .cls-8 {
        letter-spacing: -.02em;
      }
    </style>
  </defs>
  <g>
    <path class="cls-1" d="m56.95,24.13c18.48,0,33.46,14.98,33.46,33.46s-14.98,33.46-33.46,33.46-33.46-14.98-33.46-33.46,14.98-33.46,33.46-33.46h0Z"/>
    <path class="cls-3" d="m56.95,26.89l3.79,11.74,12.34-.02-10,7.23,3.84,11.73-9.97-7.27-9.97,7.27,3.84-11.73-10-7.23,12.34.02,3.79-11.74h0Zm18.42,9c7.01,5.54,11.52,14.17,11.52,23.87,0,16.72-13.4,30.28-29.93,30.28s-29.93-13.56-29.93-30.28c0-9.7,4.51-18.33,11.52-23.87h0c.57-.42,1.08-.61,1.18-.47.09.14-.13.33-.58.8-4.54,4.55-7.35,10.82-7.35,17.75,0,13.88,11.27,25.14,25.17,25.14s25.17-11.25,25.17-25.14c0-6.93-2.81-13.21-7.35-17.75h0c-.45-.47-.68-.67-.58-.8.1-.15.61.05,1.18.47h0Zm-.6.34h0,0Z"/>
    <path class="cls-3" d="m56.95,23.5c18.83,0,34.1,15.27,34.1,34.1s-15.27,34.1-34.1,34.1-34.1-15.27-34.1-34.1,15.27-34.1,34.1-34.1h0Zm0,1.11c18.22,0,32.98,14.77,32.98,32.98s-14.77,32.98-32.98,32.98-32.98-14.77-32.98-32.98,14.77-32.98,32.98-32.98h0Z"/>
    <path class="cls-3" d="m56.95,9.12c26.77,0,48.47,21.7,48.47,48.47s-21.7,48.47-48.47,48.47S8.47,84.37,8.47,57.6,30.17,9.12,56.95,9.12h0Zm0,1.58c25.9,0,46.89,20.99,46.89,46.89s-20.99,46.89-46.89,46.89S10.06,83.49,10.06,57.6,31.05,10.71,56.95,10.71h0Z"/>
    <path class="cls-4" d="m22.85,57.6c0-18.83,15.27-34.1,34.1-34.1s34.1,15.27,34.1,34.1-15.27,34.1-34.1,34.1-34.1-15.27-34.1-34.1h0Zm80.99,0c0-25.9-20.99-46.89-46.89-46.89S10.06,31.7,10.06,57.6s20.99,46.89,46.89,46.89,46.89-20.99,46.89-46.89h0Z"/>
    <path class="cls-3" d="m73.53,18.4l1.53-.61.49.28c-.47.86-.82,1.74-.84,2.7-.36-.18-.56-.41-.7-.62-.68,1.63-2.07,2.92-3.41,3.26l.1-.52c1.21-1.08,2.22-2.83,2.83-4.49h0Z"/>
    <path class="cls-3" d="m34.45,21.8l.07-1.65.45-.34c.6.78,1.26,1.45,2.13,1.87-.31.26-.6.35-.85.39,1.22,1.28,1.83,3.08,1.6,4.44l-.44-.31c-.5-1.54-1.69-3.18-2.96-4.4h0Z"/>
    <path class="cls-3" d="m29.22,29.05c.07.09-1.01,1.26-.76-.12.03-.19.34-.41.76.12h0Zm2.31-1.39c-.08-.07-.12-.25-.06-.63.02-.16.27-.28.56-.1.54.35-.39.82-.5.73h0Zm.44-5.12c-.47-.54-.09-1.64.19-1.6.66.1,1.27,1.06,1.85,1.56.08.07-.23.05-.79-.06-.02,0,.59.64,1.04,1.56.23.46.61,1.01.64,1.5.04.77-.5,1.43-1.58,1.64l-.16.03c.08.62-.05,1.05-.39,1.28-.73.48-1.37-.16-1.88.16-.04.12-.05.42-.22.81l-.72.69c-.24.42-.72.87-1.38.6-1.55-1.18-1.29-2.69-.91-2.93.61-.38,1.31-.34,2.29.41.14-.18.28-.38.33-.46.3-.52.31-.96.34-1.28.09-1.18,1.04-.49,1.78-.52.51-.02,1.28-.21,1.46-.74.04-.1.03-.2-.04-.29-.49-.67-.72-1.07-1.85-2.36h0Z"/>
    <path class="cls-3" d="m26.43,31.96c-.09-.11-.39-.28-.48-.21-.69.55-.86.4-.98-.3-.02-.09-.22-.95-.23-1.47-.01-.72.2-.92.69-.6,1.09.72,2.71,2.16,2.82,3.68.07,1-.52,1.94-1.29,2.86-.14-.09-.2-.17-.16-.27.49-1.49.53-2.38-.37-3.69h0Z"/>
    <path class="cls-3" d="m24.29,35.23c-.08-.12-.38-.34-.45-.26-.49.61-.65.29-.94-.41-.04-.09-.19-.62-.21-1.14-.02-.56.45-.9.91-.52,1.01.84,1.95,1.6,1.96,3.12,0,1.15-1.02,2.01-2.15,2.18,0,.26,0,.49,0,.69h0c-.09,2.64-1.58,3.73-4.09,2.2-.34-.2-.59-.25-.98-.33-.2-.04-.43-.05-.82-.04-.21.05-.39-.14-.41-.22-.12-.41-.87-1.19.3-1.06.43.05.81.13,1.29.35.54.25.77.35,1.26.64,2.08.74,2.45-1.81,2.21-2.97-.12-.6,0-1.01.47-.75.16.09.3.15.42.14.81-.05,1.56-.89,1.25-1.63h0Z"/>
    <path class="cls-3" d="m24.32,40.75l-.29-.76c-.04-.09.01-.2.1-.24l.76-.29s.04-.01.06-.01l-.25-.64c-.04-.09.01-.2.1-.24l.76-.29c.09-.04.2.01.24.1l.29.76c.04.09-.01.2-.1.24l-.76.29s-.04.01-.06.01l.25.64c.04.09-.01.2-.1.24l-.76.29c-.09.04-.2-.01-.24-.1h0Z"/>
    <path class="cls-3" d="m19.64,37.67l-.35-.73c-.04-.09,0-.2.09-.24l.73-.35s.04-.01.05-.02l-.3-.61c-.04-.09,0-.2.09-.24l.73-.35c.09-.04.2,0,.24.09l.35.73c.04.09,0,.2-.09.24l-.73.35s-.04.01-.05.02l.3.61c.04.09,0,.2-.09.24l-.73.35c-.09.04-.2,0-.24-.09h0Z"/>
    <path class="cls-3" d="m20.96,49.22l-.54-.61c-.07-.08-.06-.19.01-.26l.61-.54s.03-.02.05-.03l-.45-.51c-.07-.08-.06-.19.01-.26l.61-.54c.08-.07.19-.06.26.01l.54.61c.07.08.06.19-.01.26l-.61.54s-.03.02-.05.03l.45.51c.07.08.06.19-.02.26l-.61.54c-.08.07-.19.06-.26-.01h0Z"/>
    <path class="cls-3" d="m14.1,53.24l-.6-.55c-.07-.07-.08-.18-.01-.26l.55-.6s.03-.03.04-.04l-.5-.46c-.07-.07-.08-.18-.01-.26l.55-.6c.07-.07.18-.08.26-.01l.6.55c.07.07.08.18.01.26l-.55.6s-.03.03-.04.04l.5.46c.07.07.08.18.01.26l-.55.6c-.07.07-.18.08-.26.01h0Z"/>
    <path class="cls-3" d="m50,19.26c-.04-.1,0-.28.23-.6.09-.13.37-.13.55.16.33.55-.71.57-.77.43h0Zm-.29-1.48c.6-1.02,1.15.02,1.82.32.11.05.23.09.36.13-.09.76-.2,2.18-1.15,2.3-.87.1-1.15-.75-1.76-.7-.61.58-.95,1.1-2.22.41-.7,1.2-2.82,2.3-4.28.85-.73,1.34-2.09,1.96-2.56.57-.5-1.48,1.59-2.36,1.85-2.38-.03-.38.13-.71.31-.82.32-.19.75.05.75.13,0,.87.26,1.38.61,1.62.56.39,1.86.07,2.21-.34.22-.18.28-.53.55-.98.31-.53.6-.81.82-.33.07.16.15.3.25.36.96.61,1.97-.37,2.43-1.16h0Zm-7.75,2.71c-.5.82-1.22.97-1.12.49.15-.39.77-.84,1-.8l.12.31h0Z"/>
    <path class="cls-3" d="m18.9,43.86c-.12-.08-.49-.16-.52-.06-.2.76-.49.52-1.03,0-.07-.07-.42-.5-.64-.96-.24-.51.06-1,.63-.83,1.26.37,2.42.7,3.03,2.09.45,1.04-.01,2.43-1.01,3,.12.23.22.43.3.62h0c.05.13.1.26.13.41h0s0,0,0,0c.01.05.03.1.04.14h0s.01.05.02.07c.21,1.1-.55,2.19-1.51,2.46.86,1.26.81,2.74-.64,2.54-1.55-.22-1.39-2.48-1.29-2.72-.35-.14-.58-.43-.59-.65-.02-.37.38-.64.46-.6.78.4,1.34.39,1.73.19.6-.32.75-1.14.53-1.63-.07-.28-.34-.49-.63-.93-.33-.51-.45-.9.08-.88.18,0,.32-.02.44-.06.74-.29,1.13-1.56.47-2.2h0Zm-1.33,7.15c.5.82.31,1.53-.07,1.23-.28-.31-.4-1.07-.27-1.25l.33.03h0Z"/>
    <path class="cls-3" d="m65.35,21.7c.02-.17.07-.25.17-.27.28-.04.54-.08.77-.14.58-.17,1.35-.42,2.07-.81.12-.95-.06-2.02-.54-2.96l-.4.3s-.83-.9-.87-1.3c.03-.81,1.41-1.56,1.73-1.02.57.94,1.19,3.03.85,4.5.92-.7,1.57-1.7,1.33-3.17-.12-.7,1.18-1.15,1.33-.91.36.56.04,1.66.04,2.42,0,.11-.19-.14-.47-.63,0-.01-.1.86-.49,1.81-.43,1.02-1.36,2.08-2.47,2.42-.83.25-2.22-.03-3.05-.23h0Z"/>
    <path class="cls-3" d="m56.61,18.94c.41,1.27,2.07,1.67,3.69.63.38,1.1,1.78.91,2.57.43,1.93,1.55,3.84-.55,3.08-2.57l-.96.63c.29,1.7-1.84,1.37-1.06-.03.07-.24-.71-.2-.83.11l-.24.34c-.61.88-1.61.63-1.56-.25.01-.2.12-.44.2-.63.07-.24-.64-.2-.74.11-.87,1.38-3.68,1.71-3.44-.84.04-.38.05-.83.09-1.32.04-.54.04-1.07-.07-1.49-.3-1.14-.76-.16-1.1.1-.07.05-.18.29-.06.47.15.36.22.58.26.78.17,1.06-.18,2.14-.89,2.94.05-1.5-.97-3.43-1.71-4.24-.42-.46-1.63.54-1.5,1.34.12.38,1.08,1.14,1.11,1.11l.34-.37c.66.83,1.04,1.83,1.11,2.79-.63.52-1.33.92-1.87,1.2-.22.1-.46.19-.73.29-.1.03-.13.13-.12.3.85.03,2.27.04,3.04-.37.58-.31,1.06-.84,1.4-1.43h0Z"/>
    <path class="cls-3" d="m99.65,50.87l1.48.72.13.55c-.96.24-1.83.57-2.56,1.2-.11-.39-.08-.69-.02-.94-1.66.6-3.55.45-4.71-.31l.46-.28c1.61.16,3.59-.28,5.22-.95h0Z"/>
    <path class="cls-3" d="m91.95,37.03c.27-.14,2.13-.3,1.87.19-.42.82-1.6-.12-1.87-.19h0Zm1.15,5.05c.09-.06.28-.04.62.15.14.07.18.36-.1.59-.51.42-.65-.66-.52-.74h0Zm-2.61-7.55c-.11.04-.87-1.4.36-.73.17.09.28.47-.36.73h0Zm-1.24.39c-.32-.37-.6-.99-.13-1.56,1.61-1.2,2.96-.47,3.07,0,.17.73-.09,1.42-1.13,2.17-.08.5.16.62.28.82,1.52-.53,2.95-.49,3.4.11.43.56.16,1.61-1.81,2.17-.01,1.08.01,1.51.52,2.18.39.47.8.62,1.1.75,1.08.47.11,1.2-.1,1.94-.27.91.06,2.89,1.26,3.79.65-.86.34-1.78-.65-2.75l.6-.98c1.06.58,1.52,1.09,1.84,1.95.43,1.14-.43,3.62,1.4,2.77.06-.45.25-.67.69-.86l1.26.56-.14.58c-.67.19-1.17.65-1.62,1.2,0,0-.26-.34-.23-.78-2.03.58-1.39-.97-2.4-1.28-.17.63-.13,1.36.05,2.15l-1.53.68c.45-4.17-2.32-2.56-1.48-6.61-.89-.06-1.42-.35-1.54-.87-.21-.89.61-1.31.48-1.93-.27-.22-.61-.3-.65-1.3-1.48.81-2.9-.38-1.51-2.99-.45-.29-.41-.58-.59-.98-3.01.59-3.74-1.16-4.09-3.31.16-.06.26-.04.31.05.87,1.48,1.52,2.29,3.35,2.33h0Zm1.57,2.82c2.72.51-.3,2.83,0,0h0Z"/>
    <path class="cls-3" d="m85.92,30.5c.13-.06.36-.31.32-.41-.36-.8-.18-.93.54-.87.09,0,.98.02,1.48.14.7.17.85.42.41.82-.97.88-2.77,2.09-4.27,1.82-.99-.18-1.75-.99-2.45-1.96.12-.11.22-.15.3-.09,1.32.84,2.18,1.1,3.67.55h0Z"/>
    <path class="cls-3" d="m83.31,27.35c.14-.04.43-.28.37-.37-.46-.63-.1-.7.65-.79.09-.01.65-.02,1.15.1.55.13.74.68.25,1.01-1.08.75-2.07,1.46-3.53,1.05-2.86-.81-3.58-2.01-3.83-2.6-.16-.38-.21-.79-.14-1.17-1.51.22-2.82-.49-1.99-1.7.88-1.3,2.84-.15,3.01.05.28-.25.64-.32.84-.24.34.14.41.63.34.68-.95.71-1.06,1.4-.82,1.9.24.51,1.15,1.66,3.7,2.09h0Zm-4.91-3.56c-.96.09-1.51-.4-1.07-.6.4-.11,1.13.11,1.24.31l-.17.29h0Z"/>
    <path class="cls-3" d="m92.53,47.32l.86.17c.11.02.18.13.15.23l-.19.93c-.02.11-.13.18-.23.15l-.86-.17c-.11-.02-.18-.13-.15-.23l.19-.93c.02-.11.13-.18.23-.15h0Z"/>
    <path class="cls-3" d="m14.63,43.32l.66-.58c.08-.07.21-.06.28.02l.62.72c.07.08.06.21-.02.28l-.66.58c-.08.07-.21.06-.28-.02l-.62-.72c-.07-.08-.06-.21.02-.28h0Z"/>
    <path class="cls-3" d="m78.1,19.86l.79-.39c.1-.05.22,0,.27.09l.39.79s.02.04.02.06l.66-.33c.1-.05.22,0,.27.09l.39.79c.05.1,0,.22-.09.27l-.79.39c-.1.05-.22,0-.27-.09l-.39-.79s-.02-.04-.02-.06l-.66.33c-.1.05-.22,0-.27-.09l-.39-.79c-.05-.1,0-.22.09-.27h0Z"/>
    <path class="cls-3" d="m78.59,28.11l.71-.39c.09-.05.2-.01.25.07l.39.71s.02.04.02.05l.6-.32c.09-.05.2-.01.25.07l.39.71c.05.09.01.2-.07.25l-.71.39c-.09.05-.2.01-.25-.07l-.39-.71s-.02-.04-.02-.05l-.6.32c-.09.05-.2.01-.25-.07l-.39-.71c-.05-.09-.01-.2.07-.25h0Z"/>
    <path class="cls-3" d="m45.75,22.5l.36-.73c.04-.09.15-.13.25-.08l.73.36s.03.02.05.03l.3-.61c.04-.09.15-.13.25-.08l.73.36c.09.04.13.15.08.25l-.36.73c-.04.09-.15.13-.25.08l-.73-.36s-.03-.02-.05-.03l-.3.61c-.04.09-.15.13-.25.08l-.73-.36c-.09-.04-.13-.15-.08-.25h0Z"/>
    <path class="cls-3" d="m39.22,18.14l.25-.77c.03-.1.13-.15.23-.12l.77.25s.04.01.05.03l.21-.65c.03-.1.13-.15.23-.12l.77.25c.1.03.15.13.12.23l-.25.77c-.03.1-.13.15-.23.12l-.77-.25s-.04-.01-.05-.03l-.21.65c-.03.1-.13.15-.23.12l-.77-.25c-.1-.03-.15-.13-.12-.23h0Z"/>
    <path class="cls-3" d="m28.99,33.84c1.75-1.13,3.01-2.48,1.39-5.03l-.65.79c.61,1.67.14,2.58-.81,3.92-.06.08-.03.18.08.31h0Z"/>
    <path class="cls-3" d="m63.01,15.72c1.54,0-.8.45-.73.94.01.1.09.14.21.13.63-.05,1.78-.58,2.62-1.66-.02-.13-.14-.19-.29-.21-.1-.01-1.1-.23-1.78,0-.16.05-.31.17-.58.64-.46.8.26.17.55.17h0Z"/>
    <path class="cls-3" d="m43.36,15.95c-.04.05-.24.56.13.58.44.16,3.88-1.08,4.76-2.26.54-.72.02-.32-.5.01-.75.48-3.03,1.42-4.39,1.67h0Z"/>
    <path class="cls-3" d="m97.99,43.08c-.06-.03-.78,0-.68.36.53.87,1.08,1.64,2.06,1.9.87.23.31-.08-.17-.47-.68-.57-.89-.82-1.22-1.79h0Z"/>
    <path class="cls-3" d="m47.83,15.66c-.07-.04-.14-.03-.17.04-.19.38-.27.74-.44.82-.07.04-.26.2-.38.11-.04-.03-.1-.18-.16-.27-.17-.26-.35.14-.39.3-.06.21-.2.35-.31.41-.43.21-.58,0-.57-.37,0-.27-.34-.3-.37.52,0,.25-.01.62.26.73.59.25.97-.31,1.08-.59.02-.05.1-.02.16.01.39.18.67.07.87-.16.46-.53.48-1.72.43-1.54h0Z"/>
    <path class="cls-3" d="m85.01,24.12c-.02-.08-.08-.11-.15-.08-.39.16-.69.37-.87.33-.08-.02-.33-.02-.36-.17-.01-.04.04-.2.06-.31.04-.31-.35-.13-.49-.04-.18.12-.38.13-.51.1-.46-.12-.43-.39-.19-.66.18-.2-.05-.45-.62.15-.17.18-.41.46-.29.72.28.58.93.41,1.2.27.05-.02.09.05.11.11.17.39.46.5.76.45.69-.1,1.5-.97,1.35-.87h0Z"/>
    <path class="cls-3" d="m14.98,45.2c-.07.04-.09.11-.04.17.25.34.53.57.53.77,0,.08.06.32-.07.39-.04.02-.2,0-.32.02-.31.04-.04.37.08.48.16.15.22.34.22.47,0,.48-.27.51-.59.34-.24-.13-.43.16.29.56.22.12.54.29.76.11.49-.41.17-1-.03-1.23-.03-.04.03-.1.08-.14.34-.26.37-.56.25-.85-.27-.65-1.31-1.22-1.17-1.09h0Z"/>
    <path class="cls-3" d="m68,23.35c.05.12.18.22.14.22-.13,0-.35.04-.47.15-.08.1,0,.28.07.28.46.02,1.05-.19,1.6.08.07-.21.46-.32.32-.44-.15-.13-.6-.06-.9-.44-.17-.22.01-.7.47-.24.41.42.65-.22.63-.26-.09-.23-.5-.38-.88-.4-.56-.02-1.23.49-.98,1.05h0Z"/>
    <path class="cls-3" d="m95.93,39.59c-.25-.22-.03-.09-.54-.23-.11-.03-.58-.09-.58.04,0,.19.42.18.57.63.13.39-1.01-.5-1.09-.49-.21.03.67,1.17,1.96,1.11.37-.21-.2-.87-.32-1.06h0Z"/>
    <path class="cls-3" d="m89.49,30.96c-.19.17-.33.62-.31.84.15.07.84-.11.96-.18.06-.25.02-.33.19-.58.22-.31.43-.05.43-.4-.33-.13-1.01.08-1.27.31h0Z"/>
    <path class="cls-3" d="m50.01,15.55c0,.26.24.66.42.79.15-.07.47-.7.51-.83-.15-.22-.23-.24-.3-.53-.08-.37.25-.36-.01-.59-.31.16-.62.8-.62,1.16h0Z"/>
    <path class="cls-3" d="m22.93,31.1c.2.17.66.24.87.19.05-.16-.22-.81-.3-.93-.26-.03-.33.02-.6-.12-.33-.17-.11-.42-.45-.37-.09.34.21.99.48,1.22h0Z"/>
    <path class="cls-3" d="m30.8,24.15c.21.14.69.16.89.08.03-.16-.32-.78-.41-.89-.26,0-.33.06-.61-.04-.35-.13-.16-.41-.5-.31-.04.35.33.96.63,1.15h0Z"/>
    <path class="cls-3" d="m21.85,43.98c.24.1.71.02.89-.1,0-.16-.47-.7-.58-.78-.26.05-.31.13-.6.08-.37-.06-.24-.37-.55-.2.03.35.52.87.85,1h0Z"/>
    <path class="cls-3" d="m59.06,14.53c.62.45.22,1.62.49,1.77.45.25.42-3.18-.38-2.18-.06.08-.19.25-.11.4h0Z"/>
    <path class="cls-3" d="m17.92,38.4c.71-.29,1.5.66,1.77.5.44-.25-2.5-2.01-2.05-.81.04.1.12.29.28.31h0Z"/>
    <path class="cls-10" d="m29.39,26.16c-.14.29-.4.49-.65.67-.15.11.51-1.41.39-1.81-.49.33-.93-.09-.94-.58-.02-.66.6-.97.99-.39.46.68.56,1.36.21,2.1h0Zm-.79-1.74c-.02.09.05.17.15.2.11.02.21-.03.23-.11.02-.09-.05-.17-.15-.2-.11-.02-.21.03-.23.11h0Z"/>
    <polygon class="cls-2" points="38.55 69.01 37.8 88.72 43.67 90.47 42.61 69.33 39.01 68.83 38.55 69.01 38.55 69.01"/>
    <path class="cls-11" d="m80.52,85.58l1.97-1.75-3.12-5.9c-.19-.37-.2-.76.14-1.12l4.38-3.79c.23-.16.48-.13.73-.02l2.42.11c1.62.43,2.8-2.52,3.93-2.47l1.23.02c.62,0,.66-.25.2-.35-2.8-1.04-2.75.13-4.61.53l-3.8-2.89c-.49-.32-.69-.19-1.05.19l-6.04,6.41c-.38.42-.62.46-.56-.23l.23-4.07c4.86-6.78,7.66-2.81,11.5-3.41,1.38-.36,2.5-1.32,3.4-2.79.37-.61.34-.92-.47-.55-2.81.59-5.02-.54-7.29-.25-2.64.34-5.03,1.59-7.05,5.16l.3-5.36.86-1.15c.97,1.16,2.45.88,2.89-.58.81.97,2.22,1.01,2.84-.21,1.37,1.55,3.04-.73,1.11-1.31l1.15-.56c.9,1.01,2.46.78,2.58-.7,0-.01,0-.03,0-.04.12,0,.23-.03.34-.06.26.21.61.34.99.34.83,0,1.49-.61,1.49-1.37s-.67-1.37-1.49-1.37c-.71,0-1.31.46-1.46,1.07-.19,0-.37.03-.52.08-.67-.84-2.17-.36-2.38,1-.35-.06-.67-.06-.96.16-1.04-.43-1.72-.14-2.64.65-.48.44-.88.62-1.41.75-.58-.79-1.59-.65-2.39.44-.22.07-.3-.2-.14-.38l1.39-1.19c1.15.95,2.33.34,2.12-.57,1.18.48,2.13-.05,2.06-1.21,1.16.98,2.44.28,2.42-1.13,1.02,1.03,2.71.42,2.68-1.01.76,1.13,2.16,1.23,2.9.81.34-.19.63-.59.37-.97-.12-.18-.32-.13-.44-.3.22-.7-.72-1-2.28-.92-2.42.12-5.44,1.59-8.34,3.1l-.13-.28c.36-.35.84-.67,1.41-1.34.91.18,1.59-.02,1.78-1.04l.46-.22c.88.51,1.57-.01,1.92-.67.51.02.97-.11,1.37-.44.26-.37.88.39,1.8.12,1.08-.32,1.02-1.61-.09-1.94-.42-.12-.9-.03-1.3.5-.11.09-.17.09-.28.07h0c-.04-.5-.46-.9-.98-.9-.54,0-.98.44-.98.98,0,.15.04.3.1.43-.08.04-.16.09-.19.18-.07-.51-.5-.91-1.04-.91-.58,0-1.05.47-1.05,1.05,0,.29.12.56.32.75-.25-.13-.4-.05-.43.26h0s0-.03,0-.04c0-.54-.44-.98-.98-.98s-.98.44-.98.98c0,.29.13.56.33.74h0c-.11.21-.27.26-.45.26h0c-1.8-1.72-3.48.62-1.83,1.91-.72.01-1.65.6-.98,2.1l-1.3,1.05.33-5.9c.03-.6-.09-1.04-.33-1.15-.58-.25-1.58-.18-2.48.21-.26.11-.54.31-.8.79-.83,1.6-2.94,6.59-3.22,7.97-.03.14-.04.25-.02.31.02.18.4-.14.71-.38.68-.52,1.67-1.44,2.38-1.99l-.36,7.22c-3.15-4.84-7.49-5.02-10.68-3.14-1.9,1.31-2.46,3-4.6,4.92.68-.07,1.26-.19,1.8-.73.03,1-.22,2.85.44,3.83-.24,1.4,1.38,2.29.65,4.42.39-.3.86-.47,1.02-1.86,1.17,1.09,2.84,1.58,4.39,1.35-.63.15-1.17.42-1.32.8l-4.8,9.49c-.1.13.02.6.4.31l5.96-4.63c.34-.31.58-.23.78.11l5.51,8.78,2.26-.2.53-9.25c-.02-.43.32-.71.63-.95.43-.34.57-.65.85-.1l3.27,6.26h0Zm5.8-21.02c-1.71-.4-3.9-.64-6.38,1.21,5.25-1.61,5.1.56,8.13-.56.22-.09.34-.17.32-.25-.07-.21-.34,0-2.07-.41h0Zm-12.95,2.52l-.15,3.11c-.67-1.44-1.42-2.71-2.42-3.66-1.72-1.64-4.44-2.52-6.48-.91-.82.64-1.28,1.54-1.4,2.44-.22,1.63.66,3.29,2.54,3.57,1.17.03,2.12-.59,2.14-1.74.56-.13.92-.64.87-1.3,1.39.04,1.72,1.39,1.28,2.86-.5,1.66-2.15,3.3-4.55,3.01-1.02-.12-2.06-.61-2.9-1.4.2-.12.34-.34.34-.59,0-.38-.31-.69-.69-.69-.21,0-.39.09-.52.23-.37-.58-.64-1.25-.78-1.99.09.04.2.06.31.06.44,0,.79-.35.79-.79s-.35-.79-.79-.79c-.15,0-.29.04-.41.12,0-.24.03-.49.06-.74.04-.49.15-.98.32-1.44.17.26.46.44.8.44.53,0,.95-.43.95-.95s-.43-.95-.95-.95h-.02c.44-.6.98-1.13,1.6-1.54,0,.52.43.95.95.95s.95-.43.95-.95c0-.3-.14-.57-.36-.75.55-.18,1.14-.27,1.74-.27.22,0,.43,0,.63.03-.1.13-.17.29-.17.47,0,.41.34.75.75.75s.75-.34.75-.75c0-.07-.01-.15-.03-.21,2.16.68,3.61,2.47,4.84,4.39h0Zm-.2,4.08l-.55,11.07c-.06.51-.31.32-.42,0l-3.27-6.88c-.28-.47-1.23-.6-2.11-.48,1.66-.38,3.12-1.62,3.57-3.9.96-1.62-.26-1.65-.14-3.11l-.28.93c-.4-.64-1.04-.9-2.06-.73.64,2.16-2.51,2.03-2.51-.07.11-1.55,1.56-2.26,2.62-2.23,2,.05,3.66,2.01,5.15,5.4h0Zm-1.24,15.5l-5.95-10.08c-1.02-1.18,2.53-1.41,2.72-.6l3.61,8.06c.4.72-.04,1.03-.35.45l-2.56-5.28c-.14-.28-.86.14-.65.5l3.4,6.41c.38.55-.07.81-.21.53h0Zm4.39-7.9c-.43.31-.51-.43-.2-.71l6.82-6.38c.68-.7.99.19.41.69l-7.04,6.4h0Zm1.05-2.52c-.29.23-.62-.23-.12-.69l5.44-6.01c.38-.49.85.07.31.62l-5.63,6.09h0Zm-2.73-22.64c-.08-.72,2.23-1.26,2.05-.3l-.85,20.28c-.1.56-.56,1.25-.65.86l.81-16.32c0-.36-.54-.18-.72.11l-.67,15.31c-.06,1.39-.64-.18-.6-.89l.63-19.05h0Z"/>
    <path class="cls-3" d="m80.52,85.58l1.97-1.75-3.12-5.9c-.19-.37-.2-.76.14-1.12l4.38-3.79c.23-.16.48-.13.73-.02l2.42.11c1.62.43,2.8-2.52,3.93-2.47l1.23.02c.62,0,.66-.25.2-.35-2.8-1.04-2.75.13-4.61.53l-3.8-2.89c-.49-.32-.69-.19-1.05.19l-6.04,6.41c-.38.42-.62.46-.56-.23l.23-4.07c4.86-6.78,7.66-2.81,11.5-3.41,1.38-.36,2.5-1.32,3.4-2.79.37-.61.34-.92-.47-.55-2.81.59-5.02-.54-7.29-.25-2.64.34-5.03,1.59-7.05,5.16l.3-5.36.86-1.15c.97,1.16,2.45.88,2.89-.58.81.97,2.22,1.01,2.84-.21,1.37,1.55,3.04-.73,1.11-1.31l1.15-.56c.9,1.01,2.46.78,2.58-.7,0-.01,0-.03,0-.04.12,0,.23-.03.34-.06.26.21.61.34.99.34.83,0,1.49-.61,1.49-1.37s-.67-1.37-1.49-1.37c-.71,0-1.31.46-1.46,1.07-.19,0-.37.03-.52.08-.67-.84-2.17-.36-2.38,1-.35-.06-.67-.06-.96.16-1.04-.43-1.72-.14-2.64.65-.48.44-.88.62-1.41.75-.58-.79-1.59-.65-2.39.44-.22.07-.3-.2-.14-.38l1.39-1.19c1.15.95,2.33.34,2.12-.57,1.18.48,2.13-.05,2.06-1.21,1.16.98,2.44.28,2.42-1.13,1.02,1.03,2.71.42,2.68-1.01.76,1.13,2.16,1.23,2.9.81.34-.19.63-.59.37-.97-.12-.18-.32-.13-.44-.3.22-.7-.72-1-2.28-.92-2.42.12-5.44,1.59-8.34,3.1l-.13-.28c.36-.35.84-.67,1.41-1.34.91.18,1.59-.02,1.78-1.04l.46-.22c.88.51,1.57-.01,1.92-.67.51.02.97-.11,1.37-.44.26-.37.88.39,1.8.12,1.08-.32,1.02-1.61-.09-1.94-.42-.12-.9-.03-1.3.5-.11.09-.17.09-.28.07h0c-.04-.5-.46-.9-.98-.9-.54,0-.98.44-.98.98,0,.15.04.3.1.43-.08.04-.16.09-.19.18-.07-.51-.5-.91-1.04-.91-.58,0-1.05.47-1.05,1.05,0,.29.12.56.32.75-.25-.13-.4-.05-.43.26h0s0-.03,0-.04c0-.54-.44-.98-.98-.98s-.98.44-.98.98c0,.29.13.56.33.74h0c-.11.21-.27.26-.45.26h0c-1.8-1.72-3.48.62-1.83,1.91-.72.01-1.65.6-.98,2.1l-1.3,1.05.33-5.9c.03-.6-.09-1.04-.33-1.15-.58-.25-1.58-.18-2.48.21-.26.11-.54.31-.8.79-.83,1.6-2.94,6.59-3.22,7.97-.03.14-.04.25-.02.31.02.18.4-.14.71-.38.68-.52,1.67-1.44,2.38-1.99l-.36,7.22c-3.15-4.84-7.49-5.02-10.68-3.14-1.9,1.31-2.46,3-4.6,4.92.68-.07,1.26-.19,1.8-.73.03,1-.22,2.85.44,3.83-.24,1.4,1.38,2.29.65,4.42.39-.3.86-.47,1.02-1.86,1.17,1.09,2.84,1.58,4.39,1.35-.63.15-1.17.42-1.32.8l-4.8,9.49c-.1.13.02.6.4.31l5.96-4.63c.34-.31.58-.23.78.11l5.51,8.78,2.26-.2.53-9.25c-.02-.43.32-.71.63-.95.43-.34.57-.65.85-.1l3.27,6.26h0Zm5.8-21.02c-1.71-.4-3.9-.64-6.38,1.21,5.25-1.61,5.1.56,8.13-.56.22-.09.34-.17.32-.25-.07-.21-.34,0-2.07-.41h0Zm-12.95,2.52l-.15,3.11c-.67-1.44-1.42-2.71-2.42-3.66-1.72-1.64-4.44-2.52-6.48-.91-.82.64-1.28,1.54-1.4,2.44-.22,1.63.66,3.29,2.54,3.57,1.17.03,2.12-.59,2.14-1.74.56-.13.92-.64.87-1.3,1.39.04,1.72,1.39,1.28,2.86-.5,1.66-2.15,3.3-4.55,3.01-1.02-.12-2.06-.61-2.9-1.4.2-.12.34-.34.34-.59,0-.38-.31-.69-.69-.69-.21,0-.39.09-.52.23-.37-.58-.64-1.25-.78-1.99.09.04.2.06.31.06.44,0,.79-.35.79-.79s-.35-.79-.79-.79c-.15,0-.29.04-.41.12,0-.24.03-.49.06-.74.04-.49.15-.98.32-1.44.17.26.46.44.8.44.53,0,.95-.43.95-.95s-.43-.95-.95-.95h-.02c.44-.6.98-1.13,1.6-1.54,0,.52.43.95.95.95s.95-.43.95-.95c0-.3-.14-.57-.36-.75.55-.18,1.14-.27,1.74-.27.22,0,.43,0,.63.03-.1.13-.17.29-.17.47,0,.41.34.75.75.75s.75-.34.75-.75c0-.07-.01-.15-.03-.21,2.16.68,3.61,2.47,4.84,4.39h0Zm-.2,4.08l-.55,11.07c-.06.51-.31.32-.42,0l-3.27-6.88c-.28-.47-1.23-.6-2.11-.48,1.66-.38,3.12-1.62,3.57-3.9.96-1.62-.26-1.65-.14-3.11l-.28.93c-.4-.64-1.04-.9-2.06-.73.64,2.16-2.51,2.03-2.51-.07.11-1.55,1.56-2.26,2.62-2.23,2,.05,3.66,2.01,5.15,5.4h0Zm-1.24,15.5l-5.95-10.08c-1.02-1.18,2.53-1.41,2.72-.6l3.61,8.06c.4.72-.04,1.03-.35.45l-2.56-5.28c-.14-.28-.86.14-.65.5l3.4,6.41c.38.55-.07.81-.21.53h0Zm4.39-7.9c-.43.31-.51-.43-.2-.71l6.82-6.38c.68-.7.99.19.41.69l-7.04,6.4h0Zm1.05-2.52c-.29.23-.62-.23-.12-.69l5.44-6.01c.38-.49.85.07.31.62l-5.63,6.09h0Zm-2.73-22.64c-.08-.72,2.23-1.26,2.05-.3l-.85,20.28c-.1.56-.56,1.25-.65.86l.81-16.32c0-.36-.54-.18-.72.11l-.67,15.31c-.06,1.39-.64-.18-.6-.89l.63-19.05h0Z"/>
    <path class="cls-11" d="m52.75,63c.95-.64,1.79-1.31,2.35-2.22-1.32.41-2.41,1.18-3.26,2.05-.17-.02-.34-.04-.51-.06.94-.77,1.78-1.54,2.25-2.55-1.36.55-2.4,1.5-3.14,2.51-.16,0-.32,0-.49,0,.8-.88,1.49-1.74,1.8-2.8-1.24.72-2.1,1.77-2.69,2.85-.16.01-.32.03-.48.05.73-.93,1.35-1.85,1.59-2.92-1.18.81-1.98,1.93-2.49,3.06-.17.03-.35.07-.52.1.67-.96,1.23-1.9,1.39-2.97-1.14.88-1.86,2.04-2.3,3.19-.19.05-.37.1-.56.16.59-.98,1.07-1.93,1.15-2.98-1.07.94-1.7,2.13-2.04,3.29-.17.06-.33.13-.49.19.55-.97,1.02-1.95,1.06-2.97-1.05.96-1.67,2.21-1.97,3.37-.12.06-.24.12-.36.18.09-.26.14-.52.14-.8-.5.38-.84.83-1.06,1.31-.17.1-.35.21-.52.32.04-.23.08-.48.12-.74.92-.69,1.8-1.58,2.3-2.77-.79.34-1.44.9-2.06,1.56.05-.24.11-.49.18-.75.88-.43,1.92-1.28,2.4-2.32-.81.18-1.42.71-2.13,1.29.06-.21.12-.43.18-.65.9-.43,1.93-1.26,2.45-2.28-.78.14-1.4.6-2.09,1.12.07-.21.13-.42.21-.63.89-.43,1.88-1.21,2.41-2.18-.73.11-1.34.52-1.99.98.08-.21.16-.43.24-.64.89-.47,1.75-1.1,2.39-2.01-.69.14-1.31.44-1.92.82.09-.22.18-.43.27-.65.81-.47,1.6-1.09,2.14-1.98-.74.11-1.36.44-1.93.88l-.03-.03c.54-.76,1.3-1.94,1.31-3.33-.91.67-1.48,1.92-1.74,2.9l-.07-.07s-.04.08-.07.12c-.06-.75-.2-1.47-.53-2.13-.27,1.15-.22,2.31-.06,3.37-.09.21-.18.42-.27.65-.19-.78-.46-1.5-.92-2.12-.15,1.18.1,2.3.48,3.29-.07.19-.14.39-.21.59-.26-.84-.51-1.6-1.03-2.18-.13,1.14.2,2.42.65,3.34-.06.19-.12.38-.18.58-.17-.48-.45-1.15-1.08-1.72,0,1.28.35,2.16.76,2.8-.07.23-.13.46-.2.69-.24-.67-.48-1.28-.96-1.75-.13,1.01.2,2.13.64,2.95-.04.16-.09.33-.13.49-.15-.41-.35-.73-.68-1.15-.11,1,.17,1.59.43,2.14-.09.36-.18.73-.27,1.1-.15-.46-.3-.92-.46-1.38.08-.49.07-.95-.03-1.37-.09.12-.2.27-.29.45-.04-.11-.08-.21-.12-.32.43-.72.69-1.43.73-2.13-.32.22-.72.59-1.1,1.13-.04-.1-.07-.2-.11-.3.6-.74.98-1.5,1.06-2.3-.41.2-.96.6-1.44,1.31-.05-.13-.1-.26-.15-.39.93-.78,1.27-1.41,1.37-2.39-1.01.81-1.38,1.23-1.68,1.62-.06-.15-.12-.3-.18-.44.99-.88,1.53-1.63,1.64-2.64-.64.52-1.36,1.2-1.91,1.98-.07-.16-.14-.33-.21-.49.98-.84,1.7-1.8,2.04-2.76-.6.34-1.5,1.02-2.35,2.03-.06-.13-.11-.25-.17-.38,1.06-.96,1.83-1.92,2.19-2.88-.62.32-1.58,1.02-2.46,2.26-.07-.17-.15-.33-.22-.49,1.08-.88,1.88-1.78,2.24-2.72-.64.28-1.62.91-2.52,2.11-.08-.17-.16-.33-.23-.5,1.03-.79,1.79-1.64,2.13-2.58-.59.21-1.51.77-2.34,1.97l.12.41c-.08-.18-.17-.35-.25-.52l.02-.48c.93-.69,1.61-1.45,1.92-2.31-.58.18-1.48.88-2.3,2.02l-.03-.02-.07-.15.05-.16h-.01c.7-.86,1.16-1.72,1.24-2.61-.47.26-1.08,1-1.57,2.08.19-1.77.05-2.51-.29-3.01-.43.63-.47,1.74-.25,2.69-.61-.5-1.19-.79-1.58-.85.28.59.75,1.1,1.35,1.54h0c-.54-.13-1.06-.19-1.53-.22.43.58,1.13.96,1.99,1.24l.15.33c-.88-.41-1.67-.54-2.21-.52.6.7,1.53,1.16,2.66,1.51.06.13.12.26.17.39-1.03-.43-1.98-.67-2.6-.69.65.71,1.69,1.19,2.94,1.47.06.15.13.29.19.44-1.19-.44-2.27-.66-2.94-.65.77.68,1.91,1.11,3.24,1.33.06.13.11.26.17.39-1.18-.41-2.26-.54-2.93-.53.78.69,1.94,1.17,3.29,1.38.06.15.13.3.19.46-1.15-.4-2.2-.51-2.85-.49.75.68,1.88,1.14,3.19,1.33l.13.31c-1.04-.31-2-.36-2.58-.31.68.58,1.7.94,2.88,1.05.06.16.13.31.19.47-.95-.36-1.83-.46-2.36-.42.62.62,1.56,1.03,2.66,1.17.06.14.11.28.17.43-.63-.26-1.17-.35-1.57-.36.46.62,1.15,1.11,2.01,1.5l.15.4c-.55-.33-1.05-.48-1.4-.52.36.6.97,1.09,1.76,1.5l.04.03c.11.28.22.56.33.85-.47-.51-.94-.8-1.28-.94.14.51.44,1,.86,1.47l-.13.1-.06.04c-.2-.11-.4-.22-.61-.32-.17-.95-.66-1.94-1.68-2.71-.05.81.32,1.54.78,2.28-.16-.07-.32-.14-.49-.21-.25-1.03-.8-2.1-1.84-2.93,0,.91.42,1.73.94,2.58-.2-.07-.41-.15-.62-.22-.19-1-.65-2.04-1.57-2.91-.06.91.28,1.76.73,2.64-.16-.05-.33-.1-.5-.15-.18-1.02-.65-2.1-1.58-2.98-.07.95.32,1.84.8,2.77-.15-.04-.29-.08-.44-.11-.19-1.03-.61-2.07-1.58-2.97-.05.98.32,1.84.83,2.79-.17-.04-.33-.07-.5-.11-.2-1.03-.66-2.07-1.64-2.91-.04.98.36,1.84.87,2.75-.21-.04-.42-.08-.63-.12-.11-.95-.46-1.91-1.42-2.75-.11.92.26,1.72.77,2.63-.4-.07-.81-.13-1.22-.19l.62.07c-.21-.95-.73-1.78-1.8-2.53-.01.94.53,1.59,1.14,2.46-.2-.03-.39-.05-.59-.08-.33-.8-.85-1.58-1.99-2.26-.02.79.44,1.43,1.1,2.15-.15-.02-.29-.03-.44-.05-.46-.69-1.2-1.31-2.38-1.77.1.68.6,1.16,1.23,1.66-.19-.02-.38-.03-.58-.05-.47-.54-1.21-.99-2.36-1.08.08.36.38.71,1.05,1.14-.63-.04-1.42.06-2.24.3.52.37,1.4.58,2.31.5-.5.35-1.02.79-1.13,1.27,1.16-.09,1.81-.57,2.16-1.14.2.01.39.03.58.05-.75.44-1.28.94-1.45,1.54.72-.09,1.55-.56,2.45-1.45.17.02.33.03.5.05-.77.51-1.36,1.09-1.65,1.74.7-.13,1.6-.66,2.64-1.62.12.02.24.03.36.05-.66.5-1.16,1.06-1.59,1.83.69-.13,1.57-.72,2.54-1.7.17.02.33.05.5.08-.99.68-1.59,1.23-1.9,1.8.81-.13,1.69-.59,2.82-1.65.14.02.28.05.41.08-.98.71-1.54,1.34-1.82,1.87.99-.3,1.85-.82,2.73-1.69.12.03.24.05.37.08-1.01.77-1.62,1.47-1.84,2.04.99-.31,1.9-.89,2.7-1.84.16.04.31.08.46.12-1.11.79-1.63,1.36-1.89,1.95,1.03-.32,1.82-.75,2.68-1.73.12.04.24.07.36.11-1.02.77-1.49,1.32-1.71,1.89.98-.31,1.73-.72,2.52-1.64.13.05.27.09.4.14-.69.43-1.27.91-1.58,1.6,1.06-.17,1.75-.71,2.33-1.33.12.05.23.09.35.14-.57.43-1.16.85-1.51,1.47.98-.16,1.6-.65,2.13-1.21.2.09.39.18.59.27-.2,0-.41.02-.63.06.14.15.28.28.44.39l.18.54c-.42-.11-.87-.14-1.36-.07.1.13.21.24.33.34-.23.03-.45.06-.67.1-.43-.17-.92-.25-1.46-.21.11.15.23.29.36.41-.1.02-.2.04-.3.06-.48-.47-1.41-.81-2.7-.88.37.53.87.81,1.54,1.17-.19.05-.37.1-.55.16-.61-.59-1.36-.96-2.42-.97.39.65.93.95,1.6,1.23-.16.06-.32.11-.48.17-.67-.6-1.49-.96-2.59-.88.46.66,1.08.92,1.83,1.17-.15.06-.3.12-.45.19-.77-.53-1.67-.89-2.83-.69.55.6,1.22.86,2.03,1.04-.17.08-.34.16-.51.25h.01c-.82-.5-1.77-.75-2.93-.46.6.57,1.32.73,2.17.84-.2.1-.39.21-.59.32-.77-.46-1.61-.64-2.7-.35.56.56,1.19.67,1.95.78-.13.08-.26.15-.39.23-.82-.32-1.71-.39-2.74,0,.56.42,1.15.52,1.83.55-.13.08-.25.16-.38.24-.79-.18-1.62-.13-2.54.33.62.37,1.24.4,1.95.36-.59.4-1.25,1.05-1.73,1.78.73-.06,1.89-.69,2.6-1.52-.52.97-.94,1.8-.86,2.83,1-.92,1.46-1.94,1.64-3.01.14-.1.27-.19.4-.28-.47,1.19-.42,1.89-.25,2.52.64-1.08.92-1.74,1.03-3.03.14-.09.29-.18.43-.27-.32,1.09-.31,1.76-.22,2.39.51-.84.81-1.48.96-2.83.11-.07.23-.13.34-.19-.37,1.39-.32,1.96-.27,2.47.56-.84.89-1.48,1.09-2.9.13-.07.26-.13.39-.19-.47,1.38-.46,1.95-.44,2.46.62-.81.99-1.43,1.29-2.85.16-.07.32-.14.49-.2-.59,1.32-.65,1.88-.68,2.39.69-.77,1.13-1.37,1.57-2.71.18-.06.36-.12.54-.18-.93,1.37-.97,1.96-1.1,2.49.95-.75,1.29-1.31,2.14-2.79.19-.05.39-.1.59-.15-1.04,1.14-1.09,1.49-1.39,2.08,1.08-.68,1.52-.91,2.52-2.32.11-.02.21-.04.32-.06-.31.42-.41.69-.61,1.06.76-.44,1.21-.68,1.76-1.24.27-.04.55-.07.82-.11l.12.37c-.45.11-.93.29-1.43.57.41.05.9.07,1.35.08-.09.07-.18.14-.26.21-.92.03-1.86.14-2.97.76.61.08,1.4.09,1.96.09-.1.09-.21.18-.31.28-1.32-.08-2.46.09-3.1.51,1.1.15,1.69.11,2.43.11-.1.09-.19.18-.28.27-1.43-.11-2.6-.03-3.29.43,1.12.34,1.75.32,2.6.27-.11.12-.22.24-.33.35-1.43-.16-2.6-.13-3.3.3,1.17.4,1.8.38,2.7.37-.14.16-.27.32-.4.48-1.14-.26-2.16-.23-3.23.12.92.47,1.79.46,2.76.47-.12.16-.24.32-.36.48-1.57-.25-2.53-.1-3.28.21,1.06.51,1.91.48,2.78.49-.11.16-.22.32-.33.48-1.61-.33-2.34-.33-3.11-.03.74.63,1.54.67,2.71.65-.1.16-.19.31-.29.47-1.62-.25-2.27-.2-3.1.13.79.69,1.47.65,2.68.61-.09.16-.18.33-.27.49-1.28-.22-2.33-.15-2.98.2.99.65,2.05.54,2.64.47-.06.13-.13.26-.19.39-.79.34-1.47.94-1.96,1.98.82-.06,1.75-.78,2.49-1.44-.1.97-.13,2.11.29,2.79.51-.8.52-2.06.4-3.37.05-.12.11-.24.16-.36.05.87.19,1.8.62,2.36.41-.86.24-2.17-.05-3.51.05-.1.11-.2.16-.3.25,1.5.57,2.03.86,2.51.27-1.07.15-2.06-.33-3.43.09-.15.19-.3.29-.45.2,1.62.52,2.16.82,2.65.29-1.06.18-2.05-.28-3.45.12-.17.24-.33.36-.49.12,1.8.43,2.37.73,2.88.35-1.09.27-2.11-.17-3.6.14-.17.28-.34.41-.5.07,1.67.3,2.47.57,2.95.25-.95.29-2.08.15-3.76.11-.12.22-.24.33-.35-.13,1.76.02,2.6.24,3.1.37-.96.52-2.12.55-3.9.14-.13.39-.26.53-.39l-.39,14.71h.61l.02-.74c.33-.22.72-.49,1.01-.63.19.09,1.52.96,1.6.95.08-.07-.09-.3-.35-.59.34-.22.77-.52,1.08-.67.4.19,1.01.63,1.36.84l.1,4.06h.61c-.15-5.84-.3-11.6-.45-17.42.1.07.2.13.32.18.01-.38-.08-.76-.24-1.15.19.18.38.36.57.55-.17.78-.28,1.61.29,2.17.3-.41.37-.9.38-1.46.12.13.23.26.35.39-.19.9-.29,1.83.19,2.52.31-.47.42-1.04.47-1.71.13.16.25.33.38.5-.27.9-.47,1.86-.03,2.6.36-.46.52-1.06.62-1.77.11.17.23.34.34.52-.33.96-.62,2-.19,2.81.41-.5.58-1.16.71-1.94.1.18.21.36.31.55-.37.96-.71,2.08-.23,3,.43-.49.67-1.1.79-1.93.09.17.17.35.25.52l-.06.06c-.24,1.21-.48,2.3-.24,3.16.37-.47.6-1.26.69-2.35.06.13.11.26.17.39-.04,1.02.15,1.71.6,2.17.38-.52.35-1.17.12-2.03.7.57,1.28.87,1.92.73-.24-.59-.78-1.04-1.72-1.41-.05-.1-.09-.2-.14-.3l.07.08c1.27.51,2.18.76,2.94.45-.6-.59-1.62-.91-3.24-1.01-.08-.18-.17-.35-.25-.52,1.26.35,2.38.68,3.27.47-.64-.58-1.85-.95-3.56-1.04-.07-.14-.14-.28-.22-.42h0c1.29.34,2.31.47,3.26.17-.66-.55-1.88-.84-3.64-.86-.1-.18-.21-.36-.31-.54,1.23.29,2.25.41,3.16.1-.66-.53-1.9-.82-3.61-.82-.12-.18-.24-.36-.36-.54,1.09.21,1.97.26,2.78-.12-.59-.49-1.7-.7-3.27-.55-.13-.17-.26-.34-.39-.5.96.05,1.63.13,2.37-.11-.58-.48-1.47-.71-2.93-.54-.14-.15-.27-.31-.42-.46.49,0,.93-.05,1.38-.21-.47-.36-1.13-.56-2.11-.52-.16-.16-.33-.31-.5-.47.32,0,.62-.04.94-.14-.41-.35-.98-.58-1.82-.64-.24-.2-.49-.4-.74-.61l.02-.05c.41.17.79.29,1.24.32-.2-.37-.52-.71-1.01-1l.07-.22c.17.08.35.15.54.2-.05-.15-.11-.3-.19-.45.12.01.23.03.35.04.19.69.48,1.29.94,1.7.03-.49,0-1.01-.09-1.55.09.02.17.03.26.05.18,1.08.48,2.1,1.15,2.69.05-.77-.06-1.6-.29-2.49.16.04.31.08.47.13.17,1.2.47,2.36,1.2,3.01.06-.84-.08-1.75-.36-2.74.19.07.38.13.56.21.06,1.18.25,2.31.9,3.01.14-.81.09-1.69-.07-2.67.16.07.32.15.48.22.06,1.37.27,2.68.89,3.5.13-.93.09-1.95-.05-3.07.14.08.29.16.43.24.05,1.45.24,2.85.9,3.72.13-.97.09-2.03-.07-3.2.11.07.22.15.33.22.06,1.44.25,2.83.9,3.68.13-.93.1-1.94-.05-3.06.14.11.27.22.41.33-.04,1.35.06,2.64.62,3.45.18-.83.23-1.73.2-2.7.11.1.21.21.31.31-.09,1.15-.03,2.25.5,2.93.19-.62.27-1.29.29-2.01.44.8,1.14,1.78,1.9,2.11-.11-1.1-.65-1.86-1.32-2.39l.18-.2c.72.27,1.4.4,2.05.36-.65-.81-1.38-1.09-2.63-1.29-.1-.13-.21-.27-.33-.4,1.07.18,2.05.27,2.9.01-1.29-.59-2.51-.76-3.57-.71-.12-.11-.24-.22-.37-.33,1.05.05,2,.01,2.84-.32-1.31-.43-2.56-.47-3.65-.33-.15-.11-.31-.23-.47-.34,1.06-.07,2-.19,2.85-.64-1.35-.27-2.58-.18-3.68.12-.17-.1-.35-.2-.53-.3,1.03-.12,1.97-.32,2.8-.78-1.35-.22-2.63-.05-3.75.3-.17-.08-.34-.16-.52-.23,1.09-.14,2.09-.39,2.96-.88-1.45-.24-2.81.06-3.98.47-.14-.05-.27-.1-.41-.15.95-.24,1.89-.56,2.58-1.12-1.25-.1-2.55.3-3.53.81-.19-.06-.37-.11-.56-.16.73-.22,1.58-.54,2.29-1.22-1.31-.06-2.45.4-3.3.97-.25-.06-.5-.11-.75-.16.89-.24,1.67-.56,2.31-1.14-1.04-.12-2.02.14-2.91.57l-.47-.21c0,.05.01.11.02.16l-.43-.31c.61.04,1.27-.08,1.92-.46-.61-.28-1.28-.21-1.99-.08.39-.22.8-.44,1.22-.63.43.4,1.03.47,1.76.47-.2-.33-.59-.63-.92-.84.14-.06.28-.11.43-.17.42.47,1,.68,1.81.92-.15-.52-.52-.91-.94-1.21.12-.04.23-.07.35-.11.43.56,1.06.92,1.69,1.25,0-.55-.22-1.04-.73-1.5.14-.03.27-.06.41-.08.45.78,1.02,1.37,1.7,1.88-.07-.73-.34-1.39-.89-2.01.2-.02.39-.04.59-.06.35.98.86,1.71,1.52,2.33.03-.86-.17-1.65-.66-2.37.22,0,.45,0,.67.01.14,1.08.42,1.89.98,2.59.12-.84.1-1.66-.21-2.53.12.02.25.03.37.05.04,1.18.26,2.05.8,2.79.19-.87.23-1.74-.06-2.64.14.03.28.07.41.11.01,1.1.2,1.92.69,2.63.2-.78.28-1.55.11-2.35.1.04.21.08.31.13.11.99.38,1.75.89,2.41.12-.68.15-1.36,0-2.05.7.99,1.41,1.87,2.39,2.41-.39-1.18-1.07-2.15-1.85-2.92.66,0,1.28-.07,1.84-.41-.98-.54-1.9-.48-2.78-.33-.16-.09-.32-.16-.49-.24.87-.32,1.66-.62,2.21-1.25-1.22-.05-2.13.46-2.97.97-.15-.05-.31-.09-.47-.13h0Zm-10.6,14.37c-.41.48-1,1.25-.93,1.32.14,0,.66-.38,1.14-.68l.12-.04.07,2.86c-.29-.4-1.03-1.09-1.4-1.55-.07-.07-.12-.1-.19,0-.07.09-.16.19-.26.29-.35-.39-.86-.89-1.15-1.24-.07-.07-.12-.1-.19,0-.31.38-.88.93-1.23,1.33l.06-2.32c.35-.23.81-.55,1.14-.71.29.14.69.41,1.03.63-.31.33-.52.61-.44.69.14,0,1.33-.82,1.6-.95.18.09.41.23.64.37h0Zm-1.29,8.4c.07-.1.13-.07.19,0,.5.61,1.69,1.67,1.51,1.84-.15.02-1.07-.69-1.6-.95-.53.26-1.41.96-1.6.95-.18-.17,1.01-1.22,1.51-1.84h0Zm-2.87-.85l.05-1.8c.35-.23.84-.58,1.19-.74.28.14,1.5.96,1.6.95.09-.08-.16-.38-.49-.74.32-.21.69-.46.96-.59.38.18.96.59,1.31.81l.06,2.19c-.35-.41-.93-.97-1.25-1.35-.07-.07-.12-.1-.19,0-.31.37-.86.91-1.21,1.31-.32-.34-.69-.71-.92-.99-.07-.07-.12-.1-.19,0-.22.27-.58.64-.9.97h0Zm2.09-2.6c-.28-.29-.57-.59-.76-.82-.07-.07-.12-.1-.19,0-.27.33-.73.78-1.08,1.16l.07-2.6c.35-.21.94-.64,1.34-.84.28.14.68.4,1.01.62-.53.55-1.14,1.16-1.01,1.28.19,0,1.07-.69,1.6-.95.46.22,1.22.79,1.51.92l.03,1.32c-.35-.4-.9-.93-1.2-1.3-.07-.07-.12-.1-.19,0-.28.34-.77.82-1.12,1.21h0Zm.51-5.31c-.35-.39-.88-.9-1.17-1.26-.07-.07-.12-.1-.19,0-.26.31-.69.74-1.03,1.11l.06-2.3c.31-.21.67-.45.93-.58.33.16.82.5,1.17.72-.39.41-.7.77-.6.86.19,0,1.07-.69,1.6-.95.3.14.72.43,1.05.65l.05,1.77c-.3-.32-.64-.66-.85-.92-.07-.07-.12-.1-.19,0-.21.25-.53.58-.83.89h0Zm-2.32-3.03l.07-2.64c.11-.01.25-.07.39-.18.05-.04.1-.09.14-.13.05.06.16.07.28.04-.05.03-.1.06-.16.1-.22.18-.33.41-.24.52.09.11.34.06.56-.12.22-.18.33-.41.24-.52-.05-.06-.16-.07-.28-.04.05-.03.1-.06.16-.1.09-.07.16-.15.2-.22,0,.05,0,.09.03.12.09.11.34.06.56-.12.11-.09.2-.19.24-.29.11,0,.26-.07.4-.18.06-.05.11-.1.15-.15.09.11.34.06.56-.12.03-.03.06-.05.09-.08l.03.02s.03.09.05.14c-.02.02-.05.03-.07.05-.09.07-.16.15-.2.22,0-.05,0-.09-.03-.12-.09-.11-.34-.06-.56.12-.14.11-.23.24-.26.35-.12-.03-.31.03-.48.17-.17.13-.27.3-.27.42-.1.02-.22.08-.33.17-.22.18-.33.41-.24.52.09.11.34.06.56-.12.17-.13.27-.3.27-.42.1-.02.22-.08.33-.17.14-.11.23-.24.26-.35.05.01.12,0,.2-.01-.05.03-.1.06-.16.1-.22.18-.33.41-.24.52.09.11.34.06.56-.12.22-.18.33-.41.24-.52-.05-.06-.16-.07-.28-.04.05-.03.1-.06.16-.1.09-.07.16-.15.2-.22,0,.05,0,.09.03.12.08.1.3.07.5-.08.11.27.23.53.38.76l.09,3.44c-.32-.34-.71-.73-.94-1.01-.07-.07-.12-.1-.19,0-.18.22-.44.49-.69.75-.34-.41-.96-.99-1.28-1.39-.07-.07-.12-.1-.19,0-.21.25-.53.58-.82.89h0Z"/>
    <path class="cls-3" d="m52.75,63c.95-.64,1.79-1.31,2.35-2.22-1.32.41-2.41,1.18-3.26,2.05-.17-.02-.34-.04-.51-.06.94-.77,1.78-1.54,2.25-2.55-1.36.55-2.4,1.5-3.14,2.51-.16,0-.32,0-.49,0,.8-.88,1.49-1.74,1.8-2.8-1.24.72-2.1,1.77-2.69,2.85-.16.01-.32.03-.48.05.73-.93,1.35-1.85,1.59-2.92-1.18.81-1.98,1.93-2.49,3.06-.17.03-.35.07-.52.1.67-.96,1.23-1.9,1.39-2.97-1.14.88-1.86,2.04-2.3,3.19-.19.05-.37.1-.56.16.59-.98,1.07-1.93,1.15-2.98-1.07.94-1.7,2.13-2.04,3.29-.17.06-.33.13-.49.19.55-.97,1.02-1.95,1.06-2.97-1.05.96-1.67,2.21-1.97,3.37-.12.06-.24.12-.36.18.09-.26.14-.52.14-.8-.5.38-.84.83-1.06,1.31-.17.1-.35.21-.52.32.04-.23.08-.48.12-.74.92-.69,1.8-1.58,2.3-2.77-.79.34-1.44.9-2.06,1.56.05-.24.11-.49.18-.75.88-.43,1.92-1.28,2.4-2.32-.81.18-1.42.71-2.13,1.29.06-.21.12-.43.18-.65.9-.43,1.93-1.26,2.45-2.28-.78.14-1.4.6-2.09,1.12.07-.21.13-.42.21-.63.89-.43,1.88-1.21,2.41-2.18-.73.11-1.34.52-1.99.98.08-.21.16-.43.24-.64.89-.47,1.75-1.1,2.39-2.01-.69.14-1.31.44-1.92.82.09-.22.18-.43.27-.65.81-.47,1.6-1.09,2.14-1.98-.74.11-1.36.44-1.93.88l-.03-.03c.54-.76,1.3-1.94,1.31-3.33-.91.67-1.48,1.92-1.74,2.9l-.07-.07s-.04.08-.07.12c-.06-.75-.2-1.47-.53-2.13-.27,1.15-.22,2.31-.06,3.37-.09.21-.18.42-.27.65-.19-.78-.46-1.5-.92-2.12-.15,1.18.1,2.3.48,3.29-.07.19-.14.39-.21.59-.26-.84-.51-1.6-1.03-2.18-.13,1.14.2,2.42.65,3.34-.06.19-.12.38-.18.58-.17-.48-.45-1.15-1.08-1.72,0,1.28.35,2.16.76,2.8-.07.23-.13.46-.2.69-.24-.67-.48-1.28-.96-1.75-.13,1.01.2,2.13.64,2.95-.04.16-.09.33-.13.49-.15-.41-.35-.73-.68-1.15-.11,1,.17,1.59.43,2.14-.09.36-.18.73-.27,1.1-.15-.46-.3-.92-.46-1.38.08-.49.07-.95-.03-1.37-.09.12-.2.27-.29.45-.04-.11-.08-.21-.12-.32.43-.72.69-1.43.73-2.13-.32.22-.72.59-1.1,1.13-.04-.1-.07-.2-.11-.3.6-.74.98-1.5,1.06-2.3-.41.2-.96.6-1.44,1.31-.05-.13-.1-.26-.15-.39.93-.78,1.27-1.41,1.37-2.39-1.01.81-1.38,1.23-1.68,1.62-.06-.15-.12-.3-.18-.44.99-.88,1.53-1.63,1.64-2.64-.64.52-1.36,1.2-1.91,1.98-.07-.16-.14-.33-.21-.49.98-.84,1.7-1.8,2.04-2.76-.6.34-1.5,1.02-2.35,2.03-.06-.13-.11-.25-.17-.38,1.06-.96,1.83-1.92,2.19-2.88-.62.32-1.58,1.02-2.46,2.26-.07-.17-.15-.33-.22-.49,1.08-.88,1.88-1.78,2.24-2.72-.64.28-1.62.91-2.52,2.11-.08-.17-.16-.33-.23-.5,1.03-.79,1.79-1.64,2.13-2.58-.59.21-1.51.77-2.34,1.97l.12.41c-.08-.18-.17-.35-.25-.52l.02-.48c.93-.69,1.61-1.45,1.92-2.31-.58.18-1.48.88-2.3,2.02l-.03-.02-.07-.15.05-.16h-.01c.7-.86,1.16-1.72,1.24-2.61-.47.26-1.08,1-1.57,2.08.19-1.77.05-2.51-.29-3.01-.43.63-.47,1.74-.25,2.69-.61-.5-1.19-.79-1.58-.85.28.59.75,1.1,1.35,1.54h0c-.54-.13-1.06-.19-1.53-.22.43.58,1.13.96,1.99,1.24l.15.33c-.88-.41-1.67-.54-2.21-.52.6.7,1.53,1.16,2.66,1.51.06.13.12.26.17.39-1.03-.43-1.98-.67-2.6-.69.65.71,1.69,1.19,2.94,1.47.06.15.13.29.19.44-1.19-.44-2.27-.66-2.94-.65.77.68,1.91,1.11,3.24,1.33.06.13.11.26.17.39-1.18-.41-2.26-.54-2.93-.53.78.69,1.94,1.17,3.29,1.38.06.15.13.3.19.46-1.15-.4-2.2-.51-2.85-.49.75.68,1.88,1.14,3.19,1.33l.13.31c-1.04-.31-2-.36-2.58-.31.68.58,1.7.94,2.88,1.05.06.16.13.31.19.47-.95-.36-1.83-.46-2.36-.42.62.62,1.56,1.03,2.66,1.17.06.14.11.28.17.43-.63-.26-1.17-.35-1.57-.36.46.62,1.15,1.11,2.01,1.5l.15.4c-.55-.33-1.05-.48-1.4-.52.36.6.97,1.09,1.76,1.5l.04.03c.11.28.22.56.33.85-.47-.51-.94-.8-1.28-.94.14.51.44,1,.86,1.47l-.13.1-.06.04c-.2-.11-.4-.22-.61-.32-.17-.95-.66-1.94-1.68-2.71-.05.81.32,1.54.78,2.28-.16-.07-.32-.14-.49-.21-.25-1.03-.8-2.1-1.84-2.93,0,.91.42,1.73.94,2.58-.2-.07-.41-.15-.62-.22-.19-1-.65-2.04-1.57-2.91-.06.91.28,1.76.73,2.64-.16-.05-.33-.1-.5-.15-.18-1.02-.65-2.1-1.58-2.98-.07.95.32,1.84.8,2.77-.15-.04-.29-.08-.44-.11-.19-1.03-.61-2.07-1.58-2.97-.05.98.32,1.84.83,2.79-.17-.04-.33-.07-.5-.11-.2-1.03-.66-2.07-1.64-2.91-.04.98.36,1.84.87,2.75-.21-.04-.42-.08-.63-.12-.11-.95-.46-1.91-1.42-2.75-.11.92.26,1.72.77,2.63-.4-.07-.81-.13-1.22-.19l.62.07c-.21-.95-.73-1.78-1.8-2.53-.01.94.53,1.59,1.14,2.46-.2-.03-.39-.05-.59-.08-.33-.8-.85-1.58-1.99-2.26-.02.79.44,1.43,1.1,2.15-.15-.02-.29-.03-.44-.05-.46-.69-1.2-1.31-2.38-1.77.1.68.6,1.16,1.23,1.66-.19-.02-.38-.03-.58-.05-.47-.54-1.21-.99-2.36-1.08.08.36.38.71,1.05,1.14-.63-.04-1.42.06-2.24.3.52.37,1.4.58,2.31.5-.5.35-1.02.79-1.13,1.27,1.16-.09,1.81-.57,2.16-1.14.2.01.39.03.58.05-.75.44-1.28.94-1.45,1.54.72-.09,1.55-.56,2.45-1.45.17.02.33.03.5.05-.77.51-1.36,1.09-1.65,1.74.7-.13,1.6-.66,2.64-1.62.12.02.24.03.36.05-.66.5-1.16,1.06-1.59,1.83.69-.13,1.57-.72,2.54-1.7.17.02.33.05.5.08-.99.68-1.59,1.23-1.9,1.8.81-.13,1.69-.59,2.82-1.65.14.02.28.05.41.08-.98.71-1.54,1.34-1.82,1.87.99-.3,1.85-.82,2.73-1.69.12.03.24.05.37.08-1.01.77-1.62,1.47-1.84,2.04.99-.31,1.9-.89,2.7-1.84.16.04.31.08.46.12-1.11.79-1.63,1.36-1.89,1.95,1.03-.32,1.82-.75,2.68-1.73.12.04.24.07.36.11-1.02.77-1.49,1.32-1.71,1.89.98-.31,1.73-.72,2.52-1.64.13.05.27.09.4.14-.69.43-1.27.91-1.58,1.6,1.06-.17,1.75-.71,2.33-1.33.12.05.23.09.35.14-.57.43-1.16.85-1.51,1.47.98-.16,1.6-.65,2.13-1.21.2.09.39.18.59.27-.2,0-.41.02-.63.06.14.15.28.28.44.39l.18.54c-.42-.11-.87-.14-1.36-.07.1.13.21.24.33.34-.23.03-.45.06-.67.1-.43-.17-.92-.25-1.46-.21.11.15.23.29.36.41-.1.02-.2.04-.3.06-.48-.47-1.41-.81-2.7-.88.37.53.87.81,1.54,1.17-.19.05-.37.1-.55.16-.61-.59-1.36-.96-2.42-.97.39.65.93.95,1.6,1.23-.16.06-.32.11-.48.17-.67-.6-1.49-.96-2.59-.88.46.66,1.08.92,1.83,1.17-.15.06-.3.12-.45.19-.77-.53-1.67-.89-2.83-.69.55.6,1.22.86,2.03,1.04-.17.08-.34.16-.51.25h.01c-.82-.5-1.77-.75-2.93-.46.6.57,1.32.73,2.17.84-.2.1-.39.21-.59.32-.77-.46-1.61-.64-2.7-.35.56.56,1.19.67,1.95.78-.13.08-.26.15-.39.23-.82-.32-1.71-.39-2.74,0,.56.42,1.15.52,1.83.55-.13.08-.25.16-.38.24-.79-.18-1.62-.13-2.54.33.62.37,1.24.4,1.95.36-.59.4-1.25,1.05-1.73,1.78.73-.06,1.89-.69,2.6-1.52-.52.97-.94,1.8-.86,2.83,1-.92,1.46-1.94,1.64-3.01.14-.1.27-.19.4-.28-.47,1.19-.42,1.89-.25,2.52.64-1.08.92-1.74,1.03-3.03.14-.09.29-.18.43-.27-.32,1.09-.31,1.76-.22,2.39.51-.84.81-1.48.96-2.83.11-.07.23-.13.34-.19-.37,1.39-.32,1.96-.27,2.47.56-.84.89-1.48,1.09-2.9.13-.07.26-.13.39-.19-.47,1.38-.46,1.95-.44,2.46.62-.81.99-1.43,1.29-2.85.16-.07.32-.14.49-.2-.59,1.32-.65,1.88-.68,2.39.69-.77,1.13-1.37,1.57-2.71.18-.06.36-.12.54-.18-.93,1.37-.97,1.96-1.1,2.49.95-.75,1.29-1.31,2.14-2.79.19-.05.39-.1.59-.15-1.04,1.14-1.09,1.49-1.39,2.08,1.08-.68,1.52-.91,2.52-2.32.11-.02.21-.04.32-.06-.31.42-.41.69-.61,1.06.76-.44,1.21-.68,1.76-1.24.27-.04.55-.07.82-.11l.12.37c-.45.11-.93.29-1.43.57.41.05.9.07,1.35.08-.09.07-.18.14-.26.21-.92.03-1.86.14-2.97.76.61.08,1.4.09,1.96.09-.1.09-.21.18-.31.28-1.32-.08-2.46.09-3.1.51,1.1.15,1.69.11,2.43.11-.1.09-.19.18-.28.27-1.43-.11-2.6-.03-3.29.43,1.12.34,1.75.32,2.6.27-.11.12-.22.24-.33.35-1.43-.16-2.6-.13-3.3.3,1.17.4,1.8.38,2.7.37-.14.16-.27.32-.4.48-1.14-.26-2.16-.23-3.23.12.92.47,1.79.46,2.76.47-.12.16-.24.32-.36.48-1.57-.25-2.53-.1-3.28.21,1.06.51,1.91.48,2.78.49-.11.16-.22.32-.33.48-1.61-.33-2.34-.33-3.11-.03.74.63,1.54.67,2.71.65-.1.16-.19.31-.29.47-1.62-.25-2.27-.2-3.1.13.79.69,1.47.65,2.68.61-.09.16-.18.33-.27.49-1.28-.22-2.33-.15-2.98.2.99.65,2.05.54,2.64.47-.06.13-.13.26-.19.39-.79.34-1.47.94-1.96,1.98.82-.06,1.75-.78,2.49-1.44-.1.97-.13,2.11.29,2.79.51-.8.52-2.06.4-3.37.05-.12.11-.24.16-.36.05.87.19,1.8.62,2.36.41-.86.24-2.17-.05-3.51.05-.1.11-.2.16-.3.25,1.5.57,2.03.86,2.51.27-1.07.15-2.06-.33-3.43.09-.15.19-.3.29-.45.2,1.62.52,2.16.82,2.65.29-1.06.18-2.05-.28-3.45.12-.17.24-.33.36-.49.12,1.8.43,2.37.73,2.88.35-1.09.27-2.11-.17-3.6.14-.17.28-.34.41-.5.07,1.67.3,2.47.57,2.95.25-.95.29-2.08.15-3.76.11-.12.22-.24.33-.35-.13,1.76.02,2.6.24,3.1.37-.96.52-2.12.55-3.9.14-.13.39-.26.53-.39l-.39,14.71h.61l.02-.74c.33-.22.72-.49,1.01-.63.19.09,1.52.96,1.6.95.08-.07-.09-.3-.35-.59.34-.22.77-.52,1.08-.67.4.19,1.01.63,1.36.84l.1,4.06h.61c-.15-5.84-.3-11.6-.45-17.42.1.07.2.13.32.18.01-.38-.08-.76-.24-1.15.19.18.38.36.57.55-.17.78-.28,1.61.29,2.17.3-.41.37-.9.38-1.46.12.13.23.26.35.39-.19.9-.29,1.83.19,2.52.31-.47.42-1.04.47-1.71.13.16.25.33.38.5-.27.9-.47,1.86-.03,2.6.36-.46.52-1.06.62-1.77.11.17.23.34.34.52-.33.96-.62,2-.19,2.81.41-.5.58-1.16.71-1.94.1.18.21.36.31.55-.37.96-.71,2.08-.23,3,.43-.49.67-1.1.79-1.93.09.17.17.35.25.52l-.06.06c-.24,1.21-.48,2.3-.24,3.16.37-.47.6-1.26.69-2.35.06.13.11.26.17.39-.04,1.02.15,1.71.6,2.17.38-.52.35-1.17.12-2.03.7.57,1.28.87,1.92.73-.24-.59-.78-1.04-1.72-1.41-.05-.1-.09-.2-.14-.3l.07.08c1.27.51,2.18.76,2.94.45-.6-.59-1.62-.91-3.24-1.01-.08-.18-.17-.35-.25-.52,1.26.35,2.38.68,3.27.47-.64-.58-1.85-.95-3.56-1.04-.07-.14-.14-.28-.22-.42h0c1.29.34,2.31.47,3.26.17-.66-.55-1.88-.84-3.64-.86-.1-.18-.21-.36-.31-.54,1.23.29,2.25.41,3.16.1-.66-.53-1.9-.82-3.61-.82-.12-.18-.24-.36-.36-.54,1.09.21,1.97.26,2.78-.12-.59-.49-1.7-.7-3.27-.55-.13-.17-.26-.34-.39-.5.96.05,1.63.13,2.37-.11-.58-.48-1.47-.71-2.93-.54-.14-.15-.27-.31-.42-.46.49,0,.93-.05,1.38-.21-.47-.36-1.13-.56-2.11-.52-.16-.16-.33-.31-.5-.47.32,0,.62-.04.94-.14-.41-.35-.98-.58-1.82-.64-.24-.2-.49-.4-.74-.61l.02-.05c.41.17.79.29,1.24.32-.2-.37-.52-.71-1.01-1l.07-.22c.17.08.35.15.54.2-.05-.15-.11-.3-.19-.45.12.01.23.03.35.04.19.69.48,1.29.94,1.7.03-.49,0-1.01-.09-1.55.09.02.17.03.26.05.18,1.08.48,2.1,1.15,2.69.05-.77-.06-1.6-.29-2.49.16.04.31.08.47.13.17,1.2.47,2.36,1.2,3.01.06-.84-.08-1.75-.36-2.74.19.07.38.13.56.21.06,1.18.25,2.31.9,3.01.14-.81.09-1.69-.07-2.67.16.07.32.15.48.22.06,1.37.27,2.68.89,3.5.13-.93.09-1.95-.05-3.07.14.08.29.16.43.24.05,1.45.24,2.85.9,3.72.13-.97.09-2.03-.07-3.2.11.07.22.15.33.22.06,1.44.25,2.83.9,3.68.13-.93.1-1.94-.05-3.06.14.11.27.22.41.33-.04,1.35.06,2.64.62,3.45.18-.83.23-1.73.2-2.7.11.1.21.21.31.31-.09,1.15-.03,2.25.5,2.93.19-.62.27-1.29.29-2.01.44.8,1.14,1.78,1.9,2.11-.11-1.1-.65-1.86-1.32-2.39l.18-.2c.72.27,1.4.4,2.05.36-.65-.81-1.38-1.09-2.63-1.29-.1-.13-.21-.27-.33-.4,1.07.18,2.05.27,2.9.01-1.29-.59-2.51-.76-3.57-.71-.12-.11-.24-.22-.37-.33,1.05.05,2,.01,2.84-.32-1.31-.43-2.56-.47-3.65-.33-.15-.11-.31-.23-.47-.34,1.06-.07,2-.19,2.85-.64-1.35-.27-2.58-.18-3.68.12-.17-.1-.35-.2-.53-.3,1.03-.12,1.97-.32,2.8-.78-1.35-.22-2.63-.05-3.75.3-.17-.08-.34-.16-.52-.23,1.09-.14,2.09-.39,2.96-.88-1.45-.24-2.81.06-3.98.47-.14-.05-.27-.1-.41-.15.95-.24,1.89-.56,2.58-1.12-1.25-.1-2.55.3-3.53.81-.19-.06-.37-.11-.56-.16.73-.22,1.58-.54,2.29-1.22-1.31-.06-2.45.4-3.3.97-.25-.06-.5-.11-.75-.16.89-.24,1.67-.56,2.31-1.14-1.04-.12-2.02.14-2.91.57l-.47-.21c0,.05.01.11.02.16l-.43-.31c.61.04,1.27-.08,1.92-.46-.61-.28-1.28-.21-1.99-.08.39-.22.8-.44,1.22-.63.43.4,1.03.47,1.76.47-.2-.33-.59-.63-.92-.84.14-.06.28-.11.43-.17.42.47,1,.68,1.81.92-.15-.52-.52-.91-.94-1.21.12-.04.23-.07.35-.11.43.56,1.06.92,1.69,1.25,0-.55-.22-1.04-.73-1.5.14-.03.27-.06.41-.08.45.78,1.02,1.37,1.7,1.88-.07-.73-.34-1.39-.89-2.01.2-.02.39-.04.59-.06.35.98.86,1.71,1.52,2.33.03-.86-.17-1.65-.66-2.37.22,0,.45,0,.67.01.14,1.08.42,1.89.98,2.59.12-.84.1-1.66-.21-2.53.12.02.25.03.37.05.04,1.18.26,2.05.8,2.79.19-.87.23-1.74-.06-2.64.14.03.28.07.41.11.01,1.1.2,1.92.69,2.63.2-.78.28-1.55.11-2.35.1.04.21.08.31.13.11.99.38,1.75.89,2.41.12-.68.15-1.36,0-2.05.7.99,1.41,1.87,2.39,2.41-.39-1.18-1.07-2.15-1.85-2.92.66,0,1.28-.07,1.84-.41-.98-.54-1.9-.48-2.78-.33-.16-.09-.32-.16-.49-.24.87-.32,1.66-.62,2.21-1.25-1.22-.05-2.13.46-2.97.97-.15-.05-.31-.09-.47-.13h0Zm-10.6,14.37c-.41.48-1,1.25-.93,1.32.14,0,.66-.38,1.14-.68l.12-.04.07,2.86c-.29-.4-1.03-1.09-1.4-1.55-.07-.07-.12-.1-.19,0-.07.09-.16.19-.26.29-.35-.39-.86-.89-1.15-1.24-.07-.07-.12-.1-.19,0-.31.38-.88.93-1.23,1.33l.06-2.32c.35-.23.81-.55,1.14-.71.29.14.69.41,1.03.63-.31.33-.52.61-.44.69.14,0,1.33-.82,1.6-.95.18.09.41.23.64.37h0Zm-1.29,8.4c.07-.1.13-.07.19,0,.5.61,1.69,1.67,1.51,1.84-.15.02-1.07-.69-1.6-.95-.53.26-1.41.96-1.6.95-.18-.17,1.01-1.22,1.51-1.84h0Zm-2.87-.85l.05-1.8c.35-.23.84-.58,1.19-.74.28.14,1.5.96,1.6.95.09-.08-.16-.38-.49-.74.32-.21.69-.46.96-.59.38.18.96.59,1.31.81l.06,2.19c-.35-.41-.93-.97-1.25-1.35-.07-.07-.12-.1-.19,0-.31.37-.86.91-1.21,1.31-.32-.34-.69-.71-.92-.99-.07-.07-.12-.1-.19,0-.22.27-.58.64-.9.97h0Zm2.09-2.6c-.28-.29-.57-.59-.76-.82-.07-.07-.12-.1-.19,0-.27.33-.73.78-1.08,1.16l.07-2.6c.35-.21.94-.64,1.34-.84.28.14.68.4,1.01.62-.53.55-1.14,1.16-1.01,1.28.19,0,1.07-.69,1.6-.95.46.22,1.22.79,1.51.92l.03,1.32c-.35-.4-.9-.93-1.2-1.3-.07-.07-.12-.1-.19,0-.28.34-.77.82-1.12,1.21h0Zm.51-5.31c-.35-.39-.88-.9-1.17-1.26-.07-.07-.12-.1-.19,0-.26.31-.69.74-1.03,1.11l.06-2.3c.31-.21.67-.45.93-.58.33.16.82.5,1.17.72-.39.41-.7.77-.6.86.19,0,1.07-.69,1.6-.95.3.14.72.43,1.05.65l.05,1.77c-.3-.32-.64-.66-.85-.92-.07-.07-.12-.1-.19,0-.21.25-.53.58-.83.89h0Zm-2.32-3.03l.07-2.64c.11-.01.25-.07.39-.18.05-.04.1-.09.14-.13.05.06.16.07.28.04-.05.03-.1.06-.16.1-.22.18-.33.41-.24.52.09.11.34.06.56-.12.22-.18.33-.41.24-.52-.05-.06-.16-.07-.28-.04.05-.03.1-.06.16-.1.09-.07.16-.15.2-.22,0,.05,0,.09.03.12.09.11.34.06.56-.12.11-.09.2-.19.24-.29.11,0,.26-.07.4-.18.06-.05.11-.1.15-.15.09.11.34.06.56-.12.03-.03.06-.05.09-.08l.03.02s.03.09.05.14c-.02.02-.05.03-.07.05-.09.07-.16.15-.2.22,0-.05,0-.09-.03-.12-.09-.11-.34-.06-.56.12-.14.11-.23.24-.26.35-.12-.03-.31.03-.48.17-.17.13-.27.3-.27.42-.1.02-.22.08-.33.17-.22.18-.33.41-.24.52.09.11.34.06.56-.12.17-.13.27-.3.27-.42.1-.02.22-.08.33-.17.14-.11.23-.24.26-.35.05.01.12,0,.2-.01-.05.03-.1.06-.16.1-.22.18-.33.41-.24.52.09.11.34.06.56-.12.22-.18.33-.41.24-.52-.05-.06-.16-.07-.28-.04.05-.03.1-.06.16-.1.09-.07.16-.15.2-.22,0,.05,0,.09.03.12.08.1.3.07.5-.08.11.27.23.53.38.76l.09,3.44c-.32-.34-.71-.73-.94-1.01-.07-.07-.12-.1-.19,0-.18.22-.44.49-.69.75-.34-.41-.96-.99-1.28-1.39-.07-.07-.12-.1-.19,0-.21.25-.53.58-.82.89h0Z"/>
    <path class="cls-4" d="m83.86,78.53c-6.24,8.01-15.98,13.16-26.92,13.16-8.76,0-16.75-3.31-22.79-8.74l-8.3,9.74c8.28,7.34,19.16,11.79,31.09,11.79,13.77,0,26.15-5.94,34.73-15.39l-7.82-10.57h0Z"/>
    <path class="cls-10" d="m14.3,61.6l-.02-1.17,1.83-1.31v-.31s-1.86.03-1.86.03l-.02-.99,4.71-.09.03,1.47c0,.33-.03.61-.1.84-.07.23-.18.42-.3.56-.13.14-.28.25-.45.31-.17.07-.35.1-.55.1-.17,0-.33-.02-.47-.07-.14-.05-.27-.11-.38-.2-.11-.08-.2-.18-.28-.3-.08-.12-.14-.24-.18-.37l-1.96,1.49h0Zm3.21-1.57c.22,0,.38-.07.5-.2.12-.13.17-.31.17-.54v-.53s-1.35.02-1.35.02v.53c.01.23.08.4.2.53.12.12.28.18.48.18h0Zm1.16,4.52l-.24-1.81-1.01.13.23,1.75-.81.11-.23-1.75-1.16.16.25,1.88-.85.11-.38-2.86,4.67-.63.37,2.79-.85.11h0Zm1.66-.7l-.71-1.27.53-.33.82,1.2-.64.4h0Zm-1.63,3.9c.09-.02.18-.06.26-.11.08-.05.15-.11.2-.19.05-.08.08-.17.1-.28.01-.11,0-.23-.03-.37l-.11-.48-1.42.33.11.46c.04.16.09.29.15.38.06.09.14.16.22.21.08.05.16.07.26.08.09,0,.18,0,.27-.02h0Zm.97-2.58l.34,1.47c.06.25.08.48.07.71,0,.22-.06.43-.14.61-.09.18-.21.34-.38.47-.17.13-.37.23-.63.29-.46.11-.86.05-1.19-.18-.33-.23-.57-.64-.71-1.24l-.11-.47-1.62.37-.22-.96,4.59-1.06h0Zm-3.17,6.76c-.08-.24-.11-.47-.11-.7,0-.23.05-.44.15-.65.1-.2.26-.39.47-.56.21-.17.5-.31.85-.43l2.71-.88.3.94-2.78.9c-.33.11-.56.26-.7.45-.14.19-.17.41-.09.65.05.15.12.26.2.34.09.08.19.14.3.16.11.03.24.04.37.02.14-.01.28-.05.42-.09l2.78-.9.3.93-2.7.87c-.35.11-.66.17-.93.16-.27,0-.51-.06-.71-.16-.2-.1-.37-.24-.51-.43-.14-.18-.25-.4-.33-.65h0Zm5.51.71l.54,1.19c.1.22.17.44.21.64.04.2.04.39.01.56-.03.17-.1.32-.2.46-.1.13-.25.24-.43.32-.12.06-.24.08-.36.09-.12,0-.23-.01-.34-.05-.11-.04-.21-.09-.3-.16-.1-.07-.18-.15-.25-.25h-.01c.05.18.07.34.06.5-.01.15-.05.29-.1.42-.06.13-.14.24-.24.33-.1.1-.21.17-.34.23-.2.09-.39.13-.58.12-.19,0-.36-.05-.53-.14s-.32-.21-.45-.37c-.14-.16-.25-.34-.35-.56l-.63-1.4,4.3-1.94h0Zm-2.08,3.35c.18-.08.3-.21.36-.39.06-.18.03-.38-.07-.61l-.19-.43-1.24.56.21.47c.1.22.23.37.39.43.16.07.34.05.54-.04h0Zm1.72-1.03c.16-.07.26-.18.29-.34.03-.15,0-.33-.08-.53l-.13-.3-1.04.47.15.33c.1.21.22.35.36.4.14.05.29.04.46-.03h0Zm2.02,1.01l.49.86-3.36,1.9.94,1.65-.75.42-1.42-2.51,4.1-2.32h0Zm1.66,2.74l.57.81-3.86,2.71-.57-.81,3.86-2.71h0Zm-.48,6.99c-.32-.14-.6-.36-.84-.64-.28-.33-.47-.66-.56-1-.09-.34-.11-.66-.06-.97.05-.31.16-.6.32-.87.16-.27.35-.5.57-.69.25-.22.54-.38.85-.48.31-.1.63-.14.95-.13.32.02.63.1.94.24.3.14.57.35.81.63.25.29.43.6.52.93.1.32.13.64.09.96-.04.31-.13.61-.29.9-.16.28-.36.53-.6.74-.27.23-.57.4-.9.5-.33.1-.66.13-.99.1l-.18.98-.82-.15.19-1.05h0Zm.08-3.41c-.17.15-.31.32-.41.51-.1.19-.16.38-.18.57-.02.2,0,.39.05.58.06.19.15.37.29.53.1.12.22.21.36.29l.17-.96.82.15-.19,1.01c.18,0,.36-.04.54-.11.18-.07.35-.17.51-.31.17-.15.31-.31.41-.5.1-.18.17-.37.19-.56.03-.19.01-.39-.04-.58-.05-.19-.16-.38-.3-.55-.14-.16-.3-.28-.48-.37-.18-.08-.37-.13-.57-.14-.2,0-.4.02-.6.1-.2.07-.39.18-.56.33h0Zm2.65,6.54c-.18-.17-.32-.36-.43-.56-.11-.2-.17-.42-.18-.64,0-.23.04-.47.15-.72.11-.25.29-.51.55-.78l1.96-2.07.72.68-2.01,2.12c-.24.25-.37.49-.4.73-.03.24.05.44.23.62.11.11.23.18.34.21.11.03.23.03.34,0,.11-.03.23-.08.34-.16.11-.08.22-.17.32-.28l2.01-2.12.71.68-1.95,2.06c-.25.26-.5.46-.74.59-.24.13-.47.19-.7.2-.23,0-.45-.04-.66-.13-.21-.1-.41-.23-.6-.41h0Zm6.87.52l-1.44-1.13-.63.8,1.39,1.09-.5.64-1.39-1.09-.72.92,1.5,1.17-.53.67-2.27-1.78,2.91-3.71,2.21,1.74-.53.67h0Zm2.41.54l.86.49-2.34,4.09-.86-.49,2.34-4.09h0Zm2.97,3.04c.07-.16.08-.31.04-.45-.04-.14-.14-.25-.29-.33-.14-.07-.27-.09-.41-.06-.13.03-.23.12-.3.25-.08.16-.08.31,0,.47.09.16.22.33.4.51.35.37.56.71.62,1.04.06.33,0,.65-.16.97-.08.15-.19.29-.32.42-.14.13-.3.22-.48.28-.18.06-.38.09-.6.07-.22-.01-.45-.09-.7-.21-.21-.11-.38-.24-.53-.39-.14-.15-.25-.32-.31-.5s-.09-.38-.09-.59c0-.21.06-.42.16-.65l.86.45c-.08.21-.1.39-.07.56.04.17.15.3.35.4.17.09.33.11.49.05.15-.06.27-.16.34-.3.09-.18.11-.35.04-.52-.06-.17-.21-.36-.43-.59-.34-.36-.54-.69-.6-1.01-.05-.32,0-.62.14-.9.09-.18.21-.32.35-.43.14-.11.3-.18.47-.22.17-.04.35-.05.55-.02.19.03.38.09.56.19.2.1.37.23.5.37.13.14.23.3.29.47.06.17.09.34.07.53-.01.19-.06.37-.15.56l-.83-.43h0Zm1.97-.42l.92.36-1.39,3.6,1.77.69-.31.8-2.69-1.04,1.7-4.4h0Zm4.38,1.57l.89.26.36,5.01-.98-.28-.06-1.13-1.67-.48-.66.93-.96-.28,3.07-4.02h0Zm-1.03,2.76l1.22.35-.06-1.19c0-.14-.01-.27-.01-.39,0-.12,0-.24,0-.36h-.03c-.13.21-.27.42-.42.62l-.69.97h0Zm7.96,3.36l-.95-.13.08-2.33c0-.08,0-.16,0-.26,0-.09,0-.19,0-.28,0-.09,0-.18.01-.27,0-.09,0-.17.01-.24h-.04c-.06.14-.13.3-.2.49-.07.18-.15.35-.22.5l-.98,2.2-.69-.09-.38-2.42c-.03-.15-.05-.32-.08-.5-.02-.18-.04-.36-.06-.54h-.05c-.03.15-.06.31-.1.48-.04.17-.07.34-.11.48l-.55,2.3-.88-.12,1.18-4.6,1.08.14.39,2.3c.02.14.05.29.07.45.02.16.04.31.06.44h.03c.05-.12.11-.26.18-.41.07-.15.13-.29.18-.41l.97-2.12,1.08.14-.05,4.75h0Zm1.31-4.66l.99.07-.36,4.7-.99-.07.36-4.7h0Zm5.09,4.68c-.32.15-.66.23-1.03.24-.43,0-.81-.06-1.13-.21-.32-.15-.58-.34-.79-.58-.21-.24-.36-.5-.47-.8-.1-.3-.16-.59-.16-.88,0-.34.05-.66.17-.96.12-.3.29-.57.51-.81.22-.23.48-.42.78-.56.3-.14.64-.22,1-.22.39,0,.74.06,1.05.19.31.13.58.31.79.54.22.23.39.49.51.79.12.3.18.61.19.94,0,.36-.06.7-.19,1.01-.13.32-.32.59-.55.83l.64.76-.64.53-.69-.82h0Zm-2.57-2.24c0,.23.05.44.13.64.08.2.19.37.32.51.14.14.3.25.48.33s.38.12.59.11c.15,0,.3-.03.45-.09l-.63-.74.64-.53.66.79c.11-.14.2-.31.26-.49.06-.18.09-.38.09-.59,0-.23-.04-.44-.12-.63-.08-.2-.18-.37-.31-.51-.13-.14-.29-.26-.47-.34-.18-.08-.39-.12-.61-.12-.21,0-.41.05-.59.14-.18.09-.34.2-.47.35-.13.15-.24.32-.31.52-.07.2-.11.41-.1.64h0Zm6.72,1.99c-.25.04-.48.05-.71.01-.23-.03-.43-.12-.62-.24-.19-.13-.35-.31-.49-.55-.14-.24-.24-.54-.3-.91l-.48-2.81.97-.17.49,2.88c.06.34.17.59.34.76.17.17.38.23.63.19.15-.03.28-.08.37-.15.09-.07.16-.17.21-.27.04-.11.07-.23.07-.37,0-.14,0-.28-.03-.43l-.49-2.88.97-.17.48,2.79c.06.36.07.67.03.94-.04.27-.13.5-.26.68-.13.19-.3.33-.5.45-.2.11-.43.19-.69.23h0Zm4.48-5.12l-1.75.51.28.98,1.69-.49.23.78-1.69.49.32,1.12,1.83-.53.24.82-2.78.8-1.31-4.53,2.7-.78.24.82h0Zm3.41-2.1c.39-.17.75-.27,1.1-.29.35-.02.66.02.95.13.29.11.54.27.76.48.22.21.39.47.53.76.13.29.2.59.22.9.01.31-.04.61-.15.89-.12.29-.29.56-.54.8-.24.25-.55.46-.93.63l-1.46.66-1.94-4.3,1.47-.67h0Zm1.55,3.52c.25-.11.46-.25.61-.4.15-.16.26-.32.33-.5.06-.18.09-.36.07-.55-.02-.19-.07-.38-.15-.57-.09-.2-.21-.37-.34-.51-.14-.14-.29-.24-.47-.3-.18-.06-.37-.09-.59-.07-.21.02-.44.08-.69.19l-.54.24,1.22,2.71.54-.24h0Zm4.13-5.47l-1.59.9.5.88,1.53-.87.4.71-1.53.87.58,1.02,1.65-.94.42.75-2.51,1.42-2.32-4.1,2.45-1.39.42.75h0Zm8.29-1.28l-.75.59-1.61-1.68c-.06-.06-.12-.12-.18-.18-.06-.07-.13-.13-.19-.2-.06-.07-.13-.13-.19-.2-.06-.06-.11-.12-.16-.17l-.03.03c.06.15.13.31.21.49.08.18.15.35.21.51l.89,2.24-.54.43-1.99-1.41c-.13-.09-.26-.19-.41-.29-.15-.11-.29-.22-.42-.33l-.04.03c.09.13.18.27.28.42.1.15.19.29.27.41l1.26,2-.7.55-2.47-4.06.86-.67,1.92,1.33c.12.08.24.17.37.26.13.09.25.18.36.26l.02-.02c-.05-.12-.11-.26-.17-.42-.06-.16-.12-.3-.16-.42l-.84-2.17.85-.67,3.37,3.35h0Zm-1.76-4.93l.64-.67,4.61,1.98-.7.74-1.03-.47-1.2,1.26.52,1.01-.68.72-2.16-4.57h0Zm1.98,2.19l.87-.92-1.08-.49c-.13-.06-.25-.11-.35-.17-.11-.05-.21-.11-.32-.17l-.02.03c.13.21.26.44.37.66l.54,1.06h0Zm4.98-2.71c-.15.2-.33.36-.51.48-.19.13-.4.2-.62.24-.23.03-.47,0-.73-.08-.26-.08-.54-.24-.83-.47l-2.24-1.76.61-.78,2.3,1.8c.27.21.53.32.77.33.24,0,.44-.09.59-.29.1-.12.15-.24.17-.36.02-.12,0-.23-.03-.34-.04-.11-.1-.22-.19-.32-.09-.1-.19-.2-.31-.3l-2.3-1.8.61-.77,2.23,1.75c.29.22.5.45.65.68.15.23.24.45.27.68.03.22,0,.45-.07.67-.08.22-.19.43-.36.64h0Zm3.61-5.6l-.63.99-2.25.09-.17.26,1.56.99-.53.83-3.98-2.52.78-1.24c.18-.28.36-.5.55-.65.19-.15.38-.25.56-.3.19-.05.37-.05.55-.01.18.04.35.11.51.22.14.09.26.2.35.31.09.12.16.24.21.37.05.13.07.26.07.4,0,.14-.02.28-.06.41l2.46-.17h0Zm-3.54-.45c-.18-.12-.36-.15-.53-.11-.17.04-.31.16-.44.36l-.28.44,1.13.72.28-.45c.12-.19.16-.37.13-.54-.03-.17-.13-.31-.3-.42h0Zm-.37-2.35l.46-.88,4.18,2.17-.46.88-4.18-2.17h0Zm1.96-2l-.47,1.02-.78-.36,1.35-2.95.78.36-.47,1.02,3.51,1.6-.41.91-3.51-1.6h0Zm.62-3.93l.3-.88,5.02-.11-.33.96h-1.13s-.57,1.65-.57,1.65l.89.7-.32.94-3.86-3.26h0Zm2.7,1.17l.41-1.2h-1.19c-.14,0-.27,0-.39,0-.12,0-.24-.01-.36-.02v.03c.2.14.4.29.6.45l.93.74h0Zm-.22-4.26c.05,0,.12.02.2.03.08,0,.16.02.24.03.08.01.16.02.24.03.08.01.14.02.2.03l2.31.4-.14.84-4.65-.8.14-.84,2.22-.95c.18-.08.34-.15.48-.2.14-.05.26-.1.37-.14.11-.04.2-.07.28-.1.08-.03.15-.05.22-.07v-.02c-.06-.01-.12-.02-.2-.03-.08-.01-.15-.02-.23-.03-.08-.01-.15-.02-.23-.03-.07-.01-.13-.02-.18-.03l-2.38-.41.14-.84,4.65.8-.14.84-2.02.87c-.23.1-.43.18-.59.24-.16.07-.3.12-.41.16-.11.04-.21.08-.29.11-.08.03-.15.06-.22.08v.03h0Zm-.83-4.14l.13-.98,4.67.63-.13.98-4.67-.63h0Zm1.16-4.41l-.03,1.82,1.02.02.03-1.76.82.02-.03,1.76,1.17.02.04-1.9.86.02-.05,2.89-4.71-.09.05-2.81.86.02h0Z"/>
  </g>
  <g>
    <text class="cls-6" transform="translate(105.91 82.44)"><tspan x="0" y="0">MINISTRE DE LA SANT</tspan></text>
    <text class="cls-5" transform="translate(130.45 62.21)"><tspan x="0" y="0">Honneur - Fraternit - Justice</tspan></text>
    <text class="cls-8" transform="translate(107.01 44.21)"><tspan x="0" y="0">REPUBLIQUE ISLAMIQUE DE MAURITANIE</tspan></text>
    <rect class="cls-12" x="326" y="24" width="1" height="68"/>
    <text class="cls-7" transform="translate(338.1 47.44)"><tspan x="0" y="0">PORTAIL PBF</tspan></text>
    <text class="cls-5" transform="translate(338.1 71.44)"><tspan class="cls-9"><tspan x="0" y="0">FINANCEMENT BAS </tspan></tspan><tspan class="cls-13"><tspan x="0" y="14.4">SUR LA PERFORMANCE</tspan></tspan></text>
  </g>
</svg>