<?xml version="1.0" encoding="UTF-8"?>
<svg id="Layer_1" data-name="Layer 1" xmlns="http://www.w3.org/2000/svg" viewBox="0 0 256 256">
  <defs>
    <style>
      .cls-1 {
        fill: #010101;
      }
    </style>
  </defs>
  <path class="cls-1" d="m225.98,196.58c-1.78,0-3.23-1.45-3.23-3.23v-69.25h-87.99v69.25c0,1.78-1.45,3.23-3.23,3.23H22.96c-1.78,0-3.23-1.45-3.23-3.23v-113.93h-4.51c-1.78,0-3.23-1.45-3.23-3.23v-16.91c0-1.78,1.45-3.23,3.23-3.23h124.04c1.78,0,3.23,1.45,3.23,3.23v16.91c0,1.78-1.45,3.23-3.23,3.23h-4.51v21.32h106.02c1.78,0,3.23,1.45,3.23,3.23v16.91c0,1.78-1.45,3.23-3.23,3.23h-11.57v69.25c0,1.78-1.45,3.23-3.23,3.23Zm-135.72-48.38c1.78,0,3.23,1.45,3.23,3.23v38.7h34.82v-110.71H26.19v110.71h34.82v-38.7c0-1.78,1.45-3.23,3.23-3.23h26.02Zm-22.8,41.93h19.57v-35.48h-19.57v35.48Zm67.3-72.48h102.79v-10.46h-102.79v10.46ZM18.45,72.97h117.59v-10.46H18.45v10.46Z"/>
  <path class="cls-1" d="m200.94,199.95c-1.78,0-3.23-1.45-3.23-3.23v-2.96h-36.68v2.96c0,1.78-1.45,3.23-3.23,3.23s-3.23-1.45-3.23-3.23v-2.96h-5c-1.78,0-3.23-1.45-3.23-3.23v-20.75c0-3.89,2.46-7.39,6.13-8.73l1.32-.48v-11.59c0-5.9,4.8-10.69,10.69-10.69h29.73c5.9,0,10.7,4.8,10.7,10.69v11.59l1.32.48c3.67,1.34,6.13,4.84,6.13,8.73v20.75c0,1.78-1.45,3.23-3.23,3.23h-4.99v2.96c0,1.78-1.45,3.23-3.23,3.23Zm-45.28-33c-1.57,0-2.85,1.28-2.85,2.85v17.52h53.12v-17.52c0-1.57-1.28-2.85-2.85-2.85h-47.42Zm8.85-22.2c-2.34,0-4.24,1.9-4.24,4.24v11.5h38.22v-11.5c0-2.34-1.9-4.24-4.24-4.24h-29.73Z"/>
  <path class="cls-1" d="m162.62,182.68c-.84,0-1.68-.35-2.29-.95-.59-.6-.94-1.43-.94-2.28s.35-1.69.94-2.28c.6-.6,1.43-.94,2.28-.94s1.68.34,2.28.94c.61.61.95,1.44.95,2.29s-.35,1.69-.95,2.28c-.6.6-1.43.94-2.28.94Z"/>
  <path class="cls-1" d="m196.12,182.68c-.84,0-1.68-.35-2.29-.95-.59-.6-.94-1.43-.94-2.28s.34-1.68.94-2.28c.6-.6,1.43-.94,2.28-.94s1.68.34,2.28.94c.61.61.95,1.44.95,2.29s-.35,1.68-.95,2.29c-.59.59-1.43.94-2.28.94Z"/>
  <path class="cls-1" d="m51.85,116.15c-1.78,0-3.23-1.45-3.23-3.23v-11.02c0-1.78,1.45-3.23,3.23-3.23s3.23,1.45,3.23,3.23v11.02c0,1.78-1.45,3.23-3.23,3.23Z"/>
  <path class="cls-1" d="m77.25,116.15c-1.78,0-3.23-1.45-3.23-3.23v-11.02c0-1.78,1.45-3.23,3.23-3.23s3.23,1.45,3.23,3.23v11.02c0,1.78-1.45,3.23-3.23,3.23Z"/>
  <path class="cls-1" d="m102.64,116.15c-1.78,0-3.23-1.45-3.23-3.23v-11.02c0-1.78,1.45-3.23,3.23-3.23s3.23,1.45,3.23,3.23v11.02c0,1.78-1.45,3.23-3.23,3.23Z"/>
</svg>