<?xml version="1.0" encoding="UTF-8"?>
<svg id="Layer_1" data-name="Layer 1" xmlns="http://www.w3.org/2000/svg" viewBox="0 0 256 256">
  <defs>
    <style>
      .cls-1 {
        fill: #fcd50e;
      }
    </style>
  </defs>
  <path class="cls-1" d="m129.33,242c-8.62,0-17.07-2.64-24.42-7.64-12.18-8.32-26.71-26.46-29.64-43.7l-.45-2.67-2.64-.57c-10.62-2.3-18.54-12.16-18.85-23.47.03-13.21,10.78-23.95,24-23.95s24,10.77,24,24c0,10.64-7.31,20.17-17.77,23.15l-3.65,1.04.85,3.7c3.48,15.07,16.49,30.86,26.96,38.06,6.83,4.55,14.29,6.94,21.62,6.94,2.2,0,4.37-.22,6.46-.66,26.16-5.61,31.35-40.67,28.48-61.46-1.66-12.93-5.93-26.95-12.35-40.5l-1.08-2.29h-9.2c-22.06,0-40-17.94-40-40V18.33c0-2.47,1.86-4.33,4.33-4.33h25.33v5.33h-24.33v72.67c0,19.12,15.55,34.67,34.67,34.67h21c19.12,0,34.67-15.55,34.67-34.67V19.33h-24v-5.33h25c2.47,0,4.33,1.86,4.33,4.33v73.33c0,22.06-17.94,40-40,40h-6.09l2.42,5.59c5.3,12.26,8.79,24.57,10.37,36.6,3.14,23.52-2.94,60.83-32.55,67.24l-.12.03c-2.41.6-4.75.88-7.37.88Zm-51.67-96.67c-10.29,0-18.67,8.37-18.67,18.67s8.37,18.67,18.67,18.67,18.67-8.37,18.67-18.67-8.37-18.67-18.67-18.67Z"/>
</svg>
