<?xml version="1.0" encoding="UTF-8"?>
<svg id="Layer_1" data-name="Layer 1" xmlns="http://www.w3.org/2000/svg" viewBox="0 0 256 256">
  <defs>
    <style>
      .cls-1 {
        fill: #010101;
      }
    </style>
  </defs>
  <path class="cls-1" d="m240.75,192.95c-1.79,0-3.25-1.46-3.25-3.25v-76.27h-77.57v76.27c0,1.79-1.46,3.25-3.25,3.25H15.25c-1.79,0-3.25-1.46-3.25-3.25v-123.39c0-1.79,1.46-3.25,3.25-3.25h141.42c1.79,0,3.25,1.46,3.25,3.25v18.68h80.82c1.79,0,3.25,1.46,3.25,3.25v101.45c0,1.79-1.46,3.25-3.25,3.25Zm-134.11-41.1c1.79,0,3.25,1.46,3.25,3.25v31.34h43.53v-94.95H18.5v94.95h43.53v-31.34c0-1.79,1.46-3.25,3.25-3.25h41.36Zm-38.11,34.59h34.86v-28.09h-34.86v28.09Zm91.39-79.52h77.57v-15.43h-77.57v15.43Zm-17.68-21.93h11.17v-15.43h-11.17v15.43Zm-17.68,0h11.17v-15.43h-11.17v15.43Zm-17.68,0h11.17v-15.43h-11.17v15.43Zm-17.68,0h11.17v-15.43h-11.17v15.43Zm-17.68,0h11.17v-15.43h-11.17v15.43Zm-17.68,0h11.17v-15.43h-11.17v15.43Zm-17.68,0h11.17v-15.43h-11.17v15.43Zm-17.68,0h11.17v-15.43h-11.17v15.43Z"/>
  <path class="cls-1" d="m40.03,136.24c-1.79,0-3.25-1.46-3.25-3.25v-22.63c0-1.79,1.46-3.25,3.25-3.25h18.1c1.79,0,3.25,1.46,3.25,3.25v22.63c0,1.79-1.46,3.25-3.25,3.25h-18.1Zm3.25-6.5h11.6v-16.12h-11.6v16.12Z"/>
  <path class="cls-1" d="m76.23,136.24c-1.79,0-3.25-1.46-3.25-3.25v-22.63c0-1.79,1.46-3.25,3.25-3.25h18.1c1.79,0,3.25,1.46,3.25,3.25v22.63c0,1.79-1.46,3.25-3.25,3.25h-18.1Zm3.25-6.5h11.6v-16.12h-11.6v16.12Z"/>
  <path class="cls-1" d="m113.79,136.24c-1.79,0-3.25-1.46-3.25-3.25v-22.63c0-1.79,1.46-3.25,3.25-3.25h18.1c1.79,0,3.25,1.46,3.25,3.25v22.63c0,1.79-1.46,3.25-3.25,3.25h-18.1Zm3.25-6.5h11.6v-16.12h-11.6v16.12Z"/>
</svg>