<?xml version="1.0" encoding="UTF-8"?>
<svg id="Layer_1" data-name="Layer 1" xmlns="http://www.w3.org/2000/svg" viewBox="0 0 256 256">
  <defs>
    <style>
      .cls-1 {
        fill: none;
        stroke: #010101;
        stroke-linecap: round;
        stroke-linejoin: round;
        stroke-width: 8px;
      }
    </style>
  </defs>
  <g id="heart">
    <path class="cls-1" d="m198.8,157.95s-15.43,0-25.42-7.26c-19.06-12.71-19.97-32.68-5.45-49.02,14.52-16.34,46.29-23.6,46.29-23.6v-31.77l-10.89,3.63c-52.65,15.43-99.85,48.11-134.34,92.58h0"/>
    <path class="cls-1" d="m59.92,82.62v-19.97c0-9.08,7.26-16.34,16.34-16.34h29.05v18.15"/>
    <path class="cls-1" d="m105.31,64.46V23.62c0-7.26,6.35-13.62,13.62-13.62h0c7.26,0,13.62,6.35,13.62,13.62v49.92"/>
    <path class="cls-1" d="m132.54,73.54v-31.77c0-7.26,6.35-13.62,13.62-13.62h0c7.26,0,13.62,6.35,13.62,13.62v22.69"/>
    <path class="cls-1" d="m178.83,96.23c10.89,11.8,19.06,27.23,21.78,46.29,5.45,30.86,43.57,103.48-39.03,103.48-44.48,0-119.82-39.94-119.82-103.48,0-39.94,28.14-71.71,71.71-71.71,10.89,0,21.78,1.82,31.77,4.54"/>
  </g>
</svg>