<?xml version="1.0" encoding="UTF-8"?>
<svg id="Layer_1" data-name="Layer 1" xmlns="http://www.w3.org/2000/svg" viewBox="0 0 256 256">
  <defs>
    <style>
      .cls-1 {
        fill: #231f20;
        fill-rule: evenodd;
      }
    </style>
  </defs>
  <g id="hiv-plus">
    <path class="cls-1" d="m103.63,186.72l-27.49-34.89-29.64-37.58c-14.25-18.81-14.25-45.06-.02-63.85l4.75-6.34,13.64-17.67c.21-.29.42-.55.62-.81,5.9-8.16,15.97-13.19,26.35-13.19h30.66c5.41,0,10.32,1.24,14.59,3.68,2.84,1.62,6.82,4.15,10.04,7.98l-6.28,4.49c-1.82-2.04-4.28-3.91-7.57-5.79-3.1-1.77-6.72-2.67-10.78-2.67h-30.66c-8,0-15.72,3.84-20.13,10.02l-.06.09-.63.81c-3.24,4.38-4.94,9.5-4.94,14.84,0,5.86,2,11.73,5.5,16.1l38.08,49.19,28.01,35.41,51.58,66-41.01,31.07-44.62-56.89ZM52.63,55.02c-12.17,16.06-12.18,38.48-.05,54.54l29.59,37.52,27.5,34.9,38.74,49.4,2.78.36,25.58-19.38.37-2.83-45.49-58.21-28.03-35.43-38.06-49.16c-3.29-4.12-5.56-9.17-6.58-14.61l-3.57-.83-2.8,3.73Z"/>
    <polygon class="cls-1" points="24.03 212.54 74.37 148.13 80.42 152.86 36.14 209.52 36.51 212.35 62.1 231.73 64.88 231.37 102.39 183.54 108.44 188.29 65.05 243.61 24.03 212.54"/>
    <path class="cls-1" d="m132.85,144.99l27.83-35.93c12.16-16.08,12.15-38.51,0-54.56l-2.77-3.69-3.57.84c-.98,5.32-3.26,10.34-6.6,14.53l-36.83,47.57-6.08-4.71,36.87-47.62c6.87-8.58,7.29-21.1,1.15-30.15l6.08-4.77,13.1,16.99,4.78,6.38c14.24,18.8,14.23,45.05,0,63.85l-27.88,35.98-6.08-4.71Z"/>
    <path class="cls-1" d="m137.96,69.62c-4.63-3.57-10.47-5.66-15.98-5.66h-30.66c-5.98,0-11.66,1.97-15.89,5.46l-5.45-5.45c5.65-4.91,13.32-7.69,21.34-7.69h30.66c7.35,0,15.11,2.82,21.13,7.62l-5.15,5.73Z"/>
    <path class="cls-1" d="m198.91,177.84c-2.12,0-3.84-1.72-3.84-3.84v-58.43c0-2.12,1.72-3.84,3.84-3.84s3.84,1.72,3.84,3.84v58.43c0,2.12-1.72,3.84-3.84,3.84Z"/>
    <path class="cls-1" d="m169.69,148.62c-2.12,0-3.84-1.72-3.84-3.84s1.72-3.84,3.84-3.84h58.43c2.12,0,3.84,1.72,3.84,3.84s-1.72,3.84-3.84,3.84h-58.43Z"/>
  </g>
</svg>