<?xml version="1.0" encoding="UTF-8"?>
<svg id="Layer_1" data-name="Layer 1" xmlns="http://www.w3.org/2000/svg" viewBox="0 0 256 256">
  <defs>
    <style>
      .cls-1 {
        fill: none;
        stroke: #010101;
        stroke-linecap: round;
        stroke-linejoin: round;
        stroke-width: 8px;
      }
    </style>
  </defs>
  <g id="lung">
    <path class="cls-1" d="m110.54,149.66v17.46c0,59.36-17.46,63.72-43.64,63.72-24.44,0-52.37,50.63-52.37-33.17S59.91,44.92,86.97,44.92c6.98,0,13.09,2.62,16.58,16.58"/>
    <path class="cls-1" d="m145.46,149.66v17.46c0,59.36,17.46,63.72,43.64,63.72,24.44,0,52.37,50.63,52.37-33.17S196.09,44.92,169.9,44.92c-6.98,0-13.09,2.62-16.58,16.58"/>
    <path class="cls-1" d="m128,10v57.61c0,13.09-6.11,26.19-16.58,34.92l-35.79,29.68"/>
    <path class="cls-1" d="m128,67.61c0,13.09,6.11,26.19,16.58,34.92l35.79,29.68"/>
  </g>
</svg>