<?xml version="1.0" encoding="UTF-8"?>
<svg id="Layer_1" data-name="Layer 1" xmlns="http://www.w3.org/2000/svg" viewBox="0 0 256 256">
  <defs>
    <style>
      .cls-1 {
        fill: #010101;
      }
    </style>
  </defs>
  <g id="lung-2">
    <path class="cls-1" d="m48.44,238.13c-9.35,0-14.59-3.01-15.98-3.94l-.12-.07c-18.24-10.42-20.35-43.92-20.35-68.21,0-50.26,13.32-76.21,26.34-94.97,9.31-13.97,22.76-21.03,40-21.03,15.15,0,25.99,11.94,28.99,31.94,1.03,7.22.53,13.32-.01,19.77-.55,3.86-.55,8.26-.55,12.5v3.45l2.99-1.71c9.12-5.21,14.36-12.46,14.36-19.89V21.21c0-2.09,1.25-3.34,3.34-3.34s3.34,1.25,3.34,3.34v74.75c0,7.18,4.67,13.67,14.27,19.84l3.08,1.98v-3.66c0-4.37,0-8.13-.55-12.53-.47-5.21-1.07-11.77,0-19.78,2.99-19.96,13.83-31.9,28.99-31.9,17.32,0,30.58,6.88,40.55,21.04,12.68,19.03,25.82,45.17,26.87,94.47,0,24.25-2.11,57.74-20.35,68.17-3.2,1.83-8.68,4.01-16.63,4.01-26.71,0-53.78-24.6-62.28-41.61-2.66-5.31-4.06-13.31-4.06-23.13,0-10.71,1.44-19.72,3.17-29.55.27-1.37,2.02-2.7,3.59-2.7.16,0,.31.01.46.04.75.15,1.52.73,2.07,1.55.55.82.79,1.76.64,2.5l-.23,1.29c-1.55,8.76-3.01,17.03-3.01,27.4,0,6.45.6,15.2,3.47,20.21,8.27,15.44,33.07,37.85,56.2,37.85,6.45,0,11.02-1.8,13.17-2.88l.09-.05c17.03-9.65,17.03-49.51,17.03-62.61,0-49.3-13.32-74.73-24.92-91.38-8.23-12.07-19.6-17.94-34.75-17.94-11.61,0-19.92,9.56-22.79,26.22-1.08,6.49-.59,11.91-.07,17.65l.04.49c.54,5.96,1.05,11.58.53,18.35l-.12,1.56,1.48.49c1.05.35,2.16.76,3.27,1.17,2.29.84,4.65,1.71,6.58,2.1.91.18,1.46.96,1.71,1.41.41.73.58,1.61.49,2.39-.79,1.4-2.19,2.38-3.42,2.38h-1.28c-.28-.09-.6-.19-.95-.31-6.05-1.94-24.48-7.85-33.53-20.23l-1.66-2.27-1.6,2.31c-5.92,8.56-17.43,15.43-34.19,20.43l-.23.07h-1.31c-1.67,0-3.07-.91-3.4-2.22l-.03-.13-.05-.13c-.33-.82,0-1.65.23-2.06.46-.84,1.26-1.48,2.05-1.64,1.68-.34,6.04-1.34,10.11-3.38l1.2-.6-.1-1.34c-.52-6.77,0-12.4.53-18.35l.04-.48c.52-5.74,1.02-11.16-.06-17.65-2.88-16.67-11.18-26.23-22.8-26.23-15.3,0-26.51,5.87-35.28,18.48-12.33,18.23-24.92,43.32-24.92,91.38,0,13.1,0,52.96,17.03,62.61l.12.07.46.18c2.66,1.07,6.67,2.68,12.69,2.68,23.13,0,47.93-22.41,56.22-37.9,2.84-4.96,3.44-13.71,3.44-20.17,0-10.53-1.53-19.57-3.24-28.67-.35-2.13,1.09-3.76,2.7-4.08.16-.02.38-.04.59-.04,1.91,0,3.19,1.38,3.46,2.75,1.73,9.79,3.16,18.81,3.16,29.51,0,9.65-1.29,17.01-4.06,23.13-9.56,17.47-36.48,41.61-62.28,41.61Z"/>
    <path class="cls-1" d="m181.39,174.05c-2.09,0-3.34-1.25-3.34-3.34,0-7.6-3.66-16.61-10.04-24.73l-.07-.09-.08-.08c-.75-.75-.8-1.73-.76-2.25.06-.91.48-1.76,1.08-2.21.6-.45,1.32-.69,2.07-.69,1.12,0,2.24.52,3.26,1.51,7.03,8.57,11.23,19.24,11.23,28.55,0,2.09-1.25,3.34-3.34,3.34Z"/>
    <path class="cls-1" d="m202.31,147.84c-.31-.15-.74-.37-1.28-.45l-15.74-5.25c-.81-.34-1.49-1.01-1.89-1.85-.4-.84-.45-1.72-.15-2.47l.07-.17.04-.18c.22-1.08,1.4-1.93,2.69-1.93.35,0,.69.06,1.01.19l.11.04,15.96,5.32c1.7.71,2.67,2.76,2.04,4.32l-.05.13-.03.13c-.29,1.14-1.48,2.12-2.68,2.21-.03-.02-.06-.03-.09-.05Z"/>
    <path class="cls-1" d="m180.86,126c-.53,0-1.63-.32-2.32-1.02-1.35-1.35-1.35-3.3,0-4.65l16.02-16.02c.66-.66,1.48-1.02,2.32-1.02s1.67.36,2.32,1.02,1.02,1.48,1.02,2.32-.36,1.67-1.02,2.32l-16.02,16.02c-.69.69-1.8,1.02-2.32,1.02Z"/>
    <path class="cls-1" d="m74.07,174.05c-2.09,0-3.34-1.25-3.34-3.34,0-9.52,4.31-20.14,11.82-29.15l.06-.08c.41-.55,1.25-.88,2.24-.88.91,0,1.82.28,2.43.74.51.38.83,1.12.87,2.03.05.96-.24,1.98-.74,2.64-6.35,8.08-10.01,17.1-10.01,24.69,0,2.09-1.25,3.34-3.34,3.34Z"/>
    <path class="cls-1" d="m52.72,147.36c-1.25,0-2.56-1.02-2.87-2.22l-.03-.13-.05-.12c-.62-1.55.35-3.64,1.6-4.35l15.86-5.29c.46-.15.91-.23,1.34-.23,1.36,0,2.51.83,3.09,2.23.74,2.3-.54,3.76-2.02,4.38l-16.41,5.47-.28.28s-.05,0-.07,0c-.06,0-.11,0-.17,0Z"/>
    <path class="cls-1" d="m74.07,126c-.98,0-1.56-.26-2.32-1.02l-16.02-16.02c-1.35-1.35-1.35-3.3,0-4.65.66-.66,1.48-1.02,2.32-1.02s1.67.36,2.32,1.02l16.02,16.02c.66.66,1.02,1.48,1.02,2.32s-.36,1.67-1.02,2.32c-.76.76-1.35,1.02-2.32,1.02Z"/>
  </g>
</svg>