<?xml version="1.0" encoding="UTF-8"?>
<svg id="Layer_1" data-name="Layer 1" xmlns="http://www.w3.org/2000/svg" viewBox="0 0 256 256">
  <defs>
    <style>
      .cls-1 {
        fill: #010101;
      }
    </style>
  </defs>
  <g id="map-roads">
    <g>
      <path class="cls-1" d="m90.14,152.87c-6.58,0-11.94-5.35-11.94-11.94s5.35-11.94,11.94-11.94,11.94,5.35,11.94,11.94-5.36,11.94-11.94,11.94Z"/>
      <path class="cls-1" d="m173.41,207.13l-82.31,15.68-79.02-14.82,9.68-82.67L11.8,42.52l74.17,31.32,87.17-41.64,70.95,26.92-10,78.86,10.18,85.49-70.85-16.35Zm-54.48-69.9l.11,1.39c.06.82.12,1.56.12,2.3,0,14.22-10.2,26.25-24.24,28.59l-1.12.19-5.03,47.73,2.33.44,26.16-4.99-.09-1.33c-.47-6.84.02-19.87,8.7-30.35,7.46-9.01,19.45-13.96,35.62-14.72l1.58-.07-3.46-35.32-40.67,6.13Zm78.74,70.53l40.95,9.45-9.44-79.24-62.5-7.94-2.29.36,6.86,71.65,26.41,5.68v.04Zm-146.88-33.58l-5.46,35.11,38.67,7.25,4.9-46.6-1.51-.14c-6.84-.64-13.26-3.75-18.08-8.73l-.95-.98-17.56,14.1Zm110.85-7.67c-16.24.74-28.27,5.69-35.75,14.72-8.47,10.23-9.08,23.15-8.7,29.94l.1,1.71,49.4-9.42-3.62-37.02-1.42.06ZM17.42,204.07l27.88,5.22,5.46-35.12,17.57-14.11-.93-1.17c-4.11-5.18-6.28-11.4-6.28-17.97,0-.32.02-.63.04-.93.01-.19.02-.38.03-.56l.06-1.35-35.33-5.47-8.51,71.45Zm72.72-89.1c-14.31,0-25.96,11.65-25.96,25.97s11.64,25.96,25.95,25.96,25.97-11.65,25.97-25.96-11.65-25.97-25.97-25.97Zm-35.95-47.11c-.24,4.55-1.47,11.13-6,16.6-4.96,5.99-12.79,9.37-23.28,10.07l-1.55.1,3.44,33.23,35.32,5.47.39-1.22c3.38-10.56,12.67-18.36,23.66-19.88l1.45-.2-3.83-33.85-29.48-12.45-.11,2.14Zm109.48,57.29l66.14,7.98,4.2-33.05-67.06-16.96-3.28,42.02Zm-46.02-38.03l-.27.96c-.88,3.16-5.53,19.33-10.59,27.41l-.74,1.18,1.13.82c4.78,3.49,8.35,8.27,10.31,13.83l.41,1.17,41-6.18,3.33-44.92.16-1.23,3.64-39.19-77.4,36.96,3.85,34.07,1.18.14c3.93.48,7.67,1.74,11.11,3.77l1.26.74.77-1.23c5.55-8.84,10.77-28.13,10.82-28.32l43.15-5.57.07.02-43.19,5.58Zm49.32-4.01l67.03,16.96,4.79-37.77-67.29-25.36-4.54,46.17Zm-143.66,11.48l1.41-.09c10.57-.67,18.46-4.05,23.45-10.07,4.79-5.79,5.92-12.84,6.02-17.74l.02-1.02-36.52-15.42,5.62,44.33Zm169.04,61.25l12.61,1.5-12.57-1.46,2.63,25.76-2.66-25.8Z"/>
      <path class="cls-1" d="m173.44,205.6l-82.35,15.68-77.36-14.51,9.54-81.46L13.6,44.91l72.41,30.58,84.15-40.2-4.51,45.96h-.05s-.2,2.59-.2,2.59l-.04.41h0s-3.3,42.22-3.3,42.22l69.05,8.33,4.55-35.85h0s4.78-37.65,4.78-37.65l-69.73-26.28,2.51-1.2,69.24,26.28-9.88,77.87,9.95,83.56-69.08-15.94Zm-56.12-69.64l.22,2.79c.06.79.11,1.5.11,2.18,0,13.49-9.67,24.89-22.99,27.12l-2.25.38-5.29,50.25,3.97.74,24.79-4.73h0s52.42-9.99,52.42-9.99l-3.61-36.85-3.76-38.46-43.62,6.58Zm80.01,73.27l43.03,9.93-9.83-82.52-63.88-8.11-3.89.61,7.1,74.15,26.74,5.75.72.2Zm-112.03,9.1l5.23-49.73-3.02-.28c-6.48-.61-12.57-3.55-17.15-8.28l-.94-.97-.87-1.09c-3.9-4.92-5.95-10.81-5.95-17.04,0-.26.02-.51.03-.77.02-.27.03-.46.04-.66l.13-2.69-38.19-5.92-8.86,74.38,27.85,5.22,41.69,7.82Zm4.83-104.86c-15.14,0-27.46,12.32-27.46,27.47s12.32,27.46,27.45,27.46,27.47-12.32,27.47-27.46-12.32-27.47-27.47-27.47Zm-64.72,15.69l37.73,5.84.78-2.44c3.21-10.02,12.01-17.42,22.43-18.85l2.9-.4-4.09-36.17L15.87,47.87l6.13,48.31h0s3.41,32.97,3.41,32.97Zm80.88-10.45c4.54,3.31,7.92,7.85,9.78,13.12l.83,2.34,43.41-6.55,3.41-46.11.15-1.16,3.89-41.87-80.75,38.56,4.11,36.31,2.35.29c3.73.45,7.27,1.65,10.53,3.57l1.18.69,1.11.81Z"/>
    </g>
  </g>
</svg>