<?xml version="1.0" encoding="UTF-8"?>
<svg id="Layer_1" data-name="Layer 1" xmlns="http://www.w3.org/2000/svg" viewBox="0 0 256 256" fill="green">
  <defs>
    <style>
      .cls-1 {
      }
    </style>
  </defs>
  <g id="map-market">
    <path class="cls-1" d="m128.07,242c-1.12,0-2.17-.56-2.8-1.49l-69.53-103.07c-8.02-12.76-12.25-27.34-12.25-42.16,0-44.82,37.91-81.29,84.5-81.29s84.5,36.47,84.5,81.29c0,14.79-4.18,29.27-12.08,41.9l-69.56,103.33c-.63.93-1.67,1.49-2.79,1.49Zm-.07-221.26c-42.87,0-77.75,33.44-77.75,74.54,0,13.57,3.84,26.85,11.12,38.42l63.38,93.96h6.63s63.42-94.22,63.42-94.22c7.16-11.43,10.95-24.62,10.95-38.16,0-41.1-34.88-74.54-77.75-74.54Z"/>
    <path class="cls-1" d="m128.01,131.53c-20.92,0-37.94-16.4-37.94-36.56s17.02-36.56,37.94-36.56,37.94,16.4,37.94,36.56-17.02,36.56-37.94,36.56Zm0-66.38c-17.2,0-31.19,13.37-31.19,29.81s13.99,29.81,31.19,29.81,31.18-13.37,31.18-29.81-13.99-29.81-31.18-29.81Z"/>
  </g>
</svg>
