<?xml version="1.0" encoding="UTF-8"?>
<svg id="Layer_1" data-name="Layer 1" xmlns="http://www.w3.org/2000/svg" viewBox="0 0 256 256">
  <defs>
    <style>
      .cls-1 {
        fill: #010101;
      }
    </style>
  </defs>
  <g id="bank-checkbook">
    <path class="cls-1" d="m14.08,136.24c-1.7,0-3.08-1.38-3.08-3.08V32.71c0-1.7,1.38-3.08,3.08-3.08h157.87c1.7,0,3.08,1.38,3.08,3.08s-1.38,3.08-3.08,3.08H17.17v94.28h221.67V35.79h-27.43c-1.7,0-3.08-1.38-3.08-3.08s1.38-3.08,3.08-3.08h30.51c1.7,0,3.08,1.38,3.08,3.08v100.44c0,1.7-1.38,3.08-3.08,3.08H14.08Z"/>
    <path class="cls-1" d="m39.4,65.6c-1.7,0-3.08-1.38-3.08-3.08s1.38-3.08,3.08-3.08h68.59c1.7,0,3.08,1.38,3.08,3.08s-1.38,3.08-3.08,3.08H39.4Z"/>
    <path class="cls-1" d="m39.4,86.02c-1.7,0-3.08-1.38-3.08-3.08s1.38-3.08,3.08-3.08h68.59c1.7,0,3.08,1.38,3.08,3.08s-1.38,3.08-3.08,3.08H39.4Z"/>
    <path class="cls-1" d="m39.4,106.43c-1.7,0-3.08-1.38-3.08-3.08s1.38-3.08,3.08-3.08h68.59c1.7,0,3.08,1.38,3.08,3.08s-1.38,3.08-3.08,3.08H39.4Z"/>
    <path class="cls-1" d="m129.22,64.1c-1.7,0-3.08-1.38-3.08-3.08v-15.11c0-1.7,1.38-3.08,3.08-3.08s3.08,1.38,3.08,3.08v15.11c0,1.7-1.38,3.08-3.08,3.08Z"/>
    <path class="cls-1" d="m129.22,93.57c-1.7,0-3.08-1.38-3.08-3.08v-15.11c0-1.7,1.38-3.08,3.08-3.08s3.08,1.38,3.08,3.08v15.11c0,1.7-1.38,3.08-3.08,3.08Z"/>
    <path class="cls-1" d="m129.22,123.03c-1.7,0-3.08-1.38-3.08-3.08v-15.11c0-1.7,1.38-3.08,3.08-3.08s3.08,1.38,3.08,3.08v15.11c0,1.7-1.38,3.08-3.08,3.08Z"/>
    <path class="cls-1" d="m205.31,116.91c-11.38,0-20.64-9.26-20.64-20.64s9.26-20.64,20.64-20.64,20.64,9.26,20.64,20.64-9.26,20.64-20.64,20.64Zm0-35.11c-7.98,0-14.47,6.49-14.47,14.47s6.49,14.47,14.47,14.47,14.47-6.49,14.47-14.47-6.49-14.47-14.47-14.47Z"/>
    <path class="cls-1" d="m149.47,226.37c-5.3,0-9.62-4.31-9.62-9.62v-51.31c0-5.3,4.31-9.62,9.62-9.62h79.05c2.56,0,4.98,1,6.8,2.82s2.82,4.23,2.82,6.8v51.31c0,5.3-4.31,9.62-9.62,9.62h-79.05Zm56.11-6.17h22.94c1.87,0,3.45-1.58,3.45-3.45v-23.79l-26.39,27.24Zm-27.41,0h18.83l34.25-35.36c.1-.11.22-.2.34-.29l.39-.3v-18.87l-53.8,54.82Zm-27.4,0h18.76l57.13-58.21h-18.77l-57.12,58.21Zm-4.27-23.17l-.43.39-.05.49v18.33l53.23-54.25h-18.83l-33.92,35.05Zm2.97-35.05c-1.87,0-3.45,1.58-3.45,3.45v23.22l25.82-26.67h-22.37Z"/>
    <path class="cls-1" d="m91.41,225.37c-5.3,0-9.62-4.31-9.62-9.62v-4.95l-1.08.03h-.1c-.2,0-.46-.03-.72-.1l-23.16-6.16-.41.48c-4.17,4.87-10.22,7.66-16.6,7.66-12.06,0-21.87-9.81-21.87-21.87s9.81-21.87,21.87-21.87c6.09,0,11.96,2.58,16.09,7.08l.39.42,25.58-5.53v-5.01c0-5.3,4.31-9.62,9.62-9.62h14.41c5.3,0,9.62,4.31,9.62,9.62v10.27c0,1.7-1.38,3.08-3.08,3.08s-3.08-1.38-3.08-3.08v-10.27c0-1.87-1.58-3.45-3.45-3.45h-14.41c-1.87,0-3.45,1.58-3.45,3.45v49.81c0,1.87,1.58,3.45,3.45,3.45h14.41c1.87,0,3.45-1.58,3.45-3.45v-22c0-1.7,1.38-3.08,3.08-3.08s3.08,1.38,3.08,3.08v22c0,5.3-4.31,9.62-9.62,9.62h-14.41Zm-51.68-50.22c-8.66,0-15.7,7.04-15.7,15.7s7.04,15.7,15.7,15.7,15.7-7.04,15.7-15.7-7.04-15.7-15.7-15.7Zm20.04,6.88l.41,1.09c.94,2.48,1.42,5.08,1.42,7.73,0,2.46-.41,4.88-1.23,7.2l-.36,1.02,21.78,5.79v-27.6l-22.03,4.76Z"/>
  </g>
</svg>