<?xml version="1.0" encoding="UTF-8"?>
<svg id="Layer_1" data-name="Layer 1" xmlns="http://www.w3.org/2000/svg" viewBox="0 0 256 256">
  <defs>
    <style>
      .cls-1 {
        fill: #fcd50e;
      }
    </style>
  </defs>
  <path class="cls-1" d="m57.4,70.03h84.76c1.92,0,3.44-1.52,3.44-3.44s-1.52-3.44-3.44-3.44H57.4c-1.92,0-3.44,1.52-3.44,3.44s1.57,3.44,3.44,3.44Z"/>
  <path class="cls-1" d="m42.6,94.27h114.36c1.92,0,3.44-1.52,3.44-3.44s-1.52-3.44-3.44-3.44H42.6c-1.92,0-3.44,1.52-3.44,3.44s1.57,3.44,3.44,3.44Z"/>
  <path class="cls-1" d="m160.4,112.17c0-1.92-1.52-3.44-3.44-3.44H42.6c-1.92,0-3.44,1.52-3.44,3.44s1.52,3.44,3.44,3.44h114.36c1.92,0,3.44-1.52,3.44-3.44Z"/>
  <path class="cls-1" d="m142.26,135.62l-16.47-6.39c-.79-.29-1.67-.29-2.51,0l-15.24,5.9-15.24-5.9c-.79-.29-1.67-.29-2.51,0l-15.24,5.9-15.24-5.9c-1.77-.69-3.79.2-4.47,1.97s.2,3.79,1.97,4.47l16.47,6.39c.79.29,1.67.29,2.51,0l15.24-5.9,15.24,5.9c.79.29,1.67.29,2.51,0l15.24-5.9,15.24,5.9c.39.15.84.25,1.23.25,1.38,0,2.7-.84,3.2-2.21.74-1.82-.15-3.79-1.92-4.47Z"/>
  <path class="cls-1" d="m218.71,167.14c.49-2.31.74-4.62.74-6.98,0-11.95-6.54-23.06-16.86-28.96V39.5c0-1.92-1.52-3.44-3.44-3.44H13.44c-1.92,0-3.44,1.52-3.44,3.44v120.7c0,1.92,1.52,3.44,3.44,3.44h139.63c.1,1.18.29,2.36.54,3.54l-26.11,26.11c-.93.93-1.28,2.36-.79,3.64.44,1.28,1.62,2.11,2.95,2.26l16.22,1.38,1.38,16.22c.1,1.33.98,2.46,2.26,2.95.39.15.79.2,1.18.2.88,0,1.77-.34,2.46-.98l26.11-26.11c2.26.49,4.62.74,6.98.74s4.67-.25,6.98-.74l26.11,26.11c.64.64,1.52.98,2.46.98.39,0,.79-.05,1.18-.2,1.28-.44,2.11-1.62,2.26-2.95l1.38-16.22,16.22-1.38c1.33-.1,2.46-.98,2.95-2.26.44-1.28.15-2.65-.79-3.64l-26.3-26.16ZM16.88,42.94h178.86v85.3s-.15-.05-.2-.05c-.1-.05-.2-.05-.34-.1-.44-.15-.93-.25-1.38-.34-.1,0-.2-.05-.29-.05-.54-.1-1.08-.25-1.62-.29-.15,0-.25-.05-.39-.05-.49-.1-.98-.15-1.47-.2h-.2c-.54-.05-1.08-.1-1.67-.15h-.39c-.54-.05-1.13-.05-1.67-.05s-1.13,0-1.67.05c-.2,0-.34.05-.54.05-.34,0-.74.05-1.08.1-.2,0-.44.05-.64.1-.34.05-.64.1-.98.15-.25.05-.44.1-.69.1-.29.05-.59.1-.93.15-.25.05-.44.1-.69.15-.29.05-.59.15-.88.2-.25.05-.44.1-.69.2-.29.1-.59.15-.84.25-.25.05-.44.15-.69.2-.29.1-.54.2-.84.29-.25.1-.44.15-.64.25-.29.1-.54.2-.84.34-.2.1-.44.2-.64.29-.25.1-.54.25-.79.34-.2.1-.39.2-.64.29-.25.15-.54.25-.79.39-.2.1-.39.2-.59.29-.25.15-.54.29-.79.44-.2.1-.39.2-.54.34-.25.15-.54.34-.79.49-.2.1-.34.25-.54.34-.29.2-.54.39-.84.59-.15.1-.29.2-.44.34-.29.25-.64.49-.93.74-.1.1-.2.15-.29.25-.39.34-.79.69-1.18,1.03h0c-.39.34-.74.69-1.13,1.08-.1.1-.2.2-.29.34-.25.25-.49.54-.74.79-.15.15-.25.29-.39.44-.2.25-.44.49-.64.74-.15.15-.25.29-.39.49-.2.25-.39.49-.59.74-.15.15-.25.34-.39.49-.2.25-.34.49-.54.74-.1.2-.25.34-.34.54-.15.25-.34.49-.49.79-.1.2-.25.39-.34.59-.15.25-.29.54-.44.79-.1.2-.2.39-.29.59-.15.25-.29.54-.39.79-.1.2-.2.39-.29.59-.15.29-.25.54-.39.84-.1.2-.2.39-.25.59-.1.29-.25.59-.34.84-.1.2-.15.39-.25.64-.1.29-.2.59-.29.88-.05.2-.15.39-.2.64-.1.29-.2.64-.25.93-.05.2-.1.39-.15.59-.1.34-.15.69-.25,1.03-.05.2-.1.34-.1.54-.1.39-.15.84-.25,1.23,0,.1-.05.25-.05.34-.1.54-.15,1.08-.2,1.62H16.88V42.94Zm136.58,165.79l-.98-11.7c-.15-1.67-1.47-3-3.15-3.15l-11.7-.98,18.44-18.44s.05.15.1.2c.15.29.29.59.44.88.05.1.1.25.2.34.2.34.34.64.54.98.05.05.05.1.1.15.2.39.44.74.69,1.08.05.1.15.2.2.29.2.29.34.54.54.79.05.1.15.2.2.29.25.34.49.64.74.98l.05.05c.25.34.54.69.79.98.1.1.15.2.25.29.2.25.44.49.64.74.1.1.15.2.25.29.59.64,1.18,1.23,1.82,1.82.1.1.2.15.29.25.25.2.49.44.74.64.1.1.2.15.29.25.34.29.64.54.98.79.05,0,.05.05.1.05.29.25.64.49.93.69.1.1.2.15.29.25.25.2.54.34.79.54.1.05.2.15.29.2.34.25.74.44,1.08.69.05.05.1.05.15.1.34.2.64.34.98.54.1.05.25.1.34.2.29.15.59.29.88.44.05.05.15.05.2.1l-18.49,18.39Zm25.57-23.11c-2.21-.64-4.33-1.52-6.24-2.65-.64-.34-1.23-.74-1.82-1.18-.54-.34-1.03-.74-1.52-1.18-.69-.54-1.38-1.13-1.97-1.77-3.15-3.15-5.56-7.13-6.78-11.55-.64-2.31-.98-4.72-.98-7.13,0-14.55,11.85-26.45,26.4-26.45.49,0,.98,0,1.52.05.59.05,1.13.1,1.72.15,2.9.34,5.65,1.18,8.31,2.46,9.19,4.47,14.9,13.57,14.9,23.8,0,2.41-.34,4.82-.98,7.13-.15.54-.34,1.08-.49,1.62-.39,1.08-.84,2.11-1.33,3.15-.25.49-.54.98-.84,1.47-1.13,1.92-2.51,3.74-4.13,5.31-3.15,3.2-7.08,5.56-11.5,6.78-4.62,1.28-9.64,1.28-14.26,0Zm43.95,8.26c-1.67.15-3,1.47-3.15,3.15l-.98,11.7-18.44-18.44s.15-.1.2-.1c.29-.15.59-.29.88-.44.1-.05.25-.1.34-.2.34-.2.64-.34.98-.54.05-.05.1-.05.15-.1.39-.2.74-.44,1.08-.69.1-.05.2-.15.29-.2.29-.2.54-.34.79-.54.1-.05.2-.15.29-.2.34-.25.64-.49.98-.74l.05-.05c.34-.25.69-.54.98-.79.1-.1.2-.15.29-.25.25-.2.49-.44.74-.64.1-.1.2-.15.29-.25.29-.29.64-.59.93-.88h0c.29-.29.59-.59.88-.93.1-.1.15-.2.25-.29.2-.25.44-.49.64-.69.1-.1.15-.2.25-.29.29-.34.54-.64.79-.98l.1-.1c.25-.29.44-.59.69-.93.1-.1.15-.25.25-.34.2-.25.34-.49.54-.79.05-.1.15-.2.2-.34.25-.34.44-.69.64-1.08.05-.05.1-.15.1-.2.2-.29.34-.59.49-.93.05-.15.15-.25.2-.39.15-.29.29-.54.39-.84.05-.1.1-.15.1-.25l18.44,18.44-11.65,1.13Z"/>
  <path class="cls-1" d="m197.17,165.76c0-4.42-2.7-6.98-9-8.55v-7.96c1.43.34,2.8.93,4.28,1.82.39.25.84.39,1.23.39,1.28,0,2.31-.98,2.31-2.26,0-.98-.59-1.62-1.23-1.97-1.92-1.18-3.98-1.97-6.44-2.26v-.93c0-.98-.79-1.77-1.77-1.77s-1.82.79-1.82,1.77v.88c-5.16.39-8.7,3.49-8.7,7.92,0,4.67,2.8,6.98,8.85,8.55v8.16c-2.26-.39-4.18-1.38-6.15-2.75-.39-.29-.88-.44-1.38-.44-1.28,0-2.26.98-2.26,2.26,0,.88.39,1.52,1.13,1.97,2.51,1.77,5.41,2.9,8.51,3.24v2.56c0,.98.84,1.77,1.82,1.77s1.77-.79,1.77-1.77v-2.51c5.31-.54,8.85-3.54,8.85-8.11Zm-12.24-9.39c-3.2-1.03-3.98-2.11-3.98-3.83,0-1.82,1.33-3.24,3.98-3.49v7.33Zm3.24,13.27v-7.52c3.2.98,4.08,2.11,4.08,3.93.05,2.02-1.43,3.29-4.08,3.59Z"/>
</svg>
