<?xml version="1.0" encoding="UTF-8"?>
<svg id="Layer_1" data-name="Layer 1" xmlns="http://www.w3.org/2000/svg" viewBox="0 0 256 256">
  <defs>
    <style>
      .cls-1 {
        fill: #231f20;
      }
    </style>
  </defs>
  <g id="money">
    <path class="cls-1" d="m64.34,203.84c-1.65,0-3.04-1.37-3.04-3v-5.47l-.45-.05c-5.89-.62-11.37-2.71-16.3-6.21-1.3-.87-1.96-2.04-1.96-3.48,0-2.24,1.69-3.93,3.93-3.93.83,0,1.67.28,2.36.79,4.2,3.06,7.96,4.75,12.17,5.5l.59.1v-16.88l-.37-.1c-12.16-3.16-16.9-7.68-16.9-16.15s6.46-14.12,16.47-14.91l.46-.04v-2.14c0-1.65,1.37-3,3.04-3s2.99,1.32,2.99,3v2.22l.44.05c4.49.51,8.51,1.93,12.29,4.35,1.45.84,2.18,2,2.18,3.47,0,2.2-1.77,3.93-4.03,3.93-.71,0-1.45-.23-2.15-.66-3.03-1.81-5.8-2.99-8.47-3.61l-.61-.14v16.52l.38.09c12.02,2.99,17.14,7.82,17.14,16.15s-6.41,14.26-16.72,15.25l-.45.04v5.28c0,1.68-1.32,3-2.99,3Zm2.7-15.43l.56-.06c5.35-.61,8.42-3.36,8.42-7.54s-2.26-6.28-8.33-8.16l-.65-.2v15.95Zm-5.95-41.27c-5.12.49-8.18,3.21-8.18,7.29s2.11,6.02,8.07,7.96l.65.21v-15.51l-.55.05Z"/>
    <path class="cls-1" d="m63.6,222.44c-13.89,0-27.01-5.32-36.96-14.97-9.94-9.65-15.65-22.6-16.09-36.47-.05-.55-.05-1.08-.05-1.76,0-20.82,12.27-39.83,31.25-48.42,6.89-3.11,14.24-4.68,21.84-4.68,14.62,0,28.74,6.11,38.71,16.77l.15.16h2.75l-.12-.6c-.09-.44-.14-.99-.14-1.53v-23.03c0-4.42,3.6-8.01,8.01-8.01h8.34l-.12-.6c-.09-.44-.14-.99-.14-1.53v-23.03c0-.51.05-1.03.14-1.54l.11-.59h-42.24c-4.42,0-8.01-3.6-8.01-8.01v-23.03c0-4.42,3.6-8.01,8.01-8.01h108.43c4.42,0,8.02,3.6,8.02,8.01v23.13c0,.51-.05,1.02-.14,1.53l-.11.59h42.24c4.42,0,8.01,3.6,8.01,8.01v23.03c0,4.42-3.6,8.01-8.01,8.01h-8.34l.12.6c.09.44.14,1,.14,1.53v23.03c0,4.42-3.6,8.01-8.01,8.01h-26.18l.09.58c.1.64.19,1.24.19,1.84v22.49c0,1.82-.61,3.62-1.72,5.06l-.23.3.23.3c1.11,1.45,1.72,3.24,1.72,5.06v22.49c0,4.58-3.73,8.31-8.31,8.31h-84.72l-.15.16c-9.98,10.66-24.09,16.77-38.71,16.77Zm0-100.31c-6.67,0-13.2,1.41-19.4,4.18-16.91,7.61-27.81,24.46-27.76,42.93v1.52c.8,25.62,21.51,45.68,47.16,45.68,13.55,0,26.44-5.8,35.37-15.92,6.11-6.91,10.04-15.39,11.34-24.53.04-.31.08-.61.12-.9.08-.52.15-1.04.18-1.55.13-1.24.2-2.64.2-4.26,0-11.51-4.21-22.61-11.84-31.24-8.97-10.12-21.86-15.92-35.37-15.92Zm46,73.69c-.07.09-.12.19-.18.31l-.15.26c-.14.25-.28.51-.45.75-.04.03-.1.13-.14.21l-.04.04-1,1.52v.65l.5.05h79c1.14,0,2.13-.84,2.36-1.92h.05l.1-.5v-22.39c0-1.36-1.06-2.42-2.42-2.42h-70.59v.6l-.14,1.46c-.06.17-.06.35-.06.46-.04.27-.08.64-.12,1.01l-.04.34c-.02.1-.03.19-.03.27-.04.16-.08.42-.12.69-.04.25-.07.5-.12.74l-.02.12c-.01.05-.03.12-.04.2-.05.21-.09.43-.13.66-.03.19-.07.39-.11.59-.02.05-.04.13-.05.21,0,.04-.02.09-.03.14-.06.3-.12.55-.18.8-.06.26-.12.53-.18.78h0s-.06.1-.06.25c-.04.17-.11.42-.18.66-.06.21-.11.41-.16.61-.02.04-.04.13-.05.21,0,.04-.02.08-.03.14-.11.53-.26,1.02-.4,1.49l-.02.07v.07c-.05.15-.13.38-.22.62-.09.25-.18.51-.25.76l-.06.15c-.03.07-.06.14-.08.23-.07.21-.35,1.01-.42,1.21-.03.05-.04.09-.06.12h-.02s-.04.11-.04.11c-.1.25-.2.48-.3.72-.1.23-.19.46-.29.71-.01.02-.04.09-.07.17-.02.05-.04.1-.06.14-.17.45-.31.82-.49,1.18l-.15.3-.15.34c-.15.34-.3.69-.48,1.01-.08.2-.12.28-.16.36-.1.19-.19.37-.29.55-.09.17-.18.35-.28.53-.1.12-.16.25-.2.34l-.73,1.32Zm5.59-38.45c.12.41.21.85.29,1.27l.04.21c.03.11.04.15.05.19.02.08.03.16.07.26.07.3.17.74.22,1.18,0,.05.02.15.04.21v.05l.02.08c.08.42.19.98.24,1.48,0,.03.01.12.03.22v.03l.02.11c.04.34.15,1.27.15,1.27v.09s.05.08.05.08c0,0,0,.08,0,.12l.19,2.08.46.1h70.09c1.31,0,2.42-1.11,2.42-2.42v-22.49c0-1.33-1.04-2.37-2.38-2.37h-80.07s.52.78.52.78c.15.22.28.44.41.66.13.21.25.42.39.62.05.13.12.22.17.29l.06.09c.12.19.22.38.33.57.12.2.23.41.36.61l.03.05.04.04s.06.09.08.12c.11.21.23.42.34.64.12.24.25.47.37.7l.88,1.75c.08.22.2.46.32.71.11.22.21.45.31.68l.16.33c.19.37.38.76.52,1.13.04.09.06.14.08.18.03.08.06.15.09.21.17.39.36.85.54,1.3,0,.09.03.21.09.32.07.2.13.38.2.57.07.21.15.42.22.64.03.08.13.33.15.4.2.49.34.96.48,1.43l.45,1.51c.02.06.03.11.04.15.02.08.03.16.07.26.13.44.23.86.32,1.27v.06l.06.14v.04Zm-2.27-51.49c-1.17,0-2.12.95-2.12,2.12v23.03c0,1.17.97,2.12,2.17,2.12h108.38c1.17,0,2.12-.95,2.12-2.12v-23.03c0-1.17-.95-2.12-2.12-2.12h-108.43Zm16.09-33.22c-1.17,0-2.12.95-2.12,2.12v23.03c0,1.17.92,2.13,2.04,2.13h108.51c1.17,0,2.12-.96,2.12-2.13v-23.03c0-1.17-.95-2.12-2.12-2.12h-108.43Zm-50-33.22c-1.17,0-2.12.95-2.12,2.12v23.08c0,1.15.94,2.08,2.08,2.08h108.42c1.17,0,2.12-.96,2.12-2.13v-23.03c0-1.17-.95-2.12-2.12-2.12h-108.38Z"/>
  </g>
</svg>