<?xml version="1.0" encoding="UTF-8"?>
<svg id="Layer_1" data-name="Layer 1" xmlns="http://www.w3.org/2000/svg" viewBox="0 0 120 120">
  <defs>
    <style>
      .cls-1 {
        fill: none;
        stroke: #00a753;
        stroke-miterlimit: 2.61;
        stroke-width: .84px;
      }

      .cls-2 {
        fill: #00a753;
      }

      .cls-2, .cls-3, .cls-4, .cls-5 {
        fill-rule: evenodd;
      }

      .cls-3 {
        fill: #ffdf00;
      }

      .cls-6, .cls-4 {
        fill: #fed600;
      }

      .cls-5 {
        fill: #ce1f26;
      }
    </style>
  </defs>
  <path class="cls-2" d="m60,23.19c20.33,0,36.81,16.48,36.81,36.81s-16.48,36.81-36.81,36.81-36.81-16.48-36.81-36.81S39.67,23.19,60,23.19h0Z"/>
  <path class="cls-4" d="m60,26.23l4.17,12.92,13.58-.03-11,7.96,4.22,12.9-10.97-8-10.97,8,4.22-12.9-11-7.96,13.58.03,4.17-12.92h0Zm20.26,9.9c7.71,6.1,12.67,15.59,12.67,26.26,0,18.4-14.74,33.31-32.92,33.31s-32.92-14.91-32.92-33.31c0-10.67,4.96-20.16,12.67-26.26h0c.63-.46,1.19-.67,1.3-.51.1.15-.14.36-.64.89-5,5-8.09,11.91-8.09,19.53,0,15.27,12.4,27.65,27.69,27.65s27.69-12.38,27.69-27.65c0-7.63-3.09-14.53-8.09-19.53h0c-.5-.52-.75-.73-.64-.89.11-.16.68.05,1.3.51h0Zm-.66.37h0,0Z"/>
  <path class="cls-4" d="m60,22.49c20.72,0,37.51,16.79,37.51,37.51s-16.79,37.51-37.51,37.51-37.51-16.79-37.51-37.51S39.28,22.49,60,22.49h0Zm0,1.23c20.04,0,36.28,16.24,36.28,36.28s-16.24,36.28-36.28,36.28-36.28-16.24-36.28-36.28S39.96,23.72,60,23.72h0Z"/>
  <path class="cls-4" d="m60,6.68c29.45,0,53.32,23.87,53.32,53.32s-23.87,53.32-53.32,53.32S6.68,89.45,6.68,60,30.55,6.68,60,6.68h0Zm0,1.74c28.49,0,51.58,23.09,51.58,51.58s-23.09,51.58-51.58,51.58S8.42,88.49,8.42,60,31.51,8.42,60,8.42h0Z"/>
  <path class="cls-5" d="m22.49,60c0-20.72,16.79-37.51,37.51-37.51s37.51,16.79,37.51,37.51-16.79,37.51-37.51,37.51-37.51-16.79-37.51-37.51h0Zm89.09,0c0-28.49-23.09-51.58-51.58-51.58S8.42,31.51,8.42,60s23.09,51.58,51.58,51.58,51.58-23.09,51.58-51.58h0Z"/>
  <path class="cls-4" d="m78.25,16.89l1.69-.67.54.31c-.52.95-.9,1.91-.93,2.97-.4-.2-.62-.45-.77-.68-.75,1.8-2.28,3.21-3.75,3.59l.11-.58c1.33-1.19,2.44-3.12,3.11-4.94h0Z"/>
  <path class="cls-4" d="m35.26,20.63l.07-1.81.5-.37c.66.86,1.38,1.59,2.34,2.05-.34.28-.66.38-.94.43,1.34,1.41,2.01,3.39,1.76,4.88l-.48-.34c-.55-1.69-1.86-3.49-3.25-4.84h0Z"/>
  <path class="cls-4" d="m29.51,28.6c.08.1-1.11,1.38-.84-.13.04-.21.38-.45.84.13h0Zm2.54-1.53c-.09-.08-.13-.28-.07-.7.03-.17.3-.31.62-.11.59.38-.43.91-.55.81h0Zm.48-5.63c-.52-.59-.1-1.81.21-1.76.73.11,1.4,1.17,2.04,1.72.09.08-.25.05-.87-.07-.02,0,.64.7,1.14,1.71.25.51.68,1.11.7,1.65.04.85-.55,1.57-1.74,1.8l-.18.04c.09.68-.05,1.16-.43,1.41-.81.53-1.51-.18-2.07.17-.05.13-.06.46-.24.89l-.79.76c-.27.46-.79.96-1.51.66-1.71-1.3-1.42-2.96-1-3.23.67-.42,1.44-.38,2.52.46.15-.2.31-.42.37-.51.33-.57.34-1.05.37-1.41.1-1.3,1.15-.54,1.95-.58.56-.02,1.41-.23,1.61-.81.04-.12.03-.22-.04-.32-.53-.74-.8-1.18-2.03-2.59h0Z"/>
  <path class="cls-4" d="m26.44,31.8c-.1-.12-.43-.3-.53-.23-.76.6-.94.44-1.08-.33-.02-.1-.25-1.05-.25-1.62-.01-.8.21-1.02.76-.66,1.2.79,2.98,2.38,3.1,4.05.08,1.1-.58,2.14-1.42,3.14-.16-.1-.21-.19-.18-.3.54-1.64.58-2.62-.41-4.06h0Z"/>
  <path class="cls-4" d="m24.08,35.4c-.09-.13-.42-.38-.5-.28-.53.68-.72.31-1.03-.45-.04-.1-.21-.69-.23-1.25-.02-.62.5-.99,1-.57,1.11.92,2.15,1.76,2.16,3.43,0,1.27-1.12,2.21-2.37,2.39,0,.28,0,.54-.01.76h0c-.1,2.91-1.73,4.11-4.5,2.42-.37-.23-.65-.27-1.08-.36-.22-.05-.48-.06-.9-.04-.23.05-.43-.15-.45-.25-.13-.45-.95-1.31.33-1.17.47.05.89.14,1.42.39.59.28.85.38,1.38.7,2.29.82,2.7-1.99,2.43-3.27-.14-.66,0-1.11.51-.82.17.1.33.16.46.15.9-.06,1.72-.98,1.38-1.79h0Z"/>
  <path class="cls-4" d="m24.11,41.47l-.32-.83c-.04-.1.01-.22.12-.26l.83-.32s.04-.01.06-.01l-.27-.7c-.04-.1.01-.22.12-.26l.83-.32c.1-.04.22.01.26.12l.32.83c.04.1-.01.22-.12.26l-.83.32s-.04.01-.06.01l.27.7c.04.1-.01.22-.12.26l-.83.32c-.1.04-.22-.01-.26-.12h0Z"/>
  <path class="cls-4" d="m18.97,38.08l-.39-.8c-.05-.1,0-.22.09-.27l.8-.39s.04-.02.06-.02l-.33-.68c-.05-.1,0-.22.09-.27l.8-.39c.1-.05.22,0,.27.09l.39.8c.05.1,0,.22-.09.27l-.8.39s-.04.02-.06.02l.33.68c.05.1,0,.22-.09.27l-.8.39c-.1.05-.22,0-.27-.09h0Z"/>
  <path class="cls-4" d="m20.42,50.79l-.59-.67c-.07-.08-.07-.21.02-.28l.67-.59s.03-.03.05-.03l-.5-.56c-.07-.08-.07-.21.02-.28l.67-.59c.08-.07.21-.07.28.02l.59.67c.07.08.07.21-.02.28l-.67.59s-.03.03-.05.03l.5.56c.07.08.07.21-.02.28l-.67.59c-.08.07-.21.07-.28-.02h0Z"/>
  <path class="cls-4" d="m12.87,55.21l-.66-.6c-.08-.07-.09-.2-.01-.28l.6-.66s.03-.03.05-.04l-.55-.51c-.08-.07-.09-.2-.01-.28l.6-.66c.07-.08.2-.09.28-.01l.66.6c.08.07.09.2.01.28l-.6.66s-.03.03-.05.04l.55.51c.08.07.09.2.01.28l-.6.66c-.07.08-.2.09-.28.01h0Z"/>
  <path class="cls-4" d="m52.36,17.83c-.05-.11,0-.31.25-.66.1-.14.41-.15.6.18.36.6-.79.62-.85.48h0Zm-.32-1.63c.66-1.12,1.27.02,2.01.35.12.06.26.1.4.14-.1.83-.22,2.4-1.27,2.53-.96.12-1.27-.83-1.93-.76-.67.64-1.04,1.21-2.44.45-.77,1.32-3.1,2.53-4.71.94-.81,1.47-2.29,2.15-2.81.62-.55-1.63,1.75-2.59,2.04-2.61-.04-.41.14-.78.34-.9.35-.21.82.06.82.15,0,.96.28,1.51.67,1.79.62.43,2.05.08,2.43-.38.24-.2.31-.58.6-1.08.34-.58.66-.89.9-.36.08.18.16.33.28.4,1.05.68,2.17-.41,2.68-1.28h0Zm-8.52,2.98c-.55.9-1.35,1.06-1.24.54.16-.42.85-.92,1.1-.88l.14.34h0Z"/>
  <path class="cls-4" d="m18.15,44.89c-.13-.09-.54-.18-.57-.06-.22.83-.53.57-1.13,0-.07-.07-.47-.55-.71-1.06-.26-.56.07-1.1.69-.92,1.38.41,2.67.77,3.34,2.3.5,1.14-.02,2.67-1.11,3.3.14.25.25.48.33.69h0c.06.14.11.29.15.45h0s0,0,0,0c.02.05.03.11.04.16h0s.01.05.02.08c.23,1.21-.6,2.41-1.66,2.71.95,1.38.89,3.02-.71,2.79-1.71-.24-1.53-2.73-1.42-3-.39-.15-.63-.48-.65-.71-.03-.41.42-.71.5-.67.85.44,1.48.43,1.9.21.66-.36.82-1.25.59-1.79-.07-.31-.38-.54-.69-1.02-.37-.56-.5-.99.09-.97.2,0,.36-.02.48-.07.82-.32,1.25-1.72.51-2.42h0Zm-1.46,7.86c.56.9.34,1.68-.07,1.35-.31-.34-.44-1.17-.29-1.38l.37.03h0Z"/>
  <path class="cls-4" d="m69.25,20.51c.02-.18.08-.28.19-.29.31-.04.59-.09.85-.15.64-.19,1.49-.46,2.28-.89.13-1.05-.06-2.22-.6-3.25l-.44.33s-.91-.99-.96-1.43c.04-.9,1.55-1.71,1.91-1.13.63,1.04,1.31,3.34.93,4.95,1.01-.77,1.73-1.87,1.46-3.49-.13-.77,1.29-1.26,1.46-1,.39.62.04,1.82.05,2.66,0,.12-.21-.16-.52-.7,0-.01-.1.95-.54,1.99-.47,1.13-1.49,2.29-2.72,2.66-.92.28-2.44-.03-3.36-.26h0Z"/>
  <path class="cls-4" d="m59.63,17.48c.46,1.4,2.27,1.84,4.06.69.42,1.21,1.96,1,2.82.47,2.12,1.7,4.22-.6,3.39-2.83l-1.05.69c.32,1.86-2.03,1.51-1.17-.04.08-.27-.78-.21-.91.12l-.26.38c-.68.97-1.77.69-1.71-.27.01-.23.13-.49.22-.7.07-.27-.7-.21-.81.12-.95,1.52-4.05,1.88-3.79-.92.04-.42.05-.91.09-1.46.04-.59.05-1.18-.07-1.63-.33-1.25-.84-.18-1.21.11-.08.06-.2.32-.07.51.17.39.25.63.28.86.19,1.17-.2,2.35-.98,3.23.05-1.65-1.06-3.78-1.88-4.67-.46-.51-1.79.59-1.65,1.48.13.42,1.18,1.26,1.22,1.22l.37-.41c.73.91,1.15,2.02,1.22,3.07-.69.57-1.47,1.01-2.06,1.32-.24.11-.51.21-.81.32-.11.04-.14.14-.13.32.94.04,2.5.05,3.34-.41.64-.34,1.16-.92,1.54-1.57h0Z"/>
  <path class="cls-4" d="m106.98,52.6l1.63.79.14.61c-1.05.26-2.01.63-2.82,1.32-.12-.43-.09-.76-.02-1.03-1.83.66-3.91.49-5.18-.34l.5-.31c1.77.17,3.95-.31,5.74-1.04h0Z"/>
  <path class="cls-4" d="m98.51,37.37c.3-.15,2.34-.33,2.06.21-.46.9-1.76-.13-2.06-.21h0Zm1.27,5.56c.1-.07.31-.04.68.16.15.08.19.4-.11.65-.56.46-.71-.72-.57-.81h0Zm-2.88-8.31c-.12.05-.96-1.54.39-.8.18.1.31.52-.39.8h0Zm-1.37.43c-.35-.41-.66-1.09-.15-1.72,1.78-1.31,3.26-.51,3.38,0,.19.8-.1,1.56-1.24,2.39-.09.55.18.68.3.9,1.67-.59,3.24-.54,3.74.12.47.62.17,1.78-1.99,2.39-.01,1.19.01,1.67.57,2.4.43.51.88.68,1.21.83,1.19.52.13,1.32-.11,2.14-.29,1,.07,3.18,1.39,4.17.71-.94.37-1.96-.72-3.03l.66-1.08c1.17.64,1.67,1.2,2.03,2.15.47,1.25-.47,3.98,1.54,3.05.06-.49.28-.73.75-.94l1.38.61-.16.64c-.73.21-1.29.72-1.78,1.32,0,0-.29-.38-.26-.86-2.23.63-1.52-1.07-2.65-1.41-.18.7-.14,1.5.06,2.36l-1.68.75c.49-4.59-2.55-2.81-1.63-7.28-.98-.07-1.56-.38-1.69-.96-.23-.98.67-1.44.53-2.12-.29-.25-.68-.33-.72-1.43-1.63.89-3.19-.41-1.66-3.29-.49-.32-.46-.64-.65-1.08-3.31.65-4.12-1.28-4.5-3.64.18-.06.29-.05.34.05.96,1.63,1.67,2.51,3.69,2.56h0Zm1.72,3.11c3,.56-.33,3.11,0,0h0Z"/>
  <path class="cls-4" d="m91.87,30.19c.14-.07.4-.34.35-.45-.4-.89-.2-1.02.59-.96.1,0,1.08.02,1.63.15.77.18.93.46.45.9-1.07.97-3.04,2.3-4.69,2-1.09-.2-1.93-1.09-2.69-2.15.13-.13.24-.16.33-.1,1.45.93,2.39,1.21,4.03.61h0Z"/>
  <path class="cls-4" d="m89,26.73c.15-.05.48-.3.41-.4-.51-.7-.11-.78.71-.87.1-.01.72-.02,1.27.11.6.15.82.74.28,1.11-1.19.82-2.28,1.61-3.89,1.15-3.15-.9-3.94-2.21-4.21-2.86-.17-.41-.23-.87-.16-1.29-1.66.24-3.1-.53-2.19-1.87.97-1.42,3.12-.17,3.31.05.31-.28.71-.36.92-.27.38.16.45.69.38.74-1.05.78-1.17,1.54-.9,2.09.27.56,1.26,1.83,4.07,2.3h0Zm-5.41-3.91c-1.05.1-1.66-.44-1.18-.66.44-.13,1.25.12,1.37.35l-.19.31h0Z"/>
  <path class="cls-4" d="m99.14,48.7l.95.19c.12.02.19.14.17.26l-.21,1.02c-.02.12-.14.19-.26.17l-.95-.19c-.12-.02-.19-.14-.17-.26l.21-1.02c.02-.12.14-.19.26-.17h0Z"/>
  <path class="cls-4" d="m13.46,44.29l.73-.63c.09-.08.23-.07.31.02l.68.79c.08.09.07.23-.02.31l-.73.63c-.09.08-.23.07-.31-.02l-.68-.79c-.08-.09-.07-.23.02-.31h0Z"/>
  <path class="cls-4" d="m83.27,18.49l.87-.43c.11-.05.24,0,.29.1l.43.87s.02.04.02.06l.73-.36c.11-.05.24,0,.29.1l.43.87c.05.11,0,.24-.1.29l-.87.43c-.11.05-.24,0-.29-.1l-.43-.87s-.02-.04-.02-.06l-.73.36c-.11.05-.24,0-.29-.1l-.43-.87c-.05-.11,0-.24.1-.29h0Z"/>
  <path class="cls-4" d="m83.81,27.57l.79-.43c.1-.05.22-.02.27.08l.43.79s.02.04.02.06l.66-.36c.1-.05.22-.02.27.08l.43.79c.05.1.02.22-.08.27l-.79.43c-.1.05-.22.02-.27-.08l-.43-.79s-.02-.04-.02-.06l-.66.36c-.1.05-.22.02-.27-.08l-.43-.79c-.05-.1-.02-.22.08-.27h0Z"/>
  <path class="cls-4" d="m47.69,21.4l.39-.8c.05-.1.17-.14.27-.09l.8.39s.04.02.05.04l.33-.67c.05-.1.17-.14.27-.09l.8.39c.1.05.14.17.09.27l-.39.8c-.05.1-.17.14-.27.09l-.8-.39s-.04-.02-.05-.04l-.33.67c-.05.1-.17.14-.27.09l-.8-.39c-.1-.05-.14-.17-.09-.27h0Z"/>
  <path class="cls-4" d="m40.5,16.6l.27-.85c.03-.11.15-.16.25-.13l.85.27s.04.02.06.03l.23-.71c.03-.11.15-.16.25-.13l.85.27c.11.03.16.15.13.25l-.27.85c-.03.11-.15.16-.25.13l-.85-.27s-.04-.02-.06-.03l-.23.71c-.03.11-.15.16-.25.13l-.85-.27c-.11-.03-.16-.15-.13-.25h0Z"/>
  <path class="cls-4" d="m29.25,33.87c1.92-1.24,3.31-2.72,1.52-5.53l-.71.87c.67,1.84.16,2.83-.89,4.32-.07.09-.04.2.08.34h0Z"/>
  <path class="cls-4" d="m66.67,13.94c1.69,0-.88.49-.8,1.03.02.11.1.15.23.14.69-.06,1.96-.64,2.88-1.83-.02-.15-.15-.21-.32-.24-.11-.02-1.2-.25-1.95,0-.17.06-.34.18-.63.7-.5.88.29.19.6.19h0Z"/>
  <path class="cls-4" d="m45.06,14.19c-.05.06-.27.62.14.64.48.17,4.27-1.19,5.24-2.49.59-.79.02-.35-.55.01-.83.52-3.33,1.56-4.83,1.83h0Z"/>
  <path class="cls-4" d="m105.15,44.04c-.07-.03-.85,0-.74.39.58.96,1.19,1.81,2.26,2.09.95.25.34-.08-.18-.52-.75-.63-.98-.9-1.34-1.97h0Z"/>
  <path class="cls-4" d="m49.97,13.87c-.07-.05-.15-.03-.19.04-.2.41-.3.81-.48.9-.08.04-.29.22-.42.12-.04-.03-.11-.19-.18-.3-.19-.28-.38.15-.43.33-.06.23-.22.39-.34.45-.47.23-.64,0-.63-.4,0-.3-.37-.34-.4.57,0,.28-.01.68.28.8.65.27,1.07-.34,1.19-.65.02-.05.11-.02.18.01.43.2.74.08.96-.18.5-.59.53-1.89.48-1.7h0Z"/>
  <path class="cls-4" d="m90.88,23.18c-.02-.08-.09-.12-.17-.09-.43.18-.76.41-.96.36-.09-.02-.36-.03-.4-.18-.01-.05.05-.22.06-.35.04-.34-.39-.14-.54-.04-.2.13-.42.15-.56.11-.51-.14-.48-.43-.21-.72.2-.22-.06-.5-.68.16-.19.2-.46.5-.32.79.31.64,1.03.45,1.32.3.05-.03.1.06.12.12.19.43.5.55.84.5.76-.11,1.65-1.07,1.48-.96h0Z"/>
  <path class="cls-4" d="m13.84,46.36c-.08.04-.1.12-.05.19.27.37.58.63.58.84,0,.09.06.35-.08.43-.04.02-.22,0-.35.02-.34.04-.04.41.09.53.18.16.25.37.24.51,0,.53-.3.57-.65.38-.26-.14-.47.18.32.62.24.14.6.32.84.12.54-.45.19-1.1-.03-1.35-.04-.04.03-.11.09-.15.37-.29.41-.62.28-.93-.29-.71-1.44-1.34-1.29-1.2h0Z"/>
  <path class="cls-4" d="m72.16,22.33c.06.13.2.24.15.24-.14,0-.39.04-.52.17-.09.11,0,.31.07.31.51.02,1.15-.21,1.76.09.08-.23.51-.35.36-.49-.16-.14-.66-.07-.99-.49-.19-.25.02-.77.51-.26.45.46.71-.24.69-.29-.1-.25-.55-.42-.97-.44-.62-.03-1.35.54-1.07,1.15h0Z"/>
  <path class="cls-4" d="m102.89,40.19c-.27-.24-.04-.1-.6-.25-.12-.03-.64-.1-.64.04,0,.21.47.19.63.69.14.43-1.11-.55-1.2-.53-.23.03.74,1.28,2.16,1.22.41-.23-.22-.96-.35-1.17h0Z"/>
  <path class="cls-4" d="m95.8,30.7c-.21.19-.36.69-.34.92.16.07.92-.13,1.06-.19.07-.28.02-.36.21-.63.24-.34.48-.06.47-.44-.36-.14-1.11.09-1.4.35h0Z"/>
  <path class="cls-4" d="m52.37,13.75c0,.28.27.73.46.87.17-.07.52-.77.56-.92-.16-.24-.25-.26-.33-.58-.09-.4.28-.39-.02-.64-.35.17-.68.88-.68,1.27h0Z"/>
  <path class="cls-4" d="m22.58,30.86c.22.19.73.27.96.21.05-.17-.25-.9-.33-1.02-.29-.03-.36.02-.66-.13-.37-.19-.12-.46-.5-.41-.09.38.23,1.09.53,1.34h0Z"/>
  <path class="cls-4" d="m31.24,23.21c.24.16.76.18.98.09.03-.18-.35-.86-.45-.97-.29,0-.36.07-.67-.05-.39-.14-.17-.45-.55-.34-.05.38.37,1.05.69,1.27h0Z"/>
  <path class="cls-4" d="m21.4,45.02c.26.11.78.02.98-.11,0-.18-.52-.77-.64-.86-.28.06-.34.14-.66.09-.41-.06-.26-.4-.6-.22.03.39.57.96.93,1.1h0Z"/>
  <path class="cls-4" d="m62.33,12.63c.68.5.24,1.79.54,1.95.49.27.46-3.5-.41-2.39-.07.09-.21.28-.13.44h0Z"/>
  <path class="cls-4" d="m17.07,38.88c.78-.32,1.65.72,1.95.55.49-.28-2.75-2.21-2.26-.89.04.11.13.32.31.34h0Z"/>
  <path class="cls-6" d="m29.69,25.42c-.15.32-.44.54-.71.74-.16.12.56-1.56.43-1.99-.54.36-1.02-.1-1.03-.63-.02-.73.66-1.07,1.09-.43.5.74.62,1.49.23,2.31h0Zm-.87-1.92c-.02.09.05.19.17.21.12.03.23-.03.26-.12.02-.09-.05-.19-.17-.21-.12-.03-.23.03-.26.12h0Z"/>
  <polygon class="cls-3" points="39.76 72.55 38.94 94.24 45.4 96.16 44.23 72.91 40.27 72.36 39.76 72.55 39.76 72.55"/>
  <path class="cls-1" d="m85.93,90.78l2.17-1.93-3.43-6.49c-.21-.41-.22-.84.16-1.23l4.82-4.17c.26-.17.53-.14.81-.02l2.66.12c1.79.48,3.08-2.77,4.33-2.71l1.35.03c.69,0,.73-.27.22-.38-3.09-1.15-3.03.14-5.07.58l-4.18-3.17c-.54-.35-.76-.21-1.15.21l-6.64,7.06c-.42.46-.69.5-.61-.26l.25-4.48c5.34-7.46,8.42-3.1,12.65-3.75,1.51-.4,2.75-1.45,3.74-3.06.4-.68.38-1.01-.51-.6-3.09.65-5.52-.59-8.02-.27-2.91.37-5.53,1.75-7.75,5.68l.33-5.9.95-1.27c1.07,1.28,2.7.96,3.17-.64.89,1.07,2.44,1.11,3.13-.23,1.51,1.71,3.35-.8,1.22-1.44l1.26-.61c.99,1.11,2.71.86,2.84-.77,0-.02,0-.03,0-.05.13,0,.25-.03.37-.06.29.23.67.38,1.09.38.91,0,1.64-.67,1.64-1.5s-.74-1.5-1.64-1.5c-.79,0-1.44.5-1.6,1.18-.21,0-.4.03-.57.09-.73-.92-2.38-.4-2.61,1.1-.39-.07-.74-.07-1.05.17-1.14-.47-1.89-.15-2.9.72-.53.49-.97.68-1.56.82-.64-.87-1.75-.71-2.63.49-.25.08-.33-.22-.15-.41l1.53-1.31c1.27,1.04,2.57.37,2.33-.63,1.3.53,2.34-.06,2.27-1.33,1.27,1.08,2.69.31,2.66-1.24,1.13,1.13,2.98.47,2.94-1.11.83,1.24,2.37,1.35,3.19.89.38-.21.69-.65.41-1.07-.13-.19-.35-.15-.48-.33.24-.77-.79-1.1-2.51-1.02-2.66.13-5.99,1.75-9.18,3.41l-.15-.31c.4-.38.92-.74,1.55-1.47,1,.2,1.75-.03,1.96-1.14l.5-.24c.96.56,1.73-.01,2.12-.74.56.02,1.06-.13,1.5-.48.29-.4.96.43,1.98.13,1.18-.35,1.12-1.77-.09-2.13-.46-.14-.99-.03-1.43.55-.12.1-.18.09-.31.08h0c-.05-.55-.51-.98-1.08-.98-.6,0-1.08.48-1.08,1.08,0,.17.04.33.11.47-.09.04-.18.1-.21.2-.07-.57-.56-1-1.14-1-.64,0-1.15.51-1.15,1.15,0,.32.13.62.35.83-.28-.14-.44-.05-.47.29h0s0-.03,0-.05c0-.6-.48-1.08-1.08-1.08s-1.08.48-1.08,1.08c0,.32.14.61.37.81h0c-.12.23-.3.29-.5.29h0c-1.98-1.9-3.83.68-2.02,2.11-.79.01-1.82.66-1.08,2.31l-1.43,1.16.36-6.49c.03-.66-.1-1.15-.36-1.26-.63-.28-1.74-.2-2.73.23-.29.12-.6.34-.88.87-.91,1.76-3.24,7.24-3.54,8.76-.03.16-.04.27-.03.34.02.2.44-.15.79-.42.75-.57,1.84-1.58,2.62-2.18l-.39,7.94c-3.47-5.33-8.24-5.53-11.74-3.46-2.09,1.44-2.71,3.3-5.06,5.41.75-.07,1.39-.21,1.98-.81.04,1.1-.25,3.13.48,4.21-.26,1.54,1.52,2.51.71,4.86.43-.33.94-.52,1.12-2.05,1.29,1.19,3.13,1.74,4.83,1.49-.69.16-1.28.47-1.45.88l-5.28,10.44c-.11.14.03.66.44.34l6.56-5.1c.37-.34.63-.26.86.12l6.07,9.66,2.49-.22.58-10.17c-.03-.47.35-.78.7-1.05.48-.37.62-.71.93-.11l3.6,6.89h0Zm6.38-23.12c-1.88-.44-4.29-.71-7.01,1.33,5.77-1.77,5.61.62,8.94-.61.24-.09.38-.19.35-.27-.08-.23-.37,0-2.28-.45h0Zm-14.25,2.78l-.17,3.42c-.74-1.59-1.56-2.98-2.66-4.03-1.89-1.8-4.88-2.77-7.13-1-.9.71-1.41,1.69-1.54,2.69-.24,1.79.73,3.62,2.79,3.93,1.29.04,2.33-.65,2.36-1.92.62-.15,1.01-.71.96-1.43,1.52.04,1.9,1.53,1.4,3.15-.56,1.82-2.37,3.63-5,3.31-1.13-.14-2.27-.67-3.19-1.54.22-.13.37-.37.37-.65,0-.42-.34-.76-.76-.76-.23,0-.43.1-.57.26-.4-.63-.7-1.37-.86-2.19.1.04.22.07.34.07.48,0,.87-.39.87-.87s-.39-.87-.87-.87c-.17,0-.32.05-.45.13,0-.26.03-.54.07-.81.05-.54.17-1.07.35-1.58.19.29.51.48.88.48.58,0,1.05-.47,1.05-1.05s-.47-1.05-1.05-1.05h-.02c.48-.66,1.08-1.24,1.76-1.7,0,.58.47,1.04,1.05,1.04s1.05-.47,1.05-1.05c0-.33-.15-.63-.4-.82.61-.19,1.25-.3,1.91-.3.24,0,.47.01.7.03-.11.14-.18.32-.18.52,0,.46.37.83.83.83s.83-.37.83-.83c0-.08-.01-.16-.03-.24,2.38.74,3.98,2.71,5.32,4.82h0Zm-.22,4.49l-.6,12.18c-.06.56-.35.35-.46,0l-3.6-7.56c-.31-.52-1.35-.66-2.32-.53,1.83-.42,3.43-1.78,3.93-4.29,1.05-1.78-.29-1.82-.15-3.42l-.31,1.02c-.44-.7-1.14-.99-2.27-.81.71,2.38-2.76,2.23-2.76-.08.12-1.71,1.72-2.48,2.88-2.45,2.2.05,4.03,2.21,5.66,5.94h0Zm-1.36,17.06l-6.55-11.09c-1.13-1.3,2.78-1.55,2.99-.66l3.97,8.87c.45.8-.05,1.14-.38.5l-2.81-5.8c-.15-.31-.95.16-.72.55l3.74,7.05c.42.6-.08.89-.23.58h0Zm4.83-8.69c-.48.34-.56-.47-.22-.79l7.51-7.01c.75-.77,1.09.21.45.75l-7.74,7.04h0Zm1.16-2.77c-.32.26-.69-.26-.13-.76l5.98-6.61c.42-.54.93.08.34.68l-6.19,6.69h0Zm-3-24.9c-.09-.79,2.46-1.38,2.25-.33l-.93,22.31c-.11.61-.61,1.38-.72.94l.89-17.95c0-.4-.6-.2-.8.12l-.74,16.85c-.07,1.53-.7-.2-.66-.98l.7-20.96h0Z"/>
  <path class="cls-4" d="m85.93,90.78l2.17-1.93-3.43-6.49c-.21-.41-.22-.84.16-1.23l4.82-4.17c.26-.17.53-.14.81-.02l2.66.12c1.79.48,3.08-2.77,4.33-2.71l1.35.03c.69,0,.73-.27.22-.38-3.09-1.15-3.03.14-5.07.58l-4.18-3.17c-.54-.35-.76-.21-1.15.21l-6.64,7.06c-.42.46-.69.5-.61-.26l.25-4.48c5.34-7.46,8.42-3.1,12.65-3.75,1.51-.4,2.75-1.45,3.74-3.06.4-.68.38-1.01-.51-.6-3.09.65-5.52-.59-8.02-.27-2.91.37-5.53,1.75-7.75,5.68l.33-5.9.95-1.27c1.07,1.28,2.7.96,3.17-.64.89,1.07,2.44,1.11,3.13-.23,1.51,1.71,3.35-.8,1.22-1.44l1.26-.61c.99,1.11,2.71.86,2.84-.77,0-.02,0-.03,0-.05.13,0,.25-.03.37-.06.29.23.67.38,1.09.38.91,0,1.64-.67,1.64-1.5s-.74-1.5-1.64-1.5c-.79,0-1.44.5-1.6,1.18-.21,0-.4.03-.57.09-.73-.92-2.38-.4-2.61,1.1-.39-.07-.74-.07-1.05.17-1.14-.47-1.89-.15-2.9.72-.53.49-.97.68-1.56.82-.64-.87-1.75-.71-2.63.49-.25.08-.33-.22-.15-.41l1.53-1.31c1.27,1.04,2.57.37,2.33-.63,1.3.53,2.34-.06,2.27-1.33,1.27,1.08,2.69.31,2.66-1.24,1.13,1.13,2.98.47,2.94-1.11.83,1.24,2.37,1.35,3.19.89.38-.21.69-.65.41-1.07-.13-.19-.35-.15-.48-.33.24-.77-.79-1.1-2.51-1.02-2.66.13-5.99,1.75-9.18,3.41l-.15-.31c.4-.38.92-.74,1.55-1.47,1,.2,1.75-.03,1.96-1.14l.5-.24c.96.56,1.73-.01,2.12-.74.56.02,1.06-.13,1.5-.48.29-.4.96.43,1.98.13,1.18-.35,1.12-1.77-.09-2.13-.46-.14-.99-.03-1.43.55-.12.1-.18.09-.31.08h0c-.05-.55-.51-.98-1.08-.98-.6,0-1.08.48-1.08,1.08,0,.17.04.33.11.47-.09.04-.18.1-.21.2-.07-.57-.56-1-1.14-1-.64,0-1.15.51-1.15,1.15,0,.32.13.62.35.83-.28-.14-.44-.05-.47.29h0s0-.03,0-.05c0-.6-.48-1.08-1.08-1.08s-1.08.48-1.08,1.08c0,.32.14.61.37.81h0c-.12.23-.3.29-.5.29h0c-1.98-1.9-3.83.68-2.02,2.11-.79.01-1.82.66-1.08,2.31l-1.43,1.16.36-6.49c.03-.66-.1-1.15-.36-1.26-.63-.28-1.74-.2-2.73.23-.29.12-.6.34-.88.87-.91,1.76-3.24,7.24-3.54,8.76-.03.16-.04.27-.03.34.02.2.44-.15.79-.42.75-.57,1.84-1.58,2.62-2.18l-.39,7.94c-3.47-5.33-8.24-5.53-11.74-3.46-2.09,1.44-2.71,3.3-5.06,5.41.75-.07,1.39-.21,1.98-.81.04,1.1-.25,3.13.48,4.21-.26,1.54,1.52,2.51.71,4.86.43-.33.94-.52,1.12-2.05,1.29,1.19,3.13,1.74,4.83,1.49-.69.16-1.28.47-1.45.88l-5.28,10.44c-.11.14.03.66.44.34l6.56-5.1c.37-.34.63-.26.86.12l6.07,9.66,2.49-.22.58-10.17c-.03-.47.35-.78.7-1.05.48-.37.62-.71.93-.11l3.6,6.89h0Zm6.38-23.12c-1.88-.44-4.29-.71-7.01,1.33,5.77-1.77,5.61.62,8.94-.61.24-.09.38-.19.35-.27-.08-.23-.37,0-2.28-.45h0Zm-14.25,2.78l-.17,3.42c-.74-1.59-1.56-2.98-2.66-4.03-1.89-1.8-4.88-2.77-7.13-1-.9.71-1.41,1.69-1.54,2.69-.24,1.79.73,3.62,2.79,3.93,1.29.04,2.33-.65,2.36-1.92.62-.15,1.01-.71.96-1.43,1.52.04,1.9,1.53,1.4,3.15-.56,1.82-2.37,3.63-5,3.31-1.13-.14-2.27-.67-3.19-1.54.22-.13.37-.37.37-.65,0-.42-.34-.76-.76-.76-.23,0-.43.1-.57.26-.4-.63-.7-1.37-.86-2.19.1.04.22.07.34.07.48,0,.87-.39.87-.87s-.39-.87-.87-.87c-.17,0-.32.05-.45.13,0-.26.03-.54.07-.81.05-.54.17-1.07.35-1.58.19.29.51.48.88.48.58,0,1.05-.47,1.05-1.05s-.47-1.05-1.05-1.05h-.02c.48-.66,1.08-1.24,1.76-1.7,0,.58.47,1.04,1.05,1.04s1.05-.47,1.05-1.05c0-.33-.15-.63-.4-.82.61-.19,1.25-.3,1.91-.3.24,0,.47.01.7.03-.11.14-.18.32-.18.52,0,.46.37.83.83.83s.83-.37.83-.83c0-.08-.01-.16-.03-.24,2.38.74,3.98,2.71,5.32,4.82h0Zm-.22,4.49l-.6,12.18c-.06.56-.35.35-.46,0l-3.6-7.56c-.31-.52-1.35-.66-2.32-.53,1.83-.42,3.43-1.78,3.93-4.29,1.05-1.78-.29-1.82-.15-3.42l-.31,1.02c-.44-.7-1.14-.99-2.27-.81.71,2.38-2.76,2.23-2.76-.08.12-1.71,1.72-2.48,2.88-2.45,2.2.05,4.03,2.21,5.66,5.94h0Zm-1.36,17.06l-6.55-11.09c-1.13-1.3,2.78-1.55,2.99-.66l3.97,8.87c.45.8-.05,1.14-.38.5l-2.81-5.8c-.15-.31-.95.16-.72.55l3.74,7.05c.42.6-.08.89-.23.58h0Zm4.83-8.69c-.48.34-.56-.47-.22-.79l7.51-7.01c.75-.77,1.09.21.45.75l-7.74,7.04h0Zm1.16-2.77c-.32.26-.69-.26-.13-.76l5.98-6.61c.42-.54.93.08.34.68l-6.19,6.69h0Zm-3-24.9c-.09-.79,2.46-1.38,2.25-.33l-.93,22.31c-.11.61-.61,1.38-.72.94l.89-17.95c0-.4-.6-.2-.8.12l-.74,16.85c-.07,1.53-.7-.2-.66-.98l.7-20.96h0Z"/>
  <path class="cls-1" d="m55.39,65.94c1.05-.71,1.97-1.45,2.59-2.44-1.46.45-2.65,1.3-3.59,2.25-.18-.03-.37-.05-.56-.06,1.04-.84,1.95-1.69,2.47-2.81-1.5.61-2.64,1.65-3.46,2.76-.18,0-.35,0-.53,0,.88-.97,1.63-1.91,1.98-3.08-1.37.79-2.31,1.94-2.96,3.13-.18.02-.35.03-.53.05.8-1.03,1.49-2.03,1.75-3.22-1.3.89-2.18,2.12-2.74,3.36-.19.03-.38.07-.58.11.73-1.06,1.35-2.09,1.53-3.27-1.25.97-2.05,2.25-2.53,3.51-.21.06-.41.12-.62.18.65-1.08,1.18-2.13,1.26-3.28-1.18,1.04-1.87,2.34-2.24,3.61-.18.07-.36.14-.54.21.61-1.07,1.12-2.15,1.16-3.26-1.16,1.06-1.84,2.43-2.17,3.7-.13.06-.26.13-.39.19.1-.28.16-.57.15-.88-.56.41-.93.92-1.17,1.44-.19.11-.38.23-.57.35.04-.26.08-.53.14-.81,1.01-.75,1.97-1.74,2.53-3.04-.87.38-1.59,1-2.26,1.72.06-.27.13-.54.2-.82.97-.47,2.11-1.41,2.64-2.55-.89.2-1.56.79-2.35,1.41.06-.23.13-.47.2-.71.99-.48,2.12-1.38,2.69-2.51-.85.15-1.54.66-2.3,1.23.07-.23.15-.46.23-.69.98-.47,2.07-1.33,2.65-2.4-.8.13-1.47.57-2.19,1.08.09-.23.17-.47.26-.71.98-.51,1.92-1.21,2.63-2.21-.76.15-1.45.48-2.11.91.1-.24.2-.48.3-.72.89-.51,1.76-1.2,2.35-2.18-.81.12-1.49.49-2.13.97l-.04-.04c.6-.84,1.43-2.14,1.45-3.66-1,.73-1.63,2.11-1.91,3.19l-.08-.08s-.05.09-.07.14c-.07-.83-.22-1.61-.58-2.34-.3,1.27-.24,2.54-.06,3.7-.1.23-.2.47-.29.71-.21-.86-.51-1.65-1.01-2.34-.16,1.29.11,2.53.53,3.62-.08.21-.15.43-.23.65-.29-.93-.56-1.76-1.13-2.4-.14,1.26.22,2.66.71,3.68-.07.21-.13.42-.2.64-.19-.53-.49-1.27-1.18-1.9,0,1.41.38,2.38.83,3.08-.07.25-.14.5-.21.76-.26-.74-.53-1.4-1.06-1.93-.14,1.11.22,2.34.7,3.24-.05.18-.09.36-.14.54-.17-.45-.39-.8-.75-1.27-.12,1.1.18,1.75.48,2.36-.1.4-.2.8-.29,1.21-.16-.51-.33-1.01-.5-1.52.09-.54.08-1.04-.03-1.51-.1.13-.21.3-.32.5-.04-.12-.08-.24-.13-.35.47-.79.76-1.57.81-2.34-.35.24-.8.64-1.21,1.24-.04-.11-.08-.22-.12-.33.66-.81,1.07-1.65,1.17-2.52-.45.22-1.05.66-1.58,1.44-.06-.14-.11-.29-.17-.43,1.02-.86,1.39-1.55,1.51-2.63-1.11.89-1.52,1.36-1.85,1.79-.07-.16-.13-.33-.2-.49,1.09-.96,1.68-1.79,1.8-2.9-.7.57-1.5,1.32-2.1,2.18-.08-.18-.15-.36-.23-.54,1.08-.93,1.87-1.98,2.24-3.03-.66.37-1.65,1.12-2.58,2.23-.06-.14-.12-.28-.18-.42,1.16-1.05,2.02-2.11,2.41-3.16-.69.36-1.74,1.12-2.71,2.49-.08-.18-.16-.36-.24-.54,1.19-.97,2.06-1.96,2.46-3-.7.3-1.78,1-2.77,2.33-.09-.19-.17-.37-.25-.55,1.13-.87,1.97-1.8,2.34-2.84-.65.24-1.66.85-2.57,2.17l.13.45c-.09-.2-.18-.39-.27-.57l.02-.53c1.02-.76,1.77-1.59,2.11-2.54-.64.19-1.63.97-2.53,2.22l-.03-.02-.08-.16.05-.18h-.01c.77-.94,1.27-1.89,1.36-2.88-.52.28-1.19,1.1-1.73,2.29.21-1.95.06-2.76-.32-3.31-.47.7-.52,1.91-.28,2.96-.68-.55-1.31-.87-1.74-.93.31.65.82,1.21,1.48,1.7h0c-.59-.14-1.17-.21-1.68-.25.47.64,1.24,1.06,2.19,1.37l.17.37c-.97-.45-1.84-.59-2.44-.57.66.77,1.69,1.27,2.93,1.66.06.14.13.29.19.43-1.13-.48-2.18-.74-2.86-.76.71.78,1.86,1.31,3.24,1.62.07.16.14.32.21.48-1.31-.48-2.5-.72-3.23-.71.84.75,2.1,1.23,3.56,1.46.06.14.12.29.18.43-1.3-.45-2.49-.59-3.22-.58.86.75,2.13,1.28,3.62,1.52.07.17.14.34.21.5-1.26-.44-2.42-.56-3.13-.54.83.75,2.07,1.26,3.51,1.47l.14.34c-1.15-.34-2.2-.39-2.84-.34.75.63,1.87,1.04,3.17,1.16.07.17.14.35.21.52-1.05-.4-2.01-.5-2.6-.47.69.68,1.72,1.13,2.92,1.29.06.16.12.31.18.47-.69-.29-1.29-.39-1.72-.4.5.68,1.26,1.22,2.21,1.65l.17.44c-.61-.37-1.16-.52-1.54-.57.39.66,1.07,1.2,1.93,1.65l.04.04c.12.31.24.62.36.94-.51-.56-1.03-.88-1.41-1.04.16.56.49,1.1.95,1.62l-.15.11-.07.05c-.22-.12-.44-.24-.67-.35-.19-1.04-.73-2.14-1.85-2.98-.05.89.35,1.69.86,2.51-.18-.08-.36-.16-.54-.23-.28-1.13-.89-2.31-2.02-3.22,0,1,.47,1.91,1.04,2.84-.22-.08-.45-.16-.68-.24-.21-1.1-.72-2.25-1.73-3.2-.07,1,.31,1.93.8,2.9-.18-.06-.36-.11-.55-.16-.2-1.13-.71-2.31-1.74-3.28-.07,1.05.35,2.02.88,3.04-.16-.04-.32-.08-.48-.12-.2-1.13-.67-2.27-1.74-3.26-.06,1.08.35,2.02.91,3.07-.18-.04-.37-.08-.55-.12-.22-1.13-.73-2.27-1.8-3.2-.05,1.08.39,2.02.96,3.03-.23-.04-.46-.09-.69-.13-.12-1.04-.51-2.1-1.57-3.02-.13,1.01.28,1.89.84,2.9-.44-.07-.89-.14-1.34-.2l.68.07c-.23-1.05-.8-1.96-1.98-2.78-.02,1.03.58,1.75,1.25,2.71-.22-.03-.43-.06-.65-.09-.36-.88-.94-1.74-2.19-2.48-.02.87.49,1.58,1.2,2.36-.16-.02-.32-.04-.48-.05-.51-.76-1.32-1.44-2.61-1.95.11.75.66,1.27,1.36,1.82-.21-.02-.42-.04-.63-.05-.52-.6-1.33-1.09-2.6-1.19.09.39.42.78,1.16,1.26-.69-.04-1.56.06-2.46.33.58.41,1.54.63,2.54.55-.55.38-1.12.86-1.24,1.39,1.27-.1,1.99-.63,2.38-1.25.21.02.43.03.64.05-.82.48-1.41,1.04-1.6,1.69.79-.09,1.71-.62,2.7-1.59.18.02.37.04.55.06-.85.56-1.49,1.2-1.82,1.91.77-.14,1.76-.73,2.91-1.79.13.02.27.03.4.05-.73.55-1.28,1.17-1.75,2.02.76-.14,1.73-.79,2.79-1.87.18.03.37.06.55.08-1.09.75-1.75,1.36-2.09,1.98.9-.14,1.86-.65,3.1-1.81.15.03.3.06.46.08-1.08.78-1.69,1.47-2,2.06,1.09-.33,2.03-.9,3.01-1.86.13.03.27.06.4.09-1.11.84-1.78,1.62-2.03,2.25,1.09-.35,2.09-.98,2.97-2.02.17.04.34.09.51.13-1.22.87-1.79,1.49-2.08,2.14,1.13-.35,2-.82,2.95-1.9.13.04.27.08.4.12-1.12.84-1.64,1.45-1.89,2.08,1.08-.34,1.91-.79,2.77-1.8.15.05.3.1.44.15-.75.47-1.4,1-1.74,1.76,1.17-.19,1.93-.78,2.56-1.46.13.05.26.1.39.15-.63.47-1.28.94-1.66,1.62,1.07-.17,1.76-.72,2.35-1.33.22.1.43.19.65.3-.22,0-.45.02-.69.07.15.17.31.31.48.43l.19.6c-.46-.12-.96-.16-1.5-.07.11.14.24.26.37.37-.25.03-.5.07-.74.1-.48-.18-1.01-.28-1.6-.23.12.17.25.32.39.45-.11.02-.22.05-.33.07-.53-.52-1.55-.89-2.97-.97.41.59.95.9,1.7,1.28-.21.06-.41.12-.61.18-.67-.65-1.5-1.06-2.67-1.06.43.71,1.02,1.04,1.76,1.36-.18.06-.36.12-.53.19-.74-.66-1.64-1.05-2.85-.97.51.72,1.19,1.01,2.02,1.29-.17.07-.33.14-.5.21-.85-.58-1.83-.98-3.11-.76.61.66,1.35.94,2.24,1.15-.19.09-.38.18-.56.27l.02-.02c-.9-.54-1.95-.81-3.23-.49.66.63,1.46.8,2.38.93-.22.11-.43.23-.65.35-.85-.51-1.77-.7-2.97-.39.62.61,1.3.74,2.15.85-.14.08-.29.17-.43.25-.9-.35-1.88-.43-3.02.01.62.46,1.27.57,2.01.6-.14.09-.28.17-.41.26-.87-.2-1.79-.14-2.79.37.68.41,1.37.44,2.14.39-.65.44-1.37,1.16-1.9,1.96.81-.07,2.07-.76,2.87-1.68-.58,1.07-1.03,1.98-.95,3.11,1.1-1.01,1.61-2.13,1.8-3.31.15-.1.3-.21.45-.31-.51,1.31-.46,2.08-.28,2.77.71-1.19,1.01-1.91,1.13-3.33.16-.1.32-.2.47-.3-.36,1.2-.34,1.94-.24,2.63.56-.93.89-1.63,1.05-3.11.13-.07.25-.14.38-.21-.41,1.53-.36,2.16-.3,2.71.62-.93.98-1.63,1.2-3.19.14-.07.29-.14.43-.21-.51,1.52-.5,2.15-.48,2.71.68-.89,1.09-1.57,1.41-3.13.18-.08.36-.15.53-.22-.65,1.45-.71,2.07-.75,2.62.76-.85,1.24-1.51,1.72-2.98.2-.07.4-.13.59-.2-1.02,1.51-1.07,2.16-1.21,2.74,1.04-.83,1.42-1.44,2.35-3.07.21-.06.43-.11.64-.16-1.14,1.26-1.2,1.64-1.53,2.29,1.19-.75,1.67-1,2.77-2.55.12-.02.23-.04.35-.06-.34.46-.45.76-.67,1.16.84-.49,1.33-.75,1.94-1.36.3-.04.6-.08.91-.12l.13.41c-.5.12-1.02.32-1.57.63.45.06.99.08,1.48.09-.1.08-.19.15-.29.23-1.01.03-2.05.15-3.26.84.67.08,1.54.1,2.15.09-.12.1-.23.2-.34.3-1.46-.09-2.71.1-3.41.56,1.21.16,1.86.12,2.68.13-.1.1-.21.2-.31.3-1.57-.12-2.85-.03-3.62.47,1.23.38,1.92.35,2.86.3-.12.13-.24.26-.36.39-1.58-.18-2.86-.14-3.63.33,1.28.44,1.98.42,2.97.4-.15.18-.3.35-.45.53-1.25-.28-2.38-.25-3.55.13,1.02.52,1.97.51,3.03.52-.14.17-.27.35-.4.53-1.72-.28-2.78-.11-3.61.23,1.17.56,2.1.53,3.06.54-.12.18-.24.35-.36.53-1.77-.36-2.57-.37-3.42-.03.81.69,1.69.74,2.98.72-.11.17-.21.35-.32.52-1.78-.28-2.5-.22-3.41.14.87.76,1.62.72,2.95.67-.1.18-.2.36-.29.54-1.4-.25-2.56-.17-3.27.22,1.09.71,2.26.6,2.9.51-.07.14-.14.29-.21.43-.87.38-1.62,1.03-2.16,2.17.9-.07,1.93-.86,2.74-1.59-.11,1.07-.14,2.32.31,3.07.56-.88.57-2.27.45-3.71.06-.13.12-.26.18-.39.05.96.21,1.98.69,2.6.45-.95.27-2.39-.06-3.86.06-.11.12-.22.18-.33.27,1.65.62,2.24.95,2.76.3-1.18.17-2.27-.36-3.77.1-.17.21-.33.31-.5.22,1.78.58,2.38.9,2.91.32-1.16.2-2.25-.3-3.8.13-.18.26-.37.39-.54.14,1.98.48,2.61.8,3.16.39-1.2.29-2.32-.18-3.96.15-.19.3-.37.46-.55.08,1.83.34,2.71.62,3.24.28-1.05.32-2.29.16-4.14.12-.13.24-.26.36-.39-.14,1.93.03,2.86.26,3.42.4-1.06.57-2.33.61-4.29.15-.15.43-.29.58-.43l-.43,16.18h.68l.02-.82c.36-.24.79-.54,1.11-.69.21.1,1.67,1.06,1.77,1.04.08-.08-.1-.33-.39-.65.38-.25.85-.58,1.19-.74.44.21,1.11.7,1.49.92l.11,4.46h.68c-.17-6.42-.33-12.76-.49-19.16.11.08.22.14.35.2.02-.42-.09-.84-.26-1.27.21.2.42.4.63.61-.18.86-.3,1.77.32,2.38.33-.45.41-.99.42-1.61.13.14.25.28.38.43-.21.99-.32,2.02.21,2.78.34-.51.46-1.15.52-1.89.14.18.28.36.42.55-.3.99-.51,2.04-.04,2.86.4-.51.57-1.16.69-1.94.13.19.25.38.37.57-.36,1.06-.68,2.2-.2,3.09.45-.55.64-1.27.79-2.13.11.2.23.4.34.6-.41,1.06-.78,2.29-.26,3.3.47-.54.74-1.21.87-2.13.09.19.19.38.28.58l-.06.06c-.26,1.34-.53,2.54-.26,3.48.4-.51.66-1.39.76-2.58.06.14.12.29.18.43-.04,1.12.17,1.88.66,2.38.42-.58.39-1.28.13-2.23.77.63,1.41.95,2.12.8-.26-.65-.86-1.14-1.89-1.55-.05-.11-.1-.22-.15-.33l.07.09c1.4.56,2.4.84,3.23.49-.66-.65-1.78-1-3.56-1.11-.09-.19-.19-.38-.28-.57,1.38.38,2.62.75,3.6.52-.7-.64-2.03-1.04-3.91-1.15-.08-.15-.16-.31-.24-.46h0c1.42.38,2.54.52,3.59.19-.72-.6-2.07-.93-4.01-.94-.11-.2-.23-.4-.35-.6,1.35.32,2.47.45,3.48.11-.72-.58-2.09-.91-3.97-.91-.13-.2-.26-.4-.4-.59,1.2.23,2.17.29,3.06-.13-.65-.54-1.87-.77-3.6-.61-.14-.19-.28-.37-.43-.55,1.06.06,1.79.14,2.61-.12-.63-.53-1.62-.78-3.22-.6-.15-.17-.3-.34-.46-.51.54,0,1.02-.05,1.52-.23-.52-.4-1.25-.62-2.32-.58-.18-.17-.36-.35-.55-.52.35,0,.68-.05,1.03-.15-.45-.39-1.08-.64-2-.7-.26-.22-.53-.44-.82-.67l.02-.06c.45.19.87.32,1.36.35-.22-.41-.57-.78-1.12-1.1l.08-.24c.19.09.39.17.6.23-.05-.16-.12-.33-.21-.49.13.02.25.03.38.05.21.76.53,1.42,1.03,1.86.04-.54,0-1.11-.1-1.71.1.02.19.04.29.06.19,1.19.53,2.3,1.27,2.96.06-.85-.07-1.76-.32-2.74.17.04.34.09.51.14.19,1.32.51,2.59,1.32,3.31.06-.92-.09-1.93-.39-3.02.21.07.41.15.62.23.06,1.29.27,2.54.99,3.31.15-.89.1-1.86-.08-2.94.18.08.36.16.53.24.07,1.51.29,2.95.98,3.85.14-1.02.1-2.15-.05-3.38.16.09.32.17.47.26.06,1.6.27,3.14.99,4.09.15-1.06.1-2.24-.07-3.52.12.08.24.16.36.24.06,1.58.27,3.11.99,4.05.14-1.02.1-2.14-.05-3.36.15.12.3.24.45.37-.05,1.49.06,2.9.68,3.79.2-.91.26-1.9.22-2.97.12.11.23.23.34.34-.1,1.26-.04,2.47.55,3.23.2-.68.3-1.42.32-2.21.48.88,1.26,1.96,2.09,2.32-.12-1.21-.72-2.05-1.45-2.63l.19-.22c.8.3,1.54.44,2.25.39-.71-.89-1.52-1.19-2.89-1.42-.11-.15-.23-.29-.36-.44,1.18.2,2.26.3,3.19.02-1.42-.65-2.76-.83-3.93-.78-.13-.12-.27-.25-.41-.37,1.15.05,2.2.01,3.13-.35-1.44-.47-2.81-.52-4.01-.36-.17-.12-.34-.25-.52-.37,1.16-.08,2.19-.21,3.14-.71-1.49-.3-2.84-.2-4.05.13-.19-.11-.38-.22-.58-.33,1.13-.14,2.17-.35,3.08-.86-1.49-.24-2.89-.05-4.12.33-.19-.09-.38-.17-.57-.26,1.2-.16,2.3-.43,3.26-.97-1.6-.26-3.09.07-4.38.52-.15-.06-.3-.11-.45-.16,1.05-.26,2.08-.61,2.84-1.23-1.37-.11-2.8.33-3.88.89-.2-.06-.41-.12-.62-.18.8-.24,1.74-.59,2.52-1.34-1.44-.07-2.7.44-3.63,1.07-.27-.06-.55-.12-.82-.17.97-.27,1.83-.62,2.54-1.26-1.14-.13-2.23.15-3.2.62l-.52-.23c0,.06.01.12.02.18l-.47-.34c.67.04,1.4-.09,2.11-.51-.67-.3-1.41-.23-2.19-.09.43-.25.87-.48,1.34-.7.47.44,1.13.52,1.93.52-.22-.36-.64-.69-1.02-.92.15-.06.31-.12.47-.18.46.52,1.1.75,1.99,1.01-.17-.57-.57-1-1.04-1.34.13-.04.26-.08.39-.12.48.61,1.17,1.01,1.86,1.38,0-.6-.25-1.14-.8-1.65.15-.03.3-.06.45-.09.49.86,1.12,1.51,1.88,2.07-.08-.8-.38-1.53-.98-2.21.21-.03.43-.05.64-.07.39,1.08.95,1.88,1.67,2.56.03-.95-.19-1.81-.73-2.6.25,0,.49,0,.74.01.15,1.19.46,2.08,1.08,2.85.13-.92.12-1.83-.23-2.78.14.02.27.04.41.06.04,1.3.28,2.25.88,3.07.21-.96.26-1.91-.06-2.91.15.04.3.08.46.12.01,1.21.22,2.11.76,2.89.22-.86.31-1.71.12-2.59.11.04.23.09.34.14.13,1.09.41,1.93.97,2.65.13-.75.16-1.5,0-2.26.77,1.09,1.55,2.06,2.62,2.65-.42-1.3-1.18-2.37-2.04-3.21.73,0,1.41-.08,2.03-.45-1.08-.59-2.09-.53-3.05-.37-.17-.09-.35-.18-.54-.26.96-.35,1.82-.68,2.43-1.38-1.34-.05-2.34.51-3.27,1.07-.17-.05-.34-.1-.52-.14h0Zm-11.66,15.81c-.45.52-1.1,1.37-1.02,1.45.16,0,.73-.42,1.25-.75l.13-.04.08,3.14c-.32-.44-1.14-1.2-1.54-1.7-.07-.08-.14-.11-.21,0-.08.1-.18.21-.28.32-.39-.43-.95-.98-1.27-1.37-.07-.08-.14-.11-.21,0-.34.42-.97,1.02-1.35,1.46l.07-2.55c.38-.25.89-.61,1.25-.78.32.15.76.45,1.13.69-.34.37-.58.67-.48.76.15,0,1.46-.9,1.77-1.04.2.1.45.25.7.41h0Zm-1.42,9.24c.08-.11.14-.08.21,0,.55.67,1.85,1.83,1.66,2.02-.16.02-1.18-.76-1.77-1.04-.59.28-1.55,1.05-1.77,1.04-.2-.18,1.11-1.35,1.66-2.02h0Zm-3.16-.94l.05-1.98c.39-.25.93-.63,1.31-.82.31.15,1.65,1.06,1.77,1.04.1-.09-.17-.42-.54-.81.35-.23.75-.51,1.06-.65.42.2,1.05.65,1.44.89l.06,2.4c-.38-.45-1.03-1.07-1.38-1.49-.07-.08-.14-.11-.21,0-.34.41-.95,1-1.34,1.44-.35-.37-.76-.78-1.02-1.09-.07-.08-.14-.11-.21,0-.25.3-.64.7-.99,1.06h0Zm2.3-2.86c-.3-.32-.63-.65-.84-.9-.07-.08-.14-.11-.21,0-.3.36-.8.86-1.19,1.27l.07-2.86c.39-.23,1.03-.71,1.47-.92.31.15.74.44,1.11.68-.58.61-1.25,1.28-1.11,1.41.21,0,1.18-.76,1.77-1.04.51.24,1.34.87,1.66,1.01l.04,1.45c-.39-.44-.99-1.02-1.32-1.43-.07-.08-.14-.11-.21,0-.31.38-.85.9-1.23,1.33h0Zm.56-5.84c-.39-.43-.96-.99-1.29-1.39-.07-.08-.14-.11-.21,0-.28.34-.76.81-1.13,1.22l.07-2.53c.34-.23.73-.49,1.03-.63.37.18.9.55,1.29.79-.43.45-.77.85-.66.95.21,0,1.18-.76,1.77-1.04.33.16.79.47,1.16.71l.05,1.95c-.33-.35-.7-.72-.93-1.01-.07-.08-.14-.11-.21,0-.23.28-.58.64-.91.98h0Zm-2.55-3.33l.08-2.9c.12-.01.28-.08.42-.19.06-.05.11-.09.15-.14.06.07.17.08.31.04-.06.03-.12.07-.17.11-.24.2-.36.45-.27.58.1.12.38.06.62-.13.24-.2.36-.45.27-.58-.06-.07-.17-.08-.31-.04.06-.03.12-.07.17-.11.1-.08.17-.16.22-.25,0,.05,0,.1.03.13.1.12.38.06.62-.13.12-.1.22-.21.26-.32.13,0,.29-.07.44-.2.06-.05.12-.1.16-.16.1.12.38.06.62-.13.03-.03.07-.06.1-.09l.03.03c.02.05.04.1.05.16-.03.02-.05.04-.08.06-.1.08-.17.16-.22.25,0-.05,0-.1-.03-.13-.1-.12-.38-.06-.62.13-.15.12-.25.26-.29.39-.13-.04-.34.03-.53.19-.18.15-.3.33-.3.46-.11.02-.24.09-.36.18-.24.2-.36.45-.27.58.1.12.38.06.62-.13.18-.15.3-.33.3-.46.11-.02.24-.09.36-.18.15-.12.25-.26.29-.39.06.02.14.01.22-.02-.06.03-.12.07-.17.11-.24.2-.36.45-.27.58.1.12.38.06.62-.13.24-.2.36-.45.27-.58-.06-.07-.17-.08-.31-.04.06-.03.12-.07.17-.11.1-.08.17-.16.22-.25,0,.05,0,.1.03.13.09.11.33.07.55-.08.12.3.26.58.42.84l.1,3.78c-.36-.38-.78-.8-1.04-1.11-.07-.08-.14-.11-.21,0-.19.24-.48.53-.76.83-.38-.45-1.05-1.09-1.41-1.53-.07-.08-.14-.11-.21,0-.23.28-.58.64-.9.98h0Z"/>
  <path class="cls-4" d="m55.39,65.94c1.05-.71,1.97-1.45,2.59-2.44-1.46.45-2.65,1.3-3.59,2.25-.18-.03-.37-.05-.56-.06,1.04-.84,1.95-1.69,2.47-2.81-1.5.61-2.64,1.65-3.46,2.76-.18,0-.35,0-.53,0,.88-.97,1.63-1.91,1.98-3.08-1.37.79-2.31,1.94-2.96,3.13-.18.02-.35.03-.53.05.8-1.03,1.49-2.03,1.75-3.22-1.3.89-2.18,2.12-2.74,3.36-.19.03-.38.07-.58.11.73-1.06,1.35-2.09,1.53-3.27-1.25.97-2.05,2.25-2.53,3.51-.21.06-.41.12-.62.18.65-1.08,1.18-2.13,1.26-3.28-1.18,1.04-1.87,2.34-2.24,3.61-.18.07-.36.14-.54.21.61-1.07,1.12-2.15,1.16-3.26-1.16,1.06-1.84,2.43-2.17,3.7-.13.06-.26.13-.39.19.1-.28.16-.57.15-.88-.56.41-.93.92-1.17,1.44-.19.11-.38.23-.57.35.04-.26.08-.53.14-.81,1.01-.75,1.97-1.74,2.53-3.04-.87.38-1.59,1-2.26,1.72.06-.27.13-.54.2-.82.97-.47,2.11-1.41,2.64-2.55-.89.2-1.56.79-2.35,1.41.06-.23.13-.47.2-.71.99-.48,2.12-1.38,2.69-2.51-.85.15-1.54.66-2.3,1.23.07-.23.15-.46.23-.69.98-.47,2.07-1.33,2.65-2.4-.8.13-1.47.57-2.19,1.08.09-.23.17-.47.26-.71.98-.51,1.92-1.21,2.63-2.21-.76.15-1.45.48-2.11.91.1-.24.2-.48.3-.72.89-.51,1.76-1.2,2.35-2.18-.81.12-1.49.49-2.13.97l-.04-.04c.6-.84,1.43-2.14,1.45-3.66-1,.73-1.63,2.11-1.91,3.19l-.08-.08s-.05.09-.07.14c-.07-.83-.22-1.61-.58-2.34-.3,1.27-.24,2.54-.06,3.7-.1.23-.2.47-.29.71-.21-.86-.51-1.65-1.01-2.34-.16,1.29.11,2.53.53,3.62-.08.21-.15.43-.23.65-.29-.93-.56-1.76-1.13-2.4-.14,1.26.22,2.66.71,3.68-.07.21-.13.42-.2.64-.19-.53-.49-1.27-1.18-1.9,0,1.41.38,2.38.83,3.08-.07.25-.14.5-.21.76-.26-.74-.53-1.4-1.06-1.93-.14,1.11.22,2.34.7,3.24-.05.18-.09.36-.14.54-.17-.45-.39-.8-.75-1.27-.12,1.1.18,1.75.48,2.36-.1.4-.2.8-.29,1.21-.16-.51-.33-1.01-.5-1.52.09-.54.08-1.04-.03-1.51-.1.13-.21.3-.32.5-.04-.12-.08-.24-.13-.35.47-.79.76-1.57.81-2.34-.35.24-.8.64-1.21,1.24-.04-.11-.08-.22-.12-.33.66-.81,1.07-1.65,1.17-2.52-.45.22-1.05.66-1.58,1.44-.06-.14-.11-.29-.17-.43,1.02-.86,1.39-1.55,1.51-2.63-1.11.89-1.52,1.36-1.85,1.79-.07-.16-.13-.33-.2-.49,1.09-.96,1.68-1.79,1.8-2.9-.7.57-1.5,1.32-2.1,2.18-.08-.18-.15-.36-.23-.54,1.08-.93,1.87-1.98,2.24-3.03-.66.37-1.65,1.12-2.58,2.23-.06-.14-.12-.28-.18-.42,1.16-1.05,2.02-2.11,2.41-3.16-.69.36-1.74,1.12-2.71,2.49-.08-.18-.16-.36-.24-.54,1.19-.97,2.06-1.96,2.46-3-.7.3-1.78,1-2.77,2.33-.09-.19-.17-.37-.25-.55,1.13-.87,1.97-1.8,2.34-2.84-.65.24-1.66.85-2.57,2.17l.13.45c-.09-.2-.18-.39-.27-.57l.02-.53c1.02-.76,1.77-1.59,2.11-2.54-.64.19-1.63.97-2.53,2.22l-.03-.02-.08-.16.05-.18h-.01c.77-.94,1.27-1.89,1.36-2.88-.52.28-1.19,1.1-1.73,2.29.21-1.95.06-2.76-.32-3.31-.47.7-.52,1.91-.28,2.96-.68-.55-1.31-.87-1.74-.93.31.65.82,1.21,1.48,1.7h0c-.59-.14-1.17-.21-1.68-.25.47.64,1.24,1.06,2.19,1.37l.17.37c-.97-.45-1.84-.59-2.44-.57.66.77,1.69,1.27,2.93,1.66.06.14.13.29.19.43-1.13-.48-2.18-.74-2.86-.76.71.78,1.86,1.31,3.24,1.62.07.16.14.32.21.48-1.31-.48-2.5-.72-3.23-.71.84.75,2.1,1.23,3.56,1.46.06.14.12.29.18.43-1.3-.45-2.49-.59-3.22-.58.86.75,2.13,1.28,3.62,1.52.07.17.14.34.21.5-1.26-.44-2.42-.56-3.13-.54.83.75,2.07,1.26,3.51,1.47l.14.34c-1.15-.34-2.2-.39-2.84-.34.75.63,1.87,1.04,3.17,1.16.07.17.14.35.21.52-1.05-.4-2.01-.5-2.6-.47.69.68,1.72,1.13,2.92,1.29.06.16.12.31.18.47-.69-.29-1.29-.39-1.72-.4.5.68,1.26,1.22,2.21,1.65l.17.44c-.61-.37-1.16-.52-1.54-.57.39.66,1.07,1.2,1.93,1.65l.04.04c.12.31.24.62.36.94-.51-.56-1.03-.88-1.41-1.04.16.56.49,1.1.95,1.62l-.15.11-.07.05c-.22-.12-.44-.24-.67-.35-.19-1.04-.73-2.14-1.85-2.98-.05.89.35,1.69.86,2.51-.18-.08-.36-.16-.54-.23-.28-1.13-.89-2.31-2.02-3.22,0,1,.47,1.91,1.04,2.84-.22-.08-.45-.16-.68-.24-.21-1.1-.72-2.25-1.73-3.2-.07,1,.31,1.93.8,2.9-.18-.06-.36-.11-.55-.16-.2-1.13-.71-2.31-1.74-3.28-.07,1.05.35,2.02.88,3.04-.16-.04-.32-.08-.48-.12-.2-1.13-.67-2.27-1.74-3.26-.06,1.08.35,2.02.91,3.07-.18-.04-.37-.08-.55-.12-.22-1.13-.73-2.27-1.8-3.2-.05,1.08.39,2.02.96,3.03-.23-.04-.46-.09-.69-.13-.12-1.04-.51-2.1-1.57-3.02-.13,1.01.28,1.89.84,2.9-.44-.07-.89-.14-1.34-.2l.68.07c-.23-1.05-.8-1.96-1.98-2.78-.02,1.03.58,1.75,1.25,2.71-.22-.03-.43-.06-.65-.09-.36-.88-.94-1.74-2.19-2.48-.02.87.49,1.58,1.2,2.36-.16-.02-.32-.04-.48-.05-.51-.76-1.32-1.44-2.61-1.95.11.75.66,1.27,1.36,1.82-.21-.02-.42-.04-.63-.05-.52-.6-1.33-1.09-2.6-1.19.09.39.42.78,1.16,1.26-.69-.04-1.56.06-2.46.33.58.41,1.54.63,2.54.55-.55.38-1.12.86-1.24,1.39,1.27-.1,1.99-.63,2.38-1.25.21.02.43.03.64.05-.82.48-1.41,1.04-1.6,1.69.79-.09,1.71-.62,2.7-1.59.18.02.37.04.55.06-.85.56-1.49,1.2-1.82,1.91.77-.14,1.76-.73,2.91-1.79.13.02.27.03.4.05-.73.55-1.28,1.17-1.75,2.02.76-.14,1.73-.79,2.79-1.87.18.03.37.06.55.08-1.09.75-1.75,1.36-2.09,1.98.9-.14,1.86-.65,3.1-1.81.15.03.3.06.46.08-1.08.78-1.69,1.47-2,2.06,1.09-.33,2.03-.9,3.01-1.86.13.03.27.06.4.09-1.11.84-1.78,1.62-2.03,2.25,1.09-.35,2.09-.98,2.97-2.02.17.04.34.09.51.13-1.22.87-1.79,1.49-2.08,2.14,1.13-.35,2-.82,2.95-1.9.13.04.27.08.4.12-1.12.84-1.64,1.45-1.89,2.08,1.08-.34,1.91-.79,2.77-1.8.15.05.3.1.44.15-.75.47-1.4,1-1.74,1.76,1.17-.19,1.93-.78,2.56-1.46.13.05.26.1.39.15-.63.47-1.28.94-1.66,1.62,1.07-.17,1.76-.72,2.35-1.33.22.1.43.19.65.3-.22,0-.45.02-.69.07.15.17.31.31.48.43l.19.6c-.46-.12-.96-.16-1.5-.07.11.14.24.26.37.37-.25.03-.5.07-.74.1-.48-.18-1.01-.28-1.6-.23.12.17.25.32.39.45-.11.02-.22.05-.33.07-.53-.52-1.55-.89-2.97-.97.41.59.95.9,1.7,1.28-.21.06-.41.12-.61.18-.67-.65-1.5-1.06-2.67-1.06.43.71,1.02,1.04,1.76,1.36-.18.06-.36.12-.53.19-.74-.66-1.64-1.05-2.85-.97.51.72,1.19,1.01,2.02,1.29-.17.07-.33.14-.5.21-.85-.58-1.83-.98-3.11-.76.61.66,1.35.94,2.24,1.15-.19.09-.38.18-.56.27l.02-.02c-.9-.54-1.95-.81-3.23-.49.66.63,1.46.8,2.38.93-.22.11-.43.23-.65.35-.85-.51-1.77-.7-2.97-.39.62.61,1.3.74,2.15.85-.14.08-.29.17-.43.25-.9-.35-1.88-.43-3.02.01.62.46,1.27.57,2.01.6-.14.09-.28.17-.41.26-.87-.2-1.79-.14-2.79.37.68.41,1.37.44,2.14.39-.65.44-1.37,1.16-1.9,1.96.81-.07,2.07-.76,2.87-1.68-.58,1.07-1.03,1.98-.95,3.11,1.1-1.01,1.61-2.13,1.8-3.31.15-.1.3-.21.45-.31-.51,1.31-.46,2.08-.28,2.77.71-1.19,1.01-1.91,1.13-3.33.16-.1.32-.2.47-.3-.36,1.2-.34,1.94-.24,2.63.56-.93.89-1.63,1.05-3.11.13-.07.25-.14.38-.21-.41,1.53-.36,2.16-.3,2.71.62-.93.98-1.63,1.2-3.19.14-.07.29-.14.43-.21-.51,1.52-.5,2.15-.48,2.71.68-.89,1.09-1.57,1.41-3.13.18-.08.36-.15.53-.22-.65,1.45-.71,2.07-.75,2.62.76-.85,1.24-1.51,1.72-2.98.2-.07.4-.13.59-.2-1.02,1.51-1.07,2.16-1.21,2.74,1.04-.83,1.42-1.44,2.35-3.07.21-.06.43-.11.64-.16-1.14,1.26-1.2,1.64-1.53,2.29,1.19-.75,1.67-1,2.77-2.55.12-.02.23-.04.35-.06-.34.46-.45.76-.67,1.16.84-.49,1.33-.75,1.94-1.36.3-.04.6-.08.91-.12l.13.41c-.5.12-1.02.32-1.57.63.45.06.99.08,1.48.09-.1.08-.19.15-.29.23-1.01.03-2.05.15-3.26.84.67.08,1.54.1,2.15.09-.12.1-.23.2-.34.3-1.46-.09-2.71.1-3.41.56,1.21.16,1.86.12,2.68.13-.1.1-.21.2-.31.3-1.57-.12-2.85-.03-3.62.47,1.23.38,1.92.35,2.86.3-.12.13-.24.26-.36.39-1.58-.18-2.86-.14-3.63.33,1.28.44,1.98.42,2.97.4-.15.18-.3.35-.45.53-1.25-.28-2.38-.25-3.55.13,1.02.52,1.97.51,3.03.52-.14.17-.27.35-.4.53-1.72-.28-2.78-.11-3.61.23,1.17.56,2.1.53,3.06.54-.12.18-.24.35-.36.53-1.77-.36-2.57-.37-3.42-.03.81.69,1.69.74,2.98.72-.11.17-.21.35-.32.52-1.78-.28-2.5-.22-3.41.14.87.76,1.62.72,2.95.67-.1.18-.2.36-.29.54-1.4-.25-2.56-.17-3.27.22,1.09.71,2.26.6,2.9.51-.07.14-.14.29-.21.43-.87.38-1.62,1.03-2.16,2.17.9-.07,1.93-.86,2.74-1.59-.11,1.07-.14,2.32.31,3.07.56-.88.57-2.27.45-3.71.06-.13.12-.26.18-.39.05.96.21,1.98.69,2.6.45-.95.27-2.39-.06-3.86.06-.11.12-.22.18-.33.27,1.65.62,2.24.95,2.76.3-1.18.17-2.27-.36-3.77.1-.17.21-.33.31-.5.22,1.78.58,2.38.9,2.91.32-1.16.2-2.25-.3-3.8.13-.18.26-.37.39-.54.14,1.98.48,2.61.8,3.16.39-1.2.29-2.32-.18-3.96.15-.19.3-.37.46-.55.08,1.83.34,2.71.62,3.24.28-1.05.32-2.29.16-4.14.12-.13.24-.26.36-.39-.14,1.93.03,2.86.26,3.42.4-1.06.57-2.33.61-4.29.15-.15.43-.29.58-.43l-.43,16.18h.68l.02-.82c.36-.24.79-.54,1.11-.69.21.1,1.67,1.06,1.77,1.04.08-.08-.1-.33-.39-.65.38-.25.85-.58,1.19-.74.44.21,1.11.7,1.49.92l.11,4.46h.68c-.17-6.42-.33-12.76-.49-19.16.11.08.22.14.35.2.02-.42-.09-.84-.26-1.27.21.2.42.4.63.61-.18.86-.3,1.77.32,2.38.33-.45.41-.99.42-1.61.13.14.25.28.38.43-.21.99-.32,2.02.21,2.78.34-.51.46-1.15.52-1.89.14.18.28.36.42.55-.3.99-.51,2.04-.04,2.86.4-.51.57-1.16.69-1.94.13.19.25.38.37.57-.36,1.06-.68,2.2-.2,3.09.45-.55.64-1.27.79-2.13.11.2.23.4.34.6-.41,1.06-.78,2.29-.26,3.3.47-.54.74-1.21.87-2.13.09.19.19.38.28.58l-.06.06c-.26,1.34-.53,2.54-.26,3.48.4-.51.66-1.39.76-2.58.06.14.12.29.18.43-.04,1.12.17,1.88.66,2.38.42-.58.39-1.28.13-2.23.77.63,1.41.95,2.12.8-.26-.65-.86-1.14-1.89-1.55-.05-.11-.1-.22-.15-.33l.07.09c1.4.56,2.4.84,3.23.49-.66-.65-1.78-1-3.56-1.11-.09-.19-.19-.38-.28-.57,1.38.38,2.62.75,3.6.52-.7-.64-2.03-1.04-3.91-1.15-.08-.15-.16-.31-.24-.46h0c1.42.38,2.54.52,3.59.19-.72-.6-2.07-.93-4.01-.94-.11-.2-.23-.4-.35-.6,1.35.32,2.47.45,3.48.11-.72-.58-2.09-.91-3.97-.91-.13-.2-.26-.4-.4-.59,1.2.23,2.17.29,3.06-.13-.65-.54-1.87-.77-3.6-.61-.14-.19-.28-.37-.43-.55,1.06.06,1.79.14,2.61-.12-.63-.53-1.62-.78-3.22-.6-.15-.17-.3-.34-.46-.51.54,0,1.02-.05,1.52-.23-.52-.4-1.25-.62-2.32-.58-.18-.17-.36-.35-.55-.52.35,0,.68-.05,1.03-.15-.45-.39-1.08-.64-2-.7-.26-.22-.53-.44-.82-.67l.02-.06c.45.19.87.32,1.36.35-.22-.41-.57-.78-1.12-1.1l.08-.24c.19.09.39.17.6.23-.05-.16-.12-.33-.21-.49.13.02.25.03.38.05.21.76.53,1.42,1.03,1.86.04-.54,0-1.11-.1-1.71.1.02.19.04.29.06.19,1.19.53,2.3,1.27,2.96.06-.85-.07-1.76-.32-2.74.17.04.34.09.51.14.19,1.32.51,2.59,1.32,3.31.06-.92-.09-1.93-.39-3.02.21.07.41.15.62.23.06,1.29.27,2.54.99,3.31.15-.89.1-1.86-.08-2.94.18.08.36.16.53.24.07,1.51.29,2.95.98,3.85.14-1.02.1-2.15-.05-3.38.16.09.32.17.47.26.06,1.6.27,3.14.99,4.09.15-1.06.1-2.24-.07-3.52.12.08.24.16.36.24.06,1.58.27,3.11.99,4.05.14-1.02.1-2.14-.05-3.36.15.12.3.24.45.37-.05,1.49.06,2.9.68,3.79.2-.91.26-1.9.22-2.97.12.11.23.23.34.34-.1,1.26-.04,2.47.55,3.23.2-.68.3-1.42.32-2.21.48.88,1.26,1.96,2.09,2.32-.12-1.21-.72-2.05-1.45-2.63l.19-.22c.8.3,1.54.44,2.25.39-.71-.89-1.52-1.19-2.89-1.42-.11-.15-.23-.29-.36-.44,1.18.2,2.26.3,3.19.02-1.42-.65-2.76-.83-3.93-.78-.13-.12-.27-.25-.41-.37,1.15.05,2.2.01,3.13-.35-1.44-.47-2.81-.52-4.01-.36-.17-.12-.34-.25-.52-.37,1.16-.08,2.19-.21,3.14-.71-1.49-.3-2.84-.2-4.05.13-.19-.11-.38-.22-.58-.33,1.13-.14,2.17-.35,3.08-.86-1.49-.24-2.89-.05-4.12.33-.19-.09-.38-.17-.57-.26,1.2-.16,2.3-.43,3.26-.97-1.6-.26-3.09.07-4.38.52-.15-.06-.3-.11-.45-.16,1.05-.26,2.08-.61,2.84-1.23-1.37-.11-2.8.33-3.88.89-.2-.06-.41-.12-.62-.18.8-.24,1.74-.59,2.52-1.34-1.44-.07-2.7.44-3.63,1.07-.27-.06-.55-.12-.82-.17.97-.27,1.83-.62,2.54-1.26-1.14-.13-2.23.15-3.2.62l-.52-.23c0,.06.01.12.02.18l-.47-.34c.67.04,1.4-.09,2.11-.51-.67-.3-1.41-.23-2.19-.09.43-.25.87-.48,1.34-.7.47.44,1.13.52,1.93.52-.22-.36-.64-.69-1.02-.92.15-.06.31-.12.47-.18.46.52,1.1.75,1.99,1.01-.17-.57-.57-1-1.04-1.34.13-.04.26-.08.39-.12.48.61,1.17,1.01,1.86,1.38,0-.6-.25-1.14-.8-1.65.15-.03.3-.06.45-.09.49.86,1.12,1.51,1.88,2.07-.08-.8-.38-1.53-.98-2.21.21-.03.43-.05.64-.07.39,1.08.95,1.88,1.67,2.56.03-.95-.19-1.81-.73-2.6.25,0,.49,0,.74.01.15,1.19.46,2.08,1.08,2.85.13-.92.12-1.83-.23-2.78.14.02.27.04.41.06.04,1.3.28,2.25.88,3.07.21-.96.26-1.91-.06-2.91.15.04.3.08.46.12.01,1.21.22,2.11.76,2.89.22-.86.31-1.71.12-2.59.11.04.23.09.34.14.13,1.09.41,1.93.97,2.65.13-.75.16-1.5,0-2.26.77,1.09,1.55,2.06,2.62,2.65-.42-1.3-1.18-2.37-2.04-3.21.73,0,1.41-.08,2.03-.45-1.08-.59-2.09-.53-3.05-.37-.17-.09-.35-.18-.54-.26.96-.35,1.82-.68,2.43-1.38-1.34-.05-2.34.51-3.27,1.07-.17-.05-.34-.1-.52-.14h0Zm-11.66,15.81c-.45.52-1.1,1.37-1.02,1.45.16,0,.73-.42,1.25-.75l.13-.04.08,3.14c-.32-.44-1.14-1.2-1.54-1.7-.07-.08-.14-.11-.21,0-.08.1-.18.21-.28.32-.39-.43-.95-.98-1.27-1.37-.07-.08-.14-.11-.21,0-.34.42-.97,1.02-1.35,1.46l.07-2.55c.38-.25.89-.61,1.25-.78.32.15.76.45,1.13.69-.34.37-.58.67-.48.76.15,0,1.46-.9,1.77-1.04.2.1.45.25.7.41h0Zm-1.42,9.24c.08-.11.14-.08.21,0,.55.67,1.85,1.83,1.66,2.02-.16.02-1.18-.76-1.77-1.04-.59.28-1.55,1.05-1.77,1.04-.2-.18,1.11-1.35,1.66-2.02h0Zm-3.16-.94l.05-1.98c.39-.25.93-.63,1.31-.82.31.15,1.65,1.06,1.77,1.04.1-.09-.17-.42-.54-.81.35-.23.75-.51,1.06-.65.42.2,1.05.65,1.44.89l.06,2.4c-.38-.45-1.03-1.07-1.38-1.49-.07-.08-.14-.11-.21,0-.34.41-.95,1-1.34,1.44-.35-.37-.76-.78-1.02-1.09-.07-.08-.14-.11-.21,0-.25.3-.64.7-.99,1.06h0Zm2.3-2.86c-.3-.32-.63-.65-.84-.9-.07-.08-.14-.11-.21,0-.3.36-.8.86-1.19,1.27l.07-2.86c.39-.23,1.03-.71,1.47-.92.31.15.74.44,1.11.68-.58.61-1.25,1.28-1.11,1.41.21,0,1.18-.76,1.77-1.04.51.24,1.34.87,1.66,1.01l.04,1.45c-.39-.44-.99-1.02-1.32-1.43-.07-.08-.14-.11-.21,0-.31.38-.85.9-1.23,1.33h0Zm.56-5.84c-.39-.43-.96-.99-1.29-1.39-.07-.08-.14-.11-.21,0-.28.34-.76.81-1.13,1.22l.07-2.53c.34-.23.73-.49,1.03-.63.37.18.9.55,1.29.79-.43.45-.77.85-.66.95.21,0,1.18-.76,1.77-1.04.33.16.79.47,1.16.71l.05,1.95c-.33-.35-.7-.72-.93-1.01-.07-.08-.14-.11-.21,0-.23.28-.58.64-.91.98h0Zm-2.55-3.33l.08-2.9c.12-.01.28-.08.42-.19.06-.05.11-.09.15-.14.06.07.17.08.31.04-.06.03-.12.07-.17.11-.24.2-.36.45-.27.58.1.12.38.06.62-.13.24-.2.36-.45.27-.58-.06-.07-.17-.08-.31-.04.06-.03.12-.07.17-.11.1-.08.17-.16.22-.25,0,.05,0,.1.03.13.1.12.38.06.62-.13.12-.1.22-.21.26-.32.13,0,.29-.07.44-.2.06-.05.12-.1.16-.16.1.12.38.06.62-.13.03-.03.07-.06.1-.09l.03.03c.02.05.04.1.05.16-.03.02-.05.04-.08.06-.1.08-.17.16-.22.25,0-.05,0-.1-.03-.13-.1-.12-.38-.06-.62.13-.15.12-.25.26-.29.39-.13-.04-.34.03-.53.19-.18.15-.3.33-.3.46-.11.02-.24.09-.36.18-.24.2-.36.45-.27.58.1.12.38.06.62-.13.18-.15.3-.33.3-.46.11-.02.24-.09.36-.18.15-.12.25-.26.29-.39.06.02.14.01.22-.02-.06.03-.12.07-.17.11-.24.2-.36.45-.27.58.1.12.38.06.62-.13.24-.2.36-.45.27-.58-.06-.07-.17-.08-.31-.04.06-.03.12-.07.17-.11.1-.08.17-.16.22-.25,0,.05,0,.1.03.13.09.11.33.07.55-.08.12.3.26.58.42.84l.1,3.78c-.36-.38-.78-.8-1.04-1.11-.07-.08-.14-.11-.21,0-.19.24-.48.53-.76.83-.38-.45-1.05-1.09-1.41-1.53-.07-.08-.14-.11-.21,0-.23.28-.58.64-.9.98h0Z"/>
  <path class="cls-5" d="m89.61,83.03c-6.86,8.81-17.57,14.48-29.61,14.48-9.64,0-18.43-3.64-25.07-9.61l-9.13,10.71c9.1,8.07,21.08,12.97,34.2,12.97,15.15,0,28.77-6.53,38.21-16.93l-8.6-11.62h0Z"/>
  <path class="cls-6" d="m13.09,64.41l-.02-1.29,2.01-1.44v-.34s-2.04.04-2.04.04l-.02-1.09,5.18-.1.03,1.61c0,.36-.03.67-.11.93-.08.25-.19.46-.33.61-.14.16-.31.27-.5.34-.19.07-.39.11-.6.11-.19,0-.36-.02-.51-.07-.16-.05-.29-.13-.41-.22-.12-.09-.22-.2-.31-.33-.09-.13-.15-.26-.19-.41l-2.16,1.64h0Zm3.53-1.73c.24,0,.42-.08.55-.22.13-.14.19-.34.19-.6v-.58s-1.49.03-1.49.03v.59c.02.25.08.44.22.58.13.14.31.2.53.2h0Zm1.28,4.98l-.27-1.99-1.11.15.26,1.92-.89.12-.26-1.92-1.27.17.28,2.07-.93.13-.42-3.15,5.14-.69.41,3.07-.93.13h0Zm1.83-.77l-.79-1.4.59-.36.91,1.32-.71.44h0Zm-1.79,4.29c.1-.02.2-.06.29-.12.09-.05.16-.12.22-.21.06-.09.09-.19.11-.31.02-.12,0-.26-.03-.41l-.12-.53-1.56.36.12.51c.04.18.1.32.17.42.07.1.15.18.24.23.09.05.18.08.28.08.1,0,.2,0,.3-.03h0Zm1.07-2.84l.37,1.62c.06.27.09.53.08.78-.01.25-.06.47-.16.67-.09.2-.23.37-.41.52-.18.15-.41.25-.69.31-.51.12-.95.05-1.31-.2-.37-.25-.63-.71-.78-1.37l-.12-.52-1.79.41-.24-1.06,5.05-1.17h0Zm-3.48,7.44c-.08-.26-.13-.52-.12-.77,0-.25.06-.49.17-.71.11-.23.28-.43.52-.62.24-.19.55-.34.94-.47l2.98-.97.34,1.03-3.06.99c-.36.12-.62.28-.77.49-.15.21-.19.45-.1.72.05.16.13.29.22.38.1.09.21.15.33.18.12.03.26.04.41.02.15-.02.3-.05.46-.1l3.06-.99.33,1.03-2.97.96c-.38.12-.72.18-1.02.18-.3,0-.56-.06-.78-.17-.22-.11-.41-.27-.56-.47-.15-.2-.28-.44-.36-.72h0Zm6.07.78l.59,1.31c.11.24.19.48.23.7.04.22.05.43.01.62-.03.19-.11.36-.22.5-.11.15-.27.26-.47.35-.13.06-.27.09-.39.1-.13,0-.25-.01-.37-.05-.12-.04-.23-.1-.33-.17-.1-.08-.2-.17-.28-.27h-.01c.06.2.08.38.07.55-.01.17-.05.32-.11.46-.06.14-.15.26-.26.37-.11.11-.24.19-.37.25-.22.1-.43.14-.63.14-.21,0-.4-.06-.58-.15s-.35-.23-.5-.4c-.15-.17-.28-.38-.39-.61l-.7-1.55,4.73-2.13h0Zm-2.29,3.68c.2-.09.33-.23.39-.42.06-.19.04-.42-.08-.67l-.21-.47-1.36.62.23.51c.11.24.25.4.43.48.18.07.38.06.6-.04h0Zm1.89-1.13c.18-.08.28-.2.32-.37.04-.17,0-.36-.09-.58l-.15-.33-1.14.52.16.36c.11.24.24.38.39.44.15.06.32.05.51-.04h0Zm2.22,1.11l.54.95-3.69,2.09,1.03,1.82-.82.46-1.57-2.77,4.51-2.56h0Zm1.82,3.01l.63.89-4.24,2.98-.63-.89,4.24-2.98h0Zm-.53,7.68c-.35-.16-.66-.39-.92-.7-.31-.36-.52-.73-.62-1.1-.1-.37-.12-.73-.07-1.07.06-.34.17-.66.35-.96.18-.3.39-.55.63-.76.28-.24.59-.42.93-.53.34-.11.69-.16,1.04-.14.35.02.7.11,1.03.27.33.16.63.39.89.69.28.32.47.66.58,1.02.11.36.14.71.1,1.05-.04.35-.15.67-.32.98-.17.31-.39.58-.66.82-.3.26-.63.44-.99.55-.36.11-.72.15-1.09.11l-.19,1.08-.9-.17.21-1.15h0Zm.09-3.75c-.19.17-.34.35-.45.56-.11.21-.18.42-.2.63-.03.22,0,.43.05.64.06.21.17.41.32.58.11.13.24.23.39.31l.19-1.05.9.17-.21,1.11c.2,0,.4-.05.6-.12.2-.08.38-.19.56-.34.19-.16.34-.34.45-.55.11-.2.18-.41.21-.62.03-.21.01-.42-.05-.64-.06-.21-.17-.41-.33-.6-.15-.18-.33-.31-.53-.4-.2-.09-.41-.14-.63-.15-.22,0-.44.03-.66.1-.22.08-.43.2-.62.37h0Zm2.91,7.19c-.2-.19-.36-.39-.48-.61-.12-.22-.18-.46-.19-.71-.01-.25.04-.51.16-.79.12-.28.32-.56.6-.86l2.15-2.27.79.75-2.21,2.33c-.26.28-.41.54-.44.81-.03.26.05.49.25.68.13.12.25.19.38.23.13.03.25.03.38,0,.12-.03.25-.09.37-.18.12-.09.24-.19.36-.31l2.21-2.33.78.74-2.14,2.26c-.28.29-.55.51-.81.65-.27.14-.52.21-.77.22-.25,0-.49-.04-.72-.14-.23-.1-.45-.26-.66-.46h0Zm7.55.58l-1.58-1.24-.69.88,1.53,1.2-.55.71-1.53-1.2-.79,1.01,1.65,1.29-.58.74-2.5-1.96,3.2-4.08,2.44,1.91-.58.74h0Zm2.65.59l.94.54-2.57,4.5-.94-.54,2.57-4.5h0Zm3.27,3.34c.08-.18.09-.34.05-.5-.05-.15-.15-.28-.32-.37-.15-.08-.3-.1-.45-.06-.15.04-.26.13-.33.28-.09.17-.09.34,0,.51.09.17.24.36.45.56.39.4.62.79.68,1.15.06.36,0,.72-.17,1.06-.09.17-.21.32-.36.46-.15.14-.33.24-.53.31-.2.07-.42.1-.66.08-.24-.02-.5-.09-.76-.23-.23-.12-.42-.26-.58-.43-.16-.16-.27-.35-.35-.55s-.1-.42-.09-.64c.01-.23.07-.47.17-.71l.95.49c-.09.23-.11.43-.07.62.04.18.17.33.39.44.19.1.37.12.54.06.17-.06.3-.17.38-.33.1-.19.12-.38.05-.57-.07-.18-.23-.4-.47-.65-.38-.39-.6-.76-.66-1.11-.06-.35,0-.68.16-.99.1-.19.23-.35.39-.47.16-.12.33-.2.52-.25.19-.04.39-.05.6-.02.21.03.42.1.62.21.22.11.4.25.55.41.14.16.25.33.32.51.07.18.09.38.08.58-.01.2-.07.41-.17.62l-.91-.47h0Zm2.16-.46l1.01.39-1.53,3.96,1.95.75-.34.88-2.96-1.15,1.87-4.84h0Zm4.82,1.72l.98.28.4,5.51-1.07-.31-.06-1.24-1.84-.53-.72,1.02-1.05-.3,3.37-4.42h0Zm-1.14,3.04l1.34.39-.07-1.31c0-.16-.01-.3-.02-.43,0-.13,0-.26,0-.4h-.04c-.14.23-.3.46-.46.69l-.76,1.06h0Zm8.76,3.7l-1.04-.14.09-2.56c0-.09,0-.18,0-.28,0-.1,0-.2.01-.31,0-.1,0-.2.01-.3,0-.1.01-.18.02-.26h-.05c-.07.15-.14.33-.22.54-.08.2-.16.39-.24.55l-1.08,2.42-.75-.1-.42-2.66c-.03-.17-.06-.35-.08-.55-.03-.2-.05-.4-.06-.59h-.06c-.03.16-.07.34-.11.53-.04.19-.08.37-.12.53l-.61,2.53-.97-.13,1.3-5.06,1.19.16.43,2.53c.03.15.05.32.08.49.03.18.05.34.07.48h.03c.05-.13.12-.28.2-.45.08-.17.14-.32.2-.45l1.06-2.33,1.18.16-.06,5.22h0Zm1.44-5.13l1.08.08-.39,5.17-1.08-.08.39-5.17h0Zm5.6,5.14c-.35.17-.72.26-1.13.26-.48,0-.89-.07-1.24-.23-.35-.16-.64-.37-.87-.63-.23-.26-.4-.56-.51-.88-.12-.32-.18-.65-.18-.97,0-.37.06-.72.19-1.06.13-.33.32-.63.56-.89.24-.26.53-.46.86-.62.33-.16.7-.24,1.1-.24.43,0,.81.06,1.15.21.34.15.63.34.87.6.24.25.43.54.56.87.13.33.2.67.21,1.03,0,.4-.06.77-.21,1.11-.15.35-.35.65-.61.91l.71.84-.7.58-.75-.9h0Zm-2.83-2.46c0,.25.05.49.14.7.09.22.21.4.36.56.15.16.33.28.53.37s.42.13.65.12c.17,0,.33-.04.49-.1l-.69-.82.7-.58.72.87c.12-.16.22-.34.29-.54.07-.2.1-.42.09-.65,0-.25-.05-.48-.13-.7-.08-.22-.2-.4-.34-.56-.14-.16-.32-.28-.52-.37-.2-.09-.43-.13-.68-.13-.23,0-.45.05-.65.15-.2.09-.37.22-.52.39-.15.16-.26.35-.34.57-.08.22-.12.46-.11.71h0Zm7.39,2.19c-.27.05-.53.05-.78.01-.25-.04-.48-.13-.68-.27-.21-.14-.39-.34-.54-.6-.15-.26-.26-.59-.33-1l-.53-3.09,1.07-.18.54,3.17c.06.37.19.65.38.84.19.18.42.25.69.2.17-.03.31-.08.41-.17.1-.08.18-.18.23-.3.05-.12.08-.25.08-.4,0-.15,0-.31-.03-.47l-.54-3.17,1.06-.18.53,3.07c.07.39.08.74.03,1.04-.05.3-.14.55-.28.75-.14.2-.33.37-.55.49-.22.12-.48.21-.76.26h0Zm4.93-5.63l-1.93.56.31,1.07,1.86-.54.25.86-1.86.54.36,1.23,2.01-.58.26.91-3.05.88-1.44-4.98,2.97-.86.26.91h0Zm3.75-2.31c.42-.19.83-.3,1.21-.32.38-.02.73.03,1.04.14.32.12.59.29.84.53.24.24.43.52.58.84.14.32.22.65.24.99.01.34-.04.67-.17.98-.13.32-.32.61-.59.88-.27.27-.61.5-1.02.69l-1.61.73-2.13-4.73,1.62-.73h0Zm1.71,3.87c.28-.13.5-.27.67-.44.17-.17.29-.35.36-.55.07-.19.1-.4.08-.61-.02-.21-.07-.42-.16-.62-.1-.22-.23-.41-.38-.56-.15-.15-.32-.26-.52-.33-.19-.07-.41-.1-.64-.08-.24.02-.49.09-.76.21l-.6.27,1.35,2.98.6-.27h0Zm4.55-6.02l-1.75.99.55.97,1.69-.96.44.78-1.69.96.63,1.12,1.82-1.03.46.82-2.77,1.57-2.56-4.51,2.69-1.53.46.82h0Zm9.12-1.41l-.83.65-1.77-1.85c-.06-.06-.13-.13-.2-.2-.07-.07-.14-.15-.21-.22-.07-.07-.14-.15-.2-.22-.07-.07-.12-.13-.17-.19l-.04.03c.07.16.14.34.23.54.09.2.16.38.23.56l.97,2.46-.6.47-2.19-1.55c-.14-.1-.29-.2-.45-.32-.16-.12-.32-.24-.47-.37l-.05.04c.1.14.2.29.31.46.11.16.21.32.3.46l1.39,2.2-.77.61-2.71-4.46.95-.74,2.11,1.46c.13.09.26.18.41.29.15.1.28.2.39.29l.02-.02c-.06-.13-.12-.29-.19-.46-.07-.17-.13-.33-.18-.46l-.92-2.39.94-.74,3.7,3.69h0Zm-1.94-5.43l.7-.74,5.08,2.18-.77.81-1.13-.52-1.32,1.39.57,1.11-.75.79-2.38-5.03h0Zm2.17,2.41l.96-1.01-1.19-.54c-.14-.06-.27-.13-.39-.18-.12-.06-.23-.12-.35-.18l-.03.03c.15.24.28.48.41.73l.6,1.16h0Zm5.48-2.98c-.17.22-.36.39-.57.53-.21.14-.44.23-.69.26-.25.03-.52,0-.8-.09-.29-.09-.59-.26-.91-.52l-2.47-1.93.67-.86,2.53,1.98c.3.23.58.36.84.37.26,0,.48-.1.65-.31.11-.14.17-.27.19-.4.02-.13,0-.25-.03-.37-.04-.12-.11-.24-.21-.35-.1-.11-.21-.22-.34-.33l-2.53-1.98.67-.85,2.45,1.92c.32.25.55.5.72.75.16.25.26.5.29.75.03.25,0,.49-.08.73-.08.24-.21.48-.39.7h0Zm3.98-6.16l-.69,1.09-2.47.1-.18.29,1.72,1.09-.58.92-4.38-2.78.86-1.36c.2-.31.4-.55.6-.71.21-.17.41-.28.62-.33.2-.05.41-.06.6-.01.2.04.39.12.57.24.16.1.29.22.39.35.1.13.18.27.23.41.05.14.08.29.08.45,0,.15-.02.3-.06.45l2.71-.18h0Zm-3.9-.5c-.2-.13-.39-.17-.58-.12-.18.05-.35.18-.48.4l-.31.49,1.25.79.31-.49c.13-.21.18-.41.14-.6-.04-.19-.15-.34-.33-.46h0Zm-.4-2.59l.5-.96,4.6,2.39-.5.96-4.6-2.39h0Zm2.15-2.2l-.51,1.12-.86-.39,1.48-3.24.86.39-.52,1.13,3.86,1.76-.46,1-3.86-1.76h0Zm.68-4.32l.33-.96,5.52-.12-.36,1.06h-1.25s-.62,1.81-.62,1.81l.98.77-.36,1.04-4.25-3.59h0Zm2.98,1.29l.45-1.32h-1.31c-.16,0-.3,0-.43,0-.13,0-.26-.01-.4-.02v.04c.22.15.44.32.66.5l1.02.81h0Zm-.24-4.69c.06.01.13.02.22.03.09,0,.18.02.27.03.09.01.18.03.26.04.09.01.16.02.22.03l2.54.44-.16.92-5.11-.88.16-.92,2.44-1.05c.2-.09.38-.16.53-.22.15-.06.29-.11.4-.15.12-.04.22-.08.31-.11.09-.03.17-.05.24-.08v-.02c-.06-.01-.14-.02-.22-.03-.08-.01-.17-.02-.25-.04-.09-.01-.17-.02-.25-.03-.08-.01-.15-.02-.2-.03l-2.62-.45.16-.92,5.11.88-.16.92-2.22.96c-.25.11-.47.19-.65.27-.18.07-.33.13-.46.18-.13.05-.23.09-.32.12-.09.03-.17.06-.24.09v.03h0Zm-.91-4.55l.14-1.08,5.14.69-.14,1.08-5.14-.69h0Zm1.28-4.85l-.04,2.01,1.12.02.04-1.94.9.02-.04,1.94,1.28.02.04-2.09.94.02-.06,3.18-5.18-.1.06-3.09.94.02h0Z"/>
</svg>