<?xml version="1.0" encoding="UTF-8"?>
<svg id="Layer_1" data-name="Layer 1" xmlns="http://www.w3.org/2000/svg" viewBox="0 0 256 256">
  <defs>
    <style>
      .cls-1 {
        fill: red;
      }
    </style>
  </defs>
  <path class="cls-1" d="m145.77,148.57c-1.14,0-2.06.92-2.06,2.06v19.29c0,1.14.92,2.06,2.06,2.06s2.06-.92,2.06-2.06v-19.29c0-1.14-.92-2.06-2.06-2.06Z"/>
  <path class="cls-1" d="m214.23,139.52c0-7.39-4.92-13.65-11.66-15.67.46-.37.91-.78,1.33-1.22,5.06-5.36,4.83-13.84-.53-18.9l-49.27-46.72c-1.9-1.9-4.17-3.7-6.8-5.34,2.75-4.23,4.36-9.27,4.36-14.68,0-14.88-12.11-26.99-26.99-26.99s-26.99,12.11-26.99,26.99c0,5.41,1.61,10.45,4.36,14.68-2.42,1.52-4.55,3.17-6.35,4.91l-49.73,47.15c-5.36,5.07-5.6,13.55-.53,18.91,2.63,2.78,6.17,4.18,9.72,4.18,3.3,0,6.6-1.21,9.19-3.65l24.24-22.97v129.45c0,9.02,7.34,16.37,16.37,16.37s16.37-7.34,16.37-16.37v-61.52c1.16.13,2.29.19,3.36.19s2.2-.06,3.36-.19v61.52c0,9.02,7.34,16.37,16.37,16.37s16.37-7.34,16.37-16.37V100.19s24.23,22.97,24.23,22.97c1.21,1.14,2.57,2.01,4.02,2.61-4.51,2.92-7.51,7.99-7.51,13.75,0,1.14.92,2.06,2.06,2.06s2.06-.92,2.06-2.06c0-6.76,5.5-12.25,12.25-12.25s12.25,5.5,12.25,12.25v99.35c0,1.14.92,2.06,2.06,2.06s2.06-.92,2.06-2.06v-99.35ZM124.66,14.11c12.61,0,22.88,10.26,22.88,22.88s-10.26,22.88-22.88,22.88-22.88-10.26-22.88-22.88c0-12.61,10.26-22.88,22.88-22.88Zm-36.09,80.41l-27.07,25.65c-3.71,3.51-9.58,3.34-13.09-.37-3.51-3.71-3.34-9.58.37-13.1l39.79-37.89v25.7Zm55.15,147.35c-6.46-.33-11.58-5.69-11.58-12.24v-63.9c0-.61-.27-1.18-.74-1.58-.47-.39-1.08-.56-1.68-.45-1.79.32-3.49.48-5.06.48s-3.27-.16-5.06-.48c-.6-.11-1.21.06-1.68.45-.47.39-.74.97-.74,1.58v63.9c0,6.61-5.22,12.01-11.78,12.24v-31.74c0-1.14-.92-2.06-2.06-2.06s-2.06.92-2.06,2.06v31.2c-4.99-1.55-8.62-6.21-8.62-11.7V71.1c0-5.6,4.4-11.55,11.86-16.15,4.95,5.54,12.13,9.03,20.12,9.03s15.18-3.49,20.12-9.03c7.46,4.6,11.86,10.55,11.86,16.15v158.54c0,5.56-3.73,10.27-8.82,11.76v-51.26c0-1.14-.92-2.06-2.06-2.06s-2.06.92-2.06,2.06v51.73h0Zm17.04-173.04l39.78,37.87c3.71,3.51,3.88,9.38.37,13.09-3.51,3.71-9.38,3.88-13.09.37l-27.06-25.65v-25.69Z"/>
</svg>
