<?xml version="1.0" encoding="UTF-8"?>
<svg id="Layer_1" data-name="Layer 1" xmlns="http://www.w3.org/2000/svg" viewBox="0 0 256 256">
  <defs>
    <style>
      .cls-1 {
        fill: #010101;
        fill-rule: evenodd;
      }
    </style>
  </defs>
  <path id="news" class="cls-1" d="m40.78,244.5c-13.32,0-24.15-10.83-24.15-24.15V15.13c0-2,1.63-3.63,3.63-3.63h174.43c2,0,3.63,1.63,3.63,3.63v73.33h37.41c2,0,3.63,1.63,3.63,3.63v128.26c0,13.32-10.83,24.15-24.15,24.15H40.78Zm157.54-24.15c0,9.31,7.58,16.89,16.89,16.89s16.89-7.58,16.89-16.89v-124.63h-33.78v124.63Zm-174.43,0c0,9.31,7.58,16.89,16.89,16.89h157.06l-1.85-2.41c-3.17-4.13-4.92-9.28-4.93-14.48V18.76H23.89v201.59Zm98.98-6.63c-2,0-3.63-1.63-3.63-3.63s1.63-3.63,3.63-3.63h46.17c2,0,3.63,1.63,3.63,3.63s-1.63,3.63-3.63,3.63h-46.17Zm-76.96,0c-2,0-3.63-1.63-3.63-3.63s1.63-3.63,3.63-3.63h46.17c2,0,3.63,1.63,3.63,3.63s-1.63,3.63-3.63,3.63h-46.17Zm76.96-25.65c-2,0-3.63-1.63-3.63-3.63s1.63-3.63,3.63-3.63h46.17c2,0,3.63,1.63,3.63,3.63s-1.63,3.63-3.63,3.63h-46.17Zm-76.96,0c-2,0-3.63-1.63-3.63-3.63s1.63-3.63,3.63-3.63h46.17c2,0,3.63,1.63,3.63,3.63s-1.63,3.63-3.63,3.63h-46.17Zm76.96-25.65c-2,0-3.63-1.63-3.63-3.63s1.63-3.63,3.63-3.63h46.17c2,0,3.63,1.63,3.63,3.63s-1.63,3.63-3.63,3.63h-46.17Zm-76.96,0c-2,0-3.63-1.63-3.63-3.63s1.63-3.63,3.63-3.63h46.17c2,0,3.63,1.63,3.63,3.63s-1.63,3.63-3.63,3.63h-46.17Zm107.98-35.79c-.9,0-1.75-.34-2.4-.95-.05-.05-18.35-18.36-18.35-18.36l-10.43,10.43,2.77,2.77c1.45,1.36,1.52,3.59.19,5-.67.71-1.58,1.11-2.56,1.11-.9,0-1.75-.34-2.4-.95-.05-.04-.1-.09-.15-.15l-28.47-28.47-28.43,28.43c-.7.75-1.61,1.14-2.59,1.14-.9,0-1.75-.34-2.4-.95-.68-.64-1.08-1.51-1.11-2.45-.03-.94.31-1.83.95-2.51.05-.06,30.65-30.64,30.65-30.64l.11-.2c.08-.14.16-.28.26-.41.71-.63,1.62-.97,2.57-.97s1.86.34,2.56.97c.1.13.19.28.27.43l.1.19,22.71,22.71,12.45-12.45.11-.2c.09-.17.2-.34.33-.49.62-.77,1.53-1.2,2.51-1.2.74,0,1.44.25,2.02.71.34.27.61.6.81.98l.1.2,20.19,20.19c.72.67,1.11,1.54,1.14,2.48.03.94-.31,1.83-.95,2.51-.67.71-1.58,1.11-2.56,1.11Zm-33.58-36.03c-3.42,0-6.2-2.78-6.2-6.2s2.78-6.2,6.2-6.2,6.2,2.78,6.2,6.2-2.78,6.2-6.2,6.2Zm-48.74-35.91c-2,0-3.63-1.63-3.63-3.63s1.63-3.63,3.63-3.63h71.83c2,0,3.63,1.63,3.63,3.63s-1.63,3.63-3.63,3.63h-71.83Z"/>
</svg>