<?xml version="1.0" encoding="UTF-8"?>
<svg id="Layer_1" data-name="Layer 1" xmlns="http://www.w3.org/2000/svg" viewBox="0 0 256 256">
  <defs>
    <style>
      .cls-1 {
        fill: rgba(255, 255, 255, 0);
      }

      .cls-2 {
        fill: none;
        stroke: #212121;
        stroke-linejoin: round;
        stroke-width: 8px;
      }
    </style>
  </defs>
  <g id="Options">
    <g id="_导航图标" data-name="导航图标">
      <g id="_编组" data-name="编组">
        <rect id="_矩形" data-name="矩形" class="cls-1" x="10" y="10" width="236" height="236"/>
        <path id="_路径" data-name="路径" class="cls-2" d="m99.9,222.26c-16.48-4.91-31.14-14.01-42.75-26.08,4.33-5.13,6.94-11.77,6.94-19.01,0-16.29-13.21-29.5-29.5-29.5-.99,0-1.96.05-2.92.14-1.31-6.4-2-13.02-2-19.81,0-10.28,1.58-20.19,4.5-29.5.14,0,.28,0,.41,0,16.29,0,29.5-13.21,29.5-29.5,0-4.68-1.09-9.1-3.03-13.03,11.37-10.57,25.25-18.49,40.65-22.75,4.88,9.56,14.82,16.11,26.29,16.11s21.42-6.55,26.29-16.11c15.4,4.26,29.28,12.18,40.65,22.75-1.94,3.93-3.03,8.35-3.03,13.03,0,16.29,13.21,29.5,29.5,29.5.14,0,.28,0,.41,0,2.93,9.31,4.5,19.22,4.5,29.5,0,6.79-.69,13.41-2,19.81-.96-.09-1.93-.14-2.92-.14-16.29,0-29.5,13.21-29.5,29.5,0,7.24,2.61,13.88,6.94,19.01-11.61,12.07-26.28,21.17-42.75,26.08-3.8-11.9-14.95-20.51-28.1-20.51s-24.3,8.61-28.1,20.51Z"/>
        <path id="_路径-2" data-name="路径" class="cls-2" d="m128,162.42c19.01,0,34.42-15.41,34.42-34.42s-15.41-34.42-34.42-34.42-34.42,15.41-34.42,34.42,15.41,34.42,34.42,34.42Z"/>
      </g>
    </g>
  </g>
</svg>