<?xml version="1.0" encoding="UTF-8"?>
<svg id="Layer_1" data-name="Layer 1" xmlns="http://www.w3.org/2000/svg" viewBox="0 0 256 256">
  <defs>
    <style>
      .cls-1 {
        fill: #010101;
      }
    </style>
  </defs>
  <path class="cls-1" d="m193.33,142.23c-28.54,0-51.77,23.22-51.77,51.77s23.22,51.77,51.77,51.77,51.77-23.22,51.77-51.77c0-28.54-23.22-51.77-51.77-51.77Zm0,93.45c-22.98,0-41.68-18.7-41.68-41.68s18.7-41.68,41.68-41.68,41.68,18.7,41.68,41.68c0,22.98-18.7,41.68-41.68,41.68Z"/>
  <path class="cls-1" d="m209.09,168.43c-2.37-1.46-5.48-.72-6.94,1.65l-26.23,42.55c-1.46,2.37-.72,5.48,1.65,6.94.82.51,1.74.75,2.64.75,1.69,0,3.34-.85,4.3-2.4l26.23-42.55c1.46-2.37.72-5.48-1.65-6.94h0Z"/>
  <path class="cls-1" d="m49.36,210.2l-.77-.48c-4.18-2.62-7.09-6.71-8.2-11.53-1.11-4.82-.28-9.78,2.34-13.96,1.48-2.36.76-5.47-1.6-6.95-2.36-1.48-5.47-.76-6.95,1.6-4.05,6.46-5.33,14.13-3.62,21.57,1.71,7.45,6.22,13.78,12.68,17.82l.77.48c.83.52,1.76.77,2.67.77,1.68,0,3.32-.84,4.28-2.37,1.48-2.36.76-5.47-1.6-6.95Z"/>
  <path class="cls-1" d="m152.25,44.1l.77.48c8.65,5.41,11.28,16.85,5.87,25.5-1.48,2.36-.76,5.47,1.6,6.95.83.52,1.76.77,2.67.77,1.68,0,3.32-.84,4.28-2.37,8.36-13.36,4.3-31.03-9.06-39.39l-.77-.48c-2.36-1.48-5.47-.76-6.95,1.6s-.76,5.47,1.6,6.95h0Z"/>
  <path class="cls-1" d="m143.59,153.93s0,0,0,0l42.01-67.13c7.09-11.33,9.34-24.73,6.35-37.75-3-13.02-10.88-24.09-22.21-31.18l-.77-.48c-7.97-4.99-17.13-7.63-26.49-7.63-17.37,0-33.24,8.78-42.44,23.49L16,167.5c-7.09,11.33-9.34,24.73-6.35,37.75,3,13.02,10.88,24.09,22.21,31.18l.77.48c7.97,4.99,17.13,7.63,26.49,7.63,17.37,0,33.24-8.78,42.44-23.49l42.01-67.13s0,0,0,0h0Zm-35-115.34c7.35-11.74,20.02-18.75,33.89-18.75,7.47,0,14.78,2.11,21.14,6.09l.77.48c9.04,5.66,15.34,14.5,17.73,24.9,2.39,10.4.59,21.1-5.07,30.14l-39.34,62.85-68.47-42.86,39.34-62.85Zm-15.56,177.11c-7.35,11.74-20.02,18.75-33.89,18.75-7.47,0-14.78-2.11-21.14-6.09l-.77-.48c-9.04-5.66-15.34-14.5-17.73-24.9-2.39-10.4-.59-21.1,5.07-30.14l39.34-62.85,68.47,42.86-39.34,62.85h0Z"/>
</svg>