<?xml version="1.0" encoding="UTF-8"?>
<svg id="Layer_1" data-name="Layer 1" xmlns="http://www.w3.org/2000/svg" viewBox="0 0 256 256">
  <defs>
    <style>
      .cls-1 {
        fill: #010101;
      }
    </style>
  </defs>
  <path class="cls-1" d="m120.63,242c-58.79,0-106.62-47.83-106.62-106.62,0-54.17,41.26-99.95,94.64-105.95l.5,6.73c-49.88,5.72-88.39,48.55-88.39,99.22,0,55.07,44.8,99.87,99.87,99.87,51.03,0,93.89-38.81,99.29-89.08l6.74.45c-5.64,53.8-51.46,95.38-106.03,95.38Zm11.62-117.76V14.01h3.38c58.65.13,106.36,47.96,106.36,106.61v3.51l-3.46.12h-106.28Zm6.75-6.75h96.33l-.3-4.28c-3.42-48.67-42.85-88.27-91.71-92.13l-4.31-.34v96.75Z"/>
</svg>