<?xml version="1.0" encoding="UTF-8"?>
<svg id="Layer_1" data-name="Layer 1" xmlns="http://www.w3.org/2000/svg" viewBox="0 0 256 256">
  <defs>
    <style>
      .cls-1 {
        fill: #fcd50e;
      }
    </style>
  </defs>
  <path class="cls-1" d="m220.16,238.64c-1.72,0-3.12-1.4-3.12-3.12v-89.28l-1.71-.25c-16.54-2.39-29.01-16.73-29.01-33.35s12.47-30.96,29.01-33.35l1.71-.25V20.48c0-1.72,1.4-3.12,3.12-3.12s3.12,1.4,3.12,3.12v58.56l1.71.25c16.54,2.39,29.01,16.73,29.01,33.35s-12.47,30.96-29.01,33.35l-1.71.25v89.28c0,1.72-1.4,3.12-3.12,3.12Zm0-153.6c-15.22,0-27.6,12.38-27.6,27.6s12.38,27.6,27.6,27.6,27.6-12.38,27.6-27.6-12.38-27.6-27.6-27.6Zm-92.16,153.6c-1.72,0-3.12-1.4-3.12-3.12v-27.84l-1.71-.25c-16.54-2.39-29.01-16.73-29.01-33.35s12.47-30.96,29.01-33.35l1.71-.25V20.48c0-1.72,1.4-3.12,3.12-3.12s3.12,1.4,3.12,3.12v120l1.71.25c16.54,2.39,29.01,16.73,29.01,33.35s-12.47,30.96-29.01,33.35l-1.71.25v27.84c0,1.72-1.4,3.12-3.12,3.12Zm0-92.16c-15.22,0-27.6,12.38-27.6,27.6s12.38,27.6,27.6,27.6,27.6-12.38,27.6-27.6-12.38-27.6-27.6-27.6Zm-92.16,92.16c-1.72,0-3.12-1.4-3.12-3.12v-120l-1.71-.25C14.47,112.88,2,98.54,2,81.92s12.47-30.96,29.01-33.35l1.71-.25v-27.84c0-1.72,1.4-3.12,3.12-3.12s3.12,1.4,3.12,3.12v27.84l1.71.25c16.54,2.39,29.01,16.73,29.01,33.35s-12.47,30.96-29.01,33.35l-1.71.25v120c0,1.72-1.4,3.12-3.12,3.12Zm0-184.32c-15.22,0-27.6,12.38-27.6,27.6s12.38,27.6,27.6,27.6,27.6-12.38,27.6-27.6-12.38-27.6-27.6-27.6Z"/>
</svg>
