<?xml version="1.0" encoding="UTF-8"?>
<svg id="Layer_1" data-name="Layer 1" xmlns="http://www.w3.org/2000/svg" viewBox="0 0 256 256">
  <defs>
    <style>
      .cls-1 {
        fill: #1d1d1b;
      }
    </style>
  </defs>
  <path class="cls-1" d="m224.41,175.6v-14.75H30.66v14.75h-5.38v-14.75h-14.75v-31.19h234v31.19h-14.75v14.75h-5.38ZM15.91,155.47h223.25v-20.44H15.91v20.44Z"/>
  <path class="cls-1" d="m18.1,123.97c.48-7.03,5.96-12.59,12.64-12.59h151.11v5.06H30.74c-3.89,0-7.11,3.3-7.56,7.53h-5.08Z"/>
  <path class="cls-1" d="m231.78,123.97v-2.09c0-4.95-4.03-8.98-8.98-8.98h-20.92c-4.95,0-8.98,4.03-8.98,8.98v2.09h-5.38v-2.09c0-7.91,6.44-14.35,14.35-14.35h20.92c7.91,0,14.35,6.44,14.35,14.35v2.09h-5.38Z"/>
</svg>