<?xml version="1.0" encoding="UTF-8"?>
<svg id="Layer_1" data-name="Layer 1" xmlns="http://www.w3.org/2000/svg" viewBox="0 0 256 256">
  <defs>
    <style>
      .cls-1 {
        fill: #010101;
      }
    </style>
  </defs>
  <path class="cls-1" d="m212.79,216.02c-6.33,0-12.69-1.74-18.92-5.16l-1.49-.75c-19.52-10.62-34.24-35.66-34.24-58.27v-9.32l-30.14-24.44-30.14,24.44v9.32c0,22.61-14.71,47.65-34.24,58.27l-1.49.75c-6.22,3.42-12.59,5.16-18.92,5.16-7.7,0-14.54-2.77-19.78-8.01-6.55-6.88-9.74-16.13-9.43-27.44l1.06-61.86c.33-27.84,22.07-52.24,46.52-52.24h1.06c19.87,0,34.86,17.11,34.86,39.8v28.55l27.08-22.06V39.98h6.13v72.79l27.43,22.44v-28.58c0-22.69,14.99-39.8,34.86-39.8h1.06c24.45,0,46.19,24.4,46.52,52.21l1.41,61.51c0,11.77-3.26,21.29-9.43,27.46-5.24,5.24-12.08,8.01-19.78,8.01Zm-16.33-10.11c5.29,2.84,10.81,4.33,15.97,4.33,5.94,0,11.19-2.12,15.19-6.12,5.33-5.33,7.94-13.33,7.53-23.13l-1.06-61.72c-.4-27.29-21.6-46.32-40.38-46.32h-1.06c-16.38,0-28.73,14.48-28.73,33.67v45.92c0,20.04,13.64,43.15,31.06,52.62l1.48.74ZM61.25,72.6c-18.74,0-40,19.81-40.39,46.33l-1.06,61.81c-.37,9.3,2.19,17.25,7.42,22.92l.11.11c4.07,4.07,9.47,6.22,15.62,6.22,5.12,0,10.62-1.54,15.92-4.45l1.34-.67c17.51-9.14,31.18-32.26,31.18-52.68v-4h-.35v-41.92c0-19.2-12.35-33.67-28.73-33.67h-1.06Z"/>
</svg>