<?xml version="1.0" encoding="UTF-8"?>
<svg id="Layer_1" data-name="Layer 1" xmlns="http://www.w3.org/2000/svg" viewBox="0 0 256 256">
  <defs>
    <style>
      .cls-1 {
        fill: #010101;
        fill-rule: evenodd;
      }
    </style>
  </defs>
  <path class="cls-1" d="m15.8,233.9c-2.1,0-3.8-1.71-3.8-3.8s1.71-3.8,3.8-3.8h24.25v-53.04H15.8c-2.1,0-3.8-1.71-3.8-3.8v-105.38c0-17.56,14.29-31.85,31.85-31.85h19.79c19.92,0,37,14.87,39.73,34.58l.24,1.73h24.39c2.1,0,3.8,1.71,3.8,3.8s-1.71,3.8-3.8,3.8h-56.1c-2.1,0-3.8-1.71-3.8-3.8s1.71-3.8,3.8-3.8h24.12l-.46-2.38c-2.95-15.25-16.37-26.33-31.92-26.33h-19.79c-13.37,0-24.25,10.88-24.25,24.25v101.57h220.6c2.1,0,3.8,1.71,3.8,3.8s-1.71,3.8-3.8,3.8h-24.25v53.04h24.25c2.1,0,3.8,1.71,3.8,3.8s-1.71,3.8-3.8,3.8H15.8Zm31.85-7.6h160.7v-53.04H47.65v53.04Zm9.98-76.02c-12.92,0-23.43-10.51-23.43-23.43s10.51-23.43,23.43-23.43,23.43,10.51,23.43,23.43-10.51,23.43-23.43,23.43Zm0-39.26c-8.73,0-15.83,7.1-15.83,15.83s7.1,15.83,15.83,15.83,15.83-7.1,15.83-15.83-7.1-15.83-15.83-15.83Zm36.32,39.26c-2.1,0-3.8-1.71-3.8-3.8s1.71-3.8,3.8-3.8h142.45v-10.77c0-2.1,1.71-3.8,3.8-3.8s3.8,1.71,3.8,3.8v14.57c0,2.1-1.71,3.8-3.8,3.8H93.95Zm58-18.59c-.6,0-1.17-.14-1.71-.41-1.87-.94-2.63-3.24-1.68-5.11,4.09-8.1,11.39-18.87,27.49-18.87h12.01c16.1,0,23.4,10.77,27.49,18.87.46.91.53,1.94.22,2.9-.32.96-.99,1.75-1.9,2.2-.54.27-1.11.41-1.71.41-1.45,0-2.75-.8-3.4-2.09-5.2-10.3-11.39-14.7-20.7-14.7h-12.01c-9.31,0-15.5,4.4-20.7,14.7-.65,1.29-1.95,2.09-3.4,2.09h0Zm28.39-35.89c-6.83,0-13.26-2.67-18.1-7.51s-7.51-11.27-7.51-18.1c0-10.6,6.65-20.23,16.56-23.97l1.13-.43.15-1.2c1.56-12.82,12.49-22.49,25.42-22.49,14.12,0,25.61,11.49,25.61,25.61,0,10.58-6.66,20.21-16.56,23.96l-1.13.43-.15,1.2c-1.56,12.83-12.49,22.5-25.42,22.5h0Zm-9.57-40.88c-5.29,3.32-8.44,9.03-8.44,15.27,0,9.93,8.08,18.01,18.01,18.01,7.78,0,14.65-4.96,17.1-12.35l.8-2.4-2.52-.22c-10.11-.88-18.73-7.66-21.99-17.25l-.81-2.4-2.14,1.35Zm27.45,10.8c.63,0,1.27-.05,1.89-.12l.14-.02c8.98-1.13,15.75-8.81,15.75-17.87,0-9.93-8.08-18.01-18.01-18.01-9.93,0-18.01,8.08-18.01,18.01,0,.29,0,.57.02.85v.12c.51,9.51,8.37,16.99,17.9,17.04h.32Zm-.23-13.6c-2.43,0-4.42-1.98-4.42-4.41s1.98-4.41,4.42-4.41,4.41,1.98,4.41,4.41-1.98,4.41-4.41,4.41Z"/>
</svg>