<?xml version="1.0" encoding="UTF-8"?>
<svg id="Layer_1" data-name="Layer 1" xmlns="http://www.w3.org/2000/svg" viewBox="0 0 256 256">
  <defs>
    <style>
      .cls-1 {
        fill: #010101;
      }
    </style>
  </defs>
  <g id="s-surgery">
    <g>
      <path class="cls-1" d="m39.31,236.21c-9.59,0-18.61-3.74-25.4-10.53-.59-.59-.91-1.37-.91-2.2s.32-1.61.91-2.2l41.77-41.77v-4.24s-.88-.88-.88-.88c-1.19-1.19-1.22-3.08-.09-4.31L183.3,30.86c6.59-7.14,15.57-11.07,25.27-11.07,9.19,0,17.84,3.58,24.34,10.09,6.69,6.69,10.27,15.57,10.08,25.01-.19,9.44-4.12,18.18-11.07,24.6L92.72,208.07c-.58.53-1.33.83-2.11.83h0c-.83,0-1.61-.32-2.2-.91l-.88-.88h-4.24s-18.58,18.57-18.58,18.57c-6.79,6.79-15.81,10.53-25.4,10.53Zm-16.18-15.35l.54,4.67c4.68,2.9,10.09,4.44,15.64,4.44,7.94,0,15.4-3.08,21-8.69l18.57-18.57v-4.24l-14.56-14.56h-4.24l-36.95,36.95ZM208.56,26.02c-7.94,0-15.29,3.22-20.69,9.07L63.27,169.98l.07,4.15c.07.07,25.07,25.07,25.31,25.31l4.16.08,134.89-124.6c5.69-5.26,8.91-12.41,9.07-20.15.15-7.74-2.78-15.02-8.26-20.5-5.33-5.33-12.41-8.26-19.95-8.26Z"/>
      <path class="cls-1" d="m208.89,61.46c-4.17,0-7.57-3.39-7.57-7.57s3.39-7.57,7.57-7.57,7.57,3.4,7.57,7.57-3.4,7.57-7.57,7.57Z"/>
    </g>
  </g>
</svg>