<?xml version="1.0" encoding="UTF-8"?>
<svg id="Layer_1" data-name="Layer 1" xmlns="http://www.w3.org/2000/svg" viewBox="0 0 256 256">
  <defs>
    <style>
      .cls-1 {
        fill: #010101;
      }
    </style>
  </defs>
  <path class="cls-1" d="m241.53,77.99c-2.6,0-4.7,2.11-4.7,4.7v28.21H91.06v-5.26c0-11.36-9.24-20.6-20.6-20.6h-26.97c-11.36,0-20.6,9.24-20.6,20.6v5.26h-3.26v-28.21c0-2.6-2.1-4.7-4.7-4.7-2.6,0-4.7,2.11-4.7,4.7v111.42c0,2.6,2.1,4.7,4.7,4.7s4.7-2.11,4.7-4.7v-39.02h217.2v39.02c0,2.6,2.1,4.7,4.7,4.7s4.7-2.11,4.7-4.7v-111.42c0-2.6-2.1-4.7-4.7-4.7Zm-209.24,27.65h0c0-6.17,5.02-11.19,11.19-11.19h26.97c6.17,0,11.19,5.02,11.19,11.19v5.26h-49.36v-5.26Zm-12.66,40.05v-25.39h72.03l-25.39,25.39H19.64Zm217.2,0H79.58l25.39-25.39h131.86v25.39h0Z"/>
</svg>